<svg height="464pt" viewBox="0 0 464 464" width="464pt" xmlns="http://www.w3.org/2000/svg"><path d="m368 416h-80v-56.6875c38.046875-24.113281 64-72.066406 64-127.3125 0-79.527344-53.726562-144-120-144s-120 64.472656-120 144c0 55.246094 25.953125 103.199219 64 127.3125v56.6875h-80c-17.671875 0-32 14.328125-32 32v16h336v-16c0-17.671875-14.328125-32-32-32zm0 0" fill="#ffd782"/><g fill="#5a6470"><path d="m152 96c0 30.929688-25.070312 56-56 56s-56-25.070312-56-56 25.070312-56 56-56 56 25.070312 56 56zm0 0"/><path d="m112 208c0 30.929688-25.070312 56-56 56s-56-25.070312-56-56 25.070312-56 56-56 56 25.070312 56 56zm0 0"/><path d="m128 320c0 30.929688-25.070312 56-56 56s-56-25.070312-56-56 25.070312-56 56-56 56 25.070312 56 56zm0 0"/><path d="m424 96c0 30.929688-25.070312 56-56 56s-56-25.070312-56-56 25.070312-56 56-56 56 25.070312 56 56zm0 0"/><path d="m464 208c0 30.929688-25.070312 56-56 56s-56-25.070312-56-56 25.070312-56 56-56 56 25.070312 56 56zm0 0"/><path d="m448 320c0 30.929688-25.070312 56-56 56s-56-25.070312-56-56 25.070312-56 56-56 56 25.070312 56 56zm0 0"/><path d="m144 0h176v96h-176zm0 0"/><path d="m232 184c-4.417969 0-8-3.582031-8-8v-88c0-4.417969 3.582031-8 8-8s8 3.582031 8 8v88c0 4.417969-3.582031 8-8 8zm0 0"/><path d="m200 184c-4.417969 0-8-3.582031-8-8 .90625-27.253906 3.613281-54.417969 8.113281-81.3125.835938-4.242188 4.894531-7.050781 9.160157-6.339844 4.265624.707032 7.195312 4.679688 6.613281 8.964844-4.3125 26.03125-6.945313 52.316406-7.886719 78.6875 0 4.417969-3.582031 8-8 8zm0 0"/><path d="m168 184c-4.417969 0-8-3.582031-8-8 1.242188-24.578125 3.949219-49.058594 8.113281-73.3125.390625-2.890625 2.324219-5.335938 5.042969-6.386719s5.792969-.539062 8.027344 1.335938 3.269531 4.816406 2.703125 7.675781c-3.980469 23.390625-6.613281 46.992188-7.886719 70.6875 0 4.417969-3.582031 8-8 8zm0 0"/><path d="m264 184c-4.417969 0-8-3.582031-8-8-.941406-26.371094-3.574219-52.65625-7.886719-78.6875-.582031-4.285156 2.347657-8.257812 6.613281-8.964844 4.265626-.710937 8.324219 2.097656 9.160157 6.339844 4.5 26.894531 7.207031 54.058594 8.113281 81.3125 0 4.417969-3.582031 8-8 8zm0 0"/><path d="m296 184c-4.417969 0-8-3.582031-8-8-1.273438-23.695312-3.90625-47.296875-7.886719-70.6875-.566406-2.859375.46875-5.800781 2.703125-7.675781s5.308594-2.386719 8.027344-1.335938 4.652344 3.496094 5.042969 6.386719c4.164062 24.253906 6.871093 48.734375 8.113281 73.3125 0 4.417969-3.582031 8-8 8zm0 0"/><path d="m180.953125 244.511719c-13.003906-.390625-25.371094-5.699219-34.609375-14.855469-2.839844-3.15625-2.722656-7.976562.269531-10.992188 2.988281-3.011718 7.8125-3.164062 10.988281-.34375 5.753907 6.246094 13.859376 9.800782 22.355469 9.800782 8.492188 0 16.597657-3.554688 22.355469-9.800782 3.136719-3.03125 8.128906-2.988281 11.214844.097657 3.085937 3.085937 3.128906 8.074219.097656 11.214843-8.394531 9.222657-20.203125 14.601563-32.671875 14.878907zm0 0"/><path d="m284.953125 244.511719c-13.003906-.390625-25.371094-5.699219-34.609375-14.855469-2.839844-3.15625-2.722656-7.976562.269531-10.992188 2.988281-3.011718 7.8125-3.164062 10.988281-.34375 5.753907 6.246094 13.859376 9.800782 22.355469 9.800782 8.492188 0 16.597657-3.554688 22.355469-9.800782 3.136719-3.03125 8.128906-2.988281 11.214844.097657 3.085937 3.085937 3.128906 8.074219.097656 11.214843-8.394531 9.222657-20.203125 14.601563-32.671875 14.878907zm0 0"/><path d="m233.0625 318.289062c-14.546875-.4375-28.386719-6.382812-38.71875-16.632812-3.035156-3.136719-3-8.125.082031-11.214844s8.070313-3.140625 11.214844-.113281c2.75 2.703125 27.304687 25.40625 52.703125 0 3.140625-3.03125 8.128906-2.988281 11.214844.097656 3.085937 3.085938 3.128906 8.074219.097656 11.214844-9.402344 10.328125-22.628906 16.34375-36.59375 16.648437zm0 0"/></g><path d="m120 96c0 13.253906-10.746094 24-24 24s-24-10.746094-24-24 10.746094-24 24-24 24 10.746094 24 24zm0 0" fill="#db527d"/><path d="m80 208c0 13.253906-10.746094 24-24 24s-24-10.746094-24-24 10.746094-24 24-24 24 10.746094 24 24zm0 0" fill="#db527d"/><path d="m96 320c0 13.253906-10.746094 24-24 24s-24-10.746094-24-24 10.746094-24 24-24 24 10.746094 24 24zm0 0" fill="#db527d"/><path d="m392 96c0 13.253906-10.746094 24-24 24s-24-10.746094-24-24 10.746094-24 24-24 24 10.746094 24 24zm0 0" fill="#db527d"/><path d="m432 208c0 13.253906-10.746094 24-24 24s-24-10.746094-24-24 10.746094-24 24-24 24 10.746094 24 24zm0 0" fill="#db527d"/><path d="m416 320c0 13.253906-10.746094 24-24 24s-24-10.746094-24-24 10.746094-24 24-24 24 10.746094 24 24zm0 0" fill="#db527d"/><path d="m200 0h64v96h-64zm0 0" fill="#db527d"/></svg>