<svg height="512pt" viewBox="0 0 512 512" width="512pt" xmlns="http://www.w3.org/2000/svg"><path d="m283.800781 359.898438c-3.601562 3.601562-53.699219 53.699218-94.5 94.5-28.800781 28.800781-53.101562 53.101562-53.101562 53.101562-3 3-6.597657 4.5-10.800781 4.5h-110.398438c-8.402344 0-15-6.601562-15-15v-150c0-8.402344 6.597656-15 15-15h24.902344l116.097656-87c2.699219-1.800781 5.699219-3 9-3h30c8.402344 0 15 6.597656 15 15v45.300781l-68.699219 58.796875c-6.601562 5.402344-7.203125 15-1.199219 21.902344 5.699219 5.699219 14.699219 6.300781 20.699219.898438 3.898438-3.300782 10.5-9 18-15.601563.597657-.296875 1.199219-.898437 1.800781-1.800781 23.097657-19.195313 55.199219-46.5 61.199219-51.898438 14.101563-12 35.699219-9 45.898438 6.300782 8.101562 12.300781 6.601562 28.5-3.898438 39zm0 0" fill="#ffb99c"/><path d="m345 60c-16.539062 0-30-13.460938-30-30s13.460938-30 30-30 30 13.460938 30 30-13.460938 30-30 30zm0 0" fill="#faaaaa"/><g fill="#fdd0d0"><path d="m255 77c-16.539062 0-30-13.460938-30-30s13.460938-30 30-30 30 13.460938 30 30-13.460938 30-30 30zm0 0"/><path d="m180 122c-16.539062 0-30-13.460938-30-30s13.460938-30 30-30 30 13.460938 30 30-13.460938 30-30 30zm0 0"/><path d="m150 197c-16.539062 0-30-13.460938-30-30s13.460938-30 30-30 30 13.460938 30 30-13.460938 30-30 30zm0 0"/></g><path d="m452 120c-33.089844 0-60-26.910156-60-60s26.910156-60 60-60 60 26.910156 60 60-26.910156 60-60 60zm0 0" fill="#faaaaa"/><path d="m420 182c-.300781 24.300781-9.902344 47.699219-27.300781 64.199219-17.699219 16.5-23.699219 9.898437-29.398438 27.300781-6.898437 21.597656-1.5 63.898438 1.199219 88.800781 2.699219 23.699219 5.699219 50.699219 4.800781 74.097657-1.5 37.203124-14.101562 68.101562-50.699219 74.402343-4.800781.898438-9.601562 1.199219-14.703124 1.199219h-3.898438c-20.398438-.902344-42.898438-8.101562-61.199219-22.800781s-31.5-35.398438-36.902343-59.101563c-1.199219-10.199218-18.296876-141.597656-20.097657-158.097656-3.300781-36 7.199219-72.300781 23.699219-99 21-34.5 54-57.597656 90.601562-68.101562 1.199219-.300782 2.699219-.601563 3.898438-.898438 25.199219-6.902344 58.199219-8.101562 79.199219 3.300781 26.101562 14.398438 41.402343 42.296875 40.800781 74.699219zm0 0" fill="#fdd0d0"/><path d="m283.800781 359.898438c-3.601562 3.601562-53.699219 53.699218-94.5 94.5-.601562-9.300782-1.199219-18.300782-1.800781-21 0 0-.300781-.296876-.300781-.597657v-.300781c-1.5-10.800781-4.796875-36.601562-8.398438-64.199219.597657-.300781 1.199219-.902343 1.800781-1.800781 23.097657-19.199219 55.199219-46.5 61.199219-51.898438 14.101563-12.003906 35.699219-9 45.898438 6.300782 8.101562 12.296875 6.601562 28.496094-3.898438 38.996094zm0 0" fill="#ffb99c"/><path d="m420 182c-.300781 24.300781-9.902344 47.699219-27.300781 64.199219-17.699219 16.5-23.699219 9.898437-29.398438 27.300781-6.898437 21.597656-1.5 63.898438 1.199219 88.800781 2.699219 23.699219 5.699219 50.699219 4.800781 74.097657-1.5 37.203124-14.101562 68.101562-50.699219 74.402343-4.800781.898438-9.601562 1.199219-14.703124 1.199219h-3.898438v-408c25.199219-6.898438 58.199219-8.101562 79.199219 3.300781 26.101562 14.398438 41.402343 42.296875 40.800781 74.699219zm0 0" fill="#faaaaa"/></svg>