<?xml version="1.0"?>
<svg xmlns="http://www.w3.org/2000/svg" height="512px" viewBox="-16 0 480 480.00003" width="512px"><path d="m352 0c-20.484375.0078125-40.421875 6.613281-56.863281 18.832031l-151.824219 13.167969c-4.148438.359375-7.328125 3.835938-7.3125 8v96c-.015625 4.164062 3.164062 7.640625 7.3125 8l133.550781 11.617188c7.507813 9.417968 16.710938 17.351562 27.136719 23.390624v172.992188c0 4.417969 3.582031 8 8 8v24c0 4.417969 3.582031 8 8 8h8v40h-88v-136c-.027344-22.082031-17.917969-39.972656-40-40h-96c-22.082031.027344-39.972656 17.917969-40 40v160c0 13.253906 10.746094 24 24 24s24-10.746094 24-24v-152h80v136c.027344 22.082031 17.917969 39.972656 40 40h104c22.082031-.027344 39.972656-17.917969 40-40v-48h8c4.417969 0 8-3.582031 8-8v-24c4.417969 0 8-3.582031 8-8v-172.992188c37.625-21.703124 55.96875-65.976562 44.71875-107.929687s-49.285156-71.109375-92.71875-71.078125zm-184 130.054688-16-1.390626v-81.328124l16-1.390626zm16 1.394531v-86.898438l92.800781-8.070312c-23.175781 29.03125-27.363281 68.886719-10.730469 102.105469zm176 308.550781c0 13.253906-10.746094 24-24 24h-104c-13.253906 0-24-10.746094-24-24v-144c0-4.417969-3.582031-8-8-8h-96c-4.417969 0-8 3.582031-8 8v160c0 4.417969-3.582031 8-8 8s-8-3.582031-8-8v-160c0-13.253906 10.746094-24 24-24h96c13.253906 0 24 10.746094 24 24v144c0 4.417969 3.582031 8 8 8h104c4.417969 0 8-3.582031 8-8v-48h16zm16-64h-48v-16h48zm8-32h-64v-157.601562c20.679688 7.46875 43.320312 7.46875 64 0zm-32-168c-44.183594 0-80-35.816406-80-80s35.816406-80 80-80 80 35.816406 80 80c-.046875 44.164062-35.835938 79.953125-80 80zm0 0" fill="#d80027"/><path d="m352 32c-35.347656 0-64 28.652344-64 64s28.652344 64 64 64 64-28.652344 64-64c-.039062-35.328125-28.671875-63.960938-64-64zm0 112c-26.507812 0-48-21.492188-48-48s21.492188-48 48-48 48 21.492188 48 48c-.027344 26.5-21.5 47.972656-48 48zm0 0" fill="#d80027"/><path d="m368 72h-32c-4.417969 0-8 3.582031-8 8s3.582031 8 8 8h32c4.417969 0 8-3.582031 8-8s-3.582031-8-8-8zm0 0" fill="#d80027"/><path d="m368 104h-32c-4.417969 0-8 3.582031-8 8s3.582031 8 8 8h32c4.417969 0 8-3.582031 8-8s-3.582031-8-8-8zm0 0" fill="#d80027"/><path d="m8 48c16.871094-.378906 33.675781 2.210938 49.648438 7.648438 17.496093 5.90625 35.886718 8.730468 54.351562 8.351562 4.417969 0 8-3.582031 8-8s-3.582031-8-8-8c-16.871094.378906-33.675781-2.210938-49.648438-7.648438-17.496093-5.90625-35.886718-8.730468-54.351562-8.351562-4.417969 0-8 3.582031-8 8s3.582031 8 8 8zm0 0" fill="#d80027"/><path d="m8 80c16.871094-.378906 33.675781 2.210938 49.648438 7.648438 17.496093 5.90625 35.886718 8.730468 54.351562 8.351562 4.417969 0 8-3.582031 8-8s-3.582031-8-8-8c-16.871094.378906-33.675781-2.210938-49.648438-7.648438-17.496093-5.90625-35.886718-8.730468-54.351562-8.351562-4.417969 0-8 3.582031-8 8s3.582031 8 8 8zm0 0" fill="#d80027"/><path d="m112 128c4.417969 0 8-3.582031 8-8s-3.582031-8-8-8c-16.871094.378906-33.675781-2.210938-49.648438-7.648438-17.496093-5.90625-35.886718-8.730468-54.351562-8.351562-4.417969 0-8 3.582031-8 8s3.582031 8 8 8c16.871094-.378906 33.675781 2.210938 49.648438 7.648438 17.496093 5.90625 35.886718 8.730468 54.351562 8.351562zm0 0" fill="#d80027"/><path d="m352 280c0 4.417969 3.582031 8 8 8s8-3.582031 8-8v-64c0-4.417969-3.582031-8-8-8s-8 3.582031-8 8zm0 0" fill="#d80027"/><path d="m360 304c-4.417969 0-8 3.582031-8 8v8c0 4.417969 3.582031 8 8 8s8-3.582031 8-8v-8c0-4.417969-3.582031-8-8-8zm0 0" fill="#d80027"/></svg>
