<?xml version="1.0"?>
<svg xmlns="http://www.w3.org/2000/svg" height="512px" viewBox="-150 -20 640 640.0014" width="512px"><path d="m211.164062 600h89.9375c16.554688 0 29.976563-13.421875 29.976563-29.976562v-259.824219c0-5.519531-4.472656-9.992188-9.992187-9.992188v-109.925781c0-5.519531-4.472657-9.992188-9.992188-9.992188v-99.933593c1.171875-22-7.421875-43.394531-23.484375-58.480469-29.476563-26.390625-75.597656-21.625-77.546875-21.40625-5.0625.5625-8.894531 4.84375-8.894531 9.9375v169.882812c-5.519531 0-9.992188 4.472657-9.992188 9.992188v109.925781c-5.519531 0-9.992187 4.472657-9.992187 9.992188v259.824219c0 16.554687 13.421875 29.976562 29.980468 29.976562zm99.929688-29.976562c0 5.515624-4.472656 9.992187-9.992188 9.992187h-89.9375c-5.519531 0-9.996093-4.476563-9.996093-9.992187v-249.832032h109.925781zm-99.929688-369.75h89.9375v59.960937h-89.9375zm69.949219-155.703126c.648438.914063 1.144531 2 1.71875 2.910157 1.277344 2.054687 2.394531 4.195312 3.347657 6.414062.53125 1.25.949218 2.578125 1.390624 3.898438.765626 2.289062 1.390626 4.628906 1.867188 6.992187.296875 1.480469.570312 3.003906.78125 4.519532.128906.941406.136719 2 .230469 2.910156-16.269531 3.691406-33.335938.3125-46.96875-9.308594-12.132813-11.195312-19.761719-26.433594-21.464844-42.859375l1.878906.054687c1 0 1.941407 0 3 .105469 1.058594.113281 1.996094.140625 2.996094.21875 1 .085938 2.058594.152344 3.15625.265625 1.097656.105469 2.277344.308594 3.429687.46875 1.148438.160156 2.148438.269532 3.253907.457032 1.261719.210937 2.5625.519531 3.839843.792968 1.070313.226563 2.128907.417969 3.207032.6875 1.390625.339844 2.777344.800782 4.175781 1.230469 1 .296875 2 .558594 3.003906.90625 1.464844.511719 2.90625 1.160156 4.355469 1.78125.925781.390625 1.867188.707031 2.777344 1.144531 1.566406.753906 3.066406 1.660156 4.574218 2.554688.75.4375 1.539063.800781 2.269532 1.265625 2.234375 1.445312 4.355468 3.0625 6.335937 4.835937 2.566407 2.320313 4.863281 4.917969 6.84375 7.753906zm-59.957031 24.152344c2.917969 3.554688 6.1875 6.792969 9.761719 9.679688 13.050781 10.125 29.21875 15.378906 45.730469 14.855468 4.835937-.042968 9.667968-.394531 14.457031-1.058593v88.089843h-69.949219zm-9.992188 211.496094h89.9375v19.988281h-89.9375zm0 0" fill="#d80027"/><path d="m231.148438 520.054688c5.519531 0 9.992187-4.472657 9.992187-9.992188v-159.890625c0-5.519531-4.472656-9.992187-9.992187-9.992187-5.519532 0-9.992188 4.472656-9.992188 9.992187v159.890625c0 5.519531 4.472656 9.992188 9.992188 9.992188zm0 0" fill="#d80027"/><path d="m1.304688 600h129.914062c5.515625 0 9.992188-4.472656 9.992188-9.992188v-279.808593c0-16.554688-13.425782-29.980469-29.980469-29.980469h-89.9375c-16.558594 0-29.980469 13.425781-29.980469 29.980469v279.808593c0 5.519532 4.472656 9.992188 9.992188 9.992188zm9.996093-289.800781c0-5.519531 4.472657-9.992188 9.992188-9.992188h89.9375c5.519531 0 9.992187 4.472657 9.992187 9.992188v269.816406h-109.921875zm0 0" fill="#d80027"/><path d="m231.148438 560.027344c1.308593-.011719 2.597656-.285156 3.796874-.796875 1.210938-.507813 2.328126-1.21875 3.296876-2.101563 3.867187-3.9375 3.867187-10.246094 0-14.1875-2.40625-2.332031-5.800782-3.339844-9.09375-2.699218-.625.109374-1.230469.3125-1.796876.601562-.636718.21875-1.25.519531-1.808593.898438l-1.488281 1.199218c-3.867188 3.941406-3.867188 10.25 0 14.1875 1.902343 1.847656 4.445312 2.886719 7.09375 2.898438zm0 0" fill="#d80027"/><path d="m91.246094 320.191406c-5.519532 0-9.996094 4.476563-9.996094 9.996094v39.972656c0 5.515625 4.476562 9.992188 9.996094 9.992188 5.515625 0 9.992187-4.476563 9.992187-9.992188v-39.972656c0-5.519531-4.476562-9.996094-9.992187-9.996094zm0 0" fill="#d80027"/><path d="m91.246094 400.136719c-5.519532 0-9.996094 4.476562-9.996094 9.996093v39.972657c0 5.515625 4.476562 9.992187 9.996094 9.992187 5.515625 0 9.992187-4.476562 9.992187-9.992187v-39.972657c0-5.519531-4.476562-9.996093-9.992187-9.996093zm0 0" fill="#d80027"/></svg>
