<svg xmlns="http://www.w3.org/2000/svg" width="353.24" height="316.2" viewBox="0 0 353.24 316.2"><defs><style>.cls-1{isolation:isolate;}.cls-2{fill:#fce059;}.cls-3{fill:#ffe969;}.cls-4{fill:#1d1d1b;opacity:0.23;mix-blend-mode:multiply;}.cls-5{fill:#fafafa;}.cls-6{fill:#44c68b;}.cls-7{fill:#585a59;}.cls-8{fill:#bebfbf;}.cls-9{fill:none;stroke:#bebfbf;stroke-miterlimit:10;stroke-width:2px;}.cls-10{fill:#777;}.cls-11{fill:#9ad9e2;}.cls-12{fill:#fff;}</style></defs><title>Mesa de trabajo 1</title><g class="cls-1"><g id="OBJECTS"><path class="cls-2" d="M220.66,66c-12.4,2.34-25-2.53-36-8.71-15.32-8.6-29-19.83-43.87-29.18s-31.59-16.93-49.16-17-36,9-42.92,25.15c-7.34,17.12-.53,37-3.71,55.36C39.79,121.38,9.63,142.08,4.6,171.87c-2.88,17.06,3.18,34.65,12.84,49C38,251.4,76.4,269.56,112.79,264c23.17-3.53,44.28-15.83,61.86-31.31s32-34.15,46.36-52.68"/><path class="cls-3" d="M246.36,58.81a310.73,310.73,0,0,1,32.75-7.15C289.42,50,299.74,49,308.28,51c11.47,2.71,18.76,10.7,25,19.06,7.16,9.6,13.44,20.12,15.47,33s-.52,28.49-9.81,43.62c-7.57,12.31-19,23.5-27.11,35.71-15.65,23.62-16.68,47.94-11.29,67.08,2.84,10.09,7.19,20.37,1.74,33.07-6.38,14.88-25.24,27.89-40.77,30.62s-27.66-3-35.28-11.79-11.44-20.51-15.88-31.66S200.6,247.6,190.61,241c-16.47-10.82-43.94-8.61-58.5-21.34-8.19-7.16-11.5-18.5-12-30.76A75.36,75.36,0,0,1,126,156.2c7.23-17.14,21.72-34.08,38.32-47.57s35.23-23.78,53.73-32"/><path class="cls-4" d="M112.44,268.25s158.9,22.08,183,21.89c14.16-46.84,21.61-179.81,46.73-234.86-3.18-.51-20.61-3-20.61-3Z"/><path class="cls-5" d="M291,285.15c-53.47,5.06-178.59-16.9-178.59-16.9L151.05,24.94,336.54,54.37S293.13,271.93,291,285.15Z"/><path class="cls-6" d="M182.45,104l-6.36-8.36,3.27-2.48,3.87,5.1,18.58-14,2.48,3.26Z"/><path class="cls-7" d="M188.94,112.76l-18.33-2.91a4.45,4.45,0,0,1-3.7-5.1l2.94-18.52a4.46,4.46,0,0,1,5.1-3.7l18.33,2.91-.37,2.33-18.34-2.91a2.09,2.09,0,0,0-2.39,1.74l-2.94,18.52a2.1,2.1,0,0,0,1.74,2.4l18.33,2.91a2.1,2.1,0,0,0,2.4-1.74l1.16-7.3,2.33.37-1.16,7.3A4.46,4.46,0,0,1,188.94,112.76Z"/><rect class="cls-8" x="206.6" y="101.47" width="88.97" height="3.85" transform="translate(19.31 -38.07) rotate(9.02)"/><rect class="cls-8" x="204.83" y="112.64" width="88.97" height="3.85" transform="translate(21.03 -37.65) rotate(9.02)"/><path class="cls-6" d="M175.15,150l-6.36-8.36,3.27-2.48,3.87,5.09,18.58-14,2.48,3.27Z"/><path class="cls-7" d="M181.64,158.76l-18.33-2.9a4.46,4.46,0,0,1-3.7-5.1l2.94-18.52a4.46,4.46,0,0,1,5.1-3.71L186,131.44l-.37,2.34-18.33-2.91a2.1,2.1,0,0,0-2.4,1.74l-2.94,18.52a2.09,2.09,0,0,0,1.74,2.39L182,156.43a2.1,2.1,0,0,0,2.4-1.74l1.16-7.3,2.33.37-1.16,7.3A4.45,4.45,0,0,1,181.64,158.76Z"/><rect class="cls-8" x="199.56" y="144.24" width="47.68" height="3.85" transform="translate(25.67 -33.2) rotate(9.02)"/><rect class="cls-8" x="197.53" y="158.64" width="88.97" height="3.85" transform="translate(28.15 -35.94) rotate(9.02)"/><path class="cls-6" d="M167.85,196l-6.36-8.36,3.27-2.48,3.87,5.1,18.58-14,2.48,3.26Z"/><path class="cls-7" d="M174.34,204.77,156,201.86a4.45,4.45,0,0,1-3.7-5.1l2.94-18.52a4.45,4.45,0,0,1,5.1-3.7l18.33,2.91-.37,2.33L160,176.87a2.1,2.1,0,0,0-2.4,1.74l-2.94,18.52a2.1,2.1,0,0,0,1.74,2.4l18.33,2.91a2.1,2.1,0,0,0,2.4-1.74l1.16-7.3,2.33.37-1.16,7.3A4.46,4.46,0,0,1,174.34,204.77Z"/><rect class="cls-8" x="192.12" y="192.05" width="70.68" height="3.85" transform="translate(33.21 -33.25) rotate(9.02)"/><rect class="cls-8" x="190.23" y="204.64" width="88.97" height="3.85" transform="translate(35.27 -34.23) rotate(9.02)"/><path class="cls-6" d="M160.55,242l-6.35-8.36,3.26-2.48,3.87,5.09,18.58-14,2.48,3.27Z"/><path class="cls-7" d="M167.05,250.77l-18.34-2.91a4.44,4.44,0,0,1-3.7-5.09L148,224.24a4.46,4.46,0,0,1,5.1-3.7l18.33,2.91-.37,2.33-18.33-2.9a2.09,2.09,0,0,0-2.4,1.74l-2.94,18.52a2.09,2.09,0,0,0,1.74,2.39l18.34,2.91a2.09,2.09,0,0,0,2.39-1.74l1.16-7.3,2.33.37-1.16,7.3A4.44,4.44,0,0,1,167.05,250.77Z"/><rect class="cls-8" x="185.07" y="234.93" width="30.79" height="3.85" transform="translate(39.59 -28.49) rotate(9.02)"/><rect class="cls-8" x="183.14" y="248.02" width="55.47" height="3.85" transform="matrix(0.99, 0.16, -0.16, 0.99, 41.77, -29.96)"/><rect class="cls-9" x="174.91" y="58.72" width="136.85" height="24.69" transform="translate(13.57 -36.02) rotate(8.71)"/><path class="cls-4" d="M57,292.05l9.79.42S190,270.82,234.47,257.19c-14-53.82-44.83-179.94-39.29-240.2-3.17.57-12.12,2.12-12.12,2.12Z"/><path class="cls-5" d="M231.14,249c-48.8,22.43-174.15,43-174.15,43L13.09,49.64,197.9,16.18S228.76,235.87,231.14,249Z"/><path class="cls-10" d="M56,74.58a3,3,0,0,1-1.7.88,3.28,3.28,0,0,1-4-2.77L49.66,69l2.51-.46.67,3.74a1,1,0,0,0,1.26.83,2.54,2.54,0,0,0,1.49-.76L54.83,68l2.51-.45,1.79,9.87-2.51.46Z"/><path class="cls-10" d="M62.13,70.69l4-.72.39,2.16-4,.73.26,1.47,4.36-.78.42,2.35L60.7,77.15l-1.79-9.88L65.78,66l.43,2.34-4.35.79Z"/><path class="cls-10" d="M72.3,64.85l3.11-.57-3,5.57,4.8,4.31-3.13.57-3.2-3.06-.06.12.62,3.42-2.51.45-1.79-9.87,2.51-.46L70.28,69Z"/><path class="cls-10" d="M84.06,70l-4.35.79-.43-2.37,4.35-.79Z"/><path class="cls-10" d="M90.86,64.37l-.08,3-.41,4.42-2.68.48,1.53-10.48,2.3-.41,5.2,9.26L94,71.11l-2-4-1.1-2.79Z"/><path class="cls-10" d="M102.16,65.56s-.09-1.9-.09-1.9H102l-.59,2.1-1.66,4.32-2.36.42L95.6,60.63l2.51-.46.81,4.48s.06,1.52.06,1.52H99l.5-1.92,1.77-4.65,2.28-.42,1.79,9.88-2.51.45Z"/><path class="cls-10" d="M113.78,65.39a4,4,0,0,1-3.15,2.86c-1.94.35-4.1-.42-4.51-2.67l-.61-3.4c-.41-2.23,1.34-3.73,3.32-4.09a3.72,3.72,0,0,1,3.88,1.64l-1.88,1.19c-.9-1.1-3-.42-2.83.8l.62,3.41c.21,1.18,2.51,1.11,2.8-.35Z"/><path class="cls-10" d="M118.27,59l1.36,7.52-2.53.45-1.36-7.51-2.62.47-.43-2.37,7.77-1.41.43,2.37Z"/><rect class="cls-9" x="39.02" y="51.08" width="136.85" height="24.69" transform="translate(-9.44 19.78) rotate(-10.08)"/><path class="cls-11" d="M68.83,113.91l-8.75-5.8,2.26-3.42,5.34,3.54L80.59,88.89,84,91.15Z"/><path class="cls-7" d="M77.86,120l-18.27,3.31a4.47,4.47,0,0,1-5.18-3.6l-3.34-18.45a4.46,4.46,0,0,1,3.59-5.18l18.27-3.3.42,2.32L55.08,98.44a2.09,2.09,0,0,0-1.68,2.43l3.34,18.45A2.09,2.09,0,0,0,59.17,121l18.27-3.31a2.08,2.08,0,0,0,1.68-2.43L77.81,108l2.32-.42,1.32,7.27A4.46,4.46,0,0,1,77.86,120Z"/><rect class="cls-8" x="88.94" y="88.75" width="88.97" height="3.85" transform="translate(-14.02 25.23) rotate(-10.26)"/><rect class="cls-8" x="90.96" y="99.87" width="88.97" height="3.85" transform="translate(-15.97 25.76) rotate(-10.26)"/><path class="cls-11" d="M77.14,159.74,68.38,154l2.26-3.42L76,154.06l12.91-19.34L92.31,137Z"/><path class="cls-7" d="M86.16,165.86l-18.27,3.31a4.46,4.46,0,0,1-5.18-3.59l-3.34-18.45A4.46,4.46,0,0,1,63,142l18.27-3.31.42,2.33-18.27,3.3a2.1,2.1,0,0,0-1.68,2.44L65,165.16a2.09,2.09,0,0,0,2.43,1.68l18.27-3.3a2.1,2.1,0,0,0,1.68-2.44l-1.31-7.27,2.32-.42,1.32,7.27A4.46,4.46,0,0,1,86.16,165.86Z"/><rect class="cls-8" x="97.57" y="138.26" width="47.68" height="3.85" transform="translate(-23.04 23.88) rotate(-10.26)"/><rect class="cls-8" x="99.26" y="145.7" width="88.97" height="3.85" transform="translate(-24.01 27.98) rotate(-10.26)"/><path class="cls-11" d="M85.44,205.57l-8.76-5.79,2.26-3.42,5.34,3.53,12.91-19.33,3.42,2.26Z"/><path class="cls-7" d="M94.46,211.7,76.19,215A4.46,4.46,0,0,1,71,211.41L67.67,193a4.46,4.46,0,0,1,3.59-5.18l18.27-3.31L90,186.8l-18.27,3.31A2.08,2.08,0,0,0,70,192.54L73.34,211a2.1,2.1,0,0,0,2.43,1.69L94,209.37a2.09,2.09,0,0,0,1.68-2.43l-1.31-7.28,2.32-.42,1.32,7.28A4.46,4.46,0,0,1,94.46,211.7Z"/><rect class="cls-8" x="105.69" y="182.04" width="70.68" height="3.85" transform="matrix(0.98, -0.18, 0.18, 0.98, -30.53, 28.07)"/><rect class="cls-8" x="107.56" y="191.54" width="88.97" height="3.85" transform="translate(-32.04 30.19) rotate(-10.26)"/><rect class="cls-8" x="114.31" y="231.43" width="30.79" height="3.85" transform="translate(-39.51 26.85) rotate(-10.26)"/><rect class="cls-8" x="116.12" y="240.35" width="55.47" height="3.85" transform="translate(-40.87 29.51) rotate(-10.26)"/><path class="cls-4" d="M88.05,271.31S259.88,279,283.67,275c-4.21-55.45-14.38-183.53-3.83-248.72-4-.5-19.1-1.1-19.1-1.1Z"/><path class="cls-12" d="M267.08,260c-52,13.38-179,11.3-179,11.3V25H275.87S267.08,246.63,267.08,260Z"/><path class="cls-10" d="M139.79,57.79a4.35,4.35,0,0,1-2.64.82,4.74,4.74,0,0,1-5-5V48.14h3.69v5.49a1.42,1.42,0,0,0,1.57,1.5,3.66,3.66,0,0,0,2.32-.7l0-6.29h3.68v14.5h-3.68Z"/><path class="cls-10" d="M149.48,53.84h5.87V57h-5.87v2.17h6.38v3.46H145.77V48.14h10.09v3.44h-6.38Z"/><path class="cls-10" d="M165.43,48.14H170l-5.74,7.13L170,62.64h-4.6l-3.75-5.18-.12.16v5h-3.69V48.14h3.69v5.37Z"/><path class="cls-10" d="M180.83,58.44h-6.39V55h6.39Z"/><path class="cls-10" d="M191.93,52.24l-.88,4.24-1.72,6.16H185.4l4.87-14.5h3.38l5,14.5h-3.94l-1.82-6.16-.84-4.24Z"/><path class="cls-10" d="M207.68,56.85s.37-2.73.37-2.73l-.1,0-1.38,2.83-3.48,5.71h-3.46V48.14h3.69v6.58s-.31,2.17-.31,2.17l.08,0,1.21-2.6L208,48.14h3.35v14.5h-3.68Z"/><path class="cls-10" d="M224.25,59.59A5.85,5.85,0,0,1,219,62.85c-2.85,0-5.72-1.66-5.72-5v-5c0-3.27,2.87-5,5.78-5a5.39,5.39,0,0,1,5.1,3.34l-3,1.2c-1-1.8-4.22-1.39-4.22.41v5c0,1.74,3.27,2.23,4.07.23Z"/><path class="cls-10" d="M232.28,51.6v11h-3.71v-11h-3.85V48.12h11.41V51.6Z"/><path class="cls-11" d="M131.45,98.12l-7.58-7.26,2.83-3,4.63,4.43L147.48,75.6l3,2.84Z"/><path class="cls-7" d="M139.24,105.76H120.68a4.46,4.46,0,0,1-4.46-4.46V82.55a4.46,4.46,0,0,1,4.46-4.46h18.56v2.36H120.68a2.1,2.1,0,0,0-2.09,2.1V101.3a2.1,2.1,0,0,0,2.09,2.09h18.56a2.09,2.09,0,0,0,2.09-2.09V93.91h2.37v7.39A4.46,4.46,0,0,1,139.24,105.76Z"/><rect class="cls-8" x="154.67" y="84.85" width="88.97" height="3.85"/><rect class="cls-8" x="154.67" y="96.15" width="88.97" height="3.85"/><path class="cls-11" d="M131.45,144.7l-7.58-7.26,2.83-3,4.63,4.43,16.15-16.73,3,2.84Z"/><path class="cls-7" d="M139.24,152.33H120.68a4.46,4.46,0,0,1-4.46-4.45V129.13a4.46,4.46,0,0,1,4.46-4.46h18.56V127H120.68a2.1,2.1,0,0,0-2.09,2.1v18.75a2.1,2.1,0,0,0,2.09,2.09h18.56a2.09,2.09,0,0,0,2.09-2.09v-7.39h2.37v7.39A4.46,4.46,0,0,1,139.24,152.33Z"/><rect class="cls-8" x="154.67" y="131.43" width="47.68" height="3.85"/><rect class="cls-8" x="154.67" y="142.73" width="88.97" height="3.85"/><path class="cls-11" d="M131.45,191.28,123.87,184l2.83-3,4.63,4.43,16.15-16.73,3,2.84Z"/><path class="cls-7" d="M139.24,198.91H120.68a4.46,4.46,0,0,1-4.46-4.45V175.71a4.46,4.46,0,0,1,4.46-4.46h18.56v2.36H120.68a2.1,2.1,0,0,0-2.09,2.1v18.75a2.1,2.1,0,0,0,2.09,2.09h18.56a2.09,2.09,0,0,0,2.09-2.09v-7.39h2.37v7.39A4.46,4.46,0,0,1,139.24,198.91Z"/><rect class="cls-8" x="154.67" y="178.01" width="70.68" height="3.85"/><rect class="cls-8" x="154.67" y="189.31" width="88.97" height="3.85"/><path class="cls-11" d="M131.45,237.86l-7.58-7.26,2.83-3,4.63,4.43,16.15-16.73,3,2.84Z"/><path class="cls-7" d="M139.24,245.49H120.68a4.46,4.46,0,0,1-4.46-4.45V222.29a4.46,4.46,0,0,1,4.46-4.46h18.56v2.36H120.68a2.1,2.1,0,0,0-2.09,2.1V241a2.1,2.1,0,0,0,2.09,2.09h18.56a2.09,2.09,0,0,0,2.09-2.09v-7.39h2.37V241A4.46,4.46,0,0,1,139.24,245.49Z"/><rect class="cls-8" x="154.67" y="224.58" width="30.79" height="3.85"/><rect class="cls-8" x="154.67" y="235.89" width="55.47" height="3.85"/><rect class="cls-9" x="115.3" y="43.23" width="136.85" height="24.69"/></g></g></svg>