<svg id="Layer_1" data-name="Layer 1" xmlns="http://www.w3.org/2000/svg" xmlns:xlink="http://www.w3.org/1999/xlink" width="354.59" height="382.66" viewBox="0 0 354.59 382.66"><defs><style>.cls-1{fill:url(#Degradado_sin_nombre_2);}.cls-2{fill:url(#Degradado_sin_nombre_4);}.cls-3{fill:#c4c4c4;}.cls-4{fill:#9b9b9a;}.cls-5{fill:#858585;}.cls-6{fill:#ebebeb;}.cls-7{fill:#fff;}.cls-8{fill:url(#Degradado_sin_nombre_36);}.cls-9{fill:url(#Degradado_sin_nombre_11);}.cls-10{fill:url(#Degradado_sin_nombre_11-2);}.cls-11{fill:url(#Degradado_sin_nombre_11-3);}.cls-12{fill:url(#Degradado_sin_nombre_11-4);}.cls-13{fill:url(#Degradado_sin_nombre_11-5);}.cls-14{fill:#ffdd6d;}.cls-15{fill:#ff3025;}.cls-16{fill:#19515c;}.cls-17{fill:url(#Degradado_sin_nombre_36-2);}.cls-18{fill:url(#Degradado_sin_nombre_11-6);}.cls-19{fill:url(#Degradado_sin_nombre_11-7);}.cls-20{fill:url(#Degradado_sin_nombre_11-8);}.cls-21{fill:url(#Degradado_sin_nombre_11-9);}.cls-22{fill:url(#Degradado_sin_nombre_11-10);}.cls-23{fill:url(#Degradado_sin_nombre_36-3);}.cls-24{fill:url(#Degradado_sin_nombre_11-11);}.cls-25{fill:url(#Degradado_sin_nombre_11-12);}.cls-26{fill:url(#Degradado_sin_nombre_11-13);}.cls-27{fill:url(#Degradado_sin_nombre_11-14);}.cls-28{fill:url(#Degradado_sin_nombre_11-15);}</style><linearGradient id="Degradado_sin_nombre_2" x1="23.38" y1="183.18" x2="357.2" y2="183.18" gradientUnits="userSpaceOnUse"><stop offset="0" stop-color="#fce059"/><stop offset="1" stop-color="#fce059"/></linearGradient><linearGradient id="Degradado_sin_nombre_4" x1="57.84" y1="204.1" x2="377.97" y2="204.1" gradientUnits="userSpaceOnUse"><stop offset="0" stop-color="#fce68b"/><stop offset="1" stop-color="#ffe45f"/></linearGradient><linearGradient id="Degradado_sin_nombre_36" x1="137.63" y1="90.54" x2="271.21" y2="90.54" gradientTransform="translate(29.72 4.07) rotate(0.06)" gradientUnits="userSpaceOnUse"><stop offset="0" stop-color="#00caff"/><stop offset="1" stop-color="#00dfc2"/></linearGradient><linearGradient id="Degradado_sin_nombre_11" x1="150.19" y1="69.89" x2="208.53" y2="69.89" gradientTransform="translate(285.95 -111.36) rotate(90.06)" gradientUnits="userSpaceOnUse"><stop offset="0" stop-color="#56abdd"/><stop offset="1" stop-color="#2b73b5"/></linearGradient><linearGradient id="Degradado_sin_nombre_11-2" x1="150.21" y1="79.77" x2="208.54" y2="79.77" gradientTransform="translate(293.04 -101.89) rotate(90.06)" xlink:href="#Degradado_sin_nombre_11"/><linearGradient id="Degradado_sin_nombre_11-3" x1="150.22" y1="89.65" x2="208.56" y2="89.65" gradientTransform="matrix(0, 1, -1, 0, 300.13, -92.41)" xlink:href="#Degradado_sin_nombre_11"/><linearGradient id="Degradado_sin_nombre_11-4" x1="150.23" y1="99.53" x2="208.57" y2="99.53" gradientTransform="translate(307.22 -82.93) rotate(90.06)" xlink:href="#Degradado_sin_nombre_11"/><linearGradient id="Degradado_sin_nombre_11-5" x1="150.24" y1="109.42" x2="184.47" y2="109.42" gradientTransform="translate(302.75 -64.8) rotate(90.06)" xlink:href="#Degradado_sin_nombre_11"/><linearGradient id="Degradado_sin_nombre_36-2" x1="137.63" y1="164.91" x2="271.21" y2="164.91" gradientTransform="translate(417.56 330.84) rotate(179.94)" xlink:href="#Degradado_sin_nombre_36"/><linearGradient id="Degradado_sin_nombre_11-6" x1="200.31" y1="144.26" x2="258.64" y2="144.26" gradientTransform="translate(386.85 -76.19) rotate(89.94)" xlink:href="#Degradado_sin_nombre_11"/><linearGradient id="Degradado_sin_nombre_11-7" x1="200.29" y1="154.14" x2="258.63" y2="154.14" gradientTransform="translate(393.92 -66.71) rotate(89.94)" xlink:href="#Degradado_sin_nombre_11"/><linearGradient id="Degradado_sin_nombre_11-8" x1="200.28" y1="164.02" x2="258.62" y2="164.02" gradientTransform="translate(400.99 -57.24) rotate(89.94)" xlink:href="#Degradado_sin_nombre_11"/><linearGradient id="Degradado_sin_nombre_11-9" x1="200.27" y1="173.9" x2="258.61" y2="173.9" gradientTransform="translate(408.06 -47.77) rotate(89.94)" xlink:href="#Degradado_sin_nombre_11"/><linearGradient id="Degradado_sin_nombre_11-10" x1="224.37" y1="183.79" x2="258.6" y2="183.79" gradientTransform="matrix(0, 1, -1, 0, 426.68, -46.92)" xlink:href="#Degradado_sin_nombre_11"/><linearGradient id="Degradado_sin_nombre_36-3" x1="57.09" y1="267.94" x2="234.91" y2="267.94" gradientTransform="translate(-109.42 139.23) rotate(-32.15)" xlink:href="#Degradado_sin_nombre_36"/><linearGradient id="Degradado_sin_nombre_11-11" x1="139.85" y1="240.03" x2="216.94" y2="240.03" gradientTransform="translate(-132.79 133.85) rotate(-32.15)" xlink:href="#Degradado_sin_nombre_11"/><linearGradient id="Degradado_sin_nombre_11-12" x1="140.14" y1="253.73" x2="217.22" y2="253.73" gradientTransform="translate(-132.79 133.85) rotate(-32.15)" xlink:href="#Degradado_sin_nombre_11"/><linearGradient id="Degradado_sin_nombre_11-13" x1="140.43" y1="267.43" x2="217.51" y2="267.43" gradientTransform="translate(-132.79 133.85) rotate(-32.15)" xlink:href="#Degradado_sin_nombre_11"/><linearGradient id="Degradado_sin_nombre_11-14" x1="140.72" y1="281.14" x2="217.8" y2="281.14" gradientTransform="translate(-132.79 133.85) rotate(-32.15)" xlink:href="#Degradado_sin_nombre_11"/><linearGradient id="Degradado_sin_nombre_11-15" x1="172.8" y1="295.21" x2="218.09" y2="295.21" gradientTransform="translate(-132.79 133.85) rotate(-32.15)" xlink:href="#Degradado_sin_nombre_11"/></defs><title>design</title><path class="cls-1" d="M48.74,249.41S-21,181.19,70.83,120,261.9,31.12,319.74,38.36,363,184.89,313.1,269.58,143.24,349.55,48.74,249.41Z" transform="translate(-23.38 -5.38)"/><path class="cls-2" d="M342.31,104.31s80.23,55.52,0,131.28S168.91,355.35,110.68,357.94s-67.29-137.17-32.35-229S232.32,21.49,342.31,104.31Z" transform="translate(-23.38 -5.38)"/><path class="cls-3" d="M130.46,129.76h0a6.23,6.23,0,0,1-4.36-7.61l4.61-15.57a6.22,6.22,0,0,1,7.79-4h0a6.22,6.22,0,0,1,4.36,7.6l-4.61,15.57A6.22,6.22,0,0,1,130.46,129.76Z" transform="translate(-23.38 -5.38)"/><path class="cls-3" d="M139.62,98.78h0a6.21,6.21,0,0,1-4.36-7.6l4.6-15.57a6.22,6.22,0,0,1,7.79-4h0A6.23,6.23,0,0,1,152,79.2l-4.6,15.57A6.22,6.22,0,0,1,139.62,98.78Z" transform="translate(-23.38 -5.38)"/><path class="cls-3" d="M149.44,65.53h0a6.22,6.22,0,0,1-4.36-7.6l1.54-5.22a6.23,6.23,0,0,1,7.8-4h0a6.21,6.21,0,0,1,4.35,7.6l-1.54,5.22A6.22,6.22,0,0,1,149.44,65.53Z" transform="translate(-23.38 -5.38)"/><path class="cls-3" d="M303.6,172.41h0a6.22,6.22,0,0,1-4.36-7.6L307.75,136a6.21,6.21,0,0,1,7.79-4h0a6.21,6.21,0,0,1,4.36,7.6l-8.51,28.79A6.22,6.22,0,0,1,303.6,172.41Z" transform="translate(-23.38 -5.38)"/><path d="M221.08,387.26,84.78,346.93a33.94,33.94,0,0,1-12.91-24.19L162.2,18.68a28,28,0,0,1,22.58-12.9L321.89,46.11a34.74,34.74,0,0,1,13.71,25q-45.57,152-91.13,304.05a26.4,26.4,0,0,1-8.07,8.07A26.84,26.84,0,0,1,221.08,387.26Z" transform="translate(-23.38 -5.38)"/><path class="cls-4" d="M212.65,386.79,91.82,351.08c-15.53-4.59-24.59-20.39-20.21-35.24l85.88-290.6c4.39-14.84,20.58-23.18,36.11-18.6L314.44,42.35C330,46.94,339,62.75,334.64,77.59l-85.88,290.6C244.38,383,228.18,391.38,212.65,386.79ZM192.7,9.67c-13.77-4.07-28.15,3.34-32,16.51L74.78,316.78C70.89,330,78.93,344,92.71,348.05l120.84,35.71c13.77,4.07,28.15-3.33,32-16.5L331.47,76.65c3.89-13.17-4.15-27.2-17.93-31.27Z" transform="translate(-23.38 -5.38)"/><path class="cls-5" d="M311.64,47.57c13,3.83,20.52,17,16.86,29.42L243.28,365.37c-3.66,12.39-17.18,19.35-30.15,15.52l-118.5-35c-13-3.83-20.53-17-16.87-29.42L163,28.07c3.66-12.39,17.18-19.36,30.15-15.53l118.51,35m1.19-4L194.32,8.5C179,4,163.08,12.18,158.75,26.82L73.53,315.2c-4.32,14.65,4.58,30.19,19.9,34.71l118.51,35c15.32,4.53,31.24-3.67,35.57-18.32L332.73,78.23c4.33-14.64-4.58-30.18-19.9-34.71Z" transform="translate(-23.38 -5.38)"/><rect class="cls-6" x="154.11" y="35.21" width="6.03" height="3.77" transform="translate(-6.42 -48.39) rotate(16.46)"/><rect class="cls-6" x="325.38" y="85.83" width="6.12" height="3.77" transform="translate(14.95 -94.87) rotate(16.46)"/><rect class="cls-6" x="73.8" y="306.94" width="6.17" height="3.77" transform="translate(67.29 -14.51) rotate(16.46)"/><rect class="cls-6" x="245" y="357.53" width="6.17" height="3.77" transform="translate(88.65 -60.96) rotate(16.46)"/><path class="cls-7" d="M322.81,75.35c.09-.37.18-.74.24-1.12s.12-.8.16-1.2.07-.85.08-1.28,0-.91,0-1.36-.05-1-.11-1.48-.18-1.12-.3-1.67-.32-1.27-.53-1.89a19,19,0,0,0-1-2.41,19.65,19.65,0,0,0-8.47-8.58,20.72,20.72,0,0,0-2.36-1c-.43-.16-.86-.33-1.31-.46l-.69-.2-1.9-.56-1.9-.57-1.9-.56-1.9-.56-1.9-.56-1.9-.56-1.9-.56-.25-.08a1.19,1.19,0,0,0-1,.16,1.11,1.11,0,0,0-.46.6c0,.07-.06.13-.09.21-.11.33-.25.64-.39,1s-.29.61-.46.9-.36.54-.55.8-.4.5-.62.74-.45.45-.69.66a8.59,8.59,0,0,1-.76.59,9,9,0,0,1-.83.53,8.63,8.63,0,0,1-.92.43,10.14,10.14,0,0,1-1,.39,10.4,10.4,0,0,1-1.11.23,9.71,9.71,0,0,1-1.19.16,10,10,0,0,1-1.34,0,11.27,11.27,0,0,1-1.61-.27c-.19-.05-.38-.06-.58-.11l-1.24-.37-1.9-.56-1.9-.56-1.9-.57-1.9-.56-1.9-.56-1.9-.56-1.9-.56-1.9-.56-1.9-.56-1.9-.57-1.9-.56-1.9-.56-1.9-.56-1.9-.56-1.9-.56-1.9-.56-1.9-.56-1.9-.57-1.9-.56-1.9-.56-1.9-.56-1.9-.56-1.9-.56-1.9-.56-1.9-.57-1.89-.56-1.9-.56-1.9-.56L225,39l-1.9-.56-1.9-.56-1.9-.57-1.9-.56-1.9-.56-1.41-.41c-.21-.06-.38-.17-.58-.24a10,10,0,0,1-2.94-1.61,9.35,9.35,0,0,1-1.46-1.49,9.53,9.53,0,0,1-2.09-4.83,9.32,9.32,0,0,1,0-1.4,8.31,8.31,0,0,1,.14-1.21,8.89,8.89,0,0,1,.19-1,.29.29,0,0,0,0-.13,1.16,1.16,0,0,0-.83-1.3l-.63-.19L204,21.8l-1.9-.56-1.9-.56-1.9-.56-1.9-.57-1.9-.56-1.9-.56-.31-.09c-.49-.14-1-.25-1.48-.36s-1.08-.21-1.62-.28-1-.11-1.49-.14-.93,0-1.39,0-.86,0-1.29.06-.8.08-1.21.14-.78.1-1.16.18-.73.17-1.09.26l-1,.3-1,.35c-.32.12-.64.26-1,.4s-.63.27-.93.42-.58.33-.86.49-.58.32-.86.5-.53.37-.79.56-.52.37-.78.58-.48.41-.72.63-.48.42-.7.64-.44.47-.66.7-.43.48-.63.73-.4.5-.59.76-.37.53-.55.81-.35.55-.52.84l-.47.88c-.15.31-.3.61-.43.92s-.26.65-.38,1-.25.66-.35,1c0,0,0,0,0,0l-.3,1L167.66,33l-.38,1.27-.37,1.27-.38,1.28-.38,1.27-.37,1.27-.38,1.27L165,41.88l-.37,1.27-.38,1.27-.37,1.28L163.52,47l-.38,1.27-.37,1.27-.38,1.28L162,52.06l-.38,1.27-.38,1.28-.37,1.27-.38,1.27-.38,1.28-.37,1.27L159.38,61,159,62.24l-.38,1.28-.38,1.27-.37,1.27-.38,1.28-.37,1.27-.38,1.27-.38,1.27L156,72.43l-.38,1.27L155.24,75l-.37,1.28-.38,1.27-.37,1.27-.38,1.28-.38,1.27L153,82.61l-.38,1.27-.37,1.28-.38,1.27-.38,1.27L151.11,89l-.38,1.27-.38,1.27L150,92.79l-.38,1.28-.37,1.27-.38,1.27-.38,1.28-.37,1.27-.38,1.27-.37,1.27L147,103l-.38,1.27-.37,1.27-.38,1.28-.38,1.27-.37,1.27-.38,1.28-.37,1.27-.38,1.27-.38,1.27-.37,1.28-.38,1.27-.37,1.27-.38,1.28-.38,1.27-.37,1.27-.38,1.27-.38,1.28-.37,1.27-.38,1.27-.37,1.28-.38,1.27-.38,1.27-.37,1.27-.38,1.28-.37,1.27-.38,1.27-.38,1.28-.37,1.27-.38,1.27-.38,1.28-.37,1.27-.38,1.27-.37,1.27-.38,1.28-.38,1.27-.37,1.27-.38,1.28-.37,1.27-.38,1.27-.38,1.27-.37,1.28-.38,1.27-.38,1.27-.37,1.28-.38,1.27-.37,1.27-.38,1.27-.38,1.28-.37,1.27-.38,1.27-.37,1.28-.38,1.27-.38,1.27-.37,1.28-.38,1.27-.38,1.27-.37,1.27-.38,1.28-.37,1.27-.38,1.27-.38,1.28-.37,1.27-.38,1.27-.37,1.27-.38,1.28-.38,1.27-.37,1.27-.38,1.28-.38,1.27-.37,1.27-.38,1.27-.37,1.28-.38,1.27-.38,1.27-.37,1.28-.38,1.27L118,201l-.38,1.28-.38,1.27-.37,1.27-.38,1.27-.38,1.28-.37,1.27-.38,1.27-.37,1.28-.38,1.27-.38,1.27-.37,1.27-.38,1.28-.37,1.27-.38,1.27-.38,1.28-.37,1.27-.38,1.27-.38,1.28-.37,1.27-.38,1.27-.37,1.27-.38,1.28-.38,1.27-.37,1.27-.38,1.28-.38,1.27-.37,1.27-.38,1.27-.37,1.28-.38,1.27-.38,1.27-.37,1.28-.38,1.27-.37,1.27-.38,1.27-.38,1.28-.37,1.27-.38,1.27-.38,1.28-.37,1.27-.38,1.27-.37,1.28-.38,1.27-.38,1.27-.37,1.27-.38,1.28-.37,1.27-.38,1.27-.38,1.28-.37,1.27-.38,1.27-.38,1.27-.37,1.28-.38,1.27L97.32,271l-.38,1.28-.38,1.27-.37,1.27-.38,1.27-.37,1.28-.38,1.27-.38,1.27-.37,1.28-.38,1.27-.38,1.27L93.18,285l-.38,1.27-.37,1.27-.38,1.27-.38,1.28-.37,1.27-.38,1.27-.37,1.28-.38,1.27-.38,1.27-.37,1.27L89,299l-.38,1.27-.37,1.27-.38,1.28-.37,1.27-.38,1.27-.38,1.27-.37,1.28L86,309.19l-.37,1.27-.38,1.28L84.9,313l-.37,1.27-.38,1.28,0,.07c-.12.41-.21.83-.3,1.25s-.2.93-.27,1.39-.15,1-.19,1.46,0,1.08,0,1.61,0,1.17.1,1.75.16,1.3.28,1.94a20.14,20.14,0,0,0,1.66,5,21.71,21.71,0,0,0,9.78,9.91,25.39,25.39,0,0,0,2.78,1.16c.33.11.65.24,1,.34l1.39.41,2.31.68,2.3.69,2.31.68,2.31.68,2.3.68,2.31.68,2.3.68,2.31.68,2.31.69,2.3.68,2.31.68,2.3.68,2.31.68,2.31.68,2.3.68,2.31.69,2.31.68,2.3.68,2.31.68,2.3.68,2.31.68,2.31.69,2.3.68,2.31.68,2.3.68,2.31.68,2.31.68,2.3.68,2.31.69,2.31.68,2.3.68,2.31.68,2.3.68,2.31.68,2.31.68,2.3.69,2.31.68,2.31.68,2.3.68,2.31.68,2.3.68,2.31.69,2.31.68,2.3.68,2.31.68,2.3.68,2.31.68,2.31.68,2,.61a2.27,2.27,0,0,1,.25.06c.7.2,1.4.35,2.1.48s1.26.2,1.89.25,1.14.08,1.71.08,1,0,1.56-.07,1-.09,1.47-.16.94-.15,1.4-.24.88-.2,1.31-.33.83-.26,1.23-.4l1.19-.46c.38-.16.75-.33,1.12-.52s.71-.38,1.06-.58.68-.4,1-.62.65-.45,1-.69.61-.48.91-.73.6-.5.88-.77.53-.56.79-.85.52-.57.77-.88.48-.61.71-.93.44-.66.65-1,.42-.68.61-1,.36-.74.53-1.11.33-.78.48-1.17.31-.8.43-1.21h0l.38-1.27.37-1.28.38-1.27.38-1.27.37-1.28.38-1.27.38-1.27.37-1.27.38-1.28.37-1.27.38-1.27.38-1.28.37-1.27.38-1.27.37-1.27.38-1.28.38-1.27.37-1.27.38-1.28.38-1.27.37-1.27.38-1.28.37-1.27.38-1.27.38-1.27.37-1.28.38-1.27.37-1.27.38-1.28.38-1.27.37-1.27.38-1.27.38-1.28.37-1.27.38-1.27.37-1.28.38-1.27.38-1.27.37-1.27.38-1.28.37-1.27.38-1.27.38-1.28.37-1.27L255,305l.38-1.28.37-1.27.38-1.27.37-1.27.38-1.28.38-1.27.37-1.27.38-1.28.37-1.27.38-1.27.38-1.27.37-1.28.38-1.27.38-1.27.37-1.28.38-1.27.37-1.27.38-1.27.38-1.28.37-1.27.38-1.27.37-1.28.38-1.27.38-1.27.37-1.28.38-1.27.38-1.27.37-1.27.38-1.28.37-1.27.38-1.27.38-1.28.37-1.27.38-1.27.37-1.27.38-1.28.38-1.27.37-1.27.38-1.28.38-1.27.37-1.27.38-1.27.37-1.28.38-1.27.38-1.27.37-1.28.38-1.27.37-1.27.38-1.28.38-1.27.37-1.27.38-1.27.38-1.28.37-1.27.38-1.27.37-1.28.38-1.27.38-1.27.37-1.27.38-1.28.37-1.27.38-1.27.38-1.28.37-1.27.38-1.27.38-1.27.37-1.28.38-1.27.37-1.27.38-1.28.38-1.27.37-1.27.38-1.28.37-1.27.38-1.27.38-1.27L284,207l.38-1.27.38-1.27.37-1.28.38-1.27.37-1.27.38-1.27.38-1.28.37-1.27.38-1.27.37-1.28.38-1.27.38-1.27.37-1.28.38-1.27.38-1.27.37-1.27.38-1.28.37-1.27.38-1.27.38-1.28.37-1.27.38-1.27.37-1.27.38-1.28.38-1.27.37-1.27.38-1.28.38-1.27.37-1.27.38-1.27.37-1.28.38-1.27.38-1.27.37-1.28.38-1.27.31-1,.31-1.05.31-1,.31-1,.31-1,.31-1.05.31-1,.31-1.05.31-1.05.31-1,.31-1,.31-1,.31-1.05.31-1,.31-1.05.31-1.05.31-1,.31-1,.31-1.05.31-1.05.31-1,.31-1.05.31-1,.31-1.05.31-1,.31-1.05.31-1,.31-1.05.31-1.05.3-1,.31-1.05.31-1,.31-1.05.31-1,.31-1,.31-1,.31-1,.31-1.05.31-1,.31-1,.31-1,.31-1.05.31-1,.31-1,.31-1,.31-1,.31-1,.31-1,.31-1,.31-1.05.31-1,.31-1,.31-1,.31-1,.31-1,.31-1,.31-1,.31-1.05.31-1,.31-1,.31-1.05.31-1,.31-1,.31-1,.31-1,.31-1.05.31-1,.31-1,.31-1.05.31-1,.31-1,.31-1,.31-1,.31-1.05.31-1,.31-1,.31-1,.31-1.05.31-1,.31-1,.31-1,.31-1,0-.17C322.68,76,322.73,75.65,322.81,75.35Z" transform="translate(-23.38 -5.38)"/><rect class="cls-8" x="167.29" y="62.62" width="133.5" height="64.41" rx="2.46" transform="translate(12.92 -67.61) rotate(16.4)"/><rect class="cls-9" x="212.79" y="38.76" width="6.15" height="58.33" transform="matrix(0.28, -0.96, 0.96, 0.28, 66.38, 250.44)"/><rect class="cls-10" x="210" y="48.24" width="6.15" height="58.33" transform="translate(55.28 254.57) rotate(-73.6)"/><rect class="cls-11" x="207.21" y="57.71" width="6.15" height="58.33" transform="matrix(0.28, -0.96, 0.96, 0.28, 44.19, 258.7)"/><rect class="cls-12" x="204.42" y="67.19" width="6.15" height="58.33" transform="translate(33.1 262.82) rotate(-73.6)"/><rect class="cls-13" x="190.07" y="85.32" width="6.15" height="34.22" transform="translate(16.97 253.41) rotate(-73.6)"/><path class="cls-14" d="M263.9,85.17a7.8,7.8,0,1,1-5.37-9.35A7.63,7.63,0,0,1,263.9,85.17Z" transform="translate(-23.38 -5.38)"/><path class="cls-15" d="M280.82,90.15a7.8,7.8,0,1,1-5.37-9.35A7.63,7.63,0,0,1,280.82,90.15Z" transform="translate(-23.38 -5.38)"/><path class="cls-14" d="M297.75,95.13a7.8,7.8,0,1,1-5.38-9.35A7.63,7.63,0,0,1,297.75,95.13Z" transform="translate(-23.38 -5.38)"/><path class="cls-16" d="M258.73,102.75a7.8,7.8,0,1,1-5.38-9.34A7.62,7.62,0,0,1,258.73,102.75Z" transform="translate(-23.38 -5.38)"/><path class="cls-14" d="M275.65,107.73a7.8,7.8,0,1,1-5.37-9.34A7.62,7.62,0,0,1,275.65,107.73Z" transform="translate(-23.38 -5.38)"/><path class="cls-7" d="M292.57,112.72a7.8,7.8,0,1,1-5.37-9.35A7.63,7.63,0,0,1,292.57,112.72Z" transform="translate(-23.38 -5.38)"/><path class="cls-14" d="M253.55,120.34a7.8,7.8,0,1,1-5.37-9.35A7.63,7.63,0,0,1,253.55,120.34Z" transform="translate(-23.38 -5.38)"/><path class="cls-16" d="M270.48,125.32A7.8,7.8,0,1,1,265.1,116,7.63,7.63,0,0,1,270.48,125.32Z" transform="translate(-23.38 -5.38)"/><path class="cls-7" d="M287.4,130.3A7.8,7.8,0,1,1,282,121,7.63,7.63,0,0,1,287.4,130.3Z" transform="translate(-23.38 -5.38)"/><rect class="cls-17" x="146.21" y="133.95" width="133.5" height="64.41" rx="2.46" transform="translate(346.49 380.63) rotate(-163.47)"/><rect class="cls-18" x="239.77" y="124.28" width="6.15" height="58.33" transform="translate(3.28 337.23) rotate(-73.47)"/><rect class="cls-19" x="236.96" y="133.75" width="6.15" height="58.33" transform="translate(-7.81 341.31) rotate(-73.47)"/><rect class="cls-20" x="234.15" y="143.22" width="6.15" height="58.33" transform="translate(-18.9 345.39) rotate(-73.47)"/><rect class="cls-21" x="231.34" y="152.7" width="6.15" height="58.33" transform="translate(-29.99 349.48) rotate(-73.47)"/><rect class="cls-22" x="240.09" y="177.65" width="6.15" height="34.22" transform="translate(-36.1 367.09) rotate(-73.47)"/><path class="cls-14" d="M193.15,141.81a7.8,7.8,0,1,0,9.59-4.93A7.64,7.64,0,0,0,193.15,141.81Z" transform="translate(-23.38 -5.38)"/><path class="cls-15" d="M176.24,136.79a7.8,7.8,0,1,0,9.59-4.92A7.62,7.62,0,0,0,176.24,136.79Z" transform="translate(-23.38 -5.38)"/><path class="cls-14" d="M159.33,131.77a7.8,7.8,0,1,0,9.59-4.92A7.62,7.62,0,0,0,159.33,131.77Z" transform="translate(-23.38 -5.38)"/><path class="cls-16" d="M187.93,159.38a7.81,7.81,0,1,0,9.6-4.92A7.63,7.63,0,0,0,187.93,159.38Z" transform="translate(-23.38 -5.38)"/><path class="cls-14" d="M171,154.37a7.8,7.8,0,1,0,9.59-4.93A7.64,7.64,0,0,0,171,154.37Z" transform="translate(-23.38 -5.38)"/><path class="cls-7" d="M154.11,149.35a7.8,7.8,0,1,0,9.59-4.93A7.64,7.64,0,0,0,154.11,149.35Z" transform="translate(-23.38 -5.38)"/><path class="cls-14" d="M182.72,177a7.8,7.8,0,1,0,9.59-4.93A7.63,7.63,0,0,0,182.72,177Z" transform="translate(-23.38 -5.38)"/><ellipse class="cls-16" cx="173.28" cy="174.16" rx="7.45" ry="7.79" transform="translate(-66.21 285.62) rotate(-73.54)"/><path class="cls-7" d="M148.89,166.92a7.81,7.81,0,1,0,9.59-4.92A7.63,7.63,0,0,0,148.89,166.92Z" transform="translate(-23.38 -5.38)"/><path class="cls-23" d="M107.42,369.79l147.81-88.12a1.9,1.9,0,0,0,.61-2.69l-46.93-71.29a2.11,2.11,0,0,0-2.81-.65L58.29,295.15a1.89,1.89,0,0,0-.61,2.69l46.93,71.29A2.1,2.1,0,0,0,107.42,369.79Z" transform="translate(-23.38 -5.38)"/><polygon class="cls-24" points="115.27 265.42 181.34 226.03 176.66 218.91 110.58 258.3 115.27 265.42"/><polygon class="cls-25" points="122.8 276.87 188.88 237.48 184.19 230.35 118.11 269.74 122.8 276.87"/><polygon class="cls-26" points="130.34 288.31 196.41 248.92 191.73 241.8 125.65 281.19 130.34 288.31"/><polygon class="cls-27" points="137.87 299.76 203.95 260.37 199.26 253.25 133.19 292.64 137.87 299.76"/><polygon class="cls-28" points="172.72 294.92 211.49 271.82 206.8 264.69 168.04 287.8 172.72 294.92"/><path class="cls-14" d="M113.9,285.41a10.89,10.89,0,0,0,14.51,3.37,9.77,9.77,0,0,0,3.14-13.9A10.88,10.88,0,0,0,117,271.51,9.77,9.77,0,0,0,113.9,285.41Z" transform="translate(-23.38 -5.38)"/><path class="cls-15" d="M93.91,297.32a10.88,10.88,0,0,0,14.51,3.37,9.77,9.77,0,0,0,3.15-13.9,10.89,10.89,0,0,0-14.51-3.37A9.77,9.77,0,0,0,93.91,297.32Z" transform="translate(-23.38 -5.38)"/><path class="cls-14" d="M73.93,309.23a10.87,10.87,0,0,0,14.51,3.37,9.76,9.76,0,0,0,3.14-13.89,10.87,10.87,0,0,0-14.51-3.37A9.76,9.76,0,0,0,73.93,309.23Z" transform="translate(-23.38 -5.38)"/><path class="cls-16" d="M127.88,306.65A10.89,10.89,0,0,0,142.39,310a9.77,9.77,0,0,0,3.14-13.9A10.88,10.88,0,0,0,131,292.75,9.77,9.77,0,0,0,127.88,306.65Z" transform="translate(-23.38 -5.38)"/><path class="cls-14" d="M107.89,318.56a10.88,10.88,0,0,0,14.51,3.37,9.77,9.77,0,0,0,3.15-13.9A10.89,10.89,0,0,0,111,304.66,9.78,9.78,0,0,0,107.89,318.56Z" transform="translate(-23.38 -5.38)"/><path class="cls-7" d="M87.91,330.47a10.87,10.87,0,0,0,14.51,3.37A9.77,9.77,0,0,0,105.57,320a10.87,10.87,0,0,0-14.51-3.37A9.76,9.76,0,0,0,87.91,330.47Z" transform="translate(-23.38 -5.38)"/><path class="cls-14" d="M141.86,327.89a10.89,10.89,0,0,0,14.51,3.37,9.78,9.78,0,0,0,3.15-13.9A10.88,10.88,0,0,0,145,314,9.77,9.77,0,0,0,141.86,327.89Z" transform="translate(-23.38 -5.38)"/><path class="cls-16" d="M121.88,339.8a10.87,10.87,0,0,0,14.51,3.37,9.77,9.77,0,0,0,3.14-13.9A10.88,10.88,0,0,0,125,325.91,9.76,9.76,0,0,0,121.88,339.8Z" transform="translate(-23.38 -5.38)"/><path class="cls-7" d="M101.89,351.71a10.87,10.87,0,0,0,14.51,3.37,9.76,9.76,0,0,0,3.15-13.89A10.87,10.87,0,0,0,105,337.82,9.76,9.76,0,0,0,101.89,351.71Z" transform="translate(-23.38 -5.38)"/></svg>