<svg id="Layer_1" data-name="Layer 1" xmlns="http://www.w3.org/2000/svg" width="492.34" height="410.33" viewBox="0 0 492.34 410.33"><defs><style>.cls-1{fill:#e186b2;}.cls-2,.cls-4{fill:#79d4ed;}.cls-2{opacity:0.2;}.cls-3,.cls-5{fill:none;stroke-miterlimit:10;}.cls-3{stroke:#513bbe;stroke-width:0.72px;stroke-dasharray:3.58;}.cls-5{stroke:#fdc400;stroke-width:0.97px;}.cls-6{fill:#fdc400;}.cls-7{fill:#df526e;}.cls-8{fill:#da536d;}.cls-9{fill:#513bbe;}.cls-10{fill:#7e8ef1;}.cls-11{fill:#fff;}</style></defs><title>direct</title><path class="cls-1" d="M129.7,102A11.77,11.77,0,1,1,117.93,90.2,11.76,11.76,0,0,1,129.7,102Z" transform="translate(-4.17 -45)"/><circle class="cls-1" cx="57.27" cy="94.71" r="28.44"/><path class="cls-2" d="M193.13,194.49a84,84,0,0,0-50.77,17,60.39,60.39,0,1,0-75.29,92.93,36.67,36.67,0,1,0,65.25,32.77,84.3,84.3,0,1,0,60.81-142.69Z" transform="translate(-4.17 -45)"/><circle class="cls-3" cx="188.67" cy="229.84" r="100.26"/><circle class="cls-4" cx="192.84" cy="271.69" r="57.11" transform="translate(-139.81 170.94) rotate(-45)"/><path class="cls-5" d="M254.76,378.73a104.73,104.73,0,0,1-60.7,68.16c-52.59,21.83-113.68-2.8-136.41-55A104.88,104.88,0,0,1,68,289.66" transform="translate(-4.17 -45)"/><path class="cls-6" d="M65.19,283.45A6.08,6.08,0,1,1,62,290.52,6.08,6.08,0,0,1,65.19,283.45Z" transform="translate(-4.17 -45)"/><path class="cls-6" d="M251.72,372.48a6.08,6.08,0,1,1-3.16,7.08A6.15,6.15,0,0,1,251.72,372.48Z" transform="translate(-4.17 -45)"/><polygon class="cls-1" points="36.56 202.95 118.14 153.54 51.61 210.18 94.83 234.08 118.14 153.54 0 186.88 36.56 202.95"/><polygon class="cls-7" points="51.61 210.18 45.4 237.6 36.56 202.95 118.14 153.54 51.61 210.18"/><polygon class="cls-8" points="51.61 210.18 45.27 237.61 68.57 219.56 51.61 210.18"/><circle class="cls-2" cx="390.97" cy="331.21" r="78.47" transform="translate(-123.87 328.47) rotate(-45)"/><path class="cls-5" d="M447.61,245.22A104.94,104.94,0,1,1,308.67,398.6" transform="translate(-4.17 -45)"/><path class="cls-6" d="M440.7,246a6.07,6.07,0,1,1,6.71,5.37A6.07,6.07,0,0,1,440.7,246Z" transform="translate(-4.17 -45)"/><polygon class="cls-9" points="458.08 129.91 342.81 128.4 383.54 195.79 416.93 163.6 342.81 128.4 428.82 153.38 458.08 129.91"/><polygon class="cls-10" points="342.81 128.4 428.82 153.38 429.24 186.96 416.93 163.6 342.81 128.4"/><polygon class="cls-10" points="403.83 176.23 429.36 186.94 416.93 163.6 403.83 176.23"/><circle class="cls-9" cx="386.5" cy="327.82" r="46.12" transform="translate(-119.81 351.39) rotate(-48.08)"/><path class="cls-9" d="M457.22,138.82a18.56,18.56,0,1,1-7.35-25.2A18.55,18.55,0,0,1,457.22,138.82Z" transform="translate(-4.17 -45)"/><path class="cls-9" d="M363.57,258.17a7.12,7.12,0,1,1-2.82-9.67A7.12,7.12,0,0,1,363.57,258.17Z" transform="translate(-4.17 -45)"/><path class="cls-6" d="M308.81,108.78c0-35.22-30.4-63.78-67.89-63.78S173,73.56,173,108.78c0,22.54,12.46,42.34,31.25,53.68l18,7.82,18.66,32.32,18.66-32.32,18-7.82C296.35,151.12,308.81,131.32,308.81,108.78Z" transform="translate(-4.17 -45)"/><path class="cls-11" d="M234.07,130.28a3.62,3.62,0,0,1-2.74-1.31l-13.7-15.8a5,5,0,0,1,0-6.32,3.53,3.53,0,0,1,5.48,0l11,12.64,24.66-28.43a3.52,3.52,0,0,1,5.48,0,5,5,0,0,1,0,6.32L236.81,129A3.64,3.64,0,0,1,234.07,130.28Z" transform="translate(-4.17 -45)"/></svg>