<svg id="BACKGROUND_1" data-name="BACKGROUND 1" xmlns="http://www.w3.org/2000/svg" xmlns:xlink="http://www.w3.org/1999/xlink" width="500" height="500" viewBox="0 0 500 500"><defs><style>.cls-1{fill:none;}.cls-2{clip-path:url(#clip-path);}.cls-3{fill:#fce059;}.cls-4{fill:#ffe969;}</style><clipPath id="clip-path"><rect class="cls-1" width="500" height="500"/></clipPath></defs><title>Mesa de trabajo 1</title><g class="cls-2"><path class="cls-3" d="M432.37,594.2C442,482.71,474,503.78,479,426.93c5.16-79.22-62.89-92.91-30.08-248.18,16.5-78.06-44.24-71.85-53.8-147.57C385.15-47.47,432.37-54.18,440-94.2h60V594.2Z"/><path class="cls-4" d="M399.46-94.2c11.13,111.49,49.2,89.72,55,166.56,6,79.22-63.62,115.65-29.06,234.06,22.43,76.83-25.44,86.66-28.15,163.41-2.23,63.3,43.08,67,33.44,124.37H500V-94.2Z"/><path class="cls-3" d="M66.33,512c22.12-63.82-54.53-65.71-7.77-143.67,37.43-62.42,69.11-89.15,21.1-155.12-58.23-80,35.41-85.79-38.45-174.4C1.42-9,99.15-46.81,104.28-93.45c4-35.79-19.43-43-27.57-83h-99V512Z"/><path class="cls-4" d="M61.83,675.44C48.56,534.23,4.47,560.91-2.43,463.59-9.54,363.26,84.3,345.91,39.05,149.26,16.3,50.39,102.18,63.42,107.76-13.13,113.56-92.62-6.82-93.52,9-196.44H-31.44V675.44Z"/></g></svg>