<svg id="Layer_1" data-name="Layer 1" xmlns="http://www.w3.org/2000/svg" width="488.67" height="416.74" viewBox="0 0 488.67 416.74"><defs><style>.cls-1{fill:#fff685;}.cls-2{fill:#c1ddf7;}.cls-3{fill:#71addb;}.cls-4{fill:#214a81;}.cls-5{fill:#d7e8f7;}.cls-6{fill:#fff;}.cls-7{fill:#00c0cd;}.cls-8{fill:#009db0;}.cls-9{fill:#cadfef;}.cls-10{fill:#84b4fe;}.cls-11{fill:#538dd3;}.cls-12{fill:#8cb8f2;}.cls-13{fill:#ffe146;}</style></defs><title>land</title><path class="cls-1" d="M247.83,55a61.66,61.66,0,0,0-19.38,3.11c-26.51,8.79-91.41,38.51-86.54,118C148,275.81,115.18,294.92,67,317.14a230.27,230.27,0,0,0-25.21,13.37c-52.5,32.7-29.41,113.7,32.44,113.7,83.17,13.72,198.78,24.32,298.37,0,12.38-3,27.43-7.29,43.71-18.1,76.66-50.89,72.53-174.86,70.15-211.56,20-29.07,19.63-66.43,0-91.62C464.27,94.41,428,95,424,95.16A145.23,145.23,0,0,0,372.62,55C315.06,28.34,259.2,50.22,247.83,55Z" transform="translate(-12.68 -42)"/><path class="cls-2" d="M75,281.76H387.32a0,0,0,0,1,0,0v20.62a10.94,10.94,0,0,1-10.94,10.94H85.9A10.94,10.94,0,0,1,75,302.37V281.76A0,0,0,0,1,75,281.76Z"/><rect class="cls-3" x="199.71" y="313.32" width="64.11" height="27.61"/><path class="cls-4" d="M85.07,99.73H377.21a10.11,10.11,0,0,1,10.11,10.11V282.27a0,0,0,0,1,0,0H75a0,0,0,0,1,0,0V109.84A10.11,10.11,0,0,1,85.07,99.73Z"/><rect class="cls-5" x="87.65" y="112.86" width="288.94" height="158.13"/><path class="cls-6" d="M250.88,338.12a7.06,7.06,0,1,1-7.06-7.05A7.06,7.06,0,0,1,250.88,338.12Z" transform="translate(-12.68 -42)"/><rect class="cls-6" x="216.69" y="127.26" width="142.16" height="127.83" rx="3.07"/><path class="cls-6" d="M109.89,186.16H199a3.07,3.07,0,0,1,3.07,3.07V252a3.07,3.07,0,0,1-3.07,3.07h-89.1a3.07,3.07,0,0,1-3.07-3.07V189.23A3.08,3.08,0,0,1,109.89,186.16Z"/><path class="cls-7" d="M435.2,261.94h0A10,10,0,0,0,436.79,250h0c-.16-.31-.28-.5-.28-.5h0a19.67,19.67,0,0,1,3.63-22.81c3.28-4.33.8-10.1.8-10.1h0A13.92,13.92,0,1,1,468,212a13.66,13.66,0,0,1-.81,4.63h0s-2.48,5.77.8,10.1a19.62,19.62,0,0,1,3.63,22.81h0a.34.34,0,0,0-.06.1c-.11.21-.22.43-.34.64a10,10,0,0,0,1.29,11.16l.36.42.09.11h0a24.24,24.24,0,1,1-37.82,0Z" transform="translate(-12.68 -42)"/><path class="cls-8" d="M447,275l5.94,5.88V260.25L445.63,253a1,1,0,0,1,1.35-1.37l5.94,5.88V229.07a1,1,0,1,1,1.93,0v17.16l5.77-5.74a1,1,0,1,1,1.36,1.36l-7.13,7.09v20.74l6.38-6.45a1,1,0,1,1,1.37,1.36l-7.75,7.83v55a1,1,0,1,1-1.93,0V283.61l-7.29-7.22A1,1,0,0,1,447,275Z" transform="translate(-12.68 -42)"/><path class="cls-9" d="M469.92,329.25H438.11a1.07,1.07,0,0,1,0-2.14h31.81a1.07,1.07,0,0,1,0,2.14Z" transform="translate(-12.68 -42)"/><rect class="cls-5" x="117.66" y="230.81" width="73.5" height="4.13" rx="1.04"/><rect class="cls-5" x="117.66" y="240.5" width="43.59" height="4.13" rx="1.04"/><circle class="cls-5" cx="128.31" cy="207.21" r="13.09"/><path class="cls-9" d="M440.41,394.36H51.91a1,1,0,0,1,0-1.91h388.5a1,1,0,1,1,0,1.91Z" transform="translate(-12.68 -42)"/><rect class="cls-10" x="266.65" y="192.87" width="42.66" height="42.66" rx="4.52"/><rect class="cls-10" x="312.65" y="192.87" width="42.66" height="42.66" rx="4.52"/><rect class="cls-10" x="220.82" y="192.87" width="42.66" height="42.66" rx="4.52"/><rect class="cls-10" x="266.65" y="146.87" width="42.66" height="42.66" rx="4.52"/><rect class="cls-10" x="312.65" y="146.87" width="42.66" height="60.13" rx="4.52"/><rect class="cls-10" x="220.82" y="146.87" width="42.66" height="42.66" rx="4.52"/><rect class="cls-11" x="136.25" y="360.9" width="50.07" height="23.04" rx="3.24"/><rect class="cls-11" x="85.23" y="360.9" width="50.07" height="23.04" rx="3.24"/><rect class="cls-11" x="109.8" y="336.33" width="50.07" height="23.04" rx="3.24"/><rect class="cls-10" x="153.96" y="199.83" width="33.55" height="15.44" rx="3.24"/><rect class="cls-6" x="166.39" y="121.22" width="123.16" height="23.44" rx="2.62" transform="translate(16.37 -82.48) rotate(10.83)"/><path class="cls-12" d="M257.44,145.07l-2.64-4.25a5.58,5.58,0,0,0,1.62-3,5.51,5.51,0,1,0-3.08,3.95l2.6,4.19Zm-2.74-7.54a3.75,3.75,0,1,1-3-4.39A3.76,3.76,0,0,1,254.7,137.53Z" transform="translate(-12.68 -42)"/><path class="cls-2" d="M303.92,392.17H183.8a9.24,9.24,0,0,1,9.24-9.24H294.68a9.24,9.24,0,0,1,9.24,9.24Z" transform="translate(-12.68 -42)"/><rect class="cls-6" x="107.62" y="146.22" width="76.64" height="4.13" rx="1.04"/><rect class="cls-6" x="107.62" y="172.19" width="76.64" height="4.13" rx="1.04"/><rect class="cls-6" x="107.62" y="159.15" width="93.93" height="4.13" rx="1.04"/><path class="cls-6" d="M321,61H272.57s3.55-14.55,16.07-14.55a18.3,18.3,0,0,1,16,8.92C308.28,53.93,316.16,52.2,321,61" transform="translate(-12.68 -42)"/><path class="cls-6" d="M371.57,111.44a13.15,13.15,0,0,1,6.55,1.76,21,21,0,0,1,36-1.26,16.33,16.33,0,0,1,32,2.9,14.23,14.23,0,0,1,2.08-.18A13.34,13.34,0,0,1,460,122H358.57A13.43,13.43,0,0,1,371.57,111.44Z" transform="translate(-12.68 -42)"/><path class="cls-13" d="M629,246.86" transform="translate(-12.68 -42)"/><path class="cls-5" d="M751,185" transform="translate(-12.68 -42)"/></svg>