<svg xmlns="http://www.w3.org/2000/svg" viewBox="0 0 470.37 146.84"><defs><style>.cls-1{isolation:isolate;}.cls-2{fill:#ffc81f;}.cls-3{fill:#ffb02a;}.cls-4{fill:#d7cf06;}.cls-4,.cls-5{mix-blend-mode:multiply;}.cls-5{fill:#fafa40;opacity:0.5;}.cls-6{fill:#fff;}</style></defs><title>Asset 21</title><g class="cls-1"><g id="Layer_2" data-name="Layer 2"><g id="Слой_1" data-name="Слой 1"><polygon class="cls-2" points="0 36.73 0 36.73 63.55 73.42 127.11 36.73 127.11 36.73 63.55 0.04 0 36.73"/><polygon class="cls-3" points="0 110.12 63.54 146.8 63.54 73.41 0 36.73 0 110.12"/><polygon class="cls-4" points="0 110.12 63.54 146.8 63.54 73.41 0 36.73 0 110.12"/><polygon class="cls-3" points="127.07 110.09 63.53 146.78 63.53 73.39 127.07 36.71 127.07 110.09"/><polygon class="cls-5" points="127.07 110.09 63.53 146.78 63.53 73.39 127.07 36.71 127.07 110.09"/><path class="cls-6" d="M25.46,89.08A15.66,15.66,0,0,0,9.8,73.42V89.08Z"/><path class="cls-6" d="M101.65,57.76a15.66,15.66,0,0,0,15.66,15.66V57.76Z"/><path class="cls-6" d="M109.48,61.07l7.83-3.31V46.91a7.82,7.82,0,0,0-3.91-6.78L67.47,13.61a7.82,7.82,0,0,0-7.83,0L13.71,40.13a7.83,7.83,0,0,0,0,13.56L93.82,99.94,63.55,117.41l-38.09-22V89.08L17.63,83.8,9.8,89.08V99.94a7.83,7.83,0,0,0,3.91,6.78l45.93,26.52a7.82,7.82,0,0,0,7.83,0l45.93-26.52a7.83,7.83,0,0,0,0-13.56L33.29,46.91,63.55,29.43l38.1,22v6.33Z"/><polygon class="cls-6" points="55.48 16.32 55.48 4.7 63.55 0 71.6 4.68 71.6 16.32 55.48 16.32"/><polygon class="cls-6" points="71.88 129.94 71.88 141.97 63.52 146.84 55.19 141.99 55.19 129.94 71.88 129.94"/><path class="cls-6" d="M198.86,67H186V16h12.89Z"/><path class="cls-6" d="M206.92,16h12.24l12.31,21.74L235.79,48l.36-.08c-.07,0-1.36-8.78-1.44-8.78V16h12.82V67h-13L223,46.89l-4.47-10.23-.36.07,1.66,9.87V67H206.92Z"/><path class="cls-6" d="M261.28,50.85c5.11,6.19,16.34,6.48,16.71,1,.14-2.88-4.54-4.53-8.72-5.11-8.21-1.29-15.7-6.48-15.7-16.2,0-10,9.08-15.27,18.44-15.27,6.19,0,12.17,1.73,17.42,8.14L281,29.89c-5.33-5.69-14.47-5.47-14.69.43.14,2.45,2.81,3.89,6.77,4.76,9.07,1.65,18.14,4.82,17.57,17.35-.43,9.87-10.8,15.27-20.16,15.27-6.13,0-12.61-3.1-17.36-9.22Z"/><path class="cls-6" d="M319.74,28.16V67h-13V28.16H293.17V15.92h40.11V28.16Z"/><path class="cls-6" d="M376.12,67H362.3L359,56.75H345.38L342.21,67H328.38l17.79-51h11.74ZM355.89,45.3l-3.53-14.9H352l-3.74,14.9Z"/><path class="cls-6" d="M379.5,16h12.89l10.73,24.91L413.92,16h12.89V67h-13l.07-14.69.79-10.3-.43-.07-6.7,17.5h-8.85l-6.84-17.5-.36.07.86,10.3V67H379.5Z"/><path class="cls-6" d="M447.9,36h20.67V47.17H447.9v7.64h22.47V67h-35.5V16h35.5V28.09H447.9Z"/><path class="cls-6" d="M265.28,76h13v38.23H299V127H265.28Z"/><path class="cls-6" d="M316.11,109.91c0,8.21,14.54,8.21,14.62,0V76h13v33.91c-.07,23.91-40.76,23.91-40.68,0V76h13Z"/><path class="cls-6" d="M379.83,76h15l-14.26,25.56L394.81,127h-15l-8.93-17.36L362.19,127H347.14l14.33-25.42L347.14,76h15.05l8.71,17.42Z"/></g></g></g></svg>