<svg id="Capa_1" data-name="Capa 1" xmlns="http://www.w3.org/2000/svg" width="1035.85mm" height="784.8mm" viewBox="0 0 2936.28 2224.63"><defs><style>.cls-1,.cls-3{fill:#f9dc2c;}.cls-2{fill:#f9dc2a;}.cls-10,.cls-11,.cls-12,.cls-13,.cls-14,.cls-15,.cls-16,.cls-17,.cls-18,.cls-19,.cls-2,.cls-20,.cls-21,.cls-22,.cls-23,.cls-24,.cls-25,.cls-26,.cls-27,.cls-28,.cls-29,.cls-3,.cls-30,.cls-31,.cls-32,.cls-33,.cls-34,.cls-35,.cls-36,.cls-37,.cls-38,.cls-39,.cls-4,.cls-40,.cls-41,.cls-42,.cls-43,.cls-44,.cls-45,.cls-46,.cls-47,.cls-48,.cls-49,.cls-5,.cls-50,.cls-51,.cls-52,.cls-53,.cls-54,.cls-55,.cls-58,.cls-6,.cls-60,.cls-61,.cls-62,.cls-63,.cls-7,.cls-8,.cls-9{fill-rule:evenodd;}.cls-4{fill:#f9dd2e;}.cls-5{fill:#f9dd30;}.cls-6{fill:#f9dd33;}.cls-7{fill:#f9de35;}.cls-8{fill:#f9de37;}.cls-9{fill:#f9de39;}.cls-10{fill:#f9df3b;}.cls-11{fill:#fadf3d;}.cls-12{fill:#fae03f;}.cls-13{fill:#fae041;}.cls-14{fill:#fae044;}.cls-15{fill:#fae146;}.cls-16{fill:#fae148;}.cls-17{fill:#fae14a;}.cls-18{fill:#fae24c;}.cls-19{fill:#fae24e;}.cls-20{fill:#fae250;}.cls-21{fill:#fae352;}.cls-22{fill:#fae355;}.cls-23{fill:#fae357;}.cls-24{fill:#fae459;}.cls-25{fill:#fae45b;}.cls-26{fill:#fae45d;}.cls-27{fill:#fbe55f;}.cls-28{fill:#fbe561;}.cls-29{fill:#fbe564;}.cls-30{fill:#fbe666;}.cls-31{fill:#fbe668;}.cls-32{fill:#fbe76a;}.cls-33{fill:#fbe76c;}.cls-34{fill:#fbe76e;}.cls-35{fill:#fbe870;}.cls-36{fill:#fbe872;}.cls-37{fill:#fbe875;}.cls-38{fill:#fbe977;}.cls-39{fill:#fbe979;}.cls-40{fill:#fbe97b;}.cls-41{fill:#fbea7d;}.cls-42{fill:#fbea7f;}.cls-43{fill:#fbea81;}.cls-44{fill:#fceb83;}.cls-45{fill:#fceb86;}.cls-46{fill:#fceb88;}.cls-47{fill:#fcec8a;}.cls-48{fill:#fcec8c;}.cls-49{fill:#fcec8e;}.cls-50{fill:#fced90;}.cls-51{fill:#fced92;}.cls-52{fill:#fcee95;}.cls-53{fill:#fcee97;}.cls-54{fill:#fcee99;}.cls-55,.cls-56{fill:#fcef9d;}.cls-57{fill:#fcef9f;}.cls-58,.cls-59{fill:#fcf0a1;}.cls-60{fill:#efd154;}.cls-61{fill:#fff;}.cls-62{fill:#ccc;}.cls-63{fill:#999;}</style></defs><title>Artboard 2</title><rect class="cls-1" y="-243.04" width="2942.47" height="2942.47"/><path class="cls-2" d="M3064.68,663.74c-320,340.15-867.86,564.46-1490.11,564.46C855.9,1228.2,236.44,929-47.28,497.69V-237.92h3112Z"/><path class="cls-2" d="M3064.68,643.73c-315.22,345-864.81,573.47-1490.11,573.47C850,1217.2,227.1,910.37-47.28,471V-237.92h3112Z"/><path class="cls-3" d="M3064.68,623.07c-310.16,350.14-861.5,583.12-1490.11,583.12C843.5,1206.19,216.88,891.1-47.28,443v-681h3112Z"/><path class="cls-4" d="M3064.68,602.17c-304.8,355.42-858.09,593-1490.11,593-738.2,0-1369-324.14-1621.85-781.56V-237.92h3112Z"/><path class="cls-4" d="M3064.68,580.55c-299.06,361-854.37,603.63-1490.11,603.63C828.41,1184.18,193,850-47.28,382.37V-237.92h3112Z"/><path class="cls-5" d="M3064.68,558.4c-292.93,366.91-850.42,614.78-1490.11,614.78-755.19,0-1395.88-345.42-1621.85-824.4v-586.7h3112Z"/><path class="cls-5" d="M3064.68,535.76c-286.39,373-846.27,626.42-1490.11,626.42-765.56,0-1412.35-358.27-1621.85-850V-237.92h3112Z"/><path class="cls-6" d="M3064.68,512.17c-279.3,379.61-841.72,639-1490.11,639C796.85,1151.17,142.82,778-47.28,271.78v-509.7h3112Z"/><path class="cls-6" d="M3064.68,487.78c-271.64,386.57-836.8,652.39-1490.11,652.39C782,1140.17,119,748.93-47.28,225.42V-237.92h3112Z"/><path class="cls-7" d="M3064.68,462.5c-263.32,394-831.5,666.66-1490.11,666.66-812.11,0-1486.83-414.59-1621.85-960v-402c.42-1.7.79-3.41,1.22-5.1H3064.68Z"/><path class="cls-7" d="M3064.68,436.16c-254.23,401.86-825.74,682-1490.11,682C732.05,1118.16,38.8,667.67-47.28,89.67v-243a838.91,838.91,0,0,1,17.11-84.62H3064.68Z"/><path class="cls-8" d="M3064.68,408.49c-244.2,410.4-819.39,698.67-1490.11,698.67-892.1,0-1615.29-509.94-1615.29-1139a819.25,819.25,0,0,1,26.44-206.1h3079Z"/><path class="cls-9" d="M3064.68,379.21c-233,419.69-812.32,716.94-1490.11,716.94-883.48,0-1599.69-505-1599.69-1128A811.09,811.09,0,0,1,1.62-237.92H3064.68Z"/><path class="cls-9" d="M3064.68,347.92c-220.41,429.94-804.34,737.23-1490.11,737.23C699.71,1085.15-9.51,585.06-9.51-31.82a803.53,803.53,0,0,1,27-206.1H3064.68Z"/><path class="cls-10" d="M3064.68,314.1c-206,441.37-795.21,760-1490.11,760C708.33,1074.14,6.1,579,6.1-31.82a796.06,796.06,0,0,1,27.3-206.1H3064.68Z"/><path class="cls-11" d="M3064.68,277.06c-189.1,454.32-784.62,786.08-1490.11,786.08C716.94,1063.14,21.7,572.91,21.7-31.82a788.37,788.37,0,0,1,27.59-206.1H3064.68Z"/><path class="cls-11" d="M3064.68,235.48c-168.83,469.38-771.93,816.65-1490.11,816.65-849,0-1537.26-485.3-1537.26-1083.95a780.43,780.43,0,0,1,27.87-206.1h2999.5Z"/><path class="cls-11" d="M3064.68,186.46c-143,487.9-755.8,854.67-1490.11,854.67C734.18,1041.13,52.91,560.75,52.91-31.82a772.61,772.61,0,0,1,28.17-206.1h2983.6Z"/><path class="cls-12" d="M3052.18-237.92q7.11,25.54,12.5,51.5v309.2C2958.51,636,2331.86,1030.12,1574.57,1030.12c-831.77,0-1506-475.44-1506-1061.94A764.94,764.94,0,0,1,97-237.92Z"/><path class="cls-13" d="M3036.28-237.92a758.29,758.29,0,0,1,28.4,187.53v37.15c-14.07,571.84-675.77,1032.36-1490.11,1032.36C751.42,1019.12,84.13,548.6,84.13-31.82a757,757,0,0,1,28.73-206.1Z"/><path class="cls-13" d="M3020.39-237.92a749.27,749.27,0,0,1,29,206.1c0,574.34-660.31,1039.94-1474.84,1039.94S99.73,542.52,99.73-31.82a749.27,749.27,0,0,1,29-206.1Z"/><path class="cls-14" d="M3004.5-237.92a741.72,741.72,0,0,1,29.3,206.1c0,568.26-653.32,1028.93-1459.23,1028.93S115.34,536.44,115.34-31.82a741.72,741.72,0,0,1,29.3-206.1Z"/><path class="cls-14" d="M2988.57-237.92a734,734,0,0,1,29.63,206.1c0,562.19-646.34,1017.93-1443.63,1017.93S131,530.37,131-31.82a734,734,0,0,1,29.62-206.1Z"/><path class="cls-15" d="M2972.6-237.92a726.06,726.06,0,0,1,30,206.1c0,556.11-639.35,1006.92-1428,1006.92s-1428-450.81-1428-1006.92a726.42,726.42,0,0,1,30-206.1Z"/><path class="cls-16" d="M2956.62-237.92A718.42,718.42,0,0,1,2987-31.82c0,550-632.35,995.92-1412.41,995.92S162.16,518.21,162.16-31.82a718.42,718.42,0,0,1,30.36-206.1Z"/><path class="cls-16" d="M2940.65-237.92a710.85,710.85,0,0,1,30.73,206.1c0,544-625.37,984.91-1396.81,984.91s-1396.8-441-1396.8-984.91a710.84,710.84,0,0,1,30.72-206.1Z"/><path class="cls-16" d="M2924.68-237.92a703.07,703.07,0,0,1,31.09,206.1c0,537.88-618.38,973.91-1381.2,973.91s-1381.2-436-1381.2-973.91a703.07,703.07,0,0,1,31.09-206.1Z"/><path class="cls-17" d="M2908.7-237.92a695.2,695.2,0,0,1,31.47,206.1c0,531.8-611.4,962.9-1365.6,962.9S209,500,209-31.82a695.2,695.2,0,0,1,31.46-206.1Z"/><path class="cls-18" d="M2892.73-237.92a687.46,687.46,0,0,1,31.83,206.1c0,525.72-604.41,951.9-1350,951.9s-1350-426.18-1350-951.9a687.46,687.46,0,0,1,31.83-206.1Z"/><path class="cls-18" d="M2876.76-237.92A680,680,0,0,1,2909-31.82c0,519.64-597.43,940.9-1334.39,940.9S240.19,487.82,240.19-31.82a679.71,679.71,0,0,1,32.2-206.1Z"/><path class="cls-19" d="M2860.78-237.92a672,672,0,0,1,32.57,206.1c0,513.57-590.44,929.89-1318.78,929.89S255.79,481.75,255.79-31.82a672,672,0,0,1,32.57-206.1Z"/><path class="cls-20" d="M2844.81-237.92a664.55,664.55,0,0,1,32.93,206.1c0,507.49-583.45,918.89-1303.17,918.89S271.4,475.67,271.4-31.82a664.55,664.55,0,0,1,32.93-206.1Z"/><path class="cls-20" d="M2828.8-237.92a657,657,0,0,1,33.33,206.1c0,501.41-576.46,907.89-1287.56,907.89S287,469.59,287-31.82a656.71,656.71,0,0,1,33.34-206.1Z"/><path class="cls-21" d="M2812.73-237.92a649.06,649.06,0,0,1,33.8,206.1c0,495.33-569.47,896.88-1272,896.88s-1272-401.55-1272-896.88a649.06,649.06,0,0,1,33.8-206.1Z"/><path class="cls-21" d="M2796.66-237.92a641.39,641.39,0,0,1,34.26,206.1c0,489.26-562.49,885.88-1256.35,885.88S318.22,457.44,318.22-31.82a641.39,641.39,0,0,1,34.26-206.1Z"/><path class="cls-22" d="M2780.59-237.92a633.34,633.34,0,0,1,34.73,206.1c0,483.18-555.5,874.87-1240.75,874.87S333.83,451.36,333.83-31.82a633.6,633.6,0,0,1,34.72-206.1Z"/><path class="cls-22" d="M2764.53-237.92a626,626,0,0,1,35.18,206.1c0,477.1-548.51,863.87-1225.14,863.87S349.43,445.28,349.43-31.82a625.72,625.72,0,0,1,35.19-206.1Z"/><path class="cls-23" d="M2748.46-237.92a618.13,618.13,0,0,1,35.64,206.1c0,471-541.52,852.86-1209.53,852.86S365,439.21,365-31.82c0-71.07,12.41-140.09,35.64-206.1Z"/><path class="cls-23" d="M2732.39-237.92c23.55,66,36.11,135,36.11,206.1C2768.5,433.13,2234,810,1574.57,810S380.65,433.13,380.65-31.82c0-71.11,12.56-140.14,36.1-206.1Z"/><path class="cls-24" d="M2716.33-237.92a603,603,0,0,1,36.56,206.1c0,458.87-527.55,830.86-1178.32,830.86S396.25,427.05,396.25-31.82a603.19,603.19,0,0,1,36.56-206.1Z"/><path class="cls-25" d="M2700.21-237.92c24.19,65.86,37.07,134.92,37.07,206.1C2737.28,421,2216.72,788,1574.57,788S411.86,421,411.86-31.82c0-71.18,12.88-140.24,37.07-206.1Z"/><path class="cls-25" d="M2684-237.92c24.53,65.81,37.64,134.87,37.64,206.1C2721.68,414.9,2208.1,777,1574.57,777S427.46,414.9,427.46-31.82c0-71.23,13.12-140.29,37.64-206.1Z"/><path class="cls-25" d="M2667.88-237.92c24.86,65.75,38.19,134.82,38.19,206.1,0,440.64-506.59,797.84-1131.5,797.84S443.07,408.82,443.07-31.82c0-71.28,13.33-140.35,38.2-206.1Z"/><path class="cls-26" d="M2651.71-237.92c25.22,65.7,38.76,134.78,38.76,206.1,0,434.56-499.61,786.84-1115.9,786.84S458.68,402.74,458.68-31.82c0-71.32,13.53-140.4,38.76-206.1Z"/><path class="cls-27" d="M2635.53-237.92c25.59,65.64,39.33,134.73,39.33,206.1,0,428.48-492.62,775.84-1100.29,775.84S474.28,396.66,474.28-31.82c0-71.37,13.74-140.46,39.33-206.1Z"/><path class="cls-27" d="M2619.36-237.92c26,65.57,39.89,134.69,39.89,206.1,0,422.4-485.63,764.83-1084.68,764.83S489.89,390.58,489.89-31.82c0-71.41,13.92-140.53,39.89-206.1Z"/><path class="cls-28" d="M2603.2-237.92c26.34,65.51,40.45,134.64,40.45,206.1C2643.65,384.51,2165,722,1574.57,722S505.49,384.51,505.49-31.82c0-71.46,14.11-140.59,40.46-206.1Z"/><path class="cls-29" d="M2586.92-237.92c26.75,65.44,41.12,134.59,41.12,206.1C2628,378.43,2156.39,711,1574.57,711S521.1,378.43,521.1-31.82c0-71.51,14.37-140.66,41.12-206.1Z"/><path class="cls-29" d="M2570.63-237.92c27.17,65.38,41.8,134.53,41.8,206.1,0,404.17-464.66,731.82-1037.86,731.82S536.71,372.35,536.71-31.82c0-71.57,14.63-140.72,41.8-206.1Z"/><path class="cls-29" d="M2554.35-237.92c27.59,65.31,42.48,134.47,42.48,206.1,0,398.09-457.68,720.81-1022.26,720.81S552.31,366.27,552.31-31.82c0-71.63,14.89-140.79,42.48-206.1Z"/><path class="cls-30" d="M2538.07-237.92c28,65.23,43.15,134.42,43.15,206.1,0,392-450.69,709.81-1006.65,709.81S567.92,360.2,567.92-31.82c0-71.68,15.13-140.87,43.16-206.1Z"/><path class="cls-31" d="M2521.78-237.92c28.48,65.15,43.83,134.36,43.83,206.1,0,385.94-443.7,698.8-991,698.8s-991-312.86-991-698.8c0-71.74,15.36-141,43.84-206.1Z"/><path class="cls-31" d="M2505.43-237.92c29,65.07,44.58,134.3,44.58,206.1C2550,348,2113.29,656,1574.57,656S599.13,348,599.13-31.82c0-71.8,15.63-141,44.58-206.1Z"/><path class="cls-31" d="M2489-237.92c29.44,65,45.38,134.23,45.38,206.1C2534.4,342,2104.67,645,1574.57,645S614.74,342,614.74-31.82c0-71.87,15.94-141.11,45.38-206.1Z"/><path class="cls-32" d="M2472.61-237.92c29.94,64.9,46.19,134.16,46.19,206.1,0,367.71-422.75,665.79-944.23,665.79S630.34,335.89,630.34-31.82c0-71.94,16.25-141.2,46.19-206.1Z"/><path class="cls-33" d="M2456.2-237.92c30.46,64.81,47,134.09,47,206.1,0,361.63-415.76,654.79-928.62,654.79S646,329.81,646-31.82c0-72,16.54-141.29,47-206.1Z"/><path class="cls-33" d="M2439.79-237.92c31,64.71,47.8,134,47.8,206.1,0,355.55-408.77,643.78-913,643.78s-913-288.23-913-643.78c0-72.08,16.81-141.39,47.8-206.1Z"/><path class="cls-34" d="M2423.26-237.92C2454.81-173.31,2472-104,2472-31.82,2472,317.66,2070.2,601,1574.57,601S677.16,317.66,677.16-31.82c0-72.16,17.18-141.49,48.73-206.1Z"/><path class="cls-34" d="M2406.7-237.92c32.14,64.5,49.67,133.86,49.67,206.1,0,343.4-394.79,621.77-881.8,621.77S692.77,311.58,692.77-31.82c0-72.24,17.54-141.6,49.67-206.1Z"/><path class="cls-35" d="M2390.15-237.92c32.74,64.39,50.62,133.77,50.62,206.1C2440.77,305.5,2053,579,1574.57,579S708.38,305.5,708.38-31.82c0-72.33,17.87-141.71,50.61-206.1Z"/><path class="cls-36" d="M2373.6-237.92c33.36,64.27,51.56,133.69,51.56,206.1,0,331.24-380.82,599.77-850.59,599.77S724,299.42,724-31.82c0-72.41,18.21-141.83,51.56-206.1Z"/><path class="cls-36" d="M2356.91-237.92c34,64.15,52.64,133.59,52.64,206.1,0,325.17-373.83,588.76-835,588.76s-835-263.59-835-588.76c0-72.51,18.64-142,52.64-206.1Z"/><path class="cls-36" d="M2340.21-237.92c34.68,64,53.73,133.49,53.73,206.1,0,319.09-366.84,577.76-819.37,577.76S755.2,287.27,755.2-31.82c0-72.61,19-142.08,53.73-206.1Z"/><path class="cls-37" d="M2323.51-237.92c35.38,63.88,54.83,133.39,54.83,206.1,0,313-359.86,566.75-803.77,566.75S770.8,281.19,770.8-31.82c0-72.71,19.45-142.22,54.83-206.1Z"/><path class="cls-38" d="M2306.72-237.92c36.12,63.73,56,133.28,56,206.1,0,306.93-352.87,555.75-788.16,555.75S786.41,275.11,786.41-31.82c0-72.82,19.89-142.37,56-206.1Z"/><path class="cls-38" d="M2289.86-237.92c36.89,63.58,57.27,133.16,57.27,206.1,0,300.86-345.89,544.75-772.56,544.75S802,269,802-31.82c0-72.94,20.39-142.52,57.27-206.1Z"/><path class="cls-39" d="M2273-237.92c37.68,63.42,58.52,133,58.52,206.1,0,294.78-338.9,533.74-756.95,533.74S817.62,263,817.62-31.82c0-73.06,20.84-142.68,58.52-206.1Z"/><path class="cls-40" d="M2256-237.92c38.52,63.24,59.89,132.91,59.89,206.1,0,288.7-331.92,522.74-741.35,522.74s-741.34-234-741.34-522.74c0-73.19,21.36-142.86,59.89-206.1Z"/><path class="cls-40" d="M2239-237.92c39.4,63.06,61.32,132.77,61.32,206.1,0,282.62-324.93,511.73-725.74,511.73S848.83,250.8,848.83-31.82c0-73.33,21.92-143,61.32-206.1Z"/><path class="cls-40" d="M2222-237.92c40.31,62.86,62.75,132.63,62.75,206.1,0,276.55-317.93,500.73-710.13,500.73S864.44,244.73,864.44-31.82c0-73.47,22.44-143.24,62.75-206.1Z"/><path class="cls-41" d="M2204.72-237.92c41.29,62.65,64.38,132.47,64.38,206.1,0,270.47-310.95,489.73-694.53,489.73S880,238.65,880-31.82c0-73.63,23.09-143.45,64.38-206.1Z"/><path class="cls-42" d="M2187.5-237.92c42.29,62.42,66,132.31,66,206.1,0,264.39-304,478.72-678.92,478.72S895.65,232.57,895.65-31.82c0-73.79,23.7-143.68,66-206.1Z"/><path class="cls-42" d="M2170.13-237.92c43.36,62.18,67.76,132.13,67.76,206.1,0,258.31-297,467.72-663.32,467.72S911.26,226.49,911.26-31.82c0-74,24.39-143.92,67.75-206.1Z"/><path class="cls-43" d="M2152.7-237.92c44.49,61.92,69.58,131.94,69.58,206.1,0,252.24-290,456.71-647.71,456.71S926.86,220.42,926.86-31.82C926.86-106,952-176,996.44-237.92Z"/><path class="cls-43" d="M2135.13-237.92c45.68,61.64,71.54,131.74,71.54,206.1,0,246.16-283,445.71-632.1,445.71S942.47,214.34,942.47-31.82c0-74.36,25.86-144.46,71.54-206.1Z"/><path class="cls-44" d="M2117.48-237.92c46.93,61.34,73.59,131.52,73.59,206.1,0,240.08-276,434.7-616.5,434.7S958.08,208.26,958.08-31.82c0-74.58,26.65-144.76,73.58-206.1Z"/><path class="cls-45" d="M2099.65-237.92c48.27,61,75.81,131.28,75.81,206.1,0,234-269,423.7-600.89,423.7S973.68,202.18,973.68-31.82c0-74.82,27.54-145.09,75.81-206.1Z"/><path class="cls-45" d="M2081.74-237.92c49.68,60.65,78.11,131,78.11,206.1,0,227.93-262,412.69-585.28,412.69S989.29,196.11,989.29-31.82c0-75.07,28.44-145.45,78.11-206.1Z"/><path class="cls-45" d="M2063.61-237.92c51.19,60.26,80.64,130.75,80.64,206.1,0,221.85-255,401.69-569.68,401.69S1004.9,190,1004.9-31.82c0-75.35,29.44-145.84,80.63-206.1Z"/><path class="cls-46" d="M2045.31-237.92c52.8,59.83,83.33,130.45,83.33,206.1,0,215.77-248.06,390.69-554.07,390.69S1020.5,184,1020.5-31.82c0-75.65,30.53-146.27,83.33-206.1Z"/><path class="cls-47" d="M2026.84-237.92c54.52,59.36,86.2,130.12,86.2,206.1,0,209.69-241.08,379.68-538.47,379.68s-538.46-170-538.46-379.68c0-76,31.67-146.74,86.19-206.1Z"/><path class="cls-47" d="M2008.16-237.92c56.36,58.84,89.27,129.76,89.27,206.1,0,203.62-234.09,368.68-522.86,368.68S1051.71,171.8,1051.71-31.82c0-76.34,32.91-147.26,89.27-206.1Z"/><path class="cls-48" d="M1989.17-237.92c58.36,58.26,92.65,129.35,92.65,206.1,0,197.54-227.1,357.67-507.25,357.67S1067.32,165.72,1067.32-31.82c0-76.75,34.29-147.84,92.65-206.1Z"/><path class="cls-49" d="M1969.91-237.92c60.5,57.61,96.31,128.91,96.31,206.1,0,191.46-220.12,346.67-491.65,346.67S1082.93,159.64,1082.93-31.82c0-77.19,35.8-148.49,96.31-206.1Z"/><path class="cls-49" d="M1950.31-237.92c62.84,56.89,100.3,128.41,100.3,206.1,0,185.38-213.13,335.66-476,335.66s-476-150.28-476-335.66c0-77.69,37.46-149.21,100.3-206.1Z"/><path class="cls-49" d="M1930.34-237.92C1995.74-181.86,2035-110.07,2035-31.82c0,179.31-206.14,324.66-460.43,324.66S1114.14,147.49,1114.14-31.82c0-78.25,39.27-150,104.67-206.1Z"/><path class="cls-50" d="M1909.87-237.92c68.2,55.12,109.53,127.21,109.53,206.1,0,173.23-199.16,313.66-444.83,313.66S1129.74,141.41,1129.74-31.82c0-78.89,41.33-151,109.53-206.1Z"/><path class="cls-51" d="M1888.85-237.92c71.3,54,114.94,126.47,114.94,206.1,0,167.15-192.17,302.65-429.22,302.65s-429.22-135.5-429.22-302.65c0-79.63,43.64-152.06,114.94-206.1Z"/><path class="cls-51" d="M1867.21-237.92c74.75,52.77,121,125.63,121,206.1,0,161.08-185.18,291.65-413.61,291.65S1161,129.26,1161-31.82c0-80.47,46.22-153.33,121-206.1Z"/><path class="cls-52" d="M1844.67-237.92c78.65,51.27,127.91,124.62,127.91,206.1,0,155-178.2,280.64-398,280.64s-398-125.64-398-280.64c0-81.48,49.26-154.83,127.91-206.1Z"/><path class="cls-52" d="M1821.11-237.92C1904.19-188.46,1957-114.49,1957-31.82c0,148.92-171.2,269.64-382.4,269.64s-382.4-120.72-382.4-269.64c0-82.67,52.78-156.64,135.86-206.1Z"/><path class="cls-53" d="M1796.16-237.92c88.22,47.23,145.21,122,145.21,206.1,0,142.84-164.22,258.64-366.8,258.64S1207.78,111,1207.78-31.82c0-84.13,57-158.87,145.2-206.1Z"/><path class="cls-54" d="M1769.28-237.92c94.33,44.4,156.48,120.13,156.48,206.1,0,136.76-157.23,247.63-351.19,247.63S1223.38,104.94,1223.38-31.82c0-86,62.15-161.7,156.48-206.1Z"/><path class="cls-54" d="M1739.51-237.92c101.87,40.62,170.64,117.69,170.64,206.1,0,130.69-150.24,236.63-335.58,236.63S1239,98.87,1239-31.82c0-88.41,68.77-165.48,170.64-206.1Z"/><path class="cls-54" d="M1704.92-237.92c111.75,35.19,189.63,114.23,189.63,206.1,0,124.61-143.26,225.62-320,225.62s-320-101-320-225.62c0-91.87,77.88-170.91,189.62-206.1Z"/><path class="cls-55" d="M1659.68-237.92c126.67,26,219.26,108.4,219.26,206.1,0,118.53-136.27,214.62-304.37,214.62S1270.2,86.71,1270.2-31.82c0-97.7,92.59-180.14,219.27-206.1Z"/><ellipse class="cls-56" cx="1574.57" cy="-31.82" rx="288.76" ry="203.61"/><ellipse class="cls-56" cx="1574.57" cy="-31.82" rx="273.16" ry="192.61"/><ellipse class="cls-57" cx="1574.57" cy="-31.82" rx="257.55" ry="181.6"/><path class="cls-58" d="M1574.57-202.42c133.62,0,241.94,76.38,241.94,170.6s-108.32,170.6-241.94,170.6S1332.63,62.4,1332.63-31.82,1441-202.42,1574.57-202.42Z"/><ellipse class="cls-59" cx="1574.57" cy="-31.82" rx="226.34" ry="159.6"/><ellipse class="cls-59" cx="1574.57" cy="-31.82" rx="210.73" ry="148.59"/><path class="cls-60" d="M0,1409.1c1182.62,342.41,1897-244.75,2010.74-740.62C2213.06,767.78,2813,1281,2942.47,1878.86v820.58H0Z"/><polygon class="cls-60" points="1981.88 485.94 2479.65 369.4 1484.05 355.76 1360.82 695.79 1791.22 543.02 1986.62 662.14 1981.88 485.94"/><path class="cls-61" d="M0,1409.1c925,469.74,1993.66,11.65,2016.92-826.81,195.81,183.06,837.83,819,925.55,1600.78v516.37H0Z"/><polygon class="cls-61" points="1533.52 33.34 2021.02 303.72 2520.81 184.92 1533.52 33.34"/><polygon class="cls-62" points="2021.02 303.72 2016.92 582.29 1533.52 33.34 2021.02 303.72"/><polygon class="cls-63" points="1533.52 33.34 1828.97 368.85 2016.92 582.29 1885.83 344.69 1533.52 33.34"/><polygon class="cls-61" points="1533.52 33.34 1394.23 553.61 1885.83 344.69 1533.52 33.34"/></svg>