<svg xmlns="http://www.w3.org/2000/svg" xmlns:xlink="http://www.w3.org/1999/xlink" viewBox="0 0 1096 750"><defs><style>.cls-1{fill:none;}.cls-2{isolation:isolate;}.cls-3{clip-path:url(#clip-path);}.cls-4{fill:url(#linear-gradient);}.cls-5{clip-path:url(#clip-path-2);}.cls-6{fill:url(#linear-gradient-2);}.cls-7{fill:#fff;}.cls-8{fill:#efefef;}.cls-9{fill:#ea9918;}.cls-10{fill:#f4cc25;}.cls-11{fill:#f0f1f1;}.cls-12{fill:#d3d2d2;}.cls-13{opacity:0.21;mix-blend-mode:multiply;}.cls-14{fill:#9ad9e2;}.cls-15{fill:#e8e8e8;}</style><clipPath id="clip-path"><rect class="cls-1" x="0.38" y="4" width="1095.24" height="742" transform="translate(1096 750) rotate(-180)"/></clipPath><linearGradient id="linear-gradient" x1="372.81" y1="530.52" x2="515.81" y2="-93.57" gradientTransform="matrix(-1, 0, 0, 1, 926, 0)" gradientUnits="userSpaceOnUse"><stop offset="0" stop-color="#fdeb71"/><stop offset="1" stop-color="#e5e5e5"/></linearGradient><clipPath id="clip-path-2"><path class="cls-1" d="M814.74,85.46c-45.35-5.89-96.34-8.24-131.53,20.68-30.62,25.17-41.39,68.28-71.87,93.62-33.51,27.86-81.45,27.53-125,32.17-48,5.13-99.56,21.11-125.35,61.51-17,26.59-20.83,61-42.88,83.7-35.65,36.64-97.66,24.19-145.2,43.53-51,20.77-80.15,83.42-62.84,135.26,10.07,30.15,32.87,54.48,57.43,74.92a418.25,418.25,0,0,0,169,84.75c78,18.8,159.53,14.83,239.84,13.59,97.44-1.5,195.71,1.13,291.47-16.82,49-9.19,98-24.24,138.14-53.53,53.62-39.14,86.44-99.76,113.78-159.88,10.92-24,21.43-49.16,21.12-75.49-.58-47.55-35.33-86.76-58.16-128.61a275.37,275.37,0,0,1-31.54-99.06c-2.37-19.89,3.6-49.22-14.57-62.91-24.34-18.32-74.74-21.32-104.18-27.49Q874,93.18,814.74,85.46Z"/></clipPath><linearGradient id="linear-gradient-2" x1="484.44" y1="482.17" x2="673.3" y2="-274.81" gradientTransform="matrix(1, 0, 0, -1, -135.94, 591.35)" xlink:href="#linear-gradient"/></defs><title>Artboard 13</title><g class="cls-2"><g id="template"><g class="cls-3"><path class="cls-4" d="M137.87,429.86c47.54-19.34,109.56-6.9,145.21-43.54,22-22.66,25.89-57.1,42.87-83.7,25.79-40.4,77.34-56.38,125.35-61.5,43.52-4.65,91.47-4.31,125-32.18,30.48-25.34,41.25-68.45,71.88-93.62,35.18-28.92,86.17-26.57,131.52-20.67q59.21,7.68,117.68,19.94c13.44,2.81,31.25,5,49,8.23v528H146c-4.58-3.49-9.11-7-13.53-10.73C107.9,619.59,85.1,595.27,75,565.12,57.72,513.28,86.83,450.62,137.87,429.86Z"/><g class="cls-5"><rect class="cls-6" x="-191.32" y="-50.24" width="1172.69" height="691.82" transform="translate(790.06 591.35) rotate(-180)"/></g><ellipse class="cls-7" cx="955.16" cy="51.35" rx="22.23" ry="21.99"/><ellipse class="cls-8" cx="41.72" cy="563.67" rx="30.79" ry="30.46"/><polygon class="cls-7" points="888.71 654.58 909.78 635.61 568.04 264 546.96 282.97 888.71 654.58"/><polygon class="cls-7" points="871.48 670.09 880.91 661.6 539.16 289.99 529.74 298.48 871.48 670.09"/><polygon class="cls-7" points="917.58 628.59 927.01 620.11 585.26 248.5 575.84 256.98 917.58 628.59"/><path class="cls-9" d="M630.51,335.74a172.63,172.63,0,0,1,10-19c3.87-6.31,8.29-13.12,9.07-20.2l15.69,12.81a2.24,2.24,0,0,1,.5.41c4.15,4.51-9.75,23.7-31.05,42.87-2,1.77-3.92,3.47-5.86,5.11a20.65,20.65,0,0,1-2.06-7.38C626.48,345.33,628.41,340.38,630.51,335.74Z"/><path class="cls-10" d="M588.71,379.21a2.51,2.51,0,0,1-.37-.53l-44.65-65.22,60.21-54.2,45.73,37.32c-.78,7.08-5.2,13.89-9.07,20.2a172.63,172.63,0,0,0-10,19c-2.1,4.64-4,9.59-3.66,14.66a20.65,20.65,0,0,0,2.06,7.38C609.82,373.89,592.47,383.31,588.71,379.21Z"/><path class="cls-10" d="M546.24,132.73c27.12,33,55.69,64.91,90.54,89.51,14,9.84,29,18.5,45.38,23.4a91.83,91.83,0,0,0,35.42,3.65l21.88,25.32h0c-18.25,16.42-44.15,19.3-62.71,6.85L507.35,167.73Z"/><path class="cls-9" d="M682.16,245.64c-16.41-4.9-31.43-13.56-45.38-23.4-34.85-24.6-63.42-56.55-90.54-89.51l2.86-2.58c20.37-18.33,50.56-17.36,67.25,2L717.58,249.29A91.83,91.83,0,0,1,682.16,245.64Z"/><path class="cls-9" d="M455.6,324.62,403,275.52a49.66,49.66,0,0,1,15.91-28.2l41.75-37.58,95.09,171.47c-15-.69-30-5.37-43.34-12.35C491.06,357.67,473.19,341,455.6,324.62Z"/><path class="cls-10" d="M403,275.52l52.58,49.1c17.59,16.42,35.46,33.05,56.83,44.24,13.34,7,28.36,11.66,43.34,12.35l3.39,6.1c10.78,19.45,5.44,44.69-12.8,61.11L414.56,313.74A43.33,43.33,0,0,1,403,275.52Z"/><path class="cls-1" d="M556.26,340.81a63.83,63.83,0,0,1-9.19,3.42A63.83,63.83,0,0,0,556.26,340.81Z"/><path class="cls-1" d="M574.14,330.68q-3.79,2.54-7.45,4.67Q570.34,333.22,574.14,330.68Z"/><path class="cls-1" d="M566.69,335.35c-2.42,1.43-4.79,2.71-7.07,3.86C561.9,338.06,564.27,336.78,566.69,335.35Z"/><path class="cls-9" d="M612.11,298c13.17-14.32,22-28.14,24-37.61l9.95,13.08c3.74,4.72-.11,15.28-9.08,27.77a51.18,51.18,0,0,0-12.25-2.88A115.42,115.42,0,0,0,612.11,298Z"/><path class="cls-10" d="M556.26,340.81c1.1-.5,2.22-1,3.36-1.6,2.28-1.15,4.65-2.43,7.07-3.86s4.92-3,7.45-4.67a206.64,206.64,0,0,0,23.51-18.38c5.24-4.72,10.09-9.52,14.46-14.27a115.42,115.42,0,0,1,12.62.36A51.18,51.18,0,0,1,637,301.27a174.3,174.3,0,0,1-24.66,27c-24.86,22.38-50.88,35-58.28,28.07l-12.22-11a35,35,0,0,0,5.25-1.07A63.83,63.83,0,0,0,556.26,340.81Z"/><path class="cls-11" d="M595,296.85c-11.53-2.55-21.17-10.13-30.26-17.6A1282.75,1282.75,0,0,1,403.53,120.81c3.4-2.69,6.8-5.54,10.15-8.56,18.29-16.46,31.92-34.69,39.4-50,40.83,25.41,75.17,56.43,101,90.32l82.07,107.89c-2,9.47-10.83,23.29-24,37.61C606.34,298.08,600.58,298.1,595,296.85Z"/><path class="cls-12" d="M359.61,146.34c13.19-4.83,28.7-13.53,43.92-25.53A1282.75,1282.75,0,0,0,564.71,279.25c9.09,7.47,18.73,15.05,30.26,17.6,5.61,1.25,11.37,1.23,17.14,1.18-4.37,4.75-9.22,9.55-14.46,14.27a206.64,206.64,0,0,1-23.51,18.38q-3.79,2.54-7.45,4.67c-2.42,1.43-4.79,2.71-7.07,3.86-1.14.57-2.26,1.1-3.36,1.6a63.83,63.83,0,0,1-9.19,3.42,35,35,0,0,1-5.25,1.07L441,254.29C409.31,225.71,381.34,189,359.61,146.34Z"/><path class="cls-9" d="M403.53,120.81A1274.08,1274.08,0,0,1,316.61,6.43,445.29,445.29,0,0,1,453.08,62.21c-7.48,15.35-21.11,33.58-39.4,50C410.33,115.27,406.93,118.12,403.53,120.81Z"/><path class="cls-10" d="M359.61,146.34a434.46,434.46,0,0,1-43.32-140h0l.32.08a1274.08,1274.08,0,0,0,86.92,114.38C388.31,132.81,372.8,141.51,359.61,146.34Z"/><path class="cls-13" d="M422.51,187.83a53.92,53.92,0,0,1,17.67-34.63,55.34,55.34,0,0,1,77.59,3.62,53.95,53.95,0,0,1-3.66,76.77,55.35,55.35,0,0,1-77.6-3.63A53.82,53.82,0,0,1,422.51,187.83Z"/><path class="cls-9" d="M468.92,201.51c-18.87-2.9-35.82-13.82-48.45-28a53.92,53.92,0,0,1,17.67-34.64,55.35,55.35,0,0,1,77.59,3.63,53.82,53.82,0,0,1,13.74,28.77,70.56,70.56,0,0,1-7.2,11.34C510,197.92,488.48,204.51,468.92,201.51Z"/><path class="cls-10" d="M420.47,173.49c12.63,14.2,29.58,25.12,48.45,28,19.56,3,41-3.59,53.35-18.92a70.56,70.56,0,0,0,7.2-11.34,54,54,0,0,1-17.4,48,55.34,55.34,0,0,1-77.59-3.62A53.81,53.81,0,0,1,420.47,173.49Z"/><path class="cls-7" d="M439.25,155.85l71.57-.21a42.14,42.14,0,0,1,4.06,7.67l-79.64.23A41.7,41.7,0,0,1,439.25,155.85Z"/><path class="cls-14" d="M435.24,163.54l79.64-.23a41.72,41.72,0,0,1,2.8,11.17l-85.18.25A42.32,42.32,0,0,1,435.24,163.54Z"/><path class="cls-14" d="M446.28,147.7a43.16,43.16,0,0,1,60.51,2.83,45,45,0,0,1,4,5.11l-71.57.21A42.77,42.77,0,0,1,446.28,147.7Z"/><path class="cls-7" d="M451.18,214.19l48.05-.14A43.23,43.23,0,0,1,451.18,214.19Z"/><path class="cls-14" d="M443.42,207.57A42.37,42.37,0,0,1,435.85,196l78.61-.23a42.19,42.19,0,0,1-10.53,14.62,42.73,42.73,0,0,1-4.7,3.66l-48.05.14A42.48,42.48,0,0,1,443.42,207.57Z"/><path class="cls-7" d="M432.5,174.73l85.18-.25a42,42,0,0,1-3.22,21.29l-78.61.23A42,42,0,0,1,432.5,174.73Z"/><ellipse class="cls-7" cx="92.88" cy="465.77" rx="18.26" ry="18.06"/><path class="cls-8" d="M285.38,454.62a6,6,0,1,0,5.95-5.89A5.92,5.92,0,0,0,285.38,454.62Z"/><path class="cls-7" d="M788.06,175.42a9.53,9.53,0,1,0,9.52-9.43A9.47,9.47,0,0,0,788.06,175.42Z"/><path class="cls-8" d="M873.16,50.44a15,15,0,1,0,15-14.88A15,15,0,0,0,873.16,50.44Z"/><ellipse class="cls-7" cx="412.09" cy="482.09" rx="22.19" ry="21.95"/><ellipse class="cls-7" cx="-5.39" cy="608.96" rx="19.92" ry="19.71"/><path class="cls-7" d="M742.77,416.17a10.41,10.41,0,1,0,10.67-10.05A10.35,10.35,0,0,0,742.77,416.17Z"/><ellipse class="cls-7" cx="602.58" cy="471.51" rx="5.89" ry="5.82"/><path class="cls-7" d="M755.08,363.75a5.88,5.88,0,1,0,6-5.67A5.84,5.84,0,0,0,755.08,363.75Z"/><ellipse class="cls-15" cx="897.71" cy="152.5" rx="16.3" ry="16.13"/><path class="cls-15" d="M862.63,305.79a6.79,6.79,0,1,0,7-6.55A6.76,6.76,0,0,0,862.63,305.79Z"/><path class="cls-15" d="M298.41,572.51a16.3,16.3,0,1,0,16.69-15.72A16.19,16.19,0,0,0,298.41,572.51Z"/><ellipse class="cls-15" cx="205.46" cy="521.85" rx="5.89" ry="5.82"/><ellipse class="cls-15" cx="136.26" cy="572.13" rx="8.15" ry="8.06"/><ellipse class="cls-15" cx="818.43" cy="461.55" rx="22.64" ry="22.4"/><path class="cls-15" d="M717.58,546a10,10,0,1,0,10.2-9.6A9.89,9.89,0,0,0,717.58,546Z"/><path class="cls-15" d="M660.34,534.76a7.7,7.7,0,1,1,7.5,7.8A7.66,7.66,0,0,1,660.34,534.76Z"/><path class="cls-7" d="M958.76,378.21a37.58,37.58,0,0,0-15.06,24.23,45.92,45.92,0,0,0-42.43,13.26c-.14-.21-.26-.42-.41-.62a38.47,38.47,0,0,0-53.38-8.14,37.67,37.67,0,0,0-7.35,7.06A56.87,56.87,0,0,0,776,403.71a69.25,69.25,0,0,0-84.32-2.47,67.5,67.5,0,0,0-14.8,95,69.08,69.08,0,0,0,9.85,10.66,37.48,37.48,0,0,0-7.47,52.19,38,38,0,0,0,16.08,12.49c.06.4.16.81.22,1.21a40.89,40.89,0,0,0-6.41,3.77,39.28,39.28,0,0,0-15.91,37.36,29.73,29.73,0,0,0-15.5,5.59A29.24,29.24,0,0,0,648,631.7c-.59-.16-6.32-1.55-10.58,2.19-.52.45-3.6,3.15-3.45,7.11.12,3.22,2.31,5.39,4,7,3.14,3,6.14,3.89,12,6,3,1.09,7.5,2.75,13,5a144.88,144.88,0,0,1,31,2c2.84.52,7.32,1.46,11-1,4.38-2.93,5.16-9,5.32-12.22a40,40,0,0,0,26-7.55,39.36,39.36,0,0,0,11.23-12.62,40.86,40.86,0,0,0,28.64-7.52A40.1,40.1,0,0,0,791.48,598a51.7,51.7,0,0,0,47.27-6.95,50.51,50.51,0,0,0,20.19-32.35,64.22,64.22,0,0,0,21-30.52,50.28,50.28,0,0,0,48.68-5.7A49.11,49.11,0,0,0,948.24,491a46.48,46.48,0,0,0,13.8-6.81,45.53,45.53,0,0,0,18.87-37.76,38.22,38.22,0,0,0,23-7.26,37.51,37.51,0,0,0,8.23-52.8A38.47,38.47,0,0,0,958.76,378.21Z"/><path class="cls-8" d="M975.28,496.74a29.38,29.38,0,0,0,4.3,2.49,29.84,29.84,0,0,0,42.13-22.58,45.36,45.36,0,0,0,14.64-81.14,25,25,0,0,0-14.23-19.69l-.1,0a23,23,0,0,0-41.52-19.27,27.17,27.17,0,0,0-23.93,41.24,30.66,30.66,0,0,0-21.18,40.07,35.58,35.58,0,1,0,39.89,58.92Z"/><path class="cls-8" d="M897.4,585.24c25.14,3.7,48.41-12,52.2-35.52,0-.2,0-.39.06-.59,28.15.91,52.92-17.63,57.23-44.32,4.28-26.53-13.14-51.86-39.83-60.16a52.52,52.52,0,0,0,9.69-55.15c19.59,2.57,37.59-9.76,40.54-28.08.06-.39.08-.77.12-1.15l1.68.32c32.23,5.28,62.3-14.8,67.15-44.85,3.55-22-7.43-43.28-26.22-55.16a33,33,0,0,0,14.43-22.16c2-12.37-3.4-24.34-13.07-32a57.85,57.85,0,0,0,24.41-38.26c5-30.81-16-60.27-47.73-68.6a38.92,38.92,0,0,0,3.07-10c3.46-21.42-11.16-41.88-33.18-47.66-2.26-12.54-9.7-22.17-19.88-23.83-14.2-2.33-28.28,11.69-31.44,31.32-.16,1-.25,1.88-.35,2.81a32.13,32.13,0,0,0-13.54,21.22,31.62,31.62,0,0,0-.36,3.72c-13.14,3.69-23.45,14-25.64,27.66a33.45,33.45,0,0,0,4,21.74,51.18,51.18,0,0,0-15.84,29.34c-3.15,19.55,5.42,38.45,20.75,50.49-10.07,5-17.54,14.22-19.39,25.67a34.62,34.62,0,0,0,5.57,24.78c-9.66,2.33-17.33,9.76-18.92,19.62a23.37,23.37,0,0,0,1.84,13.39,51.21,51.21,0,0,0-16.26,29.73,52.19,52.19,0,0,0,10.71,40.49c-14.19,8-24.56,21.66-27.25,38.33A53.9,53.9,0,0,0,872.8,440c-10.41,5.29-18.12,14.88-20,26.77s2.34,23.37,10.49,31.71a31.75,31.75,0,0,0-17.42,23.21,31.43,31.43,0,0,0,5.79,23.51,27.54,27.54,0,0,0-9.16,16.34c-2.55,15.81,9.13,30.88,26.08,33.66A31.43,31.43,0,0,0,897.4,585.24Z"/><path class="cls-8" d="M54.06,637.93a40.53,40.53,0,0,1,37.46-43.48,39.84,39.84,0,0,1,7,.08,80.61,80.61,0,0,1,141.89,4.67,77.66,77.66,0,0,1,107.39-10,50.86,50.86,0,0,1-3.57-15c-2.26-28,18.88-52.61,47.22-54.85a51.72,51.72,0,0,1,29.06,6.23,76.88,76.88,0,0,1,60.67-38.18c40.25-3.19,75.67,24.95,81.95,63.73a77.43,77.43,0,0,1,54.25,16.84c1-1.29,2-2.54,3.13-3.75a44.64,44.64,0,0,1-5-17.25c-2-24.88,16.75-46.66,41.89-48.64a45.83,45.83,0,0,1,36,13.2A74.43,74.43,0,0,1,812.59,485,74.16,74.16,0,0,1,865,457c40.85-3.23,76.62,26.92,79.88,67.35a2.26,2.26,0,0,1,0,.26c1.75-.25,3.49-.54,5.28-.68,43.78-3.46,82.1,28.84,85.6,72.15s-29.16,81.23-72.94,84.69a79.73,79.73,0,0,1-71-32.78,64.3,64.3,0,0,1-104.46,25.77,40.91,40.91,0,0,1-38.11-8.45,53.78,53.78,0,0,1-67.68,3.78,65.64,65.64,0,0,1-8,1.19,64.63,64.63,0,0,1-36.31-7.77,77.48,77.48,0,0,1-115.4,25.34,38.84,38.84,0,0,1-57.32,15.55,43.86,43.86,0,0,1-71.93,14.69,40.67,40.67,0,0,1-57.65-1.7,77.91,77.91,0,0,1-80.84-5.9A40.23,40.23,0,0,1,175.86,717,48.06,48.06,0,0,1,143.68,733C117.2,735.08,94,715.54,91.9,689.34a46.77,46.77,0,0,1,1-14.29A40.64,40.64,0,0,1,54.06,637.93Z"/><path class="cls-7" d="M899.44,126.14a1.27,1.27,0,0,0-.18-.06c-42-11.69-89.12,24.31-105.22,80.4-13.8,48.1-.27,95.26,30.33,115.14a77.58,77.58,0,0,0-19,33.17,82.53,82.53,0,0,0-2.88,15.89c-13.11,12.74-23.82,30.24-29.74,50.88-14.25,49.66,4.34,98.31,41.54,108.66.49.14,1,.18,1.48.31,4.69,14.58,14.38,25.68,27.7,29.39,24.8,6.9,52.6-14.34,62.1-47.45,4.08-14.25,4.09-28.37.83-40.39a33,33,0,0,0,7.41,3.12c23.29,6.49,49.41-13.48,58.33-44.58,4.51-15.71,3.75-31.25-1.09-43.63a39.1,39.1,0,0,0,9.05-16.1,38.08,38.08,0,0,0,.52-19.53c11.07-8,20.32-21.11,24.95-37.23a72.36,72.36,0,0,0,1.66-34.23,94.17,94.17,0,0,0,18-34.41c9-31.48,1.45-62.38-16.93-77.87.63-1.8,1.26-3.6,1.79-5.46,11.88-41.39-3.62-81.93-34.61-90.55C945.72,63.32,912.53,87.54,899.44,126.14Z"/><path class="cls-7" d="M738.87,486.24a26.75,26.75,0,0,0-35.21-20.7,52.79,52.79,0,0,0-89.57,25.08,50.9,50.9,0,0,0-70,10.35,33.5,33.5,0,0,0-38.91-37.67,33.8,33.8,0,0,0-17.51,8.49A50.68,50.68,0,0,0,443,457a49.93,49.93,0,0,0-42,53.33,50.58,50.58,0,0,0-31.86,19.17c-.84-.66-1.7-1.3-2.59-1.9A29.28,29.28,0,0,0,367,515.8a30,30,0,0,0-55.23-10.42,48.83,48.83,0,0,0-80.07,1.68,48.92,48.92,0,0,0-37.83-9.62,48.22,48.22,0,0,0-40.13,55.32l0,.16c-1.15.12-2.31.21-3.47.39-28.42,4.62-47.67,31.15-43,59.27s31.49,47.16,59.91,42.54a51.93,51.93,0,0,0,40-31.93,42.19,42.19,0,0,0,70.59.13,27.35,27.35,0,0,0,5.39-.33,26.57,26.57,0,0,0,17.53-11,35.23,35.23,0,0,0,43.68-8.14,43.35,43.35,0,0,0,5.29-.49,42.17,42.17,0,0,0,21.88-10.61A50.85,50.85,0,0,0,449,590.91a25.48,25.48,0,0,0,39,1A28.78,28.78,0,0,0,536.12,590,26.64,26.64,0,0,0,572.55,580a51.24,51.24,0,0,0,20.1.72,50.54,50.54,0,0,0,30.41-17.08,26.37,26.37,0,0,0,50.87-8,31.67,31.67,0,0,0,23,5.14,31.25,31.25,0,0,0,26-35.85,30.79,30.79,0,0,0-2.93-8.94A26.48,26.48,0,0,0,738.87,486.24Z"/><path class="cls-7" d="M861.68,465.72c1.24-44.33,66.21-15.31,56.9,30.78-7.33,36.25-42.67,50.84-69.26,22.74C896.17,568.75,796,612,773.6,559.36c-33.44,48.21-135.6,40.22-150.53-18.57C606.6,475.91,683.78,435.33,730.65,481c-36.55-51.07,66-78.43,64.22-30.75,0,.58,0,1,0,1.27,1.34-27.22,5.93-62.5,44.28-54C873.41,405.06,863.27,440.47,861.68,465.72Z"/></g></g></g></svg>