<?xml version="1.0"?>
<svg xmlns="http://www.w3.org/2000/svg" height="512px" viewBox="0 -1 512 511" width="512px"><path d="m419.863281 328.191406c0 19.539063 15.898438 35.4375 35.4375 35.4375 19.542969 0 35.4375-15.898437 35.4375-35.4375 0-19.542968-15.894531-35.441406-35.4375-35.441406-19.539062 0-35.4375 15.898438-35.4375 35.441406zm55.882813 0c0 11.269532-9.171875 20.441406-20.445313 20.441406-11.269531 0-20.441406-9.171874-20.441406-20.441406 0-11.273437 9.171875-20.445312 20.441406-20.445312 11.273438 0 20.445313 9.171875 20.445313 20.445312zm0 0" fill="#FFFFFF"/><path d="m504.503906 366.859375c4.140625 0 7.496094-3.359375 7.496094-7.5v-79.351563c0-9.292968-7.558594-16.851562-16.847656-16.851562h-213.425782c-9.292968 0-16.847656 7.558594-16.847656 16.851562v213.421876c0 9.292968 7.558594 16.851562 16.847656 16.851562h213.425782c9.289062 0 16.847656-7.558594 16.847656-16.851562v-99.578126c0-4.144531-3.355469-7.5-7.496094-7.5-4.144531 0-7.5 3.355469-7.5 7.5v55.5l-45.753906-51.5625c-1.925781-2.171874-4.699219-3.46875-7.601562-3.558593-2.894532-.066407-5.75 1.039062-7.808594 3.097656l-29.207032 29.191406-39.859374-44.921875c-1.929688-2.171875-4.703126-3.472656-7.605469-3.558594-2.882813-.078124-5.75 1.039063-7.808594 3.097657l-71.488281 71.453125v-172.582032c0-1.023437.832031-1.855468 1.851562-1.855468h213.425782c1.023437 0 1.855468.832031 1.855468 1.855468v79.351563c0 4.140625 3.359375 7.5 7.5 7.5zm-145.847656 28.1875 40.703125 45.871094c.359375.734375.832031 1.425781 1.441406 2.035156.390625.394531.820313.726563 1.265625 1.015625l9.828125 11.074219c2.75 3.097656 7.488281 3.382812 10.585938.632812 3.097656-2.75 3.378906-7.488281.632812-10.585937l-6.507812-7.332032 26.53125-26.519531 53.871093 60.707031v21.488282c0 1.023437-.832031 1.851562-1.855468 1.851562h-213.425782c-1.023437 0-1.855468-.828125-1.855468-1.851562v-19.636719zm0 0" fill="#FFFFFF"/><path d="m230.273438.5h-213.425782c-9.289062 0-16.847656 7.558594-16.847656 16.847656v213.425782c0 9.292968 7.558594 16.851562 16.847656 16.851562h35.273438c4.140625 0 7.5-3.355469 7.5-7.5 0-4.140625-3.359375-7.496094-7.5-7.496094h-35.273438c-1.019531 0-1.851562-.832031-1.851562-1.855468v-213.425782c0-1.019531.832031-1.851562 1.851562-1.851562h213.425782c1.023437 0 1.855468.832031 1.855468 1.851562v213.425782c0 1.023437-.832031 1.855468-1.855468 1.855468h-143.332032c-4.144531 0-7.5 3.355469-7.5 7.496094 0 4.144531 3.355469 7.5 7.5 7.5h143.332032c9.292968 0 16.851562-7.558594 16.851562-16.851562v-213.425782c0-9.289062-7.558594-16.847656-16.851562-16.847656zm0 0" fill="#FFFFFF"/><path d="m166.5 220.109375c5.40625 0 9.808594-4.398437 9.808594-9.808594v-15.058593c0-5.40625-4.398438-9.804688-9.808594-9.804688h-11.9375c-2.214844-.023438-3.117188-.621094-3.652344-1.191406-1.902344-2.019532-2.472656-6.832032-2.277344-9.519532.023438-.273437.035157-.53125.035157-.804687v-96.734375h5.503906c8.917969 1.324219 11.695313 11.902344 12.480469 16.421875.8125 4.714844 4.878906 8.132813 9.660156 8.132813h18.472656c5.410156 0 9.808594-4.398438 9.808594-9.804688v-54.117188c0-5.40625-4.398438-9.808593-9.808594-9.808593h-142.445312c-5.410156 0-9.808594 4.398437-9.808594 9.808593v54.117188c0 5.40625 4.398438 9.804688 9.808594 9.804688h18.472656c4.78125 0 8.84375-3.417969 9.660156-8.128907.785156-4.519531 3.558594-15.085937 12.484375-16.425781h5.5v96.734375c0 .273437.011719.53125.027344.71875.203125 2.773437-.367187 7.585937-2.269531 9.605469-.535156.570312-1.417969 1.246094-3.75 1.191406h-11.839844c-5.410156 0-9.808594 4.398438-9.808594 9.804688v15.058593c0 5.410157 4.398438 9.808594 9.808594 9.808594zm-80.6875-19.675781 6.550781-.003906c.113281.003906.222657.003906.332031.003906 5.808594 0 10.792969-2.039063 14.433594-5.90625 6.667969-7.074219 6.496094-17.910156 6.324219-20.769532v-101.757812c0-5.410156-4.398437-9.808594-9.808594-9.808594h-11.019531c-.433594 0-.863281.027344-1.253906.078125-12.042969 1.507813-21.070313 10.542969-24.738282 24.476563h-9.105468v-43.738282h132.070312v43.738282h-9.105468c-3.671876-13.933594-12.699219-22.96875-24.714844-24.472656-.417969-.054688-.847656-.082032-1.277344-.082032h-11.023438c-5.40625 0-9.804687 4.398438-9.804687 9.808594v101.738281c-.167969 2.613281-.425781 13.628907 6.320313 20.792969 3.710937 3.9375 8.792968 5.949219 14.667968 5.902344h6.652344v4.683594h-75.5zm0 0" fill="#FFFFFF"/><path d="m495.152344.5h-213.425782c-9.292968 0-16.847656 7.558594-16.847656 16.847656v213.425782c0 9.292968 7.558594 16.851562 16.847656 16.851562h213.425782c9.289062 0 16.847656-7.558594 16.847656-16.851562v-213.425782c0-9.289062-7.558594-16.847656-16.847656-16.847656zm1.851562 230.273438c0 1.023437-.832031 1.855468-1.851562 1.855468h-213.425782c-1.023437 0-1.855468-.832031-1.855468-1.855468v-213.425782c0-1.019531.832031-1.851562 1.855468-1.851562h213.425782c1.019531 0 1.851562.832031 1.851562 1.851562zm0 0" fill="#FFFFFF"/><path d="m347.804688 115.90625h-41.136719c-4.144531 0-7.5-3.355469-7.5-7.496094 0-4.144531 3.355469-7.5 7.5-7.5h41.136719c4.144531 0 7.5 3.355469 7.5 7.5 0 4.140625-3.355469 7.496094-7.5 7.496094zm0 0" fill="#FFFFFF"/><path d="m400.703125 115.90625h-18.203125c-4.140625 0-7.496094-3.355469-7.496094-7.496094 0-4.144531 3.355469-7.5 7.496094-7.5h18.203125c4.140625 0 7.5 3.355469 7.5 7.5 0 4.140625-3.359375 7.496094-7.5 7.496094zm0 0" fill="#FFFFFF"/><path d="m470.210938 115.90625h-34.761719c-4.140625 0-7.5-3.355469-7.5-7.496094 0-4.144531 3.359375-7.5 7.5-7.5h34.761719c4.140624 0 7.496093 3.355469 7.496093 7.5 0 4.140625-3.355469 7.496094-7.496093 7.496094zm0 0" fill="#FFFFFF"/><path d="m322.8125 151.042969h-16.144531c-4.144531 0-7.5-3.355469-7.5-7.496094 0-4.144531 3.355469-7.5 7.5-7.5h16.144531c4.144531 0 7.5 3.355469 7.5 7.5 0 4.140625-3.355469 7.496094-7.5 7.496094zm0 0" fill="#FFFFFF"/><path d="m411.949219 151.042969h-54.351563c-4.140625 0-7.496094-3.355469-7.496094-7.496094 0-4.144531 3.355469-7.5 7.496094-7.5h54.351563c4.140625 0 7.496093 3.355469 7.496093 7.5 0 4.140625-3.355468 7.496094-7.496093 7.496094zm0 0" fill="#FFFFFF"/><path d="m470.210938 151.042969h-23.765626c-4.140624 0-7.496093-3.355469-7.496093-7.496094 0-4.144531 3.355469-7.5 7.496093-7.5h23.765626c4.140624 0 7.496093 3.355469 7.496093 7.5 0 4.140625-3.355469 7.496094-7.496093 7.496094zm0 0" fill="#FFFFFF"/><path d="m344.652344 183.367188h-37.984375c-4.144531 0-7.5-3.355469-7.5-7.496094s3.355469-7.5 7.5-7.5h37.984375c4.140625 0 7.496094 3.359375 7.496094 7.5s-3.355469 7.496094-7.496094 7.496094zm0 0" fill="#FFFFFF"/><path d="m426.949219 183.367188h-48.152344c-4.140625 0-7.496094-3.355469-7.496094-7.496094s3.355469-7.5 7.496094-7.5h48.152344c4.140625 0 7.5 3.359375 7.5 7.5s-3.359375 7.496094-7.5 7.496094zm0 0" fill="#FFFFFF"/><path d="m470.210938 183.367188h-8.601563c-4.144531 0-7.5-3.355469-7.5-7.496094s3.355469-7.5 7.5-7.5h8.601563c4.140624 0 7.496093 3.359375 7.496093 7.5s-3.355469 7.496094-7.496093 7.496094zm0 0" fill="#FFFFFF"/><path d="m438.933594 79.75h-100.988282c-4.144531 0-7.5-3.355469-7.5-7.496094 0-4.144531 3.355469-7.5 7.5-7.5h100.988282c4.140625 0 7.496094 3.355469 7.496094 7.5 0 4.140625-3.355469 7.496094-7.496094 7.496094zm0 0" fill="#FFFFFF"/><path d="m230.273438 263.15625h-213.425782c-9.289062 0-16.847656 7.558594-16.847656 16.851562v213.421876c0 9.292968 7.558594 16.851562 16.847656 16.851562h213.425782c9.292968 0 16.847656-7.558594 16.847656-16.851562v-213.421876c.003906-9.292968-7.554688-16.851562-16.847656-16.851562zm1.855468 230.277344c0 1.019531-.832031 1.851562-1.855468 1.851562h-213.425782c-1.019531 0-1.851562-.828125-1.851562-1.851562v-213.425782c0-1.023437.832031-1.855468 1.851562-1.855468h213.425782c1.023437 0 1.855468.832031 1.855468 1.855468zm0 0" fill="#FFFFFF"/><path d="m118.894531 296.019531h-76.878906c-10.40625 0-18.871094 8.464844-18.871094 18.871094v143.660156c0 10.402344 8.464844 18.867188 18.871094 18.867188h76.878906c10.40625 0 18.867188-8.464844 18.867188-18.867188v-143.660156c.003906-10.40625-8.460938-18.871094-18.867188-18.871094zm-80.753906 21.746094 33.957031 68.953125-33.957031 68.953125zm13.394531-6.75h57.839844l-28.921875 58.730469zm28.921875 92.675781 28.921875 58.730469h-57.84375zm8.355469-16.972656 33.957031-68.953125v137.90625zm0 0" fill="#FFFFFF"/><path d="m202.917969 395.484375h-33.242188c-11.609375 0-21.058593 9.449219-21.058593 21.058594v39.816406c0 11.613281 9.449218 21.058594 21.058593 21.058594h33.242188c11.613281 0 21.058593-9.445313 21.058593-21.058594v-39.816406c0-11.609375-9.445312-21.058594-21.058593-21.058594zm6.0625 60.875c0 3.34375-2.71875 6.0625-6.0625 6.0625h-33.242188c-3.34375 0-6.0625-2.71875-6.0625-6.0625v-39.8125c0-3.34375 2.71875-6.0625 6.0625-6.0625h33.242188c3.34375 0 6.0625 2.71875 6.0625 6.0625zm0 0" fill="#FFFFFF"/><path d="m202.917969 296.019531h-33.242188c-11.609375 0-21.058593 9.445313-21.058593 21.058594v39.816406c0 11.609375 9.449218 21.054688 21.058593 21.054688h33.242188c11.613281 0 21.058593-9.445313 21.058593-21.054688v-39.816406c0-11.613281-9.445312-21.058594-21.058593-21.058594zm6.0625 60.875c0 3.339844-2.71875 6.058594-6.0625 6.058594h-33.242188c-3.34375 0-6.0625-2.71875-6.0625-6.058594v-39.816406c0-3.34375 2.71875-6.0625 6.0625-6.0625h33.242188c3.34375 0 6.0625 2.71875 6.0625 6.0625zm0 0" fill="#FFFFFF"/></svg>
