<svg viewBox="1 1 511.99998 511.99998" xmlns="http://www.w3.org/2000/svg"><path d="m512 256c0 32.121094-5.914062 62.859375-16.71875 91.199219-23.792969 62.378906-71.273438 113.058593-131.449219 141.050781-32.765625 15.246094-69.308593 23.75-107.832031 23.75-141.386719 0-256-114.613281-256-256s114.613281-256 256-256 256 114.613281 256 256zm0 0" fill="#ff4f9b"/><path d="m364.65625 19.007812h-332.25c-9.242188 0-16.734375 7.492188-16.734375 16.734376v257.179687c0 9.238281 7.492187 16.730469 16.734375 16.730469h332.25c9.242188 0 16.730469-7.492188 16.730469-16.730469v-257.179687c.003906-9.242188-7.488281-16.734376-16.730469-16.734376zm0 0" fill="#ededed"/><path d="m44.542969 47.878906h307.972656v232.902344h-307.972656zm0 0" fill="#fff"/><path d="m342.890625 112.398438v158.757812h-288.722656v-76.117188l98.167969-70.3125 74.769531 49.691407 89.800781-84.191407zm0 0" fill="#f4a441"/><g fill="#fcda42"><path d="m126.933594 97.039062c0 16.332032-13.238282 29.570313-29.570313 29.570313s-29.574219-13.238281-29.574219-29.570313c0-16.332031 13.242188-29.574218 29.574219-29.574218s29.570313 13.242187 29.570313 29.574218zm0 0"/><path d="m316.90625 90.226562-89.800781 84.191407 74.597656 49.574219"/><path d="m152.335938 124.726562-41.238282 146.429688h-56.929687v-76.117188zm0 0"/></g><path d="m475.890625 192.875 33.441406-21.640625c4.996094-3.234375 2.472657-11-3.472656-10.679687l-39.753906 2.15625c-4.210938.226562-7.253907-3.960938-5.738281-7.894532l14.339843-37.1875c2.140625-5.550781-4.460937-10.351562-9.082031-6.597656l-30.941406 25.105469c-3.269532 2.65625-8.1875 1.054687-9.273438-3.011719l-10.265625-38.503906c-1.535156-5.75-9.695312-5.75-11.230469 0l-10.265624 38.503906c-1.085938 4.066406-6.003907 5.667969-9.277344 3.015625l-30.9375-25.109375c-4.621094-3.75-11.222656 1.046875-9.082032 6.601562l14.335938 37.1875c1.519531 3.933594-1.527344 8.121094-5.734375 7.890626l-39.753906-2.152344c-5.945313-.320313-8.46875 7.445312-3.46875 10.679687l33.4375 21.636719c3.539062 2.292969 3.539062 7.46875 0 9.757812l-33.441407 21.640626c-4.996093 3.234374-2.472656 11 3.472657 10.679687l39.753906-2.15625c4.207031-.226563 7.253906 3.960937 5.734375 7.890625l-14.335938 37.1875c-2.140624 5.554688 4.460938 10.351562 9.082032 6.601562l30.9375-25.109374c3.273437-2.652344 8.191406-1.054688 9.277344 3.015624l10.265624 38.5c1.535157 5.75 9.695313 5.75 11.226563 0l10.269531-38.5c1.085938-4.070312 6.003906-5.667968 9.273438-3.015624l30.941406 25.105468c4.621094 3.753906 11.222656-1.046875 9.082031-6.601562l-14.339843-37.1875c-1.515626-3.929688 1.527343-8.117188 5.738281-7.890625l39.753906 2.15625c5.945313.320312 8.46875-7.445313 3.46875-10.679688l-33.4375-21.640625c-3.539063-2.289062-3.539063-7.464844 0-9.753906zm0 0" fill="#fff"/><path d="m495.28125 257.242188v89.957031c-23.792969 62.378906-71.273438 113.058593-131.449219 141.050781h-169.566406c-17.84375 0-32.304687-14.460938-32.304687-32.296875v-198.710937c0-17.84375 14.460937-32.308594 32.304687-32.308594h12.5c7.972656 0 15.410156-2.765625 21.292969-7.480469 5.882812-4.722656 10.210937-11.378906 11.945312-19.164063 3.46875-15.566406 17.28125-26.644531 33.238282-26.644531h110.769531c7.972656 0 15.410156 2.769531 21.292969 7.480469 5.882812 4.726562 10.210937 11.378906 11.945312 19.164062 3.46875 15.570313 17.28125 26.644532 33.238281 26.644532h12.496094c17.835937 0 32.296875 14.464844 32.296875 32.308594zm0 0" fill="#442463"/><path d="m495.28125 257.242188v89.957031c-23.792969 62.378906-71.273438 113.058593-131.449219 141.050781h-150.757812c-17.84375 0-32.308594-14.460938-32.308594-32.296875v-198.710937c0-17.84375 14.464844-32.308594 32.308594-32.308594h12.5c7.972656 0 15.410156-2.765625 21.292969-7.480469 5.882812-4.722656 10.210937-11.378906 11.945312-19.164063 3.46875-15.566406 17.28125-26.644531 33.238281-26.644531h91.960938c7.972656 0 15.410156 2.769531 21.292969 7.480469 5.882812 4.726562 10.210937 11.378906 11.945312 19.164062 3.46875 15.570313 17.28125 26.644532 33.238281 26.644532h12.496094c17.835937 0 32.296875 14.464844 32.296875 32.308594zm0 0" fill="#583377"/><path d="m425.566406 351.140625c0 53.539063-43.402344 96.941406-96.941406 96.941406-53.542969 0-96.945312-43.402343-96.945312-96.941406 0-53.542969 43.402343-96.945313 96.945312-96.945313 53.539062 0 96.941406 43.402344 96.941406 96.945313zm0 0" fill="#ededed"/><path d="m261.226562 351.140625c0 21.429687 10.011719 40.53125 25.601563 52.871094 11.484375 9.089843 26.007813 14.523437 41.796875 14.523437 37.21875 0 67.394531-30.175781 67.394531-67.394531 0-37.222656-30.175781-67.398437-67.394531-67.398437-15.789062 0-30.3125 5.433593-41.796875 14.523437-15.589844 12.339844-25.601563 31.441406-25.601563 52.875zm0 0" fill="#2d81b5"/><path d="m261.226562 351.140625c0 21.429687 10.011719 40.53125 25.601563 52.871094 15.589844-12.339844 25.597656-31.441407 25.597656-52.871094 0-21.433594-10.007812-40.535156-25.597656-52.875-15.589844 12.339844-25.601563 31.441406-25.601563 52.875zm0 0" fill="#5a9ed1"/><path d="m379.300781 335.695312c0 12.117188-9.824219 21.941407-21.941406 21.941407-12.121094 0-21.945313-9.824219-21.945313-21.941407 0-12.117187 9.824219-21.941406 21.945313-21.941406 12.117187 0 21.941406 9.824219 21.941406 21.941406zm0 0" fill="#5a9ed1"/><path d="m469.816406 189.703125v15.085937c0 3.625-2.933594 6.5625-6.5625 6.5625h-25.535156c-3.625 0-6.5625-2.9375-6.5625-6.5625v-15.085937c0-3.628906 2.9375-6.5625 6.5625-6.5625h25.535156c3.628906 0 6.5625 2.933594 6.5625 6.5625zm0 0" fill="#b69bc6"/><path d="m469.816406 189.703125v15.085937c0 3.625-2.933594 6.5625-6.5625 6.5625h-12.609375c-3.625 0-6.5625-2.9375-6.5625-6.5625v-15.085937c0-3.628906 2.9375-6.5625 6.5625-6.5625h12.609375c3.628906 0 6.5625 2.933594 6.5625 6.5625zm0 0" fill="#ededed"/><path d="m388.699219 228.070312h-47.011719c-5.199219 0-9.410156-4.210937-9.410156-9.410156v-15.664062c0-5.195313 4.210937-9.40625 9.410156-9.40625h47.011719c5.195312 0 9.40625 4.210937 9.40625 9.40625v15.664062c0 5.199219-4.210938 9.410156-9.40625 9.410156zm0 0" fill="#ededed"/><path d="m341.6875 218.664062-.007812-15.667968 47.019531-.003906.003906 15.667968-.003906.003906zm0 0" fill="#fff"/></svg>