<?xml version="1.0" encoding="iso-8859-1"?>
<!-- Generator: Adobe Illustrator 19.0.0, SVG Export Plug-In . SVG Version: 6.00 Build 0)  -->
<svg version="1.1" id="Capa_1" xmlns="http://www.w3.org/2000/svg" xmlns:xlink="http://www.w3.org/1999/xlink" x="0px" y="0px"
	 viewBox="0 0 512 512" style="enable-background:new 0 0 512 512;" xml:space="preserve">
<path style="fill:#28A089;" d="M512,256c0,141.385-114.615,256-256,256c-45.004,0-87.291-11.609-124.029-32.005
	c-27.585-15.297-52.057-35.558-72.182-59.57c-10.501-12.497-19.822-26.028-27.794-40.396C11.609,343.28,0,300.993,0,256
	C0,114.615,114.615,0,256,0S512,114.615,512,256z"/>
<path style="fill:#54D1B9;" d="M460.419,204.419c0,112.897-91.522,204.419-204.419,204.419c-35.936,0-69.703-9.269-99.039-25.556
	c-22.027-12.215-41.568-28.393-57.638-47.567c-8.385-9.979-15.828-20.784-22.194-32.256c-16.278-29.345-25.548-63.111-25.548-99.039
	C51.581,91.522,143.103,0,256,0S460.419,91.522,460.419,204.419z"/>
<circle style="fill:#F7F7F7;" cx="359.058" cy="152.942" r="132.253"/>
<path style="fill:#D0DBE5;" d="M292.12,267.03c-9.493-5.564-18.436-12.432-26.578-20.574c-51.647-51.647-51.647-135.391,0-187.038
	s135.391-51.647,187.038,0c8.142,8.142,15.01,17.085,20.574,26.578C422.473,56.204,356.2,63.065,312.694,106.57
	S262.328,216.349,292.12,267.03z"/>
<path style="fill:#78CFF0;" d="M342.918,299.049l-93.059,79.82L131.974,479.994c-27.585-15.297-52.057-35.558-72.182-59.57
	c-10.501-12.497-19.822-26.028-27.794-40.396l101.136-117.885l79.83-93.059L342.918,299.049z"/>
<path style="fill:#D1D1D1;" d="M461.224,255.1c-2.821,2.821-6.522,4.228-10.216,4.228s-7.395-1.406-10.216-4.228L256.898,71.206
	c-5.642-5.642-5.642-14.791,0-20.433c2.821-2.821,6.523-4.228,10.216-4.228c3.694,0,7.395,1.406,10.216,4.228l183.895,183.895
	C466.867,240.31,466.867,249.458,461.224,255.1z"/>
<path style="fill:#D0DBE5;" d="M461.224,255.1c-2.821,2.821-6.522,4.228-10.216,4.228s-7.395-1.406-10.216-4.228L291.476,105.784
	c-5.642-5.642-5.642-14.791,0-20.433c2.821-2.821,6.523-4.228,10.216-4.228c3.694,0,7.395,1.406,10.216,4.228l149.316,149.316
	C466.867,240.31,466.867,249.458,461.224,255.1z"/>
<g>
	<circle style="fill:#D1D1D1;" cx="329.3" cy="76.288" r="10.929"/>
	<circle style="fill:#D1D1D1;" cx="355.924" cy="102.902" r="10.929"/>
	<circle style="fill:#D1D1D1;" cx="382.537" cy="129.526" r="10.929"/>
	<circle style="fill:#D1D1D1;" cx="409.161" cy="156.15" r="10.929"/>
	<circle style="fill:#D1D1D1;" cx="435.775" cy="182.763" r="10.929"/>
	
		<ellipse transform="matrix(0.7071 -0.7071 0.7071 0.7071 -11.8423 386.4083)" style="fill:#D1D1D1;" cx="460.515" cy="207.499" rx="10.928" ry="8.266"/>
	
		<ellipse transform="matrix(0.7071 -0.7071 0.7071 0.7071 52.9603 229.956)" style="fill:#D1D1D1;" cx="304.062" cy="51.049" rx="10.928" ry="8.965"/>
	<circle style="fill:#D1D1D1;" cx="406.329" cy="52.496" r="10.929"/>
	<circle style="fill:#D1D1D1;" cx="432.953" cy="79.12" r="10.929"/>
	<circle style="fill:#D1D1D1;" cx="459.567" cy="105.733" r="10.929"/>
	
		<ellipse transform="matrix(0.7071 -0.7071 0.7071 0.7071 73.0624 254.0276)" style="fill:#D1D1D1;" cx="343.17" cy="38.82" rx="10.928" ry="8.727"/>
	<circle style="fill:#D1D1D1;" cx="368.232" cy="63.875" r="10.929"/>
	<circle style="fill:#D1D1D1;" cx="394.856" cy="90.499" r="10.929"/>
	<circle style="fill:#D1D1D1;" cx="421.48" cy="117.112" r="10.929"/>
	<circle style="fill:#D1D1D1;" cx="448.094" cy="143.736" r="10.929"/>
	
		<ellipse transform="matrix(0.7071 -0.7071 0.7071 0.7071 19.2825 383.8748)" style="fill:#D1D1D1;" cx="473.019" cy="168.661" rx="10.928" ry="8.534"/>
	<circle style="fill:#D1D1D1;" cx="387.897" cy="228.665" r="10.929"/>
	<circle style="fill:#D1D1D1;" cx="361.284" cy="202.052" r="10.929"/>
	<circle style="fill:#D1D1D1;" cx="334.66" cy="175.428" r="10.929"/>
	<circle style="fill:#D1D1D1;" cx="308.036" cy="148.804" r="10.929"/>
	<circle style="fill:#D1D1D1;" cx="281.422" cy="122.19" r="10.929"/>
	
		<ellipse transform="matrix(-0.7071 0.7071 -0.7071 -0.7071 507.0983 -15.1385)" style="fill:#D1D1D1;" cx="256.684" cy="97.454" rx="10.928" ry="8.266"/>
	
		<ellipse transform="matrix(-0.7071 0.7071 -0.7071 -0.7071 884.8022 141.2995)" style="fill:#D1D1D1;" cx="413.137" cy="253.898" rx="10.928" ry="8.965"/>
	
		<ellipse transform="matrix(-0.7071 0.7071 -0.7071 -0.7071 826.7054 189.8492)" style="fill:#D1D1D1;" cx="374.034" cy="266.141" rx="10.928" ry="8.727"/>
	<circle style="fill:#D1D1D1;" cx="348.965" cy="241.079" r="10.929"/>
	<circle style="fill:#D1D1D1;" cx="322.341" cy="214.455" r="10.929"/>
	<circle style="fill:#D1D1D1;" cx="295.727" cy="187.831" r="10.929"/>
	<circle style="fill:#D1D1D1;" cx="269.103" cy="161.217" r="10.929"/>
	
		<ellipse transform="matrix(-0.7071 0.7071 -0.7071 -0.7071 513.2053 59.9971)" style="fill:#D1D1D1;" cx="244.177" cy="136.287" rx="10.928" ry="8.534"/>
</g>
<path style="fill:#42A7C6;" d="M342.918,299.049l-83.738-83.744l14.782-15.206v-0.01l-47.156-47.146L31.995,380.029
	c7.973,14.367,17.293,27.899,27.794,40.396l85.989-88.459c15.501-15.946,41.052-16.127,56.777-0.402l47.305,47.305L342.918,299.049z
	"/>
<rect x="146.163" y="199.698" transform="matrix(-0.7071 -0.7071 0.7071 -0.7071 244.3451 622.849)" style="fill:#FEE670;" width="210.012" height="122.241"/>
<rect x="173.446" y="133.837" transform="matrix(-0.7071 -0.7071 0.7071 -0.7071 178.4782 463.8428)" style="fill:#EDAA5C;" width="23.716" height="122.241"/>
<polygon style="fill:#DB4573;" points="286.001,225.994 274.693,259.339 295.752,287.559 260.544,287.11 240.213,315.858 
	229.762,282.234 196.137,271.782 224.886,251.451 224.436,216.243 252.655,237.302 "/>
<g>
</g>
<g>
</g>
<g>
</g>
<g>
</g>
<g>
</g>
<g>
</g>
<g>
</g>
<g>
</g>
<g>
</g>
<g>
</g>
<g>
</g>
<g>
</g>
<g>
</g>
<g>
</g>
<g>
</g>
</svg>
