<svg viewBox="0 0 512 512" xmlns="http://www.w3.org/2000/svg"><path d="m512 256c0 141.386719-114.613281 256-256 256s-256-114.613281-256-256 114.613281-256 256-256 256 114.613281 256 256zm0 0" fill="#62dafa"/><path d="m461.5 387.550781c0 1.761719-.066406 3.515625-.167969 5.261719-44.871093 35.796875-120.09375 59.277344-205.332031 59.277344s-160.460938-23.480469-205.332031-59.28125c-.101563-1.746094-.167969-3.496094-.167969-5.257813 0-75.347656 92.003906-136.429687 205.5-136.429687 113.492188 0 205.5 61.082031 205.5 136.429687zm0 0" fill="#fd0464"/><path d="m483.429688 400.890625c-12.878907 9.382813-26.40625 18.382813-40.542969 26.910156-14.140625 8.523438-28.410157 16.289063-42.722657 23.304688-7.253906 3.554687-16.03125.792969-19.902343-6.296875-26.527344-48.597656-48.730469-94.105469-65.484375-133.632813-1.9375-4.574219-8.8125-2.703125-8.148438 2.222657 5.480469 40.695312 9.550782 88.164062 11.777344 139.898437.347656 8.089844-5.722656 15.015625-13.789062 15.71875-15.878907 1.382813-32.109376 2.105469-48.617188 2.105469s-32.738281-.722656-48.617188-2.105469c-8.066406-.703125-14.140624-7.628906-13.789062-15.71875 2.226562-51.734375 6.296875-99.203125 11.777344-139.898437.664062-4.925782-6.210938-6.800782-8.148438-2.222657-16.753906 39.527344-38.957031 85.035157-65.488281 133.632813-3.871094 7.089844-12.648437 9.847656-19.902344 6.296875-14.308593-7.015625-28.582031-14.78125-42.71875-23.304688-14.136719-8.527343-27.664062-17.527343-40.542969-26.910156-6.546874-4.769531-8.167968-13.835937-3.691406-20.582031 64.144532-96.703125 125.148438-170.277344 164.292969-199.0625l-.042969-.292969c-6.007812-41-16.109375-81.292969-30.132812-120.28125-.722656-1.648437-1.339844-3.34375-1.839844-5.082031-.011719-.027344-.019531-.058594-.03125-.089844h.007812c-.980468-3.445312-1.507812-7.042969-1.507812-10.75 0-24.714844 23.09375-44.75 51.585938-44.75 17.617187 0 33.164062 7.664062 42.46875 19.359375 3.257812 4.097656 9.378906 4.097656 12.640624 0 9.300782-11.695313 24.851563-19.359375 42.46875-19.359375 28.488282 0 51.585938 20.035156 51.585938 44.75 0 3.707031-.527344 7.304688-1.507812 10.75h.007812c-.011719.03125-.023438.058594-.03125.089844-.5 1.738281-1.117188 3.433594-1.839844 5.082031-14.023437 38.988281-24.125 79.28125-30.136718 120.28125l-.042969.292969c39.144531 28.785156 100.152343 102.359375 164.296875 199.0625 4.476562 6.746094 2.851562 15.8125-3.691406 20.582031zm0 0" fill="#fd3980"/><path d="m312.347656 194.335938c1.921875 5.554687-1.292968 11.46875-6.867187 12.957031-13.875 3.695312-31.675781 5.546875-49.480469 5.546875-11.441406 0-22.878906-.769532-33.273438-2.296875-2.210937-.324219-4.4375.363281-6.105468 1.84375-44.242188 39.300781-103.683594 111.285156-167.136719 203.007812-7.144531-4.71875-14.117187-9.554687-20.90625-14.5-6.539063-4.765625-8.171875-13.847656-3.695313-20.589843 64.144532-96.699219 125.148438-170.273438 164.292969-199.058594l-.042969-.292969c-6.011718-41-16.113281-81.292969-30.136718-120.28125-.722656-1.648437-1.339844-3.34375-1.839844-5.082031-.007812-.027344-.019531-.058594-.03125-.089844h.007812c-.976562-3.445312-1.507812-7.042969-1.507812-10.75 0-21.285156 17.136719-39.089844 40.09375-43.621094-2.132812 5.675782-3.296875 11.730469-3.296875 18.023438 0 4.816406.6875 9.496094 1.960937 13.96875h-.011718c.011718.039062.027344.082031.042968.121094.648438 2.253906 1.449219 4.457031 2.390626 6.601562 12.988281 36.113281 23.386718 73.089844 31.117187 110.648438.667969 3.242187 3.339844 5.703124 6.636719 6.023437 22.179687 2.140625 48.015625.851563 65.773437-3.882813 5.523438-1.472656 11.199219 1.980469 12.371094 7.660157 1.082031 5.238281-2.363281 10.386719-7.539063 11.75-13.828124 3.640625-31.496093 5.464843-49.164062 5.464843-4.589844 0-9.175781-.125-13.699219-.371093-4.835937-.261719-8.679687 3.96875-7.921875 8.753906.007813.050781.015625.101563.027344.152344.546875 3.472656 3.425781 6.128906 6.9375 6.351562 20.355469 1.292969 42.691406-.152343 58.640625-4.335937 5.125-1.347656 10.628906 1.265625 12.363281 6.277344zm0 0" fill="#fd0464"/><path d="m250 375c0 8.285156-6.714844 15-15 15s-15-6.714844-15-15 6.714844-15 15-15 15 6.714844 15 15zm-20-160c0-8.285156-6.714844-15-15-15s-15 6.714844-15 15 6.714844 15 15 15 15-6.714844 15-15zm5 65c0-8.285156-6.714844-15-15-15s-15 6.714844-15 15 6.714844 15 15 15 15-6.714844 15-15zm-85 5c-8.285156 0-15 6.714844-15 15s6.714844 15 15 15 15-6.714844 15-15-6.714844-15-15-15zm215 5c-8.285156 0-15 6.714844-15 15s6.714844 15 15 15 15-6.714844 15-15-6.714844-15-15-15zm-60-90c-8.285156 0-15 6.714844-15 15s6.714844 15 15 15 15-6.714844 15-15-6.714844-15-15-15zm-60-60c-8.285156 0-15 6.714844-15 15s6.714844 15 15 15 15-6.714844 15-15-6.714844-15-15-15zm-40-98.5c-8.285156 0-15 6.714844-15 15s6.714844 15 15 15 15-6.714844 15-15-6.714844-15-15-15zm105-11c-8.285156 0-15 6.714844-15 15s6.714844 15 15 15 15-6.714844 15-15-6.714844-15-15-15zm-47 24c-8.285156 0-15 6.714844-15 15s6.714844 15 15 15 15-6.714844 15-15-6.714844-15-15-15zm82 285.5c-8.285156 0-15 6.714844-15 15s6.714844 15 15 15 15-6.714844 15-15-6.714844-15-15-15zm-50-70c-8.285156 0-15 6.714844-15 15s6.714844 15 15 15 15-6.714844 15-15-6.714844-15-15-15zm0 0" fill="#fc5e93"/><path d="m190 255c0 8.285156-6.714844 15-15 15s-15-6.714844-15-15 6.714844-15 15-15 15 6.714844 15 15zm35-165c-8.285156 0-15 6.714844-15 15s6.714844 15 15 15 15-6.714844 15-15-6.714844-15-15-15zm50 50c8.285156 0 15-6.714844 15-15s-6.714844-15-15-15-15 6.714844-15 15 6.714844 15 15 15zm-100 200c-8.285156 0-15 6.714844-15 15s6.714844 15 15 15 15-6.714844 15-15-6.714844-15-15-15zm240-20c-8.285156 0-15 6.714844-15 15s6.714844 15 15 15 15-6.714844 15-15-6.714844-15-15-15zm-160-90c-8.285156 0-15 6.714844-15 15s6.714844 15 15 15 15-6.714844 15-15-6.714844-15-15-15zm30 120c-8.285156 0-15 6.714844-15 15s6.714844 15 15 15 15-6.714844 15-15-6.714844-15-15-15zm0 0" fill="#fda0c1"/><path d="m265 320c0 8.285156-6.714844 15-15 15s-15-6.714844-15-15 6.714844-15 15-15 15 6.714844 15 15zm-160 20c-8.285156 0-15 6.714844-15 15s6.714844 15 15 15 15-6.714844 15-15-6.714844-15-15-15zm205-265c-8.285156 0-15 6.714844-15 15s6.714844 15 15 15 15-6.714844 15-15-6.714844-15-15-15zm35 165c-8.285156 0-15 6.714844-15 15s6.714844 15 15 15 15-6.714844 15-15-6.714844-15-15-15zm0 0" fill="#fff2b4"/></svg>