<?xml version="1.0" encoding="iso-8859-1"?>
<!-- Generator: Adobe Illustrator 19.0.0, SVG Export Plug-In . SVG Version: 6.00 Build 0)  -->
<svg xmlns="http://www.w3.org/2000/svg" xmlns:xlink="http://www.w3.org/1999/xlink" version="1.1" id="Layer_1" x="0px" y="0px" viewBox="0 0 490 490" style="enable-background:new 0 0 490 490;" xml:space="preserve" width="512" height="512">
<g>
	<path style="fill:#304F75;" d="M490,245c0,52.97-16.81,102.01-45.39,142.08c0,0,0.01,0,0,0.01c-7.47,10.48-15.75,20.35-24.75,29.51   c-3.11,3.17-6.3,6.25-9.58,9.24c-41.22,37.71-95.39,61.5-155.05,63.95c-3.39,0.14-6.8,0.21-10.23,0.21   c-7.92,0-15.75-0.38-23.48-1.11c-25.87-2.46-50.57-8.95-73.47-18.83c-9.2-3.97-18.1-8.48-26.67-13.5   c-24.75-14.48-46.72-33.19-64.93-55.13C21.19,359,0,304.47,0,245C0,109.69,109.69,0,245,0S490,109.69,490,245z"/>
	<g>
		<rect x="145.388" y="0.001" style="fill:#3B9CB7;" width="33.882" height="165.635"/>
		<rect x="145.388" y="0.001" style="fill:#2589A0;" width="16.941" height="165.635"/>
		<path style="fill:#BCE6F5;" d="M257.831,93.084H66.836c-9.874,0-17.878,8.004-17.878,17.878v18.611h226.751v-18.611    C275.709,101.088,267.705,93.084,257.831,93.084z"/>
		<g>
			<path style="fill:#D12C50;" d="M287.93,162.76c-0.26,15.5-0.77,31.08-1.5,46.72c-4.27,91.41-16.15,185.1-31.2,280.31     c-3.39,0.14-6.8,0.21-10.23,0.21c-7.92,0-15.75-0.38-23.48-1.11c-25.87-2.46-50.57-8.95-73.47-18.83     c-35.74-15.41-67.08-39.09-91.6-68.63C45.57,320.41,38.06,240.7,36.73,162.76C120.46,150.83,204.2,150.83,287.93,162.76z"/>
			<path style="fill:#F75454;" d="M286.43,209.48c-4.27,91.41-16.15,185.1-31.2,280.31c-3.39,0.14-6.8,0.21-10.23,0.21     c-7.92,0-15.75-0.38-23.48-1.11c-25.87-2.46-50.57-8.95-73.47-18.83c-9.2-3.97-18.1-8.48-26.67-13.5     c-5.14-72.89-9.47-145.6-12.02-218.02c-0.6-18.35,14.22-34.46,32.28-34.77C189.9,203.01,238.16,204.91,286.43,209.48z"/>
		</g>
		<path style="fill:#BCE6F5;" d="M308.669,162.202c0.14,8.62-6.76,15.72-15.38,15.91c-70.36,1.58-140.74,1.89-211.1,0.92    c-16.94-0.23-33.87-0.54-50.81-0.92c-8.62-0.19-15.52-7.29-15.39-15.91c0.23-13.99,5-28.09,13.34-42.29    c2.79-4.74,7.81-7.73,13.3-7.85c17.12-0.35,34.24-0.63,51.36-0.82c62.68-0.73,125.36-0.46,188.05,0.82    c5.49,0.12,10.51,3.11,13.3,7.85C303.679,134.112,308.449,148.212,308.669,162.202z"/>
		<path style="fill:#FFFFFF;" d="M308.669,162.202c0.14,8.62-6.76,15.72-15.38,15.91c-70.36,1.58-140.74,1.89-211.1,0.92    c-6.06-2.61-10.27-8.66-10.16-15.64c0.24-14.97,5.34-30.06,14.27-45.25c1.82-3.09,4.52-5.48,7.69-6.9    c62.68-0.73,125.36-0.46,188.05,0.82c5.49,0.12,10.51,3.11,13.3,7.85C303.679,134.112,308.449,148.212,308.669,162.202z"/>
		<rect x="297.672" y="146.741" style="fill:#3B9CB7;" width="16.165" height="126.065"/>
		<g>
			<path style="fill:#7F4925;" d="M444.61,387.08c0,0,0.01,0,0,0.01c-7.47,10.48-15.75,20.35-24.75,29.51     c-3.11,3.17-6.3,6.25-9.58,9.24H188.81c-7.67,0-14.61-3.11-19.64-8.13c-5.03-5.03-8.14-11.98-8.14-19.65     c0-15.34,12.44-27.78,27.78-27.78h230.28c7.67,0,14.61,3.11,19.64,8.14C441.2,380.89,443.21,383.83,444.61,387.08z"/>
			<path style="fill:#A06842;" d="M444.61,387.09c-7.47,10.48-15.75,20.35-24.75,29.51c-3.11,3.17-6.3,6.25-9.58,9.24H262.23     c-7.67,0-14.61-3.11-19.64-8.13c-4.12-4.12-6.95-9.52-7.84-15.56c1.2,0.03,2.45,0.05,3.76,0.05c32.72,0,32.72-20,65.44-20     c32.71,0,32.71,20,65.43,20c32.72,0,31.24-10.79,62.74-19.63c3.88-1.09,6.8-1.14,8.85-1.61     C442.43,382.82,443.67,384.88,444.61,387.09z"/>
			<path style="fill:#55D485;" d="M444.819,365.041c0,9.18-3.86,6.25-12.7,8.73c-31.5,8.84-30.02,19.63-62.74,19.63     c-32.72,0-32.72-20-65.43-20c-32.72,0-32.72,20-65.44,20c-7.2,0-12.74-0.52-17.35-1.44c-16.31-3.22-20.82-11.3-45.38-18.19     c-8.84-2.48-12.7,0.45-12.7-8.73s20-9.18,20-18.36s-20-9.18-20-18.36s3.86-6.25,12.7-8.73c9.53-2.68,16.05-5.53,21.4-8.21     c12.34-6.17,18.52-11.42,41.34-11.42c32.72,0,32.72,20,65.43,20c32.72,0,32.72-20,65.44-20c32.71,0,31.23,10.79,62.73,19.63     c8.84,2.48,13.84,5.37,12.4,11.15c-2.22,8.91-19.7,6.76-19.7,15.94S444.819,355.861,444.819,365.041z"/>
			<path style="fill:#10995B;" d="M221.159,391.961c-16.31-3.22-20.82-11.3-45.38-18.19c-8.84-2.48-12.7,0.45-12.7-8.73     s20-9.18,20-18.36s-20-9.18-20-18.36s3.86-6.25,12.7-8.73c9.53-2.68,16.05-5.53,21.4-8.21l41.72,33.99     C238.899,345.371,218.189,360.901,221.159,391.961z"/>
			<path style="fill:#FFA733;" d="M465.069,331.187c-0.07,0.4-0.13,0.8-0.2,1.21c-2.45,14.69-15.16,25.47-30.05,25.93     c-69.04,2.11-138.1,2.52-207.15,1.23c-16.64-0.31-33.27-0.72-49.91-1.23c-14.89-0.46-27.6-11.24-30.05-25.93     c-0.06-0.41-0.13-0.81-0.19-1.21c-6.22-39.22,23.72-74.98,63.42-75.88c15.11-0.34,30.22-0.61,45.33-0.79     c48.46-0.58,96.92-0.32,145.37,0.79C441.339,256.207,471.289,291.967,465.069,331.187z"/>
			<path style="fill:#FFA733;" d="M419.86,416.6C375.41,461.9,313.48,490,245,490c-7.92,0-15.75-0.38-23.48-1.11     c-25.87-2.46-50.57-8.95-73.47-18.83c-1.55-4.18-2.41-8.69-2.43-13.4v-0.77c0.09-21.34,17.41-38.63,38.74-39.11     c50.42-1.13,100.84-1.56,151.26-1.29C363.7,415.64,391.78,416.01,419.86,416.6z"/>
			<path style="fill:#FFE05C;" d="M465.069,331.187c-0.07,0.4-0.13,0.8-0.2,1.21c-2.45,14.69-15.16,25.47-30.05,25.93     c-69.04,2.11-138.1,2.52-207.15,1.23c-10.9-4.05-19.26-13.57-21.25-25.51c-0.07-0.43-0.14-0.87-0.21-1.3     c-5.68-35.78,16.9-68.85,50.06-78.23c48.46-0.58,96.92-0.32,145.37,0.79C441.339,256.207,471.289,291.967,465.069,331.187z"/>
			<path style="fill:#FFE05C;" d="M419.86,416.6C375.41,461.9,313.48,490,245,490c-7.92,0-15.75-0.38-23.48-1.11     c-10.36-7.05-17.2-18.84-17.26-32.23v-0.77c0.09-21.34,17.41-38.63,38.74-39.11c30.87-0.69,61.75-1.12,92.62-1.29     C363.7,415.64,391.78,416.01,419.86,416.6z"/>
		</g>
		<polygon style="fill:#F75454;" points="375.217,192.179 313.837,156.741 313.837,227.617   "/>
	</g>
	<circle style="fill:#FFFFFF;" cx="221.854" cy="272.806" r="10.116"/>
	<circle style="fill:#FFFFFF;" cx="256.171" cy="298.125" r="10.116"/>
	<circle style="fill:#FFFFFF;" cx="292.66" cy="272.806" r="10.116"/>
	<circle style="fill:#FFFFFF;" cx="326.976" cy="298.125" r="10.116"/>
	<circle style="fill:#FFFFFF;" cx="361.727" cy="272.806" r="10.116"/>
	<circle style="fill:#FFFFFF;" cx="396.044" cy="298.125" r="10.116"/>
</g>















</svg>
