<?xml version="1.0" encoding="iso-8859-1"?>
<!-- Generator: Adobe Illustrator 19.0.0, SVG Export Plug-In . SVG Version: 6.00 Build 0)  -->
<svg version="1.1" id="Capa_1" xmlns="http://www.w3.org/2000/svg" xmlns:xlink="http://www.w3.org/1999/xlink" x="0px" y="0px"
	 viewBox="0 0 512 512" style="enable-background:new 0 0 512 512;" xml:space="preserve">
<path style="fill:#FAB9AF;" d="M512,256c0,140.487-113.677,256-256,256C114.047,512,0,396.835,0,256C0,114.615,114.615,0,256,0
	C397.649,0,512,114.857,512,256z"/>
<path style="fill:#464646;" d="M261.352,357.14v0.042c0,10.462-4.235,19.933-11.094,26.792s-16.34,11.094-26.802,11.094H64.919
	c-20.923,0-37.885-16.962-37.885-37.885c0-21.829,8.85-41.604,23.157-55.911c7.438-7.449,16.361-13.412,26.286-17.415
	c9.145-3.719,19.153-5.752,29.626-5.752h76.171C225.932,278.103,261.331,313.492,261.352,357.14z"/>
<path style="fill:#5A5A5A;" d="M261.352,357.14H106.007c-20.923,0-37.885-16.962-37.885-37.885c0-12.727,3.003-24.748,8.355-35.399
	c9.145-3.719,19.153-5.752,29.626-5.752h76.171C225.932,278.103,261.331,313.492,261.352,357.14z"/>
<g>
	<circle style="fill:#464646;" cx="159.201" cy="310.373" r="9.08"/>
	<circle style="fill:#464646;" cx="138.709" cy="338.703" r="8.072"/>
	<circle style="fill:#464646;" cx="91.037" cy="327.525" r="8.072"/>
	<circle style="fill:#464646;" cx="115.784" cy="297.13" r="8.072"/>
</g>
<circle style="fill:#2D2D2D;" cx="48.179" cy="353.01" r="8.612"/>
<path style="fill:#464646;" d="M250.133,247.306v0.036c0,8.931-3.616,17.016-9.47,22.87c-5.855,5.855-13.949,9.47-22.88,9.47H82.447
	c-17.862,0-32.341-14.48-32.341-32.341c0-18.635,7.555-35.516,19.768-47.729c6.35-6.358,13.967-11.449,22.439-14.867
	c7.807-3.174,16.35-4.911,25.29-4.911h65.024C219.896,179.836,250.114,210.047,250.133,247.306z"/>
<path style="fill:#5A5A5A;" d="M250.133,247.306H117.521c-17.862,0-32.341-14.48-32.341-32.341c0-10.864,2.563-21.126,7.131-30.219
	c7.807-3.174,16.35-4.911,25.29-4.911h65.024C219.896,179.836,250.114,210.047,250.133,247.306z"/>
<g>
	<circle style="fill:#464646;" cx="178.438" cy="204.693" r="7.752"/>
	<circle style="fill:#464646;" cx="162.066" cy="224.678" r="6.891"/>
	<circle style="fill:#464646;" cx="133.073" cy="196.938" r="6.891"/>
	<circle style="fill:#464646;" cx="220.58" cy="208.306" r="6.891"/>
	<circle style="fill:#464646;" cx="202.006" cy="224.678" r="6.891"/>
</g>
<g>
	<circle style="fill:#2D2D2D;" cx="68.122" cy="237.352" r="6.08"/>
	<circle style="fill:#2D2D2D;" cx="76.884" cy="261.626" r="6.08"/>
	<circle style="fill:#2D2D2D;" cx="104.743" cy="261.626" r="5.919"/>
</g>
<path style="fill:#464646;" d="M247.984,155.118v0.028c0,7.019-2.841,13.373-7.443,17.974c-4.602,4.602-10.963,7.443-17.982,7.443
	H116.196c-14.037,0-25.418-11.38-25.418-25.418c0-14.645,5.938-27.913,15.536-37.511c4.991-4.997,10.977-8.998,17.635-11.684
	c6.135-2.495,12.85-3.859,19.876-3.859h51.103C224.22,102.092,247.97,125.835,247.984,155.118z"/>
<path style="fill:#5A5A5A;" d="M247.984,155.118H143.762c-14.037,0-25.418-11.38-25.418-25.418c0-8.539,2.014-16.604,5.605-23.749
	c6.135-2.495,12.85-3.859,19.876-3.859h51.103C224.22,102.092,247.97,125.835,247.984,155.118z"/>
<g>
	<circle style="fill:#464646;" cx="185.529" cy="117.702" r="6.384"/>
	<circle style="fill:#464646;" cx="196.327" cy="139.826" r="5.673"/>
	<circle style="fill:#464646;" cx="220.58" cy="126.351" r="5.673"/>
	<circle style="fill:#464646;" cx="234.539" cy="145.073" r="4.585"/>
</g>
<g>
	<circle style="fill:#2D2D2D;" cx="109.747" cy="151.057" r="7.068"/>
	<circle style="fill:#2D2D2D;" cx="133.073" cy="165.733" r="5.299"/>
</g>
<path style="fill:#464646;" d="M230.802,80.705v0.024c0,5.899-2.388,11.24-6.256,15.108s-9.214,6.256-15.114,6.256h-89.398
	c-11.799,0-21.364-9.565-21.364-21.364c0-12.31,4.991-23.46,13.058-31.528c4.194-4.2,9.226-7.562,14.822-9.82
	c5.157-2.098,10.801-3.244,16.706-3.244h42.953C210.829,36.136,230.791,56.092,230.802,80.705z"/>
<path style="fill:#5A5A5A;" d="M230.802,80.705h-87.599c-11.799,0-21.364-9.565-21.364-21.364c0-7.177,1.693-13.955,4.711-19.961
	c5.157-2.098,10.801-3.244,16.706-3.244h42.953C210.829,36.136,230.791,56.092,230.802,80.705z"/>
<g>
	<circle style="fill:#464646;" cx="178.312" cy="49.258" r="5.365"/>
	<circle style="fill:#464646;" cx="187.393" cy="67.859" r="4.768"/>
	<circle style="fill:#464646;" cx="207.779" cy="56.525" r="4.768"/>
	<circle style="fill:#464646;" cx="160.886" cy="60.378" r="3.854"/>
</g>
<g>
	<circle style="fill:#2D2D2D;" cx="127.763" cy="89.172" r="5.941"/>
	<circle style="fill:#2D2D2D;" cx="112.35" cy="64.835" r="4.455"/>
</g>
<path style="fill:#FFD791;" d="M328.483,208.305L328.483,208.305c-5.215,0-9.482-4.267-9.482-9.482v-78.019
	c0-5.215,4.267-9.482,9.482-9.482l0,0c5.215,0,9.482,4.267,9.482,9.482v78.019C337.964,204.038,333.698,208.305,328.483,208.305z"/>
<path style="fill:#EBE1DC;" d="M386.78,179.65v190.891c0,13.485-11.041,24.526-24.537,24.526h-67.532
	c-13.496,0-24.526-11.041-24.526-24.526V179.65c0-13.496,11.031-24.526,24.526-24.526h67.532
	C375.739,155.123,386.78,166.154,386.78,179.65z"/>
<path style="fill:#FFF5F5;" d="M386.78,179.65v183.759h-63.971c-13.496,0-24.537-11.041-24.537-24.526V155.123h63.971
	C375.739,155.123,386.78,166.154,386.78,179.65z"/>
<path style="fill:#FF7D0A;" d="M353.768,98.226c0,5.91-1.138,11.463-3.129,16.288c-4.298,10.441-12.611,17.51-22.156,17.51
	c-13.959,0-25.285-15.139-25.285-33.798c0-18.669,11.326-59.778,25.285-59.778c2.76,0,5.415,1.612,7.891,4.33
	C346.488,53.83,353.768,83.245,353.768,98.226z"/>
<path style="fill:#FF9B32;" d="M353.768,98.226c0,5.91-1.138,11.463-3.129,16.288c-12.484-2.054-22.156-16.277-22.156-33.534
	c0-9.661,3.034-25.327,7.891-38.201C346.488,53.83,353.768,83.245,353.768,98.226z"/>
<path style="fill:#EBE1DC;" d="M391.202,180.564H265.764c-7.128,0-12.961-5.832-12.961-12.961l0,0
	c0-7.128,5.832-12.961,12.961-12.961h125.438c7.128,0,12.961,5.832,12.961,12.961l0,0
	C404.163,174.732,398.33,180.564,391.202,180.564z"/>
<path style="fill:#FF5A5F;" d="M486.683,367.085c-28.878,59.873-80.406,106.977-143.777,129.817
	c-5.889,2.128-11.873,4.035-17.963,5.731c-1.19-6.068-0.316-12.558,2.897-18.342l19.501-35.136
	c2.581-4.646,0.622-10.514-4.246-12.674l-36.832-16.372c-12.653-5.626-19.016-19.912-14.739-33.092
	c1.001-3.076,2.518-5.868,4.425-8.302c2.097-2.697,4.678-4.941,7.575-6.658c5.141-3.013,11.262-4.351,17.489-3.477
	c0.464,0.063,0.948,0.148,1.422,0.242l39.455,7.701c4.372,0.853,8.576-1.601,10.156-5.542c0.295-0.759,0.495-1.57,0.59-2.423
	l4.183-40.087c1.443-13.77,13.053-24.242,26.918-24.242c1.264,0,2.518,0.095,3.74,0.253c1.907,0.274,3.761,0.737,5.531,1.391
	c3.203,1.159,6.142,2.929,8.66,5.152c4.794,4.246,8.091,10.188,8.923,16.983l4.867,39.887c0.643,5.289,5.679,8.881,10.883,7.775
	l39.424-8.418C486.072,367.191,486.378,367.128,486.683,367.085z"/>
<path style="fill:#FF6E73;" d="M486.683,367.085c-28.878,59.873-80.406,106.977-143.777,129.817
	c-0.706-5.542,0.284-11.347,3.182-16.562l19.501-35.136c2.581-4.657,0.622-10.525-4.246-12.685l-36.832-16.361
	c-12.653-5.636-19.016-19.912-14.739-33.092c1.001-3.087,2.518-5.879,4.425-8.312c1.907-2.444,4.225-4.53,6.816-6.174
	c0.464,0.063,0.948,0.148,1.422,0.242l39.455,7.701c4.372,0.853,8.576-1.601,10.156-5.542l8.091,1.591
	c5.226,1.011,10.198-2.665,10.746-7.954l4.183-40.098c0.896-8.492,5.647-15.729,12.411-20.038c1.907,0.274,3.761,0.737,5.531,1.391
	c3.203,1.159,6.142,2.929,8.66,5.152c4.794,4.246,8.091,10.188,8.923,16.983l4.867,39.887c0.643,5.289,5.679,8.881,10.883,7.775
	l39.424-8.418C486.072,367.191,486.378,367.128,486.683,367.085z"/>
<g>
	<path style="fill:#FFAFB4;" d="M404.329,423.32c-3.149,0-5.703-2.553-5.703-5.703v-46.128c0-3.15,2.553-5.703,5.703-5.703
		c3.149,0,5.703,2.553,5.703,5.703v46.128C410.032,420.766,407.478,423.32,404.329,423.32z"/>
	<path style="fill:#FFAFB4;" d="M408.548,420.254c-0.973,2.995-4.19,4.635-7.186,3.661l-43.871-14.254
		c-2.995-0.974-4.634-4.19-3.661-7.186c0.973-2.996,4.19-4.634,7.186-3.661l43.87,14.254
		C407.882,414.043,409.521,417.259,408.548,420.254z"/>
	<path style="fill:#FFAFB4;" d="M406.937,415.295c2.547,1.851,3.113,5.417,1.262,7.966l-27.114,37.319
		c-1.851,2.549-5.417,3.113-7.966,1.262c-2.547-1.851-3.113-5.417-1.261-7.966l27.114-37.319
		C400.822,414.009,404.388,413.444,406.937,415.295z"/>
	<path style="fill:#FFAFB4;" d="M429.687,444.089c-2.802,2.592-5.668,5.12-8.586,7.586l-20.639-28.414
		c-1.854-2.55-1.285-6.111,1.264-7.965c2.539-1.854,6.111-1.285,7.965,1.264L429.687,444.089z"/>
	<path style="fill:#FFAFB4;" d="M400.111,420.254c-0.974-2.995,0.666-6.213,3.661-7.186l43.871-14.254
		c2.995-0.973,6.213,0.666,7.186,3.661c0.973,2.995-0.666,6.213-3.661,7.186l-43.87,14.254
		C404.301,424.889,401.083,423.25,400.111,420.254z"/>
</g>
<path style="fill:#FFD06B;" d="M425.619,414.359c0,7.877-4.281,14.758-10.645,18.431c-3.132,1.817-6.767,2.859-10.645,2.859
	c-11.755,0-21.29-9.535-21.29-21.29c0-11.755,9.535-21.29,21.29-21.29c3.878,0,7.513,1.042,10.645,2.859
	C421.339,399.6,425.619,406.482,425.619,414.359z"/>
<path style="fill:#FFE67D;" d="M425.619,414.359c0,7.877-4.281,14.758-10.645,18.431c-6.364-3.673-10.645-10.553-10.645-18.431
	c0-7.877,4.281-14.759,10.645-18.431C421.339,399.6,425.619,406.482,425.619,414.359z"/>
<path style="fill:#FF5A5F;" d="M319.691,350c-0.44,2.302-1.318,4.488-2.557,6.448c-2.366,3.71-6.043,6.599-10.56,7.896
	l-26.568,7.639c-3.515,1.01-5.409,4.82-4.092,8.234l9.99,25.857c3.432,8.891-0.398,18.934-8.887,23.276
	c-1.985,1.011-4.078,1.636-6.189,1.892c-2.333,0.296-4.679,0.134-6.923-0.44c-4.263-1.103-8.146-3.707-10.78-7.603l-19.285-28.549
	l-26.787,21.79c-1.558,1.264-3.263,2.24-5.049,2.929c-6.692,2.576-14.504,1.122-19.831-4.192c-1.579-1.571-2.821-3.369-3.715-5.299
	c-1-2.126-1.573-4.412-1.718-6.722c-0.269-4.393,1.008-8.888,3.903-12.598l16.996-21.791c2.252-2.886,1.546-7.083-1.531-9.069
	l-23.278-15.048c-8.001-5.172-10.803-15.552-6.489-24.053c1.01-1.985,2.336-3.72,3.892-5.169c1.713-1.605,3.708-2.858,5.86-3.712
	c3.813-1.498,8.114-1.754,12.246-0.497c0.314,0.092,0.63,0.199,0.941,0.312l25.983,9.439c2.885,1.045,6.002-0.17,7.492-2.678
	c0.282-0.485,0.509-1.016,0.662-1.585l7.115-26.787c2.451-9.206,11.454-15.081,20.872-13.604c0.863,0.135,1.7,0.331,2.514,0.574
	c1.268,0.385,2.474,0.902,3.608,1.53c2.055,1.133,3.862,2.643,5.339,4.427c2.801,3.399,4.41,7.785,4.249,12.486l-0.947,27.623
	c-0.124,3.659,2.912,6.639,6.569,6.44l27.677-1.516c9.512-0.513,17.885,6.236,19.388,15.65
	C320.155,345.728,320.099,347.91,319.691,350z"/>
<path style="fill:#FF6E73;" d="M319.691,350c-0.44,2.302-1.318,4.488-2.557,6.448c-2.366,3.71-6.043,6.599-10.56,7.896
	l-26.568,7.639c-3.515,1.01-5.409,4.82-4.092,8.234l9.99,25.857c3.432,8.891-0.398,18.934-8.887,23.276
	c-1.985,1.011-4.078,1.636-6.189,1.892c-2.333,0.296-4.679,0.134-6.923-0.44c-4.263-1.103-8.146-3.707-10.78-7.603l-19.285-28.549
	l-26.787,21.79c-1.558,1.264-3.263,2.24-5.049,2.929c-2.731-1.455-5.172-3.098-7.012-4.933c-1.579-1.571-2.821-3.369-3.715-5.299
	c-1-2.126-1.574-4.407-1.718-6.722c-0.269-4.393,1.008-8.888,3.903-12.598l16.996-21.791c2.252-2.886,1.546-7.083-1.531-9.069
	l-23.278-15.043c-8.001-5.177-10.802-15.558-6.489-24.053c1.011-1.99,2.337-3.724,3.893-5.174c1.557-1.46,3.357-2.633,5.287-3.468
	c0.314,0.092,0.63,0.199,0.941,0.312l25.983,9.439c2.885,1.045,6.002-0.17,7.492-2.678l5.328,1.937
	c3.44,1.25,7.21-0.721,8.152-4.257l7.116-26.793c1.51-5.675,5.51-10.087,10.566-12.289c1.268,0.385,2.474,0.902,3.608,1.53
	c2.055,1.133,3.862,2.643,5.339,4.427c2.801,3.399,4.41,7.785,4.249,12.486l-0.947,27.623c-0.124,3.659,2.912,6.639,6.569,6.44
	l27.677-1.516c9.512-0.513,17.885,6.236,19.388,15.65C320.155,345.728,320.099,347.91,319.691,350z"/>
<g>
	<path style="fill:#FFAFB4;" d="M239.111,357.286c-2.14-0.336-3.602-2.342-3.266-4.482l4.918-31.339
		c0.336-2.14,2.342-3.602,4.482-3.266c2.14,0.336,3.602,2.342,3.266,4.482l-4.918,31.339
		C243.257,356.16,241.25,357.622,239.111,357.286z"/>
	<path style="fill:#FFAFB4;" d="M242.303,355.653c-0.981,1.931-3.341,2.702-5.272,1.721l-28.285-14.361
		c-1.931-0.981-2.702-3.341-1.721-5.272s3.341-2.702,5.272-1.721l28.285,14.361C242.514,351.362,243.284,353.722,242.303,355.653z"
		/>
	<path style="fill:#FFAFB4;" d="M241.737,352.112c1.534,1.53,1.537,4.012,0.008,5.546l-22.399,22.464
		c-1.53,1.534-4.013,1.537-5.546,0.008c-1.534-1.53-1.537-4.012-0.008-5.546l22.399-22.464
		C237.721,350.587,240.203,350.584,241.737,352.112z"/>
	<path style="fill:#FFAFB4;" d="M238.195,351.557c1.928-0.986,4.291-0.222,5.277,1.707l14.442,28.244
		c0.986,1.929,0.222,4.291-1.707,5.277c-1.929,0.986-4.291,0.222-5.277-1.707l-14.442-28.244
		C235.502,354.905,236.266,352.543,238.195,351.557z"/>
	<path style="fill:#FFAFB4;" d="M236.572,354.755c-0.342-2.139,1.115-4.15,3.253-4.491l31.325-5.007
		c2.139-0.342,4.15,1.115,4.491,3.253c0.342,2.139-1.115,4.15-3.253,4.491l-31.325,5.007
		C238.924,358.349,236.913,356.893,236.572,354.755z"/>
</g>
<path style="fill:#FFD06B;" d="M254.53,353.467c-0.84,5.352-4.482,9.57-9.196,11.387c-2.322,0.901-4.902,1.221-7.537,0.807
	c-7.986-1.253-13.447-8.748-12.195-16.733c1.253-7.986,8.748-13.447,16.733-12.195c2.635,0.413,4.993,1.509,6.927,3.077
	C253.195,342.985,255.37,348.116,254.53,353.467z"/>
<path style="fill:#FFE67D;" d="M254.53,353.467c-0.84,5.352-4.482,9.57-9.196,11.387c-3.932-3.173-6.107-8.305-5.267-13.656
	s4.482-9.57,9.196-11.387C253.195,342.985,255.37,348.116,254.53,353.467z"/>
<path style="fill:#FF5A5F;" d="M196.622,450.947c-0.558,2.16-1.486,4.13-2.697,5.879c-1.327,1.939-3.013,3.582-4.931,4.878
	c-3.666,2.444-8.186,3.614-12.853,2.982l-27.392-3.687c-3.624-0.485-6.89,2.244-7.059,5.9l-0.801,17.847
	c-24.864-12.537-47.388-29.004-66.752-48.579c-2.349-2.37-4.646-4.783-6.89-7.248l7.385-3.982c3.213-1.728,4.256-5.858,2.244-8.913
	l-15.266-23.136c-5.247-7.954-3.635-18.584,3.73-24.632c1.717-1.412,3.635-2.476,5.636-3.171c2.223-0.78,4.551-1.127,6.859-1.043
	c4.098,0.158,8.133,1.654,11.42,4.467c0.242,0.211,0.495,0.432,0.727,0.664l19.996,19.09c2.223,2.118,5.573,2.255,7.944,0.558
	c0.453-0.327,0.874-0.727,1.243-1.18l17.278-21.671c5.952-7.438,16.551-9.197,24.579-4.067c0.737,0.474,1.433,0.99,2.075,1.538
	c1.001,0.864,1.896,1.823,2.687,2.855c1.433,1.865,2.476,3.972,3.108,6.195c1.201,4.246,0.906,8.902-1.127,13.148l-11.968,24.906
	c-1.591,3.298-0.011,7.248,3.424,8.544l25.949,9.735C194.083,432.173,199.035,441.729,196.622,450.947z"/>
<path style="fill:#FF6E73;" d="M196.622,450.947c-0.558,2.16-1.486,4.13-2.697,5.879c-1.327,1.939-3.013,3.582-4.931,4.878
	c-3.666,2.444-8.186,3.614-12.853,2.982l-27.392-3.687c-3.624-0.485-6.89,2.244-7.059,5.9l-0.801,17.847
	c-24.864-12.537-47.388-29.004-66.752-48.579l12.527-6.753c3.224-1.738,4.256-5.858,2.244-8.913l-15.266-23.136
	c-5.247-7.954-3.635-18.584,3.73-24.632c1.728-1.412,3.635-2.476,5.647-3.171c2.012-0.716,4.13-1.064,6.237-1.054
	c0.242,0.211,0.495,0.432,0.727,0.664l19.996,19.09c2.223,2.118,5.573,2.255,7.944,0.558l4.098,3.919
	c2.644,2.528,6.89,2.233,9.176-0.622l17.289-21.671c3.656-4.593,9.092-7.017,14.613-7.006c1.001,0.864,1.896,1.823,2.687,2.855
	c1.433,1.865,2.476,3.972,3.108,6.195c1.201,4.246,0.906,8.902-1.127,13.148l-11.968,24.906c-1.591,3.298-0.011,7.248,3.424,8.544
	l25.949,9.735C194.083,432.173,199.035,441.729,196.622,450.947z"/>
<g>
	<path style="fill:#FFAFB4;" d="M117.215,431.102c-1.824-1.167-2.357-3.593-1.188-5.417l17.103-26.717
		c1.168-1.825,3.594-2.356,5.417-1.188s2.357,3.593,1.188,5.417l-17.103,26.717C121.464,431.738,119.039,432.269,117.215,431.102z"
		/>
	<path style="fill:#FFAFB4;" d="M120.795,430.891c-1.674,1.374-4.146,1.13-5.52-0.544l-20.124-24.522
		c-1.374-1.674-1.13-4.146,0.544-5.52c1.674-1.374,4.146-1.13,5.52,0.544l20.124,24.522
		C122.712,427.046,122.469,429.516,120.795,430.891z"/>
	<path style="fill:#FFAFB4;" d="M121.7,427.421c0.789,2.016-0.205,4.292-2.223,5.081l-29.54,11.562
		c-2.018,0.789-4.292-0.205-5.081-2.223c-0.789-2.016,0.205-4.292,2.223-5.081l29.54-11.562
		C118.636,424.409,120.911,425.404,121.7,427.421z"/>
	<path style="fill:#FFAFB4;" d="M118.68,425.487c2.162-0.128,4.018,1.521,4.146,3.684l1.867,31.667
		c0.127,2.162-1.522,4.018-3.684,4.146c-2.162,0.127-4.018-1.521-4.146-3.684l-1.867-31.667
		C114.869,427.471,116.517,425.615,118.68,425.487z"/>
	<path style="fill:#FFAFB4;" d="M115.907,427.762c0.547-2.096,2.689-3.351,4.785-2.805l30.695,8.01
		c2.096,0.547,3.351,2.69,2.805,4.785c-0.547,2.096-2.689,3.351-4.785,2.805l-30.695-8.01
		C116.616,432,115.361,429.859,115.907,427.762z"/>
</g>
<path style="fill:#FFD06B;" d="M132.868,433.805c-2.92,4.562-7.951,6.961-12.999,6.728c-2.488-0.109-4.979-0.853-7.225-2.291
	c-6.808-4.358-8.796-13.416-4.438-20.225c4.358-6.809,13.416-8.796,20.225-4.438c2.246,1.438,3.964,3.389,5.105,5.603
	C135.86,423.67,135.789,429.243,132.868,433.805z"/>
<path style="fill:#FFE67D;" d="M132.868,433.805c-2.92,4.562-7.951,6.961-12.999,6.728c-2.324-4.487-2.252-10.059,0.668-14.622
	c2.92-4.563,7.951-6.961,12.999-6.728C135.86,423.67,135.789,429.243,132.868,433.805z"/>
<g>
</g>
<g>
</g>
<g>
</g>
<g>
</g>
<g>
</g>
<g>
</g>
<g>
</g>
<g>
</g>
<g>
</g>
<g>
</g>
<g>
</g>
<g>
</g>
<g>
</g>
<g>
</g>
<g>
</g>
</svg>
