<svg height="512pt" viewBox="-4 0 512 512" width="512pt" xmlns="http://www.w3.org/2000/svg"><path d="m107.886719 465c40.472656 29.546875 90.339843 47 144.292969 47 53.949218 0 103.816406-17.453125 144.292968-47zm0 0" fill="#474979"/><path d="m241.433594 465h-133.546875c37.292969 27.226562 82.566406 44.171875 131.660156 46.667969-29.671875-2.007813-28.21875-46.667969 1.886719-46.667969zm0 0" fill="#383c6b"/><path d="m485.910156 340.640625c7.316406-23.246094 11.269532-47.980469 11.269532-73.640625 0-135.308594-109.691407-245-245-245-135.3125 0-245 109.691406-245 245 0 25.660156 3.953124 50.394531 11.269531 73.640625zm0 0" fill="#5bb5e7"/><path d="m14.644531 83.441406h475.070313v-49.320312c0-18.84375-15.277344-34.121094-34.125-34.121094h-406.824219c-18.84375 0-34.121094 15.277344-34.121094 34.121094zm0 0" fill="#fe505f"/><path d="m126.765625 0h-78c-18.84375 0-34.121094 15.277344-34.121094 34.121094v49.320312h78v-49.320312c0-18.84375 15.277344-34.121094 34.121094-34.121094zm0 0" fill="#de3648"/><path d="m53.023438 306.347656h398.3125c3.378906 0 6.609374.675782 9.566406 1.890625l25.355468-198.761719h-468.15625l25.351563 198.761719c2.957031-1.214843 6.1875-1.890625 9.570313-1.890625zm0 0" fill="#fe505f"/><path d="m93.570312 109.476562h-75.46875l25.351563 198.761719c2.957031-1.214843 6.1875-1.890625 9.570313-1.890625h60.695312zm0 0" fill="#de3648"/><path d="m436.996094 306.347656 22.207031-196.871094h-414.050781l22.210937 196.871094zm0 0" fill="#fceccd"/><path d="m45.152344 109.476562 22.210937 196.871094h46.355469l-20.148438-196.871094zm0 0" fill="#fcd981"/><path d="m489.714844 111.644531h-475.070313c-8.089843 0-14.644531-6.554687-14.644531-14.640625 0-8.089844 6.554688-14.644531 14.644531-14.644531h475.070313c8.085937 0 14.640625 6.554687 14.640625 14.644531 0 8.085938-6.554688 14.640625-14.640625 14.640625zm0 0" fill="#fc7080"/><path d="m78.289062 97.003906c0-8.089844 6.554688-14.644531 14.640626-14.644531h-78.285157c-8.089843 0-14.644531 6.554687-14.644531 14.644531 0 8.085938 6.554688 14.640625 14.644531 14.640625h78.285157c-8.085938 0-14.640626-6.554687-14.640626-14.640625zm0 0" fill="#fe505f"/><path d="m272.054688 162.382812c-5.191407 0-8.910157-4.992187-7.457032-9.953124l11.671875-39.839844c1.207031-4.117188 5.519531-6.472656 9.636719-5.269532 4.117188 1.203126 6.476562 5.519532 5.269531 9.632813l-11.671875 39.84375c-.992187 3.386719-4.089844 5.585937-7.449218 5.585937zm0 0" fill="#ffac00"/><path d="m224.855469 156.796875-11.671875-39.839844c-1.207032-4.117187 1.152344-8.433593 5.269531-9.636719 4.113281-1.207031 8.429687 1.152344 9.636719 5.269532l11.671875 39.839844c1.203125 4.117187-1.15625 8.433593-5.273438 9.636718-4.113281 1.207032-8.429687-1.152344-9.632812-5.269531zm0 0" fill="#ffac00"/><path d="m278.289062 93.660156h-52.21875c-8.011718 0-14.566406 6.554688-14.566406 14.566406 0 8.011719 6.554688 14.566407 14.566406 14.566407h52.21875c8.011719 0 14.566407-6.554688 14.566407-14.566407 0-8.011718-6.554688-14.566406-14.566407-14.566406zm0 0" fill="#5e92e5"/><path d="m251.894531 108.226562c0-8.011718 6.554688-14.566406 14.566407-14.566406h-40.390626c-8.011718 0-14.566406 6.554688-14.566406 14.566406 0 8.011719 6.554688 14.566407 14.566406 14.566407h40.386719c-8.011719 0-14.5625-6.554688-14.5625-14.566407zm0 0" fill="#4874cc"/><path d="m206.433594 307.53125c-17.183594-13.5625-28.246094-34.550781-28.246094-58.089844 0-40.796875 33.195312-73.988281 73.992188-73.988281 40.796874 0 73.988281 33.191406 73.988281 73.988281 0 23.539063-11.058594 44.527344-28.242188 58.089844h39.703125c11.296875-16.566406 17.910156-36.570312 17.910156-58.089844 0-56.992187-46.367187-103.363281-103.359374-103.363281-56.996094 0-103.363282 46.371094-103.363282 103.363281 0 21.519532 6.613282 41.523438 17.910156 58.089844zm0 0" fill="#ffcd38"/><path d="m221.777344 182.015625c-.214844.007813-.421875.03125-.636719.03125-13.511719 0-21.054687-15.535156-12.878906-26.15625-58.152344 27.40625-76.941407 99.714844-41.535157 151.640625h39.703126c-43.804688-34.578125-35.019532-102.71875 15.347656-125.515625zm0 0" fill="#ffac00"/><path d="m476.695312 340.640625v-11.003906c0-13.949219-11.414062-25.359375-25.359374-25.359375h-398.3125c-13.949219 0-25.359376 11.410156-25.359376 25.359375v11.003906zm0 0" fill="#474979"/><path d="m117.691406 304.277344h-64.667968c-13.949219 0-25.359376 11.410156-25.359376 25.359375v11.003906h64.664063v-11.003906c0-13.949219 11.414063-25.359375 25.363281-25.359375zm0 0" fill="#383c6b"/><path d="m27.84375 365.589844c17.980469 40.855468 46.785156 75.878906 82.796875 101.410156h283.078125c36.011719-25.53125 64.816406-60.554688 82.796875-101.410156zm0 0" fill="#fe505f"/><path d="m93.148438 365.589844h-65.304688c14.964844 34.003906 37.429688 63.957031 65.304688 87.769531zm0 0" fill="#de3648"/><path d="m28.789062 367.757812h446.777344c4.273438-9.457031 7.949219-19.238281 11.007813-29.289062h-468.792969c3.0625 10.050781 6.738281 19.832031 11.007812 29.289062zm0 0" fill="#fc7080"/><path d="m83.632812 352.902344c0-6.246094 3.496094-11.671875 8.636719-14.433594h-74.488281c3.0625 10.050781 6.738281 19.832031 11.011719 29.289062h64.355469c-5.613282-2.597656-9.515626-8.265624-9.515626-14.855468zm0 0" fill="#fe505f"/></svg>