<?xml version="1.0"?>
<svg xmlns="http://www.w3.org/2000/svg" xmlns:xlink="http://www.w3.org/1999/xlink" version="1.1" viewBox="0 0 224 224" width="24px" height="24px"><g fill="none" fill-rule="nonzero" stroke="none" stroke-width="1" stroke-linecap="butt" stroke-linejoin="miter" stroke-miterlimit="10" stroke-dasharray="" stroke-dashoffset="0" font-family="none" font-weight="none" font-size="none" text-anchor="none" style="mix-blend-mode: normal"><path d="M0,224v-224h224v224z" fill="none"/><g fill="#ffffff"><path d="M186.48438,27.90885c-0.34778,0.01099 -0.69468,0.04142 -1.03906,0.09115h-45.44532c-3.36594,-0.0476 -6.49676,1.72084 -8.19362,4.62815c-1.69686,2.90731 -1.69686,6.50306 0,9.41037c1.69686,2.90731 4.82768,4.67575 8.19362,4.62815h24.13542l-86.73438,86.73438c-2.43822,2.34096 -3.42039,5.81715 -2.56772,9.08793c0.85267,3.27078 3.40694,5.82504 6.67771,6.67771c3.27078,0.85267 6.74697,-0.1295 9.08793,-2.56772l86.73438,-86.73437v24.13542c-0.0476,3.36594 1.72084,6.49676 4.62815,8.19362c2.90731,1.69686 6.50306,1.69686 9.41037,0c2.90731,-1.69686 4.67575,-4.82768 4.62815,-8.19362v-45.48177c0.37623,-2.71984 -0.46414,-5.46738 -2.29744,-7.51141c-1.83331,-2.04403 -4.47358,-3.17721 -7.21818,-3.09797zM46.66667,28c-10.20192,0 -18.66667,8.46475 -18.66667,18.66667v130.66667c0,10.20192 8.46475,18.66667 18.66667,18.66667h130.66667c10.20192,0 18.66667,-8.46475 18.66667,-18.66667v-56c0.0476,-3.36594 -1.72084,-6.49676 -4.62815,-8.19362c-2.90731,-1.69686 -6.50306,-1.69686 -9.41037,0c-2.90731,1.69686 -4.67575,4.82768 -4.62815,8.19362v56h-130.66667v-130.66667h56c3.36594,0.0476 6.49676,-1.72084 8.19362,-4.62815c1.69686,-2.90731 1.69686,-6.50306 0,-9.41037c-1.69686,-2.90731 -4.82768,-4.67575 -8.19362,-4.62815z"/></g></g></svg>
