<?xml version="1.0" encoding="iso-8859-1"?>
<!-- Generator: Adobe Illustrator 19.0.0, SVG Export Plug-In . SVG Version: 6.00 Build 0)  -->
<svg version="1.1" id="Capa_1" xmlns="http://www.w3.org/2000/svg" xmlns:xlink="http://www.w3.org/1999/xlink" x="0px" y="0px"
	 viewBox="0 0 512.001 512.001" style="enable-background:new 0 0 512.001 512.001;" xml:space="preserve">
<circle style="fill:#28B49B;" cx="256" cy="256" r="256"/>
<path style="fill:#E8F7F9;" d="M204.244,506.763c33.333,6.844,68.877,7.136,103.695-0.04l-26.266-60.12h-51.146L204.244,506.763z"/>
<path style="fill:#C3F1FC;" d="M242.103,511.621l19.141-65.017h-30.716l-26.283,60.159
	C216.563,509.293,229.207,510.93,242.103,511.621z"/>
<polygon style="fill:#E8F7F9;" points="105.297,180.949 221.36,446.604 290.534,446.604 406.596,180.949 "/>
<path style="fill:#C3F1FC;" d="M105.297,180.949l52.429,120.004c9.748,5.904,17.889,12.824,36.972,12.824
	c33.269,0,33.269-21.041,66.537-21.041c33.27,0,33.27,21.041,66.54,21.041c10.003,0,16.989-1.908,22.786-4.568l56.036-128.259
	h-301.3V180.949z"/>
<path style="fill:#A5E5F9;" d="M385.846,228.444l20.75-47.495H105.297l20.546,47.028c35.503-1.1,34.792,20.994,68.854,20.994
	c33.269,0,33.269-21.041,66.537-21.041c33.27,0,33.27,21.041,66.54,21.041C357.952,248.972,360.76,231.664,385.846,228.444z"/>
<polygon style="fill:#C3F1FC;" points="105.297,180.949 221.36,446.604 257.037,446.604 163.328,180.949 "/>
<path style="fill:#A5E5F9;" d="M194.698,313.777c5.877,0,10.701-0.666,14.869-1.747l-46.238-131.08h-58.032l52.429,120.004
	C167.474,306.857,175.615,313.777,194.698,313.777z"/>
<path style="fill:#55CEED;" d="M163.328,180.949h-58.032l20.546,47.028c32.616-1.01,34.742,17.606,61.335,20.582L163.328,180.949z"
	/>
<path style="fill:#F98FB0;" d="M288.402,444.5c-1.141,0-61.4,0-58.335,0c-0.134,0-6.699,0-6.575,0
	c-12.662,0-18.923,15.365-10.042,24.245c2.581,2.581,6.136,4.16,10.042,4.16c15.591,0,52.035,0,64.91,0
	c7.844,0,14.202-6.359,14.202-14.202C302.604,450.858,296.246,444.5,288.402,444.5z"/>
<g>
	<path style="fill:#FA6487;" d="M263.048,444.5c-2.423,0-41.915,0-39.556,0c-12.661,0-18.923,15.365-10.043,24.245
		c4.231,4.232,9.021,3.944,10.043,4.16c12.335,0,25.929,0,39.556,0c-2.451,0-4.757-0.621-6.77-1.714
		C243.407,464.198,248.348,444.5,263.048,444.5z"/>
	<path style="fill:#FA6487;" d="M364.908,45.933c-1.427-0.983-2.148-2.724-1.834-4.428c3.157-17.126-11.795-32.07-28.914-28.914
		c-1.703,0.314-3.445-0.407-4.428-1.834c-9.877-14.342-31.017-14.336-40.891,0c-0.983,1.427-2.724,2.148-4.428,1.834
		c-17.126-3.157-32.07,11.795-28.914,28.914c0.314,1.704-0.407,3.445-1.834,4.428c-6.497,4.474-10.758,11.96-10.758,20.445
		s4.261,15.971,10.758,20.445c1.427,0.983,2.148,2.724,1.834,4.428c-1.43,7.758,0.85,16.064,6.85,22.064s14.306,8.28,22.064,6.85
		c1.704-0.314,3.445,0.407,4.428,1.834c4.474,6.497,11.96,10.758,20.445,10.758c8.485,0,15.971-4.261,20.445-10.758
		c0.982-1.427,2.724-2.148,4.428-1.834c7.758,1.43,16.064-0.851,22.064-6.85c6-6,8.28-14.306,6.85-22.064
		c-0.314-1.703,0.407-3.445,1.834-4.428C379.25,76.947,379.244,55.806,364.908,45.933z"/>
</g>
<path style="fill:#E64B78;" d="M312.575,111.769c-0.987-1.431-2.728-2.163-4.437-1.847c-7.758,1.43-16.064-0.851-22.064-6.85
	c-6-6-8.28-14.306-6.85-22.064c0.314-1.703-0.407-3.445-1.834-4.427c-6.497-4.474-10.758-11.96-10.758-20.445
	c0-8.47,4.245-15.944,10.722-20.421c1.434-0.991,2.185-2.738,1.869-4.452c-1.188-6.446,0.194-13.266,4.135-18.832
	c-16.873-2.369-30.922,12.465-27.859,29.077c0.314,1.703-0.407,3.445-1.834,4.427c-6.497,4.474-10.758,11.96-10.758,20.445
	s4.261,15.971,10.758,20.445c1.427,0.982,2.148,2.724,1.834,4.427c-1.43,7.758,0.851,16.064,6.85,22.064
	c6,6,14.306,8.28,22.064,6.85c1.703-0.314,3.445,0.407,4.427,1.834c4.474,6.497,11.96,10.758,20.446,10.758
	c8.367,0,15.758-4.149,20.252-10.494C322.511,121.278,316.428,117.355,312.575,111.769z"/>
<circle style="fill:#FBB659;" cx="309.29" cy="66.38" r="24.816"/>
<path style="fill:#F7A15F;" d="M309.287,66.379c-4.592-7.953-4.275-17.389,0.002-24.813c-5.231-0.005-10.551,1.634-15.163,5.159
	c-8.984,6.867-12.151,19.237-7.586,29.583c6.07,13.757,22.495,18.871,35.156,11.562c3.916-2.261,6.976-5.431,9.081-9.086
	C322.208,78.775,313.878,74.332,309.287,66.379z"/>
<path style="fill:#C3F1FC;" d="M269.215,66.379c0-8.485-4.261-15.971-10.758-20.445c-1.427-0.983-2.148-2.724-1.834-4.428
	c3.157-17.126-11.795-32.07-28.914-28.914c-1.704,0.314-3.445-0.407-4.428-1.834c-9.877-14.342-31.017-14.336-40.891,0
	c-0.982,1.427-2.724,2.148-4.428,1.834c-17.126-3.157-32.07,11.795-28.914,28.914c0.314,1.704-0.407,3.445-1.834,4.428
	c-14.342,9.877-14.336,31.017,0,40.891c1.427,0.983,2.148,2.724,1.834,4.428c-1.43,7.758,0.85,16.064,6.85,22.064
	s14.306,8.28,22.064,6.85c1.704-0.314,3.445,0.407,4.428,1.834c4.474,6.497,11.96,10.758,20.445,10.758s15.971-4.261,20.445-10.758
	c0.983-1.427,2.724-2.148,4.428-1.834c7.758,1.43,16.064-0.851,22.064-6.85c6-6,8.28-14.306,6.85-22.064
	c-0.314-1.703,0.407-3.445,1.834-4.428C264.955,82.35,269.215,74.864,269.215,66.379z"/>
<path style="fill:#A5E5F9;" d="M206.125,111.769c-0.987-1.431-2.727-2.163-4.437-1.847c-7.758,1.43-16.064-0.851-22.064-6.85
	c-6-6-8.28-14.306-6.85-22.064c0.314-1.703-0.407-3.445-1.834-4.427c-6.497-4.474-10.758-11.96-10.758-20.445
	c0-8.47,4.245-15.944,10.722-20.421c1.434-0.991,2.185-2.738,1.869-4.452c-1.188-6.446,0.194-13.266,4.135-18.832
	c-16.873-2.369-30.922,12.465-27.859,29.077c0.314,1.703-0.407,3.445-1.834,4.427c-14.342,9.877-14.336,31.017,0,40.891
	c1.427,0.982,2.148,2.724,1.834,4.427c-1.43,7.758,0.851,16.064,6.85,22.064c6,6,14.306,8.28,22.064,6.85
	c1.703-0.314,3.445,0.407,4.427,1.834c4.474,6.497,11.96,10.758,20.446,10.758c8.367,0,15.758-4.149,20.252-10.494
	C216.061,121.278,209.978,117.355,206.125,111.769z"/>
<circle style="fill:#FBB659;" cx="202.84" cy="66.38" r="24.816"/>
<path style="fill:#F7A15F;" d="M202.837,66.379c-4.592-7.953-4.275-17.389,0.002-24.813c-5.231-0.005-10.551,1.634-15.163,5.159
	c-8.984,6.867-12.151,19.237-7.586,29.583c6.07,13.757,22.495,18.871,35.156,11.562c3.916-2.261,6.976-5.431,9.081-9.086
	C215.759,78.775,207.429,74.332,202.837,66.379z"/>
<path style="fill:#E8846C;" d="M219.499,153.102c0-8.485-4.261-15.971-10.758-20.445c-1.436-0.989-2.15-2.713-1.834-4.428
	c1.43-7.758-0.85-16.064-6.85-22.064s-14.306-8.28-22.064-6.85c-1.714,0.316-3.439-0.398-4.427-1.834
	c-4.474-6.497-11.96-10.758-20.445-10.758s-15.971,4.261-20.445,10.758c-0.989,1.436-2.713,2.15-4.428,1.834
	c-17.126-3.157-32.07,11.795-28.914,28.914c0.316,1.714-0.398,3.439-1.834,4.428c-14.342,9.877-14.337,31.018,0,40.891
	c1.436,0.989,2.15,2.713,1.834,4.428c-3.157,17.126,11.795,32.07,28.914,28.914c1.714-0.316,3.439,0.398,4.428,1.834
	c9.877,14.343,31.018,14.336,40.891,0c0.989-1.436,2.713-2.15,4.427-1.834c7.758,1.43,16.064-0.85,22.064-6.85
	s8.28-14.306,6.85-22.064c-0.316-1.714,0.398-3.439,1.834-4.428C215.238,169.073,219.499,161.587,219.499,153.102z"/>
<path style="fill:#DD745F;" d="M156.399,198.478c-0.989-1.436-2.713-2.15-4.427-1.834c-17.126,3.157-32.07-11.796-28.914-28.914
	c0.316-1.714-0.398-3.439-1.834-4.428c-6.497-4.474-10.758-11.96-10.758-20.445s4.261-15.971,10.758-20.445
	c1.436-0.989,2.15-2.713,1.834-4.428c-1.188-6.446,0.194-13.266,4.135-18.832c-16.872-2.368-30.922,12.464-27.859,29.076
	c0.316,1.714-0.398,3.439-1.834,4.428c-14.342,9.877-14.337,31.018,0,40.891c1.436,0.989,2.15,2.713,1.834,4.428
	c-3.157,17.126,11.796,32.07,28.914,28.914c1.714-0.316,3.439,0.398,4.427,1.834c9.79,14.215,30.703,14.375,40.698,0.264
	C166.339,208,160.251,204.072,156.399,198.478z"/>
<circle style="fill:#CE604E;" cx="153.12" cy="153.1" r="24.816"/>
<path style="fill:#B74D42;" d="M153.12,153.102c-4.592-7.953-4.274-17.389,0.002-24.813c-4.218-0.004-8.494,1.061-12.41,3.322
	c-11.869,6.853-15.936,22.03-9.083,33.899c6.853,11.869,22.03,15.936,33.899,9.083c3.916-2.261,6.976-5.431,9.081-9.086
	C166.042,165.498,157.712,161.055,153.12,153.102z"/>
<path style="fill:#FBB659;" d="M416.575,132.657c-1.427-0.982-2.148-2.724-1.834-4.428c3.157-17.126-11.795-32.07-28.914-28.914
	c-1.703,0.314-3.445-0.407-4.428-1.834c-4.474-6.497-11.96-10.757-20.445-10.757c-8.485,0-15.971,4.261-20.445,10.757
	c-0.982,1.427-2.724,2.148-4.428,1.834c-7.758-1.43-16.064,0.85-22.064,6.85s-8.28,14.306-6.85,22.064
	c0.314,1.704-0.407,3.445-1.834,4.428c-6.497,4.474-10.758,11.96-10.758,20.445c0,8.485,4.261,15.971,10.758,20.445
	c1.427,0.982,2.148,2.724,1.834,4.428c-3.157,17.126,11.795,32.07,28.914,28.914c1.703-0.314,3.445,0.408,4.428,1.834
	c9.878,14.342,31.017,14.336,40.891,0c0.983-1.427,2.724-2.148,4.428-1.834c7.758,1.43,16.064-0.851,22.064-6.85
	c6-6,8.28-14.306,6.85-22.064c-0.314-1.704,0.407-3.445,1.834-4.428C430.917,163.67,430.911,142.53,416.575,132.657z"/>
<path style="fill:#F7A15F;" d="M364.242,198.492c-0.987-1.431-2.728-2.163-4.437-1.848c-17.126,3.157-32.07-11.795-28.914-28.914
	c0.314-1.703-0.407-3.445-1.834-4.427c-6.497-4.474-10.758-11.961-10.758-20.445c0-8.469,4.245-15.944,10.722-20.421
	c1.434-0.991,2.185-2.738,1.869-4.452c-1.188-6.446,0.194-13.266,4.135-18.832c-7.449-1.046-15.28,1.284-21.009,7.012
	c-6,6-8.28,14.307-6.85,22.064c0.314,1.703-0.407,3.445-1.834,4.427c-6.497,4.474-10.758,11.96-10.758,20.445
	s4.261,15.971,10.758,20.445c1.426,0.982,2.148,2.724,1.834,4.427c-3.157,17.126,11.795,32.07,28.914,28.914
	c1.703-0.314,3.445,0.407,4.428,1.834c9.79,14.215,30.703,14.375,40.698,0.264C374.178,208.001,368.095,204.079,364.242,198.492z"/>
<circle style="fill:#E8846C;" cx="360.95" cy="153.1" r="24.816"/>
<path style="fill:#DD745F;" d="M360.954,153.102c-4.592-7.953-4.275-17.389,0.002-24.813c-5.231-0.005-10.551,1.634-15.163,5.159
	c-8.984,6.867-12.151,19.238-7.586,29.583c6.07,13.757,22.495,18.871,35.156,11.562c3.916-2.261,6.976-5.431,9.081-9.086
	C373.876,165.498,365.546,161.055,360.954,153.102z"/>
<path style="fill:#F98FB0;" d="M323.429,153.102c0-8.485-4.261-15.971-10.758-20.445c-1.427-0.982-2.148-2.724-1.834-4.428
	c1.43-7.758-0.851-16.064-6.85-22.064c-6-6-14.306-8.28-22.064-6.85c-1.703,0.314-3.445-0.407-4.428-1.834
	c-4.474-6.497-11.96-10.757-20.445-10.757c-8.485,0-15.971,4.261-20.445,10.757c-0.983,1.427-2.724,2.148-4.428,1.834
	c-7.758-1.43-16.064,0.85-22.064,6.85s-8.28,14.306-6.85,22.064c0.314,1.704-0.407,3.445-1.834,4.428
	c-6.497,4.474-10.758,11.96-10.758,20.445c0,8.485,4.261,15.971,10.758,20.445c1.427,0.982,2.148,2.724,1.834,4.428
	c-1.43,7.758,0.85,16.064,6.85,22.064s14.306,8.28,22.064,6.85c1.704-0.314,3.445,0.408,4.428,1.834
	c4.474,6.497,11.96,10.758,20.445,10.758c8.485,0,15.971-4.261,20.445-10.758c0.983-1.427,2.724-2.148,4.428-1.834
	c7.758,1.43,16.064-0.851,22.064-6.85c6-6,8.28-14.306,6.85-22.064c-0.314-1.704,0.407-3.445,1.834-4.428
	C319.169,169.073,323.429,161.587,323.429,153.102z"/>
<path style="fill:#FA6487;" d="M260.339,198.492c-0.987-1.431-2.728-2.163-4.437-1.848c-7.758,1.43-16.064-0.85-22.064-6.85
	s-8.28-14.307-6.85-22.064c0.314-1.703-0.407-3.445-1.834-4.427c-6.497-4.474-10.758-11.961-10.758-20.445
	c0-8.469,4.245-15.944,10.722-20.421c1.434-0.991,2.185-2.738,1.869-4.452c-1.188-6.446,0.194-13.266,4.135-18.832
	c-7.449-1.046-15.28,1.284-21.009,7.012c-6,6-8.28,14.307-6.85,22.064c0.314,1.703-0.407,3.445-1.834,4.427
	c-6.497,4.474-10.758,11.96-10.758,20.445s4.261,15.971,10.758,20.445c1.426,0.982,2.148,2.724,1.834,4.427
	c-1.43,7.758,0.851,16.064,6.85,22.064c6,6,14.306,8.28,22.064,6.85c1.703-0.314,3.445,0.407,4.428,1.834
	c4.474,6.497,11.96,10.758,20.445,10.758c8.367,0,15.758-4.149,20.252-10.494C270.275,208.001,264.192,204.079,260.339,198.492z"/>
<circle style="fill:#DD745F;" cx="257.05" cy="153.1" r="24.816"/>
<path style="fill:#CE604E;" d="M257.051,153.102c-4.592-7.953-4.275-17.389,0.002-24.813c-5.231-0.005-10.551,1.634-15.163,5.159
	c-8.984,6.867-12.151,19.238-7.586,29.583c6.07,13.757,22.495,18.871,35.156,11.562c3.916-2.261,6.976-5.431,9.081-9.086
	C269.972,165.498,261.643,161.055,257.051,153.102z"/>
<g>
</g>
<g>
</g>
<g>
</g>
<g>
</g>
<g>
</g>
<g>
</g>
<g>
</g>
<g>
</g>
<g>
</g>
<g>
</g>
<g>
</g>
<g>
</g>
<g>
</g>
<g>
</g>
<g>
</g>
</svg>
