<?xml version="1.0"?>
<svg xmlns="http://www.w3.org/2000/svg" height="512px" viewBox="0 0 512.256 512" width="512px"><path d="m256 512.128906c-119.105469 0-216-96.898437-216-216 0-119.105468 96.894531-216 216-216s216 96.894532 216 216c0 119.101563-96.894531 216-216 216zm0-416c-110.28125 0-200 89.71875-200 200 0 110.277344 89.71875 200 200 200s200-89.722656 200-200c0-110.28125-89.710938-200-200-200zm0 0" fill="#F0B4C2"/><path d="m339.601562 494.871094c-1.664062 0-3.34375-.511719-4.785156-1.589844-65.335937-48.867188-102.816406-123.640625-102.816406-205.152344 0-74.542968 32.398438-145.234375 88.878906-193.953125 3.34375-2.886719 8.402344-2.511719 11.28125.832031 2.886719 3.34375 2.511719 8.390626-.832031 11.28125-52.953125 45.679688-83.328125 111.949219-83.328125 181.839844 0 76.421875 35.136719 146.519532 96.390625 192.335938 3.539063 2.648437 4.265625 7.65625 1.617187 11.191406-1.566406 2.105469-3.976562 3.214844-6.40625 3.214844zm0 0" fill="#F0B4C2"/><path d="m303.441406 506.71875c-1.875 0-3.761718-.65625-5.273437-1.984375-62.382813-54.710937-98.167969-133.664063-98.167969-216.605469 0-76.585937 29.710938-148.664062 83.671875-202.984375 3.121094-3.128906 8.175781-3.152343 11.3125-.039062 3.136719 3.109375 3.152344 8.175781.03125 11.308593-50.953125 51.304688-79.015625 119.386719-79.015625 191.714844 0 78.335938 33.792969 152.902344 92.710938 204.574219 3.320312 2.914063 3.65625 7.96875.746093 11.289063-1.585937 1.808593-3.800781 2.726562-6.015625 2.726562zm0 0" fill="#F0B4C2"/><path d="m262.703125 511.992188c-2.101563 0-4.199219-.832032-5.773437-2.464844-57.34375-59.832032-88.929688-138.457032-88.929688-221.398438 0-74.847656 26.367188-147.648437 74.246094-204.992187 2.832031-3.375 7.875-3.847657 11.265625-1.007813 3.390625 2.832032 3.839843 7.871094 1.015625 11.269532-45.480469 54.464843-70.527344 123.625-70.527344 194.730468 0 78.800782 30 153.496094 84.480469 210.328125 3.0625 3.191407 2.953125 8.253907-.234375 11.3125-1.558594 1.488281-3.550782 2.222657-5.542969 2.222657zm0 0" fill="#F0B4C2"/><path d="m370.742188 477.585938c-1.496094 0-3-.417969-4.34375-1.289063-64.117188-41.519531-102.398438-111.863281-102.398438-188.167969 0-71.234375 32.734375-136.617187 89.808594-179.375 3.542968-2.65625 8.550781-1.929687 11.191406 1.605469 2.65625 3.535156 1.9375 8.550781-1.601562 11.199219-53 39.714844-83.398438 100.425781-83.398438 166.570312 0 70.847656 35.550781 136.167969 95.105469 174.742188 3.703125 2.402344 4.765625 7.351562 2.359375 11.066406-1.527344 2.359375-4.097656 3.648438-6.722656 3.648438zm0 0" fill="#F0B4C2"/><path d="m397.625 456.441406c-1.335938 0-2.6875-.335937-3.929688-1.035156-60.261718-34.046875-97.695312-98.140625-97.695312-167.277344 0-64.738281 32.304688-124.695312 86.425781-160.402344 3.710938-2.429687 8.664063-1.40625 11.085938 2.273438 2.433593 3.6875 1.417969 8.65625-2.273438 11.089844-49.613281 32.71875-79.230469 87.6875-79.230469 147.039062 0 63.375 34.320313 122.136719 89.558594 153.34375 3.839844 2.175782 5.203125 7.054688 3.035156 10.902344-1.480468 2.601562-4.195312 4.066406-6.976562 4.066406zm0 0" fill="#F0B4C2"/><path d="m419.976562 432.097656c-1.199218 0-2.433593-.273437-3.578124-.851562-54.519532-27.335938-88.398438-82.175782-88.398438-143.117188 0-56.328125 30.167969-109.144531 78.71875-137.839844 3.800781-2.242187 8.707031-.992187 10.960938 2.816407 2.242187 3.804687.984374 8.710937-2.824219 10.957031-43.710938 25.832031-70.855469 73.371094-70.855469 124.066406 0 54.847656 30.496094 104.207032 79.566406 128.824219 3.953125 1.976563 5.546875 6.78125 3.5625 10.734375-1.394531 2.792969-4.21875 4.410156-7.152344 4.410156zm0 0" fill="#F0B4C2"/><path d="m437.792969 405.144531c-1.121094 0-2.257813-.234375-3.34375-.738281-45.226563-20.871094-74.449219-66.511719-74.449219-116.277344 0-46.785156 25.519531-89.824218 66.609375-112.328125 3.871094-2.128906 8.734375-.703125 10.855469 3.167969s.703125 8.734375-3.167969 10.855469c-35.960937 19.695312-58.296875 57.359375-58.296875 98.296875 0 43.542968 25.566406 83.488281 65.152344 101.75 4.015625 1.847656 5.769531 6.609375 3.910156 10.617187-1.351562 2.9375-4.246094 4.65625-7.269531 4.65625zm0 0" fill="#F0B4C2"/><path d="m451.183594 376.070312c-1.121094 0-2.253906-.230468-3.34375-.734374-33.917969-15.664063-55.832032-49.886719-55.832032-87.207032 0-35.089844 19.144532-67.367187 49.953126-84.25 3.871093-2.117187 8.742187-.703125 10.855468 3.167969 2.128906 3.875.703125 8.738281-3.167968 10.855469-25.6875 14.074218-41.640626 40.976562-41.640626 70.21875 0 31.101562 18.265626 59.621094 46.535157 72.679687 4.015625 1.847657 5.769531 6.605469 3.914062 10.613281-1.351562 2.9375-4.25 4.65625-7.273437 4.65625zm0 0" fill="#F0B4C2"/><path d="m460.054688 344.65625c-1.359376 0-2.734376-.34375-3.992188-1.070312-19.78125-11.433594-32.0625-32.683594-32.0625-55.464844 0-21.28125 10.542969-41.121094 28.222656-53.066406 3.648438-2.46875 8.632813-1.503907 11.105469 2.152343 2.480469 3.664063 1.511719 8.632813-2.152344 11.113281-13.253906 8.96875-21.175781 23.847657-21.175781 39.808594 0 17.085938 9.214844 33.03125 24.0625 41.597656 3.832031 2.210938 5.144531 7.113282 2.929688 10.929688-1.480469 2.574219-4.167969 4-6.9375 4zm0 0" fill="#F0B4C2"/><path d="m115.441406 150.800781c-4.074218 0-7.554687-3.089843-7.953125-7.226562-.433593-4.390625 2.792969-8.308594 7.183594-8.734375 42.609375-4.152344 84.160156-18.558594 120.160156-41.679688 3.71875-2.398437 8.664063-1.3125 11.054688 2.40625 2.386719 3.722656 1.304687 8.664063-2.414063 11.058594-38.121094 24.488281-82.128906 39.75-127.25 44.144531-.261718.023438-.527344.03125-.78125.03125zm0 0" fill="#F0B4C2"/><path d="m88 184.128906-2.015625-.007812c-4.417969-.058594-7.953125-3.679688-7.894531-8.097656.054687-4.382813 3.621094-7.902344 8-7.902344h.101562l1.808594.007812c40.078125 0 79.03125-7.671875 115.785156-22.816406 4.101563-1.664062 8.757813.261719 10.445313 4.351562 1.679687 4.089844-.261719 8.761719-4.351563 10.449219-38.6875 15.933594-79.695312 24.015625-121.878906 24.015625zm0 0" fill="#F0B4C2"/><path d="m88 216.128906c-6.871094 0-13.839844-.199218-20.710938-.59375-4.417968-.253906-7.792968-4.03125-7.527343-8.445312.246093-4.417969 4.277343-7.714844 8.4375-7.53125 40.855469 2.34375 81.722656-2.636719 120.34375-14.71875 4.21875-1.335938 8.703125 1.023437 10.023437 5.238281 1.320313 4.21875-1.023437 8.707031-5.238281 10.027344-33.976563 10.628906-69.40625 16.023437-105.328125 16.023437zm0 0" fill="#F0B4C2"/><path d="m88 248.128906c-10.886719 0-21.878906-.464844-32.664062-1.367187-4.40625-.371094-7.671876-4.242188-7.296876-8.648438.375-4.410156 4.367188-7.65625 8.640626-7.304687 41.175781 3.488281 83.425781 0 123.320312-10.265625 4.230469-1.078125 8.640625 1.472656 9.742188 5.753906 1.105468 4.277344-1.476563 8.640625-5.757813 9.734375-31.175781 8.03125-63.472656 12.097656-95.984375 12.097656zm0 0" fill="#F0B4C2"/><path d="m88 280.128906c-13.0625 0-26.238281-.609375-39.160156-1.816406-4.398438-.417969-7.632813-4.3125-7.222656-8.710938.414062-4.410156 4.351562-7.65625 8.710937-7.226562 41.566406 3.882812 84.359375 1.242188 124.984375-7.800781 4.304688-.941407 8.574219 1.753906 9.542969 6.074219.953125 4.320312-1.765625 8.589843-6.078125 9.550781-29.601563 6.59375-60.144532 9.929687-90.777344 9.929687zm0 0" fill="#F0B4C2"/><path d="m88 312.128906c-13.550781 0-27.214844-.609375-40.625-1.816406-4.398438-.402344-7.640625-4.28125-7.246094-8.6875.398438-4.402344 4.054688-7.6875 8.6875-7.25 41.695313 3.753906 84.726563 1.410156 125.679688-6.902344 4.390625-.816406 8.550781 1.925782 9.441406 6.246094.871094 4.328125-1.921875 8.554688-6.25 9.441406-29.320312 5.953125-59.488281 8.96875-89.6875 8.96875zm0 0" fill="#F0B4C2"/><path d="m88 344.128906c-12.335938 0-24.800781-.480468-37.03125-1.417968-4.410156-.335938-7.703125-4.175782-7.367188-8.582032.335938-4.410156 4.253907-7.703125 8.582032-7.367187 41.496094 3.175781 84.007812.757812 124.746094-7.136719 4.390624-.898438 8.527343 2 9.375 6.328125.839843 4.335937-1.992188 8.535156-6.328126 9.375-30.113281 5.839844-61.054687 8.800781-91.976562 8.800781zm0 0" fill="#F0B4C2"/><path d="m88 376.128906c-9.214844 0-18.601562-.25-27.886719-.746094-4.417969-.238281-7.808593-4.007812-7.570312-8.414062.242187-4.417969 4.160156-7.738281 8.417969-7.570312 41.0625 2.203124 81.96875-.613282 121.605468-8.261719 4.378906-.863281 8.53125 1.992187 9.371094 6.335937.839844 4.335938-2 8.527344-6.335938 9.367188-31.945312 6.160156-64.777343 9.289062-97.601562 9.289062zm0 0" fill="#F0B4C2"/><path d="m88 408.128906c-4.160156 0-8.304688-.050781-12.449219-.144531-4.414062-.105469-7.910156-3.769531-7.816406-8.183594.105469-4.351562 3.664063-7.816406 8-7.816406h.1875c38.644531.878906 77.726563-2.496094 115.46875-9.96875 4.3125-.902344 8.546875 1.953125 9.402344 6.289063.855469 4.328124-1.953125 8.535156-6.289063 9.398437-34.832031 6.921875-70.664062 10.425781-106.503906 10.425781zm0 0" fill="#F0B4C2"/><path d="m98.542969 440.03125c-4.351563 0-7.917969-3.488281-8-7.847656-.078125-4.421875 3.441406-8.070313 7.847656-8.152344 35.394531-.640625 70.761719-4.617188 105.136719-11.824219 4.296875-.910156 8.5625 1.855469 9.472656 6.183594s-1.855469 8.5625-6.183594 9.472656c-35.351562 7.410157-71.738281 11.503907-108.121094 12.167969-.0625 0-.101562 0-.152343 0zm0 0" fill="#F0B4C2"/><path d="m131.265625 470.601562c-4.160156 0-7.671875-3.21875-7.96875-7.433593-.320313-4.40625 3-8.230469 7.40625-8.542969 29.722656-2.128906 59.457031-6.503906 88.386719-13.039062 4.246094-.953126 8.582031 1.726562 9.558594 6.046874.96875 4.304688-1.738282 8.582032-6.046876 9.558594-29.707031 6.703125-60.242187 11.207032-90.761718 13.382813-.199219.019531-.390625.027343-.574219.027343zm0 0" fill="#F0B4C2"/><path d="m179.398438 497.585938c-3.910157 0-7.328126-2.867188-7.902344-6.851563-.640625-4.375 2.390625-8.429687 6.769531-9.0625 20.140625-2.917969 40.320313-6.863281 59.972656-11.71875 4.335938-1.03125 8.632813 1.558594 9.691407 5.839844 1.0625 4.296875-1.554688 8.632812-5.839844 9.6875-20.167969 4.984375-40.867188 9.023437-61.523438 12.015625-.398437.0625-.78125.089844-1.167968.089844zm0 0" fill="#F0B4C2"/><path d="m24 48.128906c-13.230469 0-24-10.769531-24-24 0-13.234375 10.769531-24 24-24s24 10.765625 24 24c0 13.230469-10.761719 24-24 24zm0-32c-4.414062 0-8 3.589844-8 8 0 4.40625 3.585938 8 8 8s8-3.59375 8-8c0-4.410156-3.585938-8-8-8zm0 0" fill="#F0B4C2"/><path d="m130.320312 138.382812c-2.046874 0-4.097656-.78125-5.65625-2.335937l-95.007812-94.941406c-3.128906-3.128907-3.128906-8.195313 0-11.320313 3.128906-3.128906 8.183594-3.121094 11.3125 0l95.007812 94.941406c3.128907 3.128907 3.128907 8.195313 0 11.320313-1.5625 1.5625-3.609374 2.335937-5.65625 2.335937zm0 0" fill="#F0B4C2"/><path d="m488.257812 48.128906c-13.234374 0-24-10.769531-24-24 0-13.234375 10.765626-24 24-24 13.230469 0 24 10.765625 24 24 0 13.230469-10.769531 24-24 24zm0-32c-4.417968 0-8 3.589844-8 8 0 4.40625 3.582032 8 8 8 4.414063 0 8-3.59375 8-8 0-4.410156-3.59375-8-8-8zm0 0" fill="#F0B4C2"/><path d="m381.832031 138.496094c-2.046875 0-4.097656-.785156-5.65625-2.34375-3.128906-3.128906-3.128906-8.191406 0-11.320313l95.113281-95.046875c3.125-3.121094 8.183594-3.121094 11.3125 0 3.125 3.117188 3.125 8.191406 0 11.320313l-95.113281 95.046875c-1.558593 1.558594-3.609375 2.34375-5.65625 2.34375zm0 0" fill="#F0B4C2"/></svg>
