<?xml version="1.0"?>
<svg xmlns="http://www.w3.org/2000/svg" height="512px" viewBox="-15 1 511 511.999" width="512px"><path d="m421.4375 359.945312v-29.996093h-124.117188c4.523438-27.328125 8.542969-57.089844 11.714844-89.984375h37.414063c41.347656 0 74.988281-33.640625 74.988281-74.988282 0-41.351562-33.640625-74.988281-74.988281-74.988281h-30.054688c.039063-4.949219.058594-9.941406.058594-15 0-20.902343-4.210937-37.933593-12.511719-50.625-10.429687-15.9375-26.847656-24.363281-47.480468-24.363281-20.617188 0-37.027344 8.417969-47.460938 24.34375-8.3125 12.695312-12.53125 29.734375-12.53125 50.644531 0 5.058594.023438 10.050781.058594 15h-30.054688c-24.808594 0-44.992187-20.1875-44.992187-44.996093v-44.992188h-29.996094v44.992188c0 41.351562 33.640625 74.988281 74.988281 74.988281h30.5c.726563 32.359375 2.230469 62.238281 4.335938 89.988281h-34.835938c-41.347656 0-74.988281 33.640625-74.988281 74.988281 0 41.347657 33.640625 74.988281 74.988281 74.988281h54.460938c6.582031 34.667969 13.855468 65.371094 20.976562 93.855469l14.550782 58.199219 14.550781-58.199219c7.117187-28.484375 14.394531-59.1875 20.976562-93.855469zm-74.988281-239.964843c24.808593 0 44.992187 20.183593 44.992187 44.996093 0 24.808594-20.183594 44.992188-44.992187 44.992188h-34.835938c2.105469-27.75 3.609375-57.628906 4.335938-89.988281zm-119.476563 0h14.492188v29.996093h29.992187v-89.984374h-29.992187v29.996093h-14.941406c-.035157-4.945312-.058594-9.941406-.058594-15 0-44.992187 22.578125-44.992187 29.996094-44.992187 7.417968 0 29.996093 0 29.996093 44.992187 0 50.300781-1.828125 94.910157-4.9375 134.980469h-50.117187c-2.148438-27.699219-3.683594-57.570312-4.429688-89.988281zm-60.5 209.96875c-24.808594 0-44.992187-20.183594-44.992187-44.992188 0-24.808593 20.183593-44.992187 44.992187-44.992187h37.414063c3.171875 32.894531 7.191406 62.65625 11.714843 89.984375zm89.988282 54.371093c-8.796876-41.195312-16.871094-88.066406-22.421876-144.355468h44.84375c-5.550781 56.289062-13.625 103.160156-22.421874 144.355468zm0 0" fill="#F0B4C2"/><path d="m60.492188 119.980469h-29.996094v29.996093h-29.996094v29.996094h29.996094v29.996094h29.996094v-29.996094h29.992187v-29.996094h-29.992187zm0 0" fill="#F0B4C2"/><path d="m481.425781 419.9375h-29.992187v-29.996094h-29.996094v29.996094h-29.996094v29.996094h29.996094v29.996094h29.996094v-29.996094h29.992187zm0 0" fill="#F0B4C2"/></svg>
