<svg height="480pt" viewBox="-72 0 480 480.00407" width="480pt" xmlns="http://www.w3.org/2000/svg" xmlns:xlink="http://www.w3.org/1999/xlink"><linearGradient id="a" gradientUnits="userSpaceOnUse" x1="-79.997965" x2="412.178035" y1="240.004068" y2="240.004068"><stop offset="0" stop-color="#ef7ec0"/><stop offset=".293" stop-color="#eb66ad"/><stop offset=".909" stop-color="#e2297c"/><stop offset="1" stop-color="#e11f74"/></linearGradient><path d="m204.570312 368.003906c72.472657 0 131.433594-39.480468 131.433594-88 0-4.417968-3.582031-8-8-8h-20.570312c-49.742188 0-93.121094 18.609375-115.429688 45.960938v-45.960938h24v-16h-24v-48.121094c70.871094-1.230468 128-40.125 128-87.878906 0-4.417968-3.582031-8-8-8h-20.570312c-3.589844 0-7.113282.167969-10.625.359375l6.472656-64.734375c.058594-.59375.679688-10.65625.679688-10.65625.375-3.824218-2.023438-7.375-5.710938-8.457031l-81.359375-23.800781c-21.476563-6.285156-44.300781-6.285156-65.777344 0l-81.359375 23.800781c-3.6875 1.082031-6.085937 4.632813-5.710937 8.457031 0 0 0 3.933594.070312 4.527344l7.082031 70.863281c-3.511718-.191406-7.035156-.359375-10.625-.359375h-20.566406c-4.421875 0-8 3.582032-8 8 0 47.753906 57.125 86.648438 128 87.878906v16.121094h-24v16h24v48h-24v16h24v101.960938c-22.3125-27.351563-65.691406-45.960938-115.433594-45.960938h-20.566406c-4.421875 0-7.99999975 3.582032-7.99999975 8 0 48.519532 58.95703175 88 131.42968775 88h12.570312v16c0 4.417969 3.578125 8 8 8h32c4.417969 0 8-3.582031 8-8v-72h24v-16h-24v-16zm102.863282-80h11.863281c-6.007813 33.726563-49.511719 60.496094-103.847656 63.679688l44.441406-24.6875c3.859375-2.148438 5.25-7.019532 3.101563-10.878906-2.144532-3.863282-7.015626-5.253907-10.878907-3.105469l-57.558593 32c11.101562-32.535157 57.488281-57.007813 112.878906-57.007813zm-235.808594-174.105468-6.207031-63.582032c31.011719 8.09375 61.574219 17.828125 91.550781 29.167969 7.5625 3.636719 15.347656 6.78125 23.3125 9.414063 6.402344 2.289062 12.953125 4.664062 16.144531 6.265624 3.953125 1.976563 8.761719.371094 10.734375-3.585937 1.976563-3.953125.371094-8.757813-3.582031-10.734375h-.082031c-3.871094-1.9375-11.957032-5.289062-22.476563-9.351562 28.625-10.265626 58.714844-15.859376 89.117188-16.558594l-5.765625 59c-44.722656 6.292968-81.015625 27.886718-96.367188 56.167968-15.355468-28.3125-51.648437-49.914062-96.378906-56.203124zm231.671875 14.105468c-6.398437 35.953125-55.414063 64-114.726563 64h-11.863281c6.398438-35.953125 55.414063-64 114.726563-64zm-163.6875-107.929687c18.542969-5.433594 38.257813-5.433594 56.800781 0l65.375 19.128906c-35.386718 1.4375-70.175781 9.621094-102.496094 24.113281-25.71875-9.367187-56.800781-19.863281-79.199218-25.824218zm-106.902344 107.929687h11.863281c58.070313 0 106.152344 26.902344 114.160157 61.769532l-58.488281-36.554688c-3.753907-2.339844-8.699219-1.195312-11.039063 2.5625-2.34375 3.753906-1.195313 8.695312 2.558594 11.039062l39.023437 24.382813c-51.582031-4.703125-92.289062-30.6875-98.078125-63.199219zm-16 248h11.863281c55.925782 0 102.648438 24.945313 113.175782 57.929688l-66.167969-33.089844c-3.953125-1.976562-8.761719-.371094-10.734375 3.585938-1.976562 3.953124-.371094 8.757812 3.582031 10.734374l48.375 24.191407c-52.542969-4.152344-94.222656-30.40625-100.09375-63.351563zm159.296875 88h-16v-256h16zm0 0" fill="url(#a)"/></svg>