<svg height="479pt" viewBox="-63 0 479 479.85296" width="479pt" xmlns="http://www.w3.org/2000/svg" xmlns:xlink="http://www.w3.org/1999/xlink"><linearGradient id="a"><stop offset="0" stop-color="#ef7ec0"/><stop offset=".293" stop-color="#eb66ad"/><stop offset=".909" stop-color="#e2297c"/><stop offset="1" stop-color="#e11f74"/></linearGradient><linearGradient id="b" gradientUnits="userSpaceOnUse" x1="-71.57352" x2="430.83448" xlink:href="#a" y1="103.999947" y2="103.999947"/><linearGradient id="c" gradientUnits="userSpaceOnUse" x1="-71.57352" x2="430.83448" xlink:href="#a" y1="167.999947" y2="167.999947"/><linearGradient id="d" gradientUnits="userSpaceOnUse" x1="-71.57352" x2="430.83448" xlink:href="#a" y1="415.999947" y2="415.999947"/><linearGradient id="e" gradientUnits="userSpaceOnUse" x1="-71.57352" x2="430.83448" xlink:href="#a" y1="239.999947" y2="239.999947"/><path d="m136.425781 112c4.417969 0 8-3.582031 8-8s-3.582031-8-8-8h-.078125c-4.417968.023438-7.984375 3.621094-7.960937 8.039062.023437 4.417969 3.621093 7.984376 8.039062 7.960938zm0 0" fill="url(#b)"/><path d="m216.507812 112c4.417969 0 8-3.582031 8-8s-3.582031-8-8-8h-.082031c-4.417969.023438-7.980469 3.621094-7.960937 8.039062.023437 4.417969 3.625 7.984376 8.042968 7.960938zm0 0" fill="url(#b)"/><path d="m176.425781 112c-30.925781 0-56 25.070312-56 56s25.074219 56 56 56c30.929688 0 56-25.070312 56-56-.035156-30.914062-25.085937-55.964844-56-56zm8 24c0 4.417969-3.582031 8-8 8s-8-3.582031-8-8 3.582031-8 8-8 8 3.582031 8 8zm-8 72c-17.203125.066406-32.507812-10.910156-37.960937-27.226562-5.453125-16.316407.175781-34.289063 13.960937-44.582032.101563 9.832032 6.1875 18.605469 15.359375 22.144532-1.199218 7.121093-4.796875 17.664062-15.375 17.664062-4.417968 0-8 3.582031-8 8s3.582032 8 8 8c9.621094.28125 18.699219-4.4375 24-12.472656 5.304688 8.039062 14.390625 12.757812 24.015625 12.472656 4.417969 0 8-3.582031 8-8s-3.582031-8-8-8c-10.605469 0-14.175781-10.542969-15.375-17.664062 9.179688-3.535157 15.273438-12.308594 15.375-22.144532 13.785157 10.292969 19.414063 28.265625 13.960938 44.582032-5.453125 16.316406-20.757813 27.292968-37.960938 27.226562zm0 0" fill="url(#c)"/><path d="m104.425781 384c-17.671875 0-32 14.328125-32 32s14.328125 32 32 32 32-14.328125 32-32-14.328125-32-32-32zm0 48c-8.835937 0-16-7.164062-16-16s7.164063-16 16-16c8.835938 0 16 7.164062 16 16s-7.164062 16-16 16zm0 0" fill="url(#d)"/><path d="m248.425781 384c-17.671875 0-32 14.328125-32 32s14.328125 32 32 32 32-14.328125 32-32-14.328125-32-32-32zm0 48c-8.835937 0-16-7.164062-16-16s7.164063-16 16-16c8.835938 0 16 7.164062 16 16s-7.164062 16-16 16zm0 0" fill="url(#d)"/><path d="m352.425781 64c0-25.921875-15.640625-49.28125-39.605469-59.164062-23.964843-9.878907-51.523437-4.328126-69.792968 14.058593-40.828125-25.191406-92.375-25.191406-133.199219 0-18.273437-18.386719-45.832031-23.9375-69.796875-14.058593-23.964844 9.882812-39.601562 33.242187-39.605469 59.164062.128907 29.175781 19.875 54.609375 48.105469 61.96875 0 .679688-.105469 1.34375-.105469 2.03125.015625 37.277344 16.324219 72.683594 44.640625 96.929688-12.679687 4.636718-22.820312 14.398437-27.9375 26.894531l-18.101562 44.488281c-10.78125 26.382812-8.191406 56.34375 6.949218 80.488281-20.773437 26.816407-16.976562 65.191407 8.644532 87.417969 25.625 22.230469 64.152344 20.566406 87.765625-3.785156 17.042969 4.738281 35.058593 4.738281 52.105469 0 23.632812 24.246094 62.078124 25.851562 87.652343 3.660156s29.402344-60.476562 8.730469-87.292969c15.128906-24.136719 17.714844-54.078125 6.953125-80.449219l-18.105469-44.488281c-5.097656-12.503906-15.242187-22.273437-27.929687-26.902343 28.328125-24.25 44.632812-59.671876 44.632812-96.960938 0-.6875-.09375-1.351562-.101562-2.03125 28.234375-7.355469 47.980469-32.792969 48.101562-61.96875zm-336 0c-.042969-18.949219 11.082031-36.148438 28.382813-43.875 17.304687-7.726562 37.535156-4.535156 51.617187 8.148438-4.1875 3.371093-8.160156 7-11.894531 10.871093-9.824219-7.972656-23.429688-9.394531-34.6875-3.628906-11.261719 5.769531-18.054688 17.644531-17.320312 30.273437.730468 12.632813 8.851562 23.636719 20.703124 28.066407-1.4375 5.199219-2.542968 10.484375-3.304687 15.824219-19.875-6.371094-33.394531-24.808594-33.496094-45.679688zm41.871094 14.769531c-5.886719-2.277343-9.890625-7.800781-10.210937-14.105469-.324219-6.308593 3.089843-12.214843 8.714843-15.078124 5.628907-2.867188 12.410157-2.15625 17.320313 1.8125-6.382813 8.433593-11.699219 17.628906-15.824219 27.371093zm3.546875 223.574219 18.09375-44.488281c5.144531-12.570313 17.632812-20.554688 31.199219-19.953125l.21875.128906-27.921875 109.167969c-.800782 2.976562-1.328125 6-1.792969 9.039062-5.75 2.207031-11.152344 5.230469-16.039063 8.976563-10.746093-19.292969-12.132812-42.433594-3.757812-62.871094zm42.582031 161.65625c-26.507812 0-48-21.492188-48-48s21.492188-48 48-48c26.511719 0 48 21.492188 48 48-.027343 26.5-21.5 47.972656-48 48zm56.289063-17.601562c10.703125-19.828126 10.191406-43.820313-1.351563-63.175782-11.539062-19.351562-32.40625-31.210937-54.9375-31.222656-1.933593 0-3.839843.121094-5.726562.289062.085937-.359374.144531-.730468.230469-1.089843l27.007812-105.597657c4.914062 2.089844 9.957031 3.871094 15.097656 5.328126-9.71875 34.789062-20.609375 75.820312-20.609375 85.070312 0 4.417969 3.582031 8 8 8s8-3.582031 8-8c0-4.289062 5.359375-28.34375 20.28125-81.679688 23.972657 3.984376 48.585938.847657 70.792969-9.023437l25.804688 103.40625c.355468 1.183594.585937 2.402344.882812 3.585937-1.90625-.167968-3.816406-.289062-5.761719-.289062-22.542969.003906-43.425781 11.871094-54.964843 31.238281-11.542969 19.367188-12.039063 43.378907-1.316407 63.210938-10.386719 1.957031-21.050781 1.941406-31.429687-.050781zm87.710937 17.601562c-26.507812 0-48-21.492188-48-48s21.492188-48 48-48c26.511719 0 48 21.492188 48 48-.027343 26.5-21.5 47.972656-48 48zm24.488281-206.144531 18.097657 44.488281c8.375 20.445312 6.992187 43.589844-3.753907 62.894531-4.875-3.738281-10.261718-6.753906-16-8.957031-.578124-3.972656-1.414062-7.90625-2.503906-11.769531l-26.609375-106.609375c13.410157-.402344 25.667969 7.546875 30.769531 19.953125zm-96.488281-17.855469c-61.855469 0-112-50.144531-112-112s50.144531-112 112-112 112 50.144531 112 112c-.066406 61.828125-50.171875 111.933594-112 112zm102.304688-188.601562c4.914062-3.804688 11.589843-4.414063 17.109375-1.554688 5.519531 2.859375 8.875 8.664062 8.597656 14.871094-.273438 6.210937-4.132812 11.695312-9.882812 14.054687-4.121094-9.742187-9.4375-18.9375-15.824219-27.371093zm24.230469 58.289062c-.761719-5.34375-1.863282-10.628906-3.300782-15.832031 11.855469-4.421875 19.980469-15.429688 20.71875-28.0625.734375-12.636719-6.058594-24.511719-17.320312-30.28125-11.265625-5.769531-24.871094-4.347657-34.695313 3.632812-3.734375-3.867187-7.703125-7.5-11.890625-10.871093 14.085938-12.648438 34.296875-15.824219 51.578125-8.101563 17.285157 7.722656 28.402344 24.898437 28.375 43.828125-.085937 20.867188-13.59375 39.308594-33.464843 45.6875zm0 0" fill="url(#e)"/></svg>