<svg height="480pt" viewBox="0 -24 480 480" width="480pt" xmlns="http://www.w3.org/2000/svg" xmlns:xlink="http://www.w3.org/1999/xlink"><linearGradient id="a"><stop offset="0" stop-color="#ef7ec0"/><stop offset=".293" stop-color="#eb66ad"/><stop offset=".909" stop-color="#e2297c"/><stop offset="1" stop-color="#e11f74"/></linearGradient><linearGradient id="b" gradientUnits="userSpaceOnUse" x1="-16" x2="486.408" xlink:href="#a" y1="216" y2="216"/><linearGradient id="c" gradientUnits="userSpaceOnUse" x1="-16" x2="486.408" xlink:href="#a" y1="376" y2="376"/><linearGradient id="d" gradientUnits="userSpaceOnUse" x1="-16" x2="486.408" xlink:href="#a" y1="392" y2="392"/><linearGradient id="e" gradientUnits="userSpaceOnUse" x1="-16" x2="486.408" xlink:href="#a" y1="304" y2="304"/><linearGradient id="f" gradientUnits="userSpaceOnUse" x1="-16" x2="486.408" xlink:href="#a" y1="308" y2="308"/><path d="m456 80h-29.558594c23.515625-16.433594 37.535156-43.308594 37.558594-72 0-4.417969-3.582031-8-8-8h-96c-29.234375.0117188-56.558594 14.542969-72.910156 38.777344-4.449219-22.484375-24.171875-38.6875002-47.089844-38.6875002s-42.640625 16.2031252-47.089844 38.6875002c-16.351562-24.234375-43.675781-38.7656252-72.910156-38.777344h-96c-4.417969 0-8 3.582031-8 8 .03125 28.699219 14.066406 55.574219 37.601562 72h-29.601562c-13.253906 0-24 10.746094-24 24v64c0 13.253906 10.746094 24 24 24h16v232c0 4.417969 3.582031 8 8 8h384c4.417969 0 8-3.582031 8-8v-232h16c13.253906 0 24-10.746094 24-24v-64c0-13.253906-10.746094-24-24-24zm-96-64h87.558594c-4.117188 36.421875-34.90625 63.957031-71.558594 64h-57.878906l29.878906-17.054688-8-13.890624-51.304688 29.34375c4.835938-35.695313 35.28125-62.339844 71.304688-62.398438zm-80 160h-80v-80h80zm-72-128c0-17.671875 14.328125-32 32-32s32 14.328125 32 32v32h-24v-40h-16v40h-24zm-175.558594-32h87.558594c36.152344.054688 66.671875 26.886719 71.359375 62.734375l-59.785156-29.894531-7.148438 14.320312 33.6875 16.839844h-54.113281c-36.652344-.042969-67.441406-27.578125-71.558594-64zm-16.441406 152v-64c0-4.417969 3.582031-8 8-8h160v80h-160c-4.417969 0-8-3.582031-8-8zm408 248h-368v-224h368zm40-248c0 4.417969-3.582031 8-8 8h-160v-80h160c4.417969 0 8 3.582031 8 8zm0 0" fill="url(#b)"/><path d="m88 352h-16v48h40v-16h-24zm0 0" fill="url(#c)"/><path d="m128 384h16v16h-16zm0 0" fill="url(#d)"/><path d="m144 304c0 53.019531 42.980469 96 96 96s96-42.980469 96-96-42.980469-96-96-96c-52.996094.058594-95.941406 43.003906-96 96zm176 0c0 44.183594-35.816406 80-80 80s-80-35.816406-80-80 35.816406-80 80-80c44.164062.046875 79.953125 35.835938 80 80zm0 0" fill="url(#e)"/><path d="m216 256c-20.800781 0-32 20.609375-32 40 0 16.3125 35.496094 48.800781 50.761719 62.046875 3.023437 2.621094 7.523437 2.601563 10.527343-.046875 18.933594-16.679688 50.710938-46.921875 50.710938-62 0-19.390625-11.199219-40-32-40-9.253906 1.488281-17.722656 6.09375-24 13.054688-6.277344-6.960938-14.746094-11.566407-24-13.054688zm30.328125 29.015625c11.816406-11.246094 16.144531-13.015625 17.671875-13.015625 10.398438 0 16 12.296875 16 23.894531-.847656 5.875-18.640625 25.914063-40 45.402344-21.601562-19.394531-39.398438-39.449219-40-45.296875 0-11.632812 5.601562-24 16-24 1.527344 0 5.855469 1.769531 17.671875 13.015625l.800781.800781c3.085938 2.925782 7.921875 2.925782 11.007813 0zm0 0" fill="url(#f)"/><g fill="url(#b)"><path d="m72 208h16v16h-16zm0 0"/><path d="m104 208h16v16h-16zm0 0"/></g></svg>