<svg height="480pt" viewBox="-31 0 479 480" width="480pt" xmlns="http://www.w3.org/2000/svg" xmlns:xlink="http://www.w3.org/1999/xlink"><linearGradient id="a"><stop offset="0" stop-color="#ef7ec0"/><stop offset=".293" stop-color="#eb66ad"/><stop offset=".909" stop-color="#e2297c"/><stop offset="1" stop-color="#e11f74"/></linearGradient><linearGradient id="b" gradientUnits="userSpaceOnUse" x1="-39.5" x2="466.084" xlink:href="#a" y1="240" y2="240"/><linearGradient id="c" gradientUnits="userSpaceOnUse" x1="-39.5" x2="466.084" xlink:href="#a" y1="404" y2="404"/><linearGradient id="d" gradientUnits="userSpaceOnUse" x1="-39.5" x2="466.084" xlink:href="#a" y1="328" y2="328"/><path d="m8.5 480h400c4.417969 0 8-3.582031 8-8v-464c0-4.417969-3.582031-8-8-8h-400c-4.417969 0-8 3.582031-8 8v464c0 4.417969 3.582031 8 8 8zm8-320h45.046875c4.242187 15.546875 13.640625 29.191406 26.65625 38.695312l-38.863281 77.730469c-1.238282 2.480469-1.105469 5.425781.351562 7.78125 1.460938 2.359375 4.035156 3.792969 6.808594 3.792969h48c3.03125 0 5.804688-1.710938 7.160156-4.425781l41.601563-83.199219c8.421875-4.082031 16.242187-9.304688 23.238281-15.527344v279.152344h-160zm0-48h41.328125c-.84375 5.292969-1.289063 10.640625-1.328125 16 .039062 5.359375.484375 10.707031 1.328125 16h-41.328125zm162.902344 32h-71.039063c-2.382812-5.007812-3.699219-10.457031-3.863281-16 .171875-5.546875 1.503906-11 3.910156-16h70.992188c6.605468 4.765625 12.765625 10.121094 18.402344 16-5.636719 5.878906-11.796876 11.234375-18.402344 16zm-42.902344-64c-12.875-.488281-25.367188 4.414062-34.476562 13.523438-9.109376 9.109374-14.011719 21.601562-13.523438 34.476562-.488281 12.875 4.414062 25.367188 13.523438 34.476562 9.109374 9.109376 21.601562 14.011719 34.476562 13.523438 12.257812-.191406 24.3125-3.167969 35.246094-8.703125-13.0625 14.792969-31.535156 23.699219-51.246094 24.703125-47.273438 0-48-61.398438-48-64s.726562-64 48-64c19.660156 1.015625 38.082031 9.898438 51.121094 24.648438-10.902344-5.503907-22.910156-8.460938-35.121094-8.648438zm-16 128c3.859375-.011719 7.710938-.324219 11.519531-.9375l-32.464843 64.9375h-30.109376l33.246094-66.496094c5.785156 1.691406 11.78125 2.53125 17.808594 2.496094zm72 256v-295.894531c5.914062-7.242188 11.261719-14.925781 16-22.984375 4.738281 8.058594 10.085938 15.742187 16 22.984375v295.894531zm121.808594-258.496094 33.246094 66.496094h-30.109376l-32.472656-64.9375c3.8125.613281 7.667969.925781 11.527344.9375 6.027344.03125 12.023438-.808594 17.808594-2.496094zm-17.808594-13.503906c-19.660156-1.015625-38.082031-9.898438-51.121094-24.648438 10.902344 5.503907 22.910156 8.460938 35.121094 8.648438 12.875.488281 25.367188-4.414062 34.476562-13.523438 9.109376-9.109374 14.011719-21.601562 13.523438-34.476562.488281-12.875-4.414062-25.367188-13.523438-34.476562-9.109374-9.109376-21.601562-14.011719-34.476562-13.523438-12.257812.191406-24.3125 3.167969-35.246094 8.703125 13.0625-14.792969 31.535156-23.699219 51.246094-24.703125 47.273438 0 48 61.398438 48 64s-.726562 64-48 64zm-58.902344-80h71.039063c2.382812 5.007812 3.699219 10.457031 3.863281 16-.171875 5.550781-1.507812 11-3.921875 16h-70.980469c-6.605468-4.765625-12.765625-10.121094-18.402344-16 5.636719-5.878906 11.796876-11.234375 18.402344-16zm2.902344 352v-279.152344c6.984375 6.203125 14.792969 11.417969 23.199219 15.488282l41.601562 83.238281c1.359375 2.726562 4.152344 4.441406 7.199219 4.425781h48c2.78125.015625 5.367188-1.414062 6.835938-3.773438 1.46875-2.363281 1.605468-5.316406.363281-7.800781l-38.863281-77.730469c13-9.507812 22.386718-23.152343 26.617187-38.695312h45.046875v304zm160-320h-41.328125c.84375-5.292969 1.289063-10.640625 1.328125-16-.039062-5.359375-.484375-10.707031-1.328125-16h41.328125zm0-48h-45.046875c-7.546875-24.054688-24.714844-48-58.953125-48-20.882812.550781-40.824219 8.792969-56 23.152344v-55.152344h160zm-176-80v71.894531c-5.914062 7.242188-11.261719 14.925781-16 22.984375-4.738281-8.058594-10.085938-15.742187-16-22.984375v-71.894531zm-48 0v55.152344c-15.175781-14.359375-35.117188-22.601563-56-23.152344-34.238281 0-51.40625 23.945312-58.953125 48h-45.046875v-80zm0 0" fill="url(#b)"/><path d="m376.5 360c-4.417969 0-8 3.582031-8 8v64h-72c-4.417969 0-8 3.582031-8 8s3.582031 8 8 8h80c4.417969 0 8-3.582031 8-8v-72c0-4.417969-3.582031-8-8-8zm0 0" fill="url(#c)"/><path d="m376.5 312c-4.417969 0-8 3.582031-8 8v16c0 4.417969 3.582031 8 8 8s8-3.582031 8-8v-16c0-4.417969-3.582031-8-8-8zm0 0" fill="url(#d)"/></svg>