<svg height="479.99829pt" viewBox="0 0 479.99829 479.99829" width="479.99829pt" xmlns="http://www.w3.org/2000/svg" xmlns:xlink="http://www.w3.org/1999/xlink"><linearGradient id="a"><stop offset="0" stop-color="#ef7ec0"/><stop offset=".293" stop-color="#eb66ad"/><stop offset=".909" stop-color="#e2297c"/><stop offset="1" stop-color="#e11f74"/></linearGradient><linearGradient id="b" gradientUnits="userSpaceOnUse" x1="-8.001708" x2="480.262292" xlink:href="#a" y1="240" y2="240"/><linearGradient id="c" gradientUnits="userSpaceOnUse" x1="-8.001708" x2="480.262292" xlink:href="#a" y1="192.56" y2="192.56"/><linearGradient id="d" gradientUnits="userSpaceOnUse" x1="-8.001708" x2="480.262292" xlink:href="#a" y1="114.872" y2="114.872"/><linearGradient id="e" gradientUnits="userSpaceOnUse" x1="-8.001708" x2="480.262292" xlink:href="#a" y1="168" y2="168"/><linearGradient id="f" gradientUnits="userSpaceOnUse" x1="-8.001708" x2="480.262292" xlink:href="#a" y1="136" y2="136"/><linearGradient id="g" gradientUnits="userSpaceOnUse" x1="-8.001708" x2="480.262292" xlink:href="#a" y1="200" y2="200"/><path d="m472 0h-128c-3.28125 0-6.230469 2.007812-7.4375 5.058594-1.207031 3.050781-.429688 6.527344 1.964844 8.773437l60 56.289063-14.496094 14.496094c-44.261719-29.367188-102.394531-26.921876-144.03125 6.0625-46.722656-37.167969-113.453125-35.167969-157.867188 4.726562-21.722656 19.515625-34.132812 47.347656-34.132812 76.550781s12.410156 57.03125 34.132812 76.546875l71.625 66.398438-5.070312 5.097656h-68.6875c-2.125 0-4.15625.84375-5.65625 2.34375l-72 72c-2.2890625 2.289062-2.972656 5.730469-1.734375 8.71875s4.152344 4.9375 7.390625 4.9375h64v64c0 3.234375 1.949219 6.152344 4.9375 7.390625s6.429688.550781 8.714844-1.734375l72-72c1.503906-1.5 2.34375-3.535156 2.347656-5.65625v-68.6875l5.496094-5.496094 74.503906 69.09375 157.863281-146.398437c21.726563-19.515625 34.132813-47.34375 34.132813-76.546875s-12.40625-57.035156-34.132813-76.550782c-.34375-.316406-.722656-.582031-1.066406-.894531l13.449219-13.449219 56.28125 52.800782c1.488281 1.378906 3.441406 2.140625 5.472656 2.128906 1.101562.003906 2.191406-.222656 3.199219-.664062 2.914062-1.273438 4.800781-4.152344 4.800781-7.335938v-120c0-4.417969-3.582031-8-8-8zm-388.691406 336h49.378906l-56 56h-49.378906zm60.691406 60.6875-56 56v-49.375l56-56zm272-224.6875c-.128906 24.71875-10.660156 48.238281-29.007812 64.800781l-146.992188 136.289063-63.203125-58.59375 67.203125-67.199219 22.34375 22.34375c3.136719 3.03125 8.128906 2.988281 11.214844-.097656 3.085937-3.085938 3.128906-8.074219.09375-11.214844l-56-56c-3.136719-3.03125-8.125-2.988281-11.210938.097656-3.085937 3.085938-3.132812 8.074219-.097656 11.214844l22.34375 22.359375-67.609375 67.609375-72.070313-66.808594c-18.445312-16.492187-28.988281-40.058593-28.988281-64.800781s10.542969-48.308594 28.988281-64.800781c40.242188-36.191407 101.308594-36.191407 141.550782 0l5.441406 5.039062 5.4375-5.039062c40.242188-36.191407 101.308594-36.191407 141.554688 0 18.351562 16.558593 28.878906 40.082031 29.007812 64.800781zm48-62.398438-99.777344-93.601562h99.777344zm0 0" fill="url(#b)"/><path d="m369.847656 141.121094c7.042969 8.03125 10.359375 18.667968 9.125 29.277344-3.542968 35.328124-47.527344 70.984374-48 71.34375l10 12.488281c2.027344-1.597657 49.648438-40.167969 53.898438-82.191407 1.675781-14.902343-2.941406-29.824218-12.746094-41.175781zm0 0" fill="url(#c)"/><path d="m365.652344 114.34375c-8.199219-7.109375-18.808594-10.808594-29.652344-10.34375v16c6.621094-.34375 13.148438 1.691406 18.398438 5.742188zm0 0" fill="url(#d)"/><path d="m88 160h16v16h-16zm0 0" fill="url(#e)"/><path d="m112 128h16v16h-16zm0 0" fill="url(#f)"/><path d="m128 192h16v16h-16zm0 0" fill="url(#g)"/></svg>