<svg height="480pt" viewBox="0 0 480 479" width="480pt" xmlns="http://www.w3.org/2000/svg" xmlns:xlink="http://www.w3.org/1999/xlink"><linearGradient id="a"><stop offset="0" stop-color="#ef7ec0"/><stop offset=".293" stop-color="#eb66ad"/><stop offset=".909" stop-color="#e2297c"/><stop offset="1" stop-color="#e11f74"/></linearGradient><linearGradient id="b" gradientUnits="userSpaceOnUse" x1="0" x2="480.064" xlink:href="#a" y1="248.609634" y2="248.609634"/><linearGradient id="c" gradientUnits="userSpaceOnUse" x1="0" x2="480.064" xlink:href="#a" y1="116.497634" y2="116.497634"/><linearGradient id="d" gradientUnits="userSpaceOnUse" x1="0" x2="480.064" xlink:href="#a" y1="184.497634" y2="184.497634"/><linearGradient id="e" gradientUnits="userSpaceOnUse" x1="0" x2="480.064" xlink:href="#a" y1="416.497634" y2="416.497634"/><linearGradient id="f" gradientUnits="userSpaceOnUse" x1="0" x2="480" xlink:href="#a" y1="288.497634" y2="288.497634"/><linearGradient id="g" gradientUnits="userSpaceOnUse" x1="0" x2="480" xlink:href="#a" y1="192.497634" y2="192.497634"/><linearGradient id="h" gradientUnits="userSpaceOnUse" x1="0" x2="480.064" xlink:href="#a" y1="240.497634" y2="240.497634"/><path d="m240 272.496094c9.707031.003906 18.457031-5.84375 22.175781-14.8125 3.714844-8.964844 1.664063-19.289063-5.199219-26.152344-9.5-9.058594-24.4375-9.058594-33.9375 0-6.859374 6.859375-8.914062 17.179688-5.199218 26.144531 3.710937 8.96875 12.457031 14.816407 22.160156 14.820313zm-5.65625-29.65625c3.125-3.121094 8.1875-3.121094 11.3125 0 3.121094 3.125 3.121094 8.191406 0 11.3125-3.164062 3.027344-8.148438 3.027344-11.3125 0-3.121094-3.121094-3.121094-8.1875 0-11.3125zm0 0" fill="url(#b)"/><path d="m336 160.496094c2.121094 0 4.15625-.84375 5.65625-2.34375l72-72c3.03125-3.136719 2.988281-8.128906-.097656-11.214844-3.085938-3.085938-8.074219-3.128906-11.214844-.097656l-72 72c-2.285156 2.289062-2.972656 5.730468-1.734375 8.71875 1.238281 2.988281 4.15625 4.9375 7.390625 4.9375zm0 0" fill="url(#c)"/><path d="m296 200.496094c2.121094 0 4.15625-.84375 5.65625-2.34375l16-16c3.03125-3.136719 2.988281-8.128906-.097656-11.214844-3.085938-3.085938-8.074219-3.128906-11.214844-.097656l-16 16c-2.285156 2.289062-2.972656 5.730468-1.734375 8.71875 1.238281 2.988281 4.15625 4.9375 7.390625 4.9375zm0 0" fill="url(#d)"/><path d="m88 384.496094c-17.671875 0-32 14.328125-32 32 0 17.675781 14.328125 32 32 32s32-14.324219 32-32c0-17.671875-14.328125-32-32-32zm0 48c-8.835938 0-16-7.160156-16-16 0-8.835938 7.164062-16 16-16s16 7.164062 16 16c0 8.839844-7.164062 16-16 16zm0 0" fill="url(#e)"/><path d="m392.296875 448.496094c17.671875 0 32-14.324219 32-32 0-17.671875-14.328125-32-32-32-17.675781 0-32 14.328125-32 32 0 17.675781 14.324219 32 32 32zm0-48c8.835937 0 16 7.164062 16 16 0 8.839844-7.164063 16-16 16s-16-7.160156-16-16c0-8.835938 7.164063-16 16-16zm0 0" fill="url(#e)"/><path d="m472 280.496094c-17.671875 0-32-14.324219-32-32 0-4.417969-3.582031-8-8-8s-8 3.582031-8 8c0 17.675781-14.328125 32-32 32-4.417969 0-8 3.582031-8 8 0 4.417968 3.582031 8 8 8 17.671875 0 32 14.328125 32 32 0 4.417968 3.582031 8 8 8s8-3.582032 8-8c0-17.671875 14.328125-32 32-32 4.417969 0 8-3.582032 8-8 0-4.417969-3.582031-8-8-8zm-40 21.523437c-3.5625-5.363281-8.160156-9.960937-13.519531-13.523437 5.359375-3.558594 9.957031-8.15625 13.519531-13.519532 3.5625 5.363282 8.160156 9.960938 13.519531 13.519532-5.359375 3.5625-9.957031 8.160156-13.519531 13.523437zm0 0" fill="url(#f)"/><path d="m8 200.496094c17.671875 0 32 14.328125 32 32 0 4.417968 3.582031 8 8 8s8-3.582032 8-8c0-17.671875 14.328125-32 32-32 4.417969 0 8-3.582032 8-8 0-4.417969-3.582031-8-8-8-17.671875 0-32-14.324219-32-32 0-4.417969-3.582031-8-8-8s-8 3.582031-8 8c0 17.675781-14.328125 32-32 32-4.417969 0-8 3.582031-8 8 0 4.417968 3.582031 8 8 8zm40-21.519532c3.5625 5.363282 8.160156 9.960938 13.519531 13.519532-5.359375 3.5625-9.957031 8.160156-13.519531 13.523437-3.5625-5.363281-8.160156-9.960937-13.519531-13.523437 5.359375-3.558594 9.957031-8.15625 13.519531-13.519532zm0 0" fill="url(#g)"/><path d="m193.601562 275.601562-81.601562 81.585938c-7.617188-3.113281-15.769531-4.703125-24-4.691406-35.347656 0-64 28.65625-64 64 0 35.347656 28.652344 64 64 64s64-28.652344 64-64c-.007812-3.824219-.367188-7.644532-1.070312-11.40625l89.222656-87.199219 89.214844 87.199219c-.703126 3.761718-1.0625 7.582031-1.070313 11.40625 0 35.347656 28.652344 64 64 64 35.34375 0 64-28.652344 64-64 0-35.34375-28.65625-64-64-64-8.230469-.015625-16.382813 1.578125-24 4.691406l-81.503906-81.488281 151.453125-174.203125c35.25-44.0625.761718-96.910156.410156-97.4375-1.300781-1.949219-3.390625-3.230469-5.71875-3.503906-2.335938-.269532-4.671875.488281-6.402344 2.078124l-186.3125 173.066407-186.335937-173.066407c-1.726563-1.589843-4.0625-2.347656-6.398438-2.078124-2.328125.273437-4.417969 1.554687-5.71875 3.503906-.355469.527344-34.832031 53.375.621094 97.6875zm-57.035156 121.160157c-2.046875 2.003906-2.867187 4.945312-2.152344 7.71875 5.140626 19.878906-2.929687 40.820312-20.078124 52.109375-17.148438 11.289062-39.574219 10.421875-55.800782-2.15625-16.226562-12.578125-22.65625-34.085938-15.996094-53.503906 6.660157-19.421876 24.929688-32.457032 45.460938-32.433594 7.671875-.007813 15.230469 1.839844 22.03125 5.394531 3.097656 1.601563 6.871094 1.015625 9.335938-1.449219l84.710937-84.703125c4.738281 4.464844 10.210937 8.078125 16.179687 10.679688l8.445313 8.261719zm233.707032-22.871094c6.796874-3.554687 14.351562-5.402344 22.023437-5.394531 20.691406-.125 39.167969 12.945312 45.933594 32.503906s.316406 41.25-16.035157 53.9375c-16.351562 12.683594-38.964843 13.542969-56.230468 2.128906-17.261719-11.410156-25.335938-32.554687-20.070313-52.570312.71875-2.769532-.101562-5.714844-2.152343-7.71875l-97.015626-94.847656c11.015626-1.691407 21.25-6.714844 29.320313-14.398438l84.882813 84.878906c2.457031 2.480469 6.238281 3.078125 9.34375 1.480469zm59.628906-352.527344c6.738281 14.328125 16.480468 44.351563-3.933594 69.886719l-159.625 183.589844c-14.492188 14.609375-38.082031 14.703125-52.6875.210937-14.605469-14.492187-14.699219-38.082031-.207031-52.6875zm-379.40625-.066406 177.96875 165.289063-26.121094 24.253906c-8.8125 8.542968-14.457031 19.828125-16 32l-131.65625-151.34375c-20.777344-25.964844-11-55.886719-4.191406-70.199219zm0 0" fill="url(#h)"/></svg>