<svg height="480pt" viewBox="0 0 480 480" width="480pt" xmlns="http://www.w3.org/2000/svg" xmlns:xlink="http://www.w3.org/1999/xlink"><linearGradient id="a"><stop offset="0" stop-color="#00a2cc"/><stop offset="1" stop-color="#2b32b2"/></linearGradient><linearGradient id="b" gradientUnits="userSpaceOnUse" x1="16" x2="481.104" xlink:href="#a" y1="240" y2="240"/><linearGradient id="c" gradientUnits="userSpaceOnUse" x1="16" x2="481.104" xlink:href="#a" y1="344" y2="344"/><linearGradient id="d" gradientUnits="userSpaceOnUse" x1="16" x2="481.104" xlink:href="#a" y1="376" y2="376"/><path d="m472 288h-24.488281l-15.511719-248.246094v-31.753906c0-4.417969-3.582031-8-8-8h-80c-4.417969 0-8 3.582031-8 8v31.753906l-15.511719 248.246094h-16.488281v-168c0-3.3125-2.042969-6.28125-5.132812-7.464844-3.09375-1.1875-6.59375-.347656-8.8125 2.113282l-58.054688 64.503906v-59.152344c0-3.3125-2.042969-6.28125-5.132812-7.464844-3.09375-1.1875-6.59375-.347656-8.8125 2.113282l-58.054688 64.503906v-59.152344c0-3.3125-2.042969-6.28125-5.132812-7.464844-3.09375-1.1875-6.59375-.347656-8.8125 2.113282l-58.054688 64.503906v-59.152344c0-3.3125-2.042969-6.28125-5.132812-7.464844-3.09375-1.1875-6.59375-.347656-8.8125 2.113282l-72 80c-.554688.628906-1.011719 1.339843-1.34375 2.113281-.078126.175781-.101563.367187-.167969.550781-.253907.878906-.433594 1.777344-.542969 2.6875v272c0 4.417969 3.582031 8 8 8h464c4.417969 0 8-3.582031 8-8v-176c0-4.417969-3.582031-8-8-8zm-120-272h64v16h-64zm-5.488281 112h53.488281c4.417969 0 8-3.582031 8-8s-3.582031-8-8-8h-52.488281l1-16h19.488281c4.417969 0 8-3.582031 8-8s-3.582031-8-8-8h-18.488281l2-32h64.976562l10 160h-50.488281c-4.417969 0-8 3.582031-8 8s3.582031 8 8 8h51.488281l1 16h-20.488281c-4.417969 0-8 3.582031-8 8s3.582031 8 8 8h21.488281l2 32h-94.976562zm117.488281 176v24h-64c-4.417969 0-8 3.582031-8 8s3.582031 8 8 8h64v16h-128c-4.417969 0-8 3.582031-8 8s3.582031 8 8 8h128v24h-96c-4.417969 0-8 3.582031-8 8s3.582031 8 8 8h96v16h-160v-16h32c4.417969 0 8-3.582031 8-8s-3.582031-8-8-8h-32v-56h64c4.417969 0 8-3.582031 8-8s-3.582031-8-8-8h-64v-24zm-192 128v-120c0-4.417969-3.582031-8-8-8h-120c-4.417969 0-8 3.582031-8 8v120h-120v-160h272v160zm-16 0h-104v-112h104zm32-224v48h-272v-48zm0-67.160156v51.160156h-46.039062zm-72 0v51.160156h-46.039062zm-72 0v51.160156h-46.039062zm-72 0v51.160156h-46.039062zm392 323.160156h-448v-16h448zm0 0" fill="url(#b)"/><path d="m112 304h-72c-4.417969 0-8 3.582031-8 8v64c0 4.417969 3.582031 8 8 8h72c4.417969 0 8-3.582031 8-8v-64c0-4.417969-3.582031-8-8-8zm-8 64h-56v-48h56zm0 0" fill="url(#c)"/><path d="m176 384h8c4.417969 0 8-3.582031 8-8s-3.582031-8-8-8h-8c-4.417969 0-8 3.582031-8 8s3.582031 8 8 8zm0 0" fill="url(#d)"/></svg>