<svg height="480pt" viewBox="0 -36 480 480" width="480pt" xmlns="http://www.w3.org/2000/svg" xmlns:xlink="http://www.w3.org/1999/xlink"><linearGradient id="a"><stop offset="0" stop-color="#47c0bb"/><stop offset="1" stop-color="#0063ae"/></linearGradient><linearGradient id="b" gradientUnits="userSpaceOnUse" x1="-24" x2="489.064" xlink:href="#a" y1="256" y2="256"/><linearGradient id="c" gradientUnits="userSpaceOnUse" x1="-24" x2="489.064" xlink:href="#a" y1="240" y2="240"/><linearGradient id="d" gradientUnits="userSpaceOnUse" x1="-24" x2="489.064" xlink:href="#a" y1="204" y2="204"/><path d="m112 304c26.507812 0 48-21.492188 48-48s-21.492188-48-48-48-48 21.492188-48 48c.027344 26.5 21.5 47.972656 48 48zm0-80c17.671875 0 32 14.328125 32 32s-14.328125 32-32 32-32-14.328125-32-32 14.328125-32 32-32zm0 0" fill="url(#b)"/><path d="m368 304c26.507812 0 48-21.492188 48-48s-21.492188-48-48-48-48 21.492188-48 48c.027344 26.5 21.5 47.972656 48 48zm0-80c17.671875 0 32 14.328125 32 32s-14.328125 32-32 32-32-14.328125-32-32 14.328125-32 32-32zm0 0" fill="url(#b)"/><path d="m184 264h112c4.417969 0 8-3.582031 8-8v-32c0-4.417969-3.582031-8-8-8h-112c-4.417969 0-8 3.582031-8 8v32c0 4.417969 3.582031 8 8 8zm8-32h96v16h-96zm0 0" fill="url(#c)"/><path d="m464 112h-50.457031l-22.046875-58.816406c-1.175782-3.121094-4.160156-5.1875-7.496094-5.183594h-56v-40c0-4.417969-3.582031-8-8-8h-160c-4.417969 0-8 3.582031-8 8v40h-56c-3.335938-.003906-6.320312 2.0625-7.496094 5.183594l-22.046875 58.816406h-50.457031c-8.835938 0-16 7.164062-16 16v16c0 8.835938 7.164062 16 16 16h32.457031l-6 16h-18.457031c-2.675781 0-5.171875 1.335938-6.65625 3.558594l-16 24c-1.078125 1.617187-1.527344 3.570312-1.2734375 5.496094l15.9999995 120c.53125 3.976562 3.921876 6.945312 7.929688 6.945312h32v48c.027344 2.730469.523438 5.4375 1.472656 8h-49.472656c-4.417969 0-8 3.582031-8 8s3.582031 8 8 8h464c4.417969 0 8-3.582031 8-8s-3.582031-8-8-8h-49.472656c.949218-2.5625 1.445312-5.269531 1.472656-8v-48h32c4.007812 0 7.398438-2.96875 7.929688-6.945312l16-120c.253906-1.925782-.195313-3.878907-1.273438-5.496094l-16-24c-1.484375-2.222656-3.980469-3.558594-6.65625-3.558594h-18.457031l-6-16h32.457031c8.835938 0 16-7.164062 16-16v-16c0-8.835938-7.164062-16-16-16zm-296-96h144v32h-144zm-66.457031 48h276.914062l42 112h-47.511719l-8-16h11.054688c4.417969 0 8-3.582031 8-8s-3.582031-8-8-8h-112c-4.417969 0-8 3.582031-8 8s3.582031 8 8 8h83.054688l8 16h-134.109376l-8-16h11.054688c4.417969 0 8-3.582031 8-8s-3.582031-8-8-8h-112c-4.417969 0-8 3.582031-8 8s3.582031 8 8 8h83.054688l8 16h-143.511719zm-85.542969 80v-16h44.457031l-6 16zm104 240c0 4.417969-3.582031 8-8 8h-32c-4.417969 0-8-3.582031-8-8v-48h48zm14.527344 8c.949218-2.5625 1.445312-5.269531 1.472656-8v-48h24v16c0 4.417969 3.582031 8 8 8h144c4.417969 0 8-3.582031 8-8v-16h24v48c.027344 2.730469.523438 5.4375 1.472656 8zm41.472656-48v-32h128v32zm232 40c0 4.417969-3.582031 8-8 8h-32c-4.417969 0-8-3.582031-8-8v-48h48zm43.71875-192 10.679688 16h-30.398438c-4.417969 0-8 3.582031-8 8s3.582031 8 8 8h29.792969l-2.128907 16h-19.664062c-4.417969 0-8 3.582031-8 8s3.582031 8 8 8h17.527344l-8.527344 64h-129v-16c0-4.417969-3.582031-8-8-8h-144c-4.417969 0-8 3.582031-8 8v16h-129l-8.527344-64h17.527344c4.417969 0 8-3.582031 8-8s-3.582031-8-8-8h-19.664062l-2.128907-16h29.792969c4.417969 0 8-3.582031 8-8s-3.582031-8-8-8h-30.398438l10.664063-16zm12.28125-48h-38.457031l-6-16h44.457031zm0 0" fill="url(#d)"/></svg>