<svg height="406pt" viewBox="0 -74 406.229 406" width="406pt" xmlns="http://www.w3.org/2000/svg" xmlns:xlink="http://www.w3.org/1999/xlink"><linearGradient id="a"><stop offset="0" stop-color="#4761ac"/><stop offset="1" stop-color="#54c2ef"/></linearGradient><linearGradient id="b" gradientTransform="matrix(.999436 0 0 -.999436 0 323.87388)" gradientUnits="userSpaceOnUse" x1="-13.5892" x2="418.2084" xlink:href="#a" y1="195.3443" y2="195.3443"/><linearGradient id="c" gradientTransform="matrix(.999436 0 0 -.999436 0 323.87388)" gradientUnits="userSpaceOnUse" x1="-13.5895" x2="418.2065" xlink:href="#a" y1="127.6393" y2="127.6393"/><linearGradient id="d" gradientTransform="matrix(.999436 0 0 -.999436 0 323.87388)" gradientUnits="userSpaceOnUse" x1="-13.5893" x2="418.2067" xlink:href="#a" y1="249.5082" y2="249.5082"/><linearGradient id="e" gradientTransform="matrix(.999436 0 0 -.999436 0 323.87388)" gradientUnits="userSpaceOnUse" x1="-13.5893" x2="418.2063" xlink:href="#a" y1="127.6393" y2="127.6393"/><linearGradient id="f" gradientTransform="matrix(.999436 0 0 -.999436 0 323.87388)" gradientUnits="userSpaceOnUse" x1="-13.5893" x2="418.2083" xlink:href="#a" y1="249.5082" y2="249.5082"/><linearGradient id="g" gradientTransform="matrix(.999436 0 0 -.999436 0 323.87388)" gradientUnits="userSpaceOnUse" x1="-13.5892" x2="418.2057" xlink:href="#a" y1="269.8197" y2="269.8197"/><linearGradient id="h" gradientTransform="matrix(.999436 0 0 -.999436 0 323.87388)" gradientUnits="userSpaceOnUse" x1="-13.5895" x2="418.2065" xlink:href="#a" y1="269.8197" y2="269.8197"/><linearGradient id="i" gradientTransform="matrix(.999436 0 0 -.999436 0 323.87388)" gradientUnits="userSpaceOnUse" x1="-13.5892" x2="418.2057" xlink:href="#a" y1="242.7377" y2="242.7377"/><linearGradient id="j" gradientTransform="matrix(.999436 0 0 -.999436 0 323.87388)" gradientUnits="userSpaceOnUse" x1="-13.5895" x2="418.2065" xlink:href="#a" y1="242.7377" y2="242.7377"/><path d="m372.167969.0742188h-338.335938c-18.675781.0195312-33.8085935 15.1562502-33.832031 33.8320312v189.46875c.0234375 18.675781 15.15625 33.808594 33.832031 33.832031h338.335938c18.675781-.023437 33.808593-15.15625 33.832031-33.832031v-189.46875c-.023438-18.675781-15.15625-33.8125-33.832031-33.8320312zm20.300781 223.3007812c-.011719 11.207031-9.09375 20.285156-20.300781 20.296875h-338.335938c-11.207031-.011719-20.285156-9.09375-20.296875-20.296875v-189.46875c.011719-11.207031 9.09375-20.289062 20.296875-20.300781h338.335938c11.207031.011719 20.285156 9.09375 20.296875 20.300781v189.46875zm0 0" fill="url(#b)"/><path d="m345.101562 162.472656c-10.691406.027344-20.734374 5.128906-27.066406 13.742188-11.097656-15.035156-32.28125-18.226563-47.316406-7.132813-15.03125 11.097657-18.226562 32.28125-7.128906 47.316407 11.09375 15.03125 32.277344 18.226562 47.3125 7.128906 2.71875-2.007813 5.125-4.410156 7.132812-7.128906 11.125 14.976562 32.285156 18.097656 47.261719 6.972656s18.101563-32.285156 6.976563-47.261719c-6.386719-8.59375-16.464844-13.652344-27.171876-13.636719zm-54.132812 54.132813c-11.214844 0-20.300781-9.089844-20.300781-20.296875 0-11.210938 9.089843-20.300782 20.300781-20.300782s20.296875 9.089844 20.296875 20.300782c-.011719 11.203125-9.09375 20.285156-20.296875 20.296875zm54.132812 0c-11.210937 0-20.300781-9.089844-20.300781-20.296875 0-11.210938 9.089844-20.300782 20.300781-20.300782 11.210938 0 20.296876 9.089844 20.296876 20.300782-.011719 11.203125-9.089844 20.285156-20.296876 20.296875zm0 0" fill="url(#c)"/><path d="m47.367188 108.339844h67.664062c3.738281 0 6.769531-3.027344 6.769531-6.765625v-54.136719c0-3.734375-3.027343-6.765625-6.765625-6.765625h-.003906-67.664062c-3.738282 0-6.765626 3.027344-6.765626 6.765625v.003906 54.132813c-.003906 3.734375 3.027344 6.765625 6.761719 6.765625zm6.765624-54.132813h54.132813v40.597657h-54.132813zm0 0" fill="url(#d)"/><path d="m230.066406 176.007812h-189.464844c-3.738281-.003906-6.769531 3.027344-6.769531 6.761719v.003907 27.066406c0 3.734375 3.027344 6.765625 6.765625 6.765625h.003906 189.464844c3.738282 0 6.769532-3.027344 6.769532-6.761719 0-.003906 0-.003906 0-.003906v-27.066406c0-3.738282-3.027344-6.765626-6.765626-6.765626zm-6.765625 27.066407h-175.933593v-13.535157h175.933593zm0 0" fill="url(#e)"/><path d="m338.335938 94.804688c-3.738282 0-6.769532 3.03125-6.769532 6.769531 0 3.734375 3.03125 6.765625 6.769532 6.765625h6.765624v6.765625c0 3.734375 3.027344 6.765625 6.765626 6.765625 3.738281 0 6.765624-3.03125 6.765624-6.765625v-6.765625h6.769532c3.734375 0 6.765625-3.027344 6.765625-6.765625 0 0 0 0 0-.003907v-27.066406c0-3.734375-3.027344-6.765625-6.765625-6.765625 0 0 0 0-.003906 0h-20.296876v-13.535156h20.296876c3.738281 0 6.769531-3.027344 6.769531-6.765625 0-3.734375-3.03125-6.765625-6.769531-6.765625h-6.765626v-6.765625c0-3.738281-3.03125-6.765625-6.765624-6.765625-3.738282 0-6.769532 3.027344-6.769532 6.765625v6.765625h-6.765625c-3.734375 0-6.765625 3.027344-6.765625 6.765625v.003906 27.066406c0 3.734376 3.027344 6.765626 6.765625 6.765626h20.300781v13.53125zm0 0" fill="url(#f)"/><path d="m230.066406 47.441406h27.066406v13.53125h-27.066406zm0 0" fill="url(#g)"/><path d="m135.332031 47.441406h81.203125v13.53125h-81.203125zm0 0" fill="url(#h)"/><path d="m135.332031 74.507812h27.070313v13.53125h-27.070313zm0 0" fill="url(#i)"/><path d="m175.933594 74.507812h81.199218v13.53125h-81.199218zm0 0" fill="url(#j)"/></svg>