<svg xmlns="http://www.w3.org/2000/svg" xmlns:xlink="http://www.w3.org/1999/xlink" width="357.89" height="283.99" viewBox="0 0 357.89 283.99"><defs><style>.cls-1{mask:url(#mask);filter:url(#luminosity-noclip-4);}.cls-2,.cls-25,.cls-4,.cls-6{mix-blend-mode:multiply;}.cls-2{fill:url(#linear-gradient);}.cls-3{mask:url(#mask-2);filter:url(#luminosity-noclip-5);}.cls-4{fill:url(#linear-gradient-2);}.cls-5{mask:url(#mask-3);filter:url(#luminosity-noclip-6);}.cls-6{fill:url(#linear-gradient-3);}.cls-7{isolation:isolate;}.cls-8{mask:url(#mask-4);}.cls-9{fill:url(#linear-gradient-4);}.cls-10{fill:url(#Безымянный_градиент_54);}.cls-11{opacity:0.52;}.cls-12{fill:#c3c3db;}.cls-13{fill:#fff;}.cls-14{fill:#ffba25;}.cls-15{fill:#3c2768;}.cls-16{mask:url(#mask-5);}.cls-17{fill:url(#linear-gradient-5);}.cls-18{fill:#dedeee;}.cls-19{fill:#c88b12;}.cls-20{fill:#ededf9;}.cls-21{fill:#d2d2e1;}.cls-22{fill:#b7b7d0;}.cls-23{fill:url(#Безымянный_градиент_21);}.cls-24{fill:url(#Безымянный_градиент_21-2);}.cls-25{fill:#c8cacb;}.cls-26{fill:#d7d7ec;}.cls-27{fill:#2d3a5c;}.cls-28{fill:url(#Безымянный_градиент_21-3);}.cls-29{fill:url(#Безымянный_градиент_21-4);}.cls-30{fill:url(#Безымянный_градиент_21-5);}.cls-31{fill:url(#Безымянный_градиент_21-6);}.cls-32{mask:url(#mask-6);}.cls-33{fill:url(#linear-gradient-6);}.cls-34{fill:url(#Безымянный_градиент_21-7);}.cls-35{fill:url(#Безымянный_градиент_21-8);}.cls-36{fill:url(#Безымянный_градиент_21-9);}.cls-37{fill:url(#Безымянный_градиент_21-10);}.cls-38{fill:url(#Безымянный_градиент_21-11);}.cls-39{fill:url(#Безымянный_градиент_21-12);}.cls-40{fill:url(#Безымянный_градиент_21-13);}.cls-41{fill:url(#Безымянный_градиент_21-14);}.cls-42{filter:url(#luminosity-noclip-3);}.cls-43{filter:url(#luminosity-noclip-2);}.cls-44{filter:url(#luminosity-noclip);}</style><filter id="luminosity-noclip" x="133.64" y="-6297.49" width="224.25" height="32766" filterUnits="userSpaceOnUse" color-interpolation-filters="sRGB"><feFlood flood-color="#fff" result="bg"/><feBlend in="SourceGraphic" in2="bg"/></filter><mask id="mask" x="133.64" y="-6297.49" width="224.25" height="32766" maskUnits="userSpaceOnUse"><g class="cls-44"/></mask><linearGradient id="linear-gradient" x1="237.73" y1="233.16" x2="327.09" y2="151.7" gradientUnits="userSpaceOnUse"><stop offset="0.01" stop-color="#fff"/><stop offset="1"/></linearGradient><filter id="luminosity-noclip-2" x="0" y="-6297.49" width="227.66" height="32766" filterUnits="userSpaceOnUse" color-interpolation-filters="sRGB"><feFlood flood-color="#fff" result="bg"/><feBlend in="SourceGraphic" in2="bg"/></filter><mask id="mask-2" x="0" y="-6297.49" width="227.66" height="32766" maskUnits="userSpaceOnUse"><g class="cls-43"/></mask><linearGradient id="linear-gradient-2" x1="100.33" y1="270.52" x2="127.71" y2="226.82" xlink:href="#linear-gradient"/><filter id="luminosity-noclip-3" x="170.16" y="-6297.49" width="109.2" height="32766" filterUnits="userSpaceOnUse" color-interpolation-filters="sRGB"><feFlood flood-color="#fff" result="bg"/><feBlend in="SourceGraphic" in2="bg"/></filter><mask id="mask-3" x="170.16" y="-6297.49" width="109.2" height="32766" maskUnits="userSpaceOnUse"><g class="cls-42"/></mask><linearGradient id="linear-gradient-3" x1="220.21" y1="238.43" x2="259.37" y2="203.74" xlink:href="#linear-gradient"/><filter id="luminosity-noclip-4" x="133.64" y="170.12" width="224.25" height="111.43" filterUnits="userSpaceOnUse" color-interpolation-filters="sRGB"><feFlood flood-color="#fff" result="bg"/><feBlend in="SourceGraphic" in2="bg"/></filter><mask id="mask-4" x="133.64" y="170.12" width="224.25" height="111.43" maskUnits="userSpaceOnUse"><g class="cls-1"><polygon class="cls-2" points="357.89 170.12 133.64 170.12 325.99 281.55 357.89 281.55 357.89 170.12"/></g></mask><linearGradient id="linear-gradient-4" x1="237.73" y1="233.16" x2="327.09" y2="151.7" gradientUnits="userSpaceOnUse"><stop offset="0.01" stop-color="#cad1d8"/><stop offset="1" stop-color="#ededf9"/></linearGradient><linearGradient id="Безымянный_градиент_54" x1="205.14" y1="278.5" x2="250.25" y2="28.3" gradientUnits="userSpaceOnUse"><stop offset="0" stop-color="#3a3a3a"/><stop offset="0.66" stop-color="#323a50"/><stop offset="1" stop-color="#2d3a5d"/></linearGradient><filter id="luminosity-noclip-5" x="0" y="191.14" width="227.66" height="92.85" filterUnits="userSpaceOnUse" color-interpolation-filters="sRGB"><feFlood flood-color="#fff" result="bg"/><feBlend in="SourceGraphic" in2="bg"/></filter><mask id="mask-5" x="0" y="191.14" width="227.66" height="92.85" maskUnits="userSpaceOnUse"><g class="cls-3"><polygon class="cls-4" points="227.66 283.99 121.61 283.99 0 213.96 39.51 191.14 66.67 191.14 227.66 283.99"/></g></mask><linearGradient id="linear-gradient-5" x1="100.33" y1="270.52" x2="127.71" y2="226.82" xlink:href="#linear-gradient-4"/><linearGradient id="Безымянный_градиент_21" x1="61.37" y1="246.8" x2="60.02" y2="249.15" gradientUnits="userSpaceOnUse"><stop offset="0" stop-color="#2d3b5e"/><stop offset="0.08" stop-color="#2c3655"/><stop offset="0.26" stop-color="#2a3048"/><stop offset="0.49" stop-color="#292c41"/><stop offset="1" stop-color="#292b3f"/></linearGradient><linearGradient id="Безымянный_градиент_21-2" x1="140.74" y1="270.1" x2="142.16" y2="272.58" xlink:href="#Безымянный_градиент_21"/><linearGradient id="Безымянный_градиент_21-3" x1="128.55" y1="108.83" x2="129.88" y2="106.55" xlink:href="#Безымянный_градиент_21"/><linearGradient id="Безымянный_градиент_21-4" x1="162.5" y1="152.83" x2="165.32" y2="152.83" xlink:href="#Безымянный_градиент_21"/><linearGradient id="Безымянный_градиент_21-5" x1="278.27" y1="163.29" x2="279.27" y2="161.58" xlink:href="#Безымянный_градиент_21"/><linearGradient id="Безымянный_градиент_21-6" x1="298.66" y1="190.55" x2="300.85" y2="190.55" xlink:href="#Безымянный_градиент_21"/><filter id="luminosity-noclip-6" x="170.16" y="214.24" width="109.2" height="40.33" filterUnits="userSpaceOnUse" color-interpolation-filters="sRGB"><feFlood flood-color="#fff" result="bg"/><feBlend in="SourceGraphic" in2="bg"/></filter><mask id="mask-6" x="170.16" y="214.24" width="109.2" height="40.33" maskUnits="userSpaceOnUse"><g class="cls-5"><polygon class="cls-6" points="209.5 214.24 170.16 214.24 240.02 254.57 279.36 254.57 209.5 214.24"/></g></mask><linearGradient id="linear-gradient-6" x1="220.21" y1="238.43" x2="259.37" y2="203.74" xlink:href="#linear-gradient-4"/><linearGradient id="Безымянный_градиент_21-7" x1="206.09" y1="185.21" x2="207.42" y2="182.94" xlink:href="#Безымянный_градиент_21"/><linearGradient id="Безымянный_градиент_21-8" x1="240.03" y1="229.21" x2="242.85" y2="229.21" xlink:href="#Безымянный_градиент_21"/><linearGradient id="Безымянный_градиент_21-9" x1="103.44" y1="21.75" x2="104.77" y2="19.48" xlink:href="#Безымянный_градиент_21"/><linearGradient id="Безымянный_градиент_21-10" x1="137.39" y1="65.75" x2="140.21" y2="65.75" xlink:href="#Безымянный_градиент_21"/><linearGradient id="Безымянный_градиент_21-11" x1="306.71" y1="111.51" x2="308.04" y2="109.24" xlink:href="#Безымянный_градиент_21"/><linearGradient id="Безымянный_градиент_21-12" x1="340.66" y1="155.51" x2="343.48" y2="155.51" xlink:href="#Безымянный_градиент_21"/><linearGradient id="Безымянный_градиент_21-13" x1="218.2" y1="35" x2="219.52" y2="32.73" xlink:href="#Безымянный_градиент_21"/><linearGradient id="Безымянный_градиент_21-14" x1="252.14" y1="79" x2="254.96" y2="79" xlink:href="#Безымянный_градиент_21"/></defs><title>1Asset 11day1</title><g class="cls-7"><g id="Layer_2" data-name="Layer 2"><g id="Шаги"><g id="seo_map" data-name="seo map"><g class="cls-8"><polygon class="cls-9" points="357.89 170.12 133.64 170.12 325.99 281.55 357.89 281.55 357.89 170.12"/></g><polygon class="cls-10" points="133.64 1.77 133.64 19.66 133.64 170.5 325.99 281.55 325.99 130.71 325.99 112.82 133.64 1.77"/><g class="cls-11"><path class="cls-12" d="M143.69,74.67a2.43,2.43,0,0,1,1.23,1.2c-.45.15-.84-.32-1.23-.78Z"/><path class="cls-12" d="M278.41,141.87c.13.14.37.31.39.42a2.22,2.22,0,0,0,1.73,1.87,1.37,1.37,0,0,1,.7.44,4.91,4.91,0,0,0,3.42,2.09,2.31,2.31,0,0,1,1.24.71c.29.31,1,.84.16.86-.11,0-.22.05-.13.25a9.76,9.76,0,0,0,1.58,2.54c.42.51.6,0,.84.09a5,5,0,0,1,2.11,1.08c.68.58,1.4,1.1,1.57.05.05-.32.27-.26.53-.11l1.52,1c.11.07.32.25.32.3.09,1.47.71.76,1.06.88a1.6,1.6,0,0,1,1.13,1,4.27,4.27,0,0,0,1.78,2c.6.3,1.2.59,1.79.92a2,2,0,0,1,1.13,1.4,2.2,2.2,0,0,0,1.15,1.27,12.63,12.63,0,0,1,3.42,2.55c.39.45.53.21.53-.22s-.05-.71.38-.36a30.75,30.75,0,0,1,4.87,4.07,6.31,6.31,0,0,1,1.72,2.82c.06.32.23.56.43.37.61-.54,1.12.57,1.63,1.11.35.38.14.54-.11.51a.77.77,0,0,0-.93.5c-.15.43-.34-.1-.53-.28-.69-.68-1.14-1.93-2.07-2.09-.27,0-.24-.67-.64-.9-.14,1-.63,1.1-1.54.17-.13-.13-.32-.25-.37-.06a.75.75,0,0,0,.26.63,3.57,3.57,0,0,1,.9,1.73c.09.39,0,.59-.32.36a3.67,3.67,0,0,0-3.21-.52c-.4.07-.71,0-1.21-.56s-2.44-1.07-2.88-.71a.86.86,0,0,0-.35.94,2.25,2.25,0,0,1-1,2.62c-.51.48-1,.93-1.58,1.37-1-2.3-.68-4.47.63-4.95a13.8,13.8,0,0,1,2.5-1.06c.17,0,.27-.21.37-.36s.31-.37.05-.7-.46-.15-.55.05c-.25.52-.82.35-1.3.47.08-1-.2-1.39-1-1.49a1.66,1.66,0,0,0-1.7.46c-.4.59-.92.27-1.49-.29a3.29,3.29,0,0,0-1.65-1,1.91,1.91,0,0,1-1.05-.56,1.84,1.84,0,0,0-2.07-.68,8.57,8.57,0,0,0-2.38,1c-.23.14-.74.15-.48.69a2.89,2.89,0,0,0,1.27,1.52c1,.46,1.26.85,1.22,2.07a5.56,5.56,0,0,1-2.86,4.94.5.5,0,0,1-.62,0c-.34-.22-.69-.7-1-.47A6.41,6.41,0,0,0,286,176c-.27.43.32,1.52.52,2.31s.15,1.14-.43,1.08a.57.57,0,0,1-.54-.74c.19-.94-.68-2-.83-3.08a1.17,1.17,0,0,0-1.56-.84c-.14-.48.4-.55,0-1.07a.62.62,0,0,0-.81-.16c-.44.14-1.27-.11-1.06.82s1,1.21,1.55,1.58l.34.24c-.07.32-.34.22-.52.28-.6.22-.77.71-.27,1.79.26.57.77,1.28.15,1.57-.17.08.07,1,.18,1.14.59.91.17,1.07-.06,1.39a7.13,7.13,0,0,1-.75,1.08,2.17,2.17,0,0,1-2.69.66c-.89-.39-1.59,0-2.63-.76-.82-.59-1.25.68-.75,1.81a16.4,16.4,0,0,1,1,2.41c.53,2,.21,3-1.11,3.21-.18,0-.42.21-.54-.33s-.58-1.14-.72-1.7a2,2,0,0,0-1.51-1.66c-.44-.11-.8,1.25-.51,1.94a26,26,0,0,0,1.14,2.62,7.11,7.11,0,0,1,.84,3.32,1.93,1.93,0,0,1-.79-1c-.73-2-1.55-4-1.46-5.82a27.33,27.33,0,0,0-.57-4.29c-.08-.67-.36-.63-.69-.58-.7.1-.92-.15-.86-1,.1-1.38-.91-2.7-1.41-4.05,0-.09-.19-.26-.22-.25-.67.18-1.64-.72-2.21-.1a4.76,4.76,0,0,1-2.39,1.39c-.57.16-.79.61-.78,1.4a3.94,3.94,0,0,1-1,3.06c-1.35-3.75-2.51-7.29-2.37-10.45-.46-.45-.46-.09-.59,0s-.29.08-.47-.16-.32-.48-.19-.61c.34-.33-.07-.6-.31-1a11.62,11.62,0,0,0-4.4-4,2.71,2.71,0,0,1-1.24-1.4,1.31,1.31,0,0,0-.79-.77,4.73,4.73,0,0,1-2-2.4,10.54,10.54,0,0,0-.5-1c-.29-.47-.65-.78-1-.64s-.06.59.08,1c.41,1.11.9,2.23,1.22,3.33s.78,1.24,1.32,1.19a7.5,7.5,0,0,0,1.06-.27,9.57,9.57,0,0,0,1.34,2.41.8.8,0,0,1,.19,1,2.93,2.93,0,0,1-2.69,1.76c-1.23.08-2.5.05-3.76,0-.73,0-1.11-.41-1.16-1.39a9.8,9.8,0,0,0-1.33-4.27,3.76,3.76,0,0,1-.44-1.48,4,4,0,0,0-.83-2.32c-.34-.43-.2-1-.4-1.45-.39-1-.4-2.13-1.55-2.66-.1,0-.26-.49-.43-.4s-.06.5,0,.78a44.27,44.27,0,0,1,1.56,4.39,3.7,3.7,0,0,1,.21.68c0,2.54,1.65,5,2.69,7.53a6.86,6.86,0,0,1,.3.69,2.72,2.72,0,0,0,1.75,2l2.2.75c-.75,2.36-1.66,4.4-3.68,5.07a4.32,4.32,0,0,0-1.39,1.07c-1,.91-1.06,2.46-.49,4.48a10.23,10.23,0,0,1,.38,2.76c0,1-.33,1.67-1.1,1.81-.32.06-.62.17-.94.25-.61.17-.89.6-.6,1.69s.21,2-.66,2c-.36,0-.43.46-.51.87-.54,2.84-1.95,3.57-4.72,2.39-.59-.25-1.22-.21-1.82-1-.3-.42-.73-.86-.33-1.22.24-.22,0-.75-.14-1.14a31.12,31.12,0,0,1-1.93-7.85,5.11,5.11,0,0,0-.34-1.36,4.88,4.88,0,0,1,0-4.17c.55-1.16.35-2.64-.23-4.4a27.47,27.47,0,0,0-1.26-3.32,3.15,3.15,0,0,1-.24-1.64c0-.74.08-1.46.07-2.22a1.5,1.5,0,0,0-1-1.58,1.59,1.59,0,0,1-1-1,2.26,2.26,0,0,0-1.67-1.51c-1.37-.12-2.87-1.1-4.3-1.65a7.14,7.14,0,0,1-2.65-3.66,33.72,33.72,0,0,0-1.88-4.81,1.33,1.33,0,0,1-.13-1,5.56,5.56,0,0,0,.28-2.7c-.31-2.68,1-3.59,2.29-4.41a1.72,1.72,0,0,0,1-1.86.78.78,0,0,1,.48-.8,2.51,2.51,0,0,1,2.72-.13c1.74.77,3.45,1,5.25,1.9,1,.5,1.38,1.1,1.14,2.07a1.78,1.78,0,0,0,.57,1.74,39.32,39.32,0,0,1,2.62,3.08c.61.73,1.13,1.1,1.45.39s.79-.49,1.39.21a22.67,22.67,0,0,0,4.49,3.58c.43.31.67.13.84-.16a7.24,7.24,0,0,0,.76-2.52c.07-.48-.06-.85-.59-1-.81-.18-1.64-1.05-2.47-1.42a2.26,2.26,0,0,1-1.11-1.86c-.08-.73-.11-1.2.65-1.09a14,14,0,0,0,1.7.13,2.54,2.54,0,0,1,1.73,1,6.73,6.73,0,0,0,2,1.59c.35.15.65.19.78-.13s-.1-.72-.31-1.08-.53-.85-.81-1.27c-.43-.65-.88-1.25-.45-1.77.22-.27,0-.63-.4-.85-.93-.48-1.3-.19-1,.91a1.4,1.4,0,0,1-.93-1.27c-.06-.77-.59-1-.94-.89a2,2,0,0,0-1.55,2.2c0,.91-.3,1-1,.57a1.73,1.73,0,0,0-1.09-.28c-.43,0-.41.24-.19.76.52,1.22.45,1.35-.67,1.09.26-.37.41-.71-.19-1.37a3.4,3.4,0,0,1-.62-1.33c-.52-2.15-2-3.83-3.07-5.69-.18-.31-.35-.6-.59-.45s-.21.36-.07.72a8.63,8.63,0,0,0,1.26,2.69,2.58,2.58,0,0,1,.67,3,4.11,4.11,0,0,0-1.22-2.59,12.1,12.1,0,0,1-1.62-2.69c-.4-.83-.86-1.33-1.46-1.25a1.38,1.38,0,0,1-.87-.28c-.7-.48-.9-.09-1.3.28a24.18,24.18,0,0,1-2.19,1.88c-.74.55-2.22-.45-3.15-1.7a1.8,1.8,0,0,1-.42-1.51,6.22,6.22,0,0,0,.14-2c0-.7.2-.85.78-.46s1.13.74,1.7,1.13c.88.6,1.34.31,1.21-.79a5.82,5.82,0,0,0-1.43-3.09,22.05,22.05,0,0,0,2.93-.21c1.06-.16,1.59-1.53,3.11-.63.31.18.34-.13.33-.43s0-.71,0-1-.07-.79.32-.5.13.52.08.73a1.2,1.2,0,0,0,.28,1.14c.81.61,1.6,1.61,2.44,1.76a2.87,2.87,0,0,1,1.69.54c.6.47,1.11.22,1.17-.57s0-1.54.91-.25c.13.18.3.28.4.17a.72.72,0,0,0,0-.76c-.5-1.25-.1-1.27.68-.86a13.43,13.43,0,0,0,1.42.63c.17.07.38.14.38-.12a.89.89,0,0,0-.35-.61,4.67,4.67,0,0,0-1.85-1c-.45-.15-1,.06-1.35-.9s-.34-1.67.13-2.07c.3-.25.65-.43.95-.68s.64-.31.21-1-1.08-1-1.25-.59c-.4.93-1.28,1-1.92,1.49-.41.31-.52,1-.07,2,.32.69.29,1.11-.17,1.23s-.49.49-.47,1-.06.56-.44.49c-1.27-.24-1.26-.2-1.74-2l-.12-.46c-.44-1.54-.44-1.54-1.43-1.42-.82.09-1.08-.36-1.35-1.56-.39-1.69.25-2.08,1.08-2.4.19-.08.32,0,.54.15.75.55,1.07.32.82-.64-.13-.51-.16-.66.22-.8.88-.33,2-.41,2.53-1.18.69-1,1.92,0,2.8-.17.09,0,.26.12.33.09.88-.47,1.82.73,2.75,1.4.29.21.36.27.19.58s.28.56.48.66c1.68.84,3,2.65,4.36,4.32.23.27.52.61.47,1s-.38.3-.67.21a5.11,5.11,0,0,1-2.11-1.44c-.24-.26-.57-.64-.76-.51s.14.59.27.9a7.7,7.7,0,0,0,1,2.14c.26.31.53.69.83.62s-.13-.59-.08-.93c.69.81,1.21,1.16,1.5.35.12-.33.6-.27,1,0,.87.61.84,0,.74-.74,0-.3-.3-.77,0-.79.19,0,.39.31.58.52.4.46.08.44,0,.58s0,.39.16.6c.3.41.59.45.82.35a3.52,3.52,0,0,1,2.39.06c.2.05.45,0,.59.24.56,1.13,1.07.78,1.59.89.33.07.63-.28,1,.61a.41.41,0,0,0,.62.14c.86-.64,1.83.4,2.78,1.37.22.22.41.52.63.76s.42.36.58.24.07-.42-.06-.69-.23-.45-.35-.67c-.45-.8-.68-1.42,0-1.6.27-.07.4-.43.59-.67s.6-.17,1,.23a1,1,0,0,1,.32,1.11c-.2.67.28,1.64.2,2.35s-.1,1.18-.22,1.72-.27,1-1,.06c-.18-.25-.44-.4-.56-.22s.15.48.31.69c.65.91,1.2.93,1.63.56a5.91,5.91,0,0,0,.78-.93c.36-.46.69-.15,1,.62.13.34.2.7.36,1s.41.64.62.59-.1-.47-.15-.71a4.88,4.88,0,0,0-1.71-2.73,2,2,0,0,1-.11-2.66,13.43,13.43,0,0,0,.64,1.32c.26.43.64,1,.94.86s-.32-.67-.3-1c1,0,1.86.83,2.29,2.29.09.3.17.56.44.64s.24-.22.22-.47a3.33,3.33,0,0,0-.93-1.94c-.29-.31-.46-.61-.37-.92s.36-.15.59,0c.59.37,1.19.76,1.78,1.18s.72.36.38-.37-.07-.88.34-.74a16.31,16.31,0,0,1,4.31,1.8c.88.58,1.63.32,2.52,1,.22.15.11-.27.13-.45.09-.66.45-.84,1.06-.53.14.07.37.19.38.39,0,1.54,1,1.57,1.71,2,.43.3.9.19,1.31.72.26.35.74.46.78,1.08s-.13.84-.57.78c-.65-.25-1,.22-1.51.47C277.51,142.1,277.63,141.2,278.41,141.87Z"/><path class="cls-12" d="M179.69,89.68c-.42-.48-.44-.87-.24-1.18s.34-.29.64-.09a1.8,1.8,0,0,1,.83,1.27c-.08.76.56,1.39.75,2.08s.43.32.58.22c.48-.34.69.12.86.77,0,0,0,.08,0,.12.12.47.1,1.14.55,1.36s.75-.22.83-.72,0-.88.56-.39c.43.36.92.69.85,1.4a1.25,1.25,0,0,0,0,.39c.21,1.37.08,1.51-1,1.12-.26-.09-.69-.54-.73-.08a1.9,1.9,0,0,0,.63,1.15,6.54,6.54,0,0,1,1.72,2.54c-.78-.76-1.4-1.23-1.88-.76-.14.13-.45-.25-.65-.53s0-.44,0-.62a1.69,1.69,0,0,0-.19-1.54,1.26,1.26,0,0,0-1.38-.68l.93,1.08c0,.43-.34.44-.59.33-1.72-.77-2,.94-2.88,1.63-.39.32-.25,1.19.54,1.92a1.42,1.42,0,0,1,.38.44c.84,2.24,2.4,3.52,3.86,4.89.51.48.8.77.68,1.39-.21,1,.52,2.06,1.2,3,.47.64.77.41.83,0a9.76,9.76,0,0,1,.75-3.35.55.55,0,0,0,0-.4,7.07,7.07,0,0,1-.3-3.28c.06-1.66.67-1.95,2.1-.46a24.76,24.76,0,0,1,1.58,2.06c.17.23.21.47.1.6-.37.41-.05,1,.31,1.61s.85.58,1.25.66c.24.06.43-.1.63-.19s.54-.07.63.52a27.14,27.14,0,0,0,1,3c.29,1,1.24,1.48,1.68,2.41,0,0,0,.08,0,.09-.23,0-.61,0-.69.18-.21.53.26.53.49.64a7.53,7.53,0,0,1,.88.38,1.08,1.08,0,0,1,.39.93c0,.5,0,.85-.51.76a9.82,9.82,0,0,1-3.23-1.12c-1.28-.73-2.46-.45-2.87.56.5.35.73,0,1.07,0a1.79,1.79,0,0,1,1.18.28c.22.14.45.36.22.56-.55.46-.46.83.41,1.7a.81.81,0,0,1,.28.37c0,.22,0,.26-.21.11a7,7,0,0,0-2.76-.48.47.47,0,0,0-.54.57c.25,1.13-.27.94-.87.82s-.68.36-1,.66c-.14.15-.11.89-.66-.06-.18-.3-.33.1-.27.31.52,2.14-.57,2.56-1.51,3.07-.79.43-1,1.21-.61,2.61.19.68.27,1.35.4,2,0,.22.08.48-.14.45s-.32-.3-.43-.52a6.7,6.7,0,0,1-.49-1.71c-.3-1.44-1.81-3.15-2.84-3.22-.13,0-.34,0-.34.11,0,1.16-.64.21-1.05-.1a4.37,4.37,0,0,0-1.91-1.08c-1.34-.16-1.09,1.37-1.26,2.41a6.61,6.61,0,0,0,.59,3.31,3.26,3.26,0,0,0,2.31,2.24c.32.05.47-.11.53-.45s.19-.63.51-.64a1.08,1.08,0,0,1,1,.4c.37.45.15.76.11,1.1,0,.1,0,.18-.05.27-.1.61-.63,1-.32,1.8s1,.88,1.57,1.36a1.59,1.59,0,0,1,.66,1.41,8.79,8.79,0,0,0-.1,1.38,3,3,0,0,0,1.77,2.7c.27.1.58.11.78.44.86,1.45,1,.82,1.44.27.28-.38,1-.22,1.51-.31.12.42-.35.59.13,1.07s.39-.09.55-.17.35-.21.72.23a7.19,7.19,0,0,0,2.56,2.16c.44.18.66.54.95,1.08.91,1.72,1.72,3.52,3.32,4.63,1.29.88,1.53,2.44,1.95,3.79.11.35-.18.29-.3.39a1.7,1.7,0,0,0-.82,1.07c.52.17.78-.09,1.12-.12.16,0,.36-.18.52.25.1.26-.1.3-.24.35s-.48-.13-.54.22c.49.68.9.71,1.24.45s.94-.13,1.43.76a5.84,5.84,0,0,0,2.17,2.28c1.1.64,1.76,2,2.48,3.11a1.69,1.69,0,0,1,.09,1.61,2.79,2.79,0,0,1-1.12,1.45,1.82,1.82,0,0,0-.68,1.66,7.63,7.63,0,0,1-.79,4c-.19.29-.36.66-.79.45a3,3,0,0,0-2.08-.09c-.73.1-1.15.37-1.24,1.57a3.48,3.48,0,0,1-2.43,3.35c-.61.17-1.18-.64-1.77-1.17-.08.48.25.88.4,1.28.47,1.19.32,1.69-.58,1.45s-1.78-.71-2.16.26c0,.11-.3.06-.47,0-.57-.24-.58,0-.46.72a1.51,1.51,0,0,1-.74,1.69c-.56.33-.63.79-.1,1.78.16.28.49.63.26.79-1,.7-1.39,2.2-2.38,2.93a8.39,8.39,0,0,0-.59-1.13c-.46-.62-1.06-1.16-.75-1.87.17-.43-.18-1.25.38-1.46.41-.15-.26-.9-.46-1.38-.13-.33-.61-.55-.5-.9s.38.24.57.31.28-.17.32-.38a6.3,6.3,0,0,0,0-2.56,3.53,3.53,0,0,1,0-1.64,60.83,60.83,0,0,0,1.6-12.71,2.83,2.83,0,0,0-.6-2,16.65,16.65,0,0,1-3.28-7.31c-.2-1-.58-2-.89-3-.16-.52-.35-1,.12-1.09.09,0,.19-.16.16-.24-.83-2.15.31-2.57.92-3.42a3.76,3.76,0,0,0,.09-3.22c-.2-.68-.51-1.41-1.13-1.11-.14.07-.31,0-.5-.19a7.43,7.43,0,0,1-2.28-3.3,4.8,4.8,0,0,0-1.28-2.1c-.5-.48-1-1-1.46-1.61a12.73,12.73,0,0,0-2.43-2.38,17.62,17.62,0,0,1-3.86-4.49,1,1,0,0,1-.2-.45c0-2-1.54-3.92-2.2-5.89-.36-1.07-1-2.12-1.29-3.22a1.17,1.17,0,0,0-.61-.84c-.37-.12-.23.35-.24.64s-.12.28-.33,0a21.91,21.91,0,0,0-2.15-4.62,14.6,14.6,0,0,1-2.07-5.81c-.07-1.4,0-2.72.08-4.07,0-.22,0-.53.29-.38.89.45.57-.32.29-.9a7.47,7.47,0,0,0-1.11-1.95,9.58,9.58,0,0,1-2.13-4.13,28.53,28.53,0,0,0-1.55-3.72c-1-2.1-2.35-2.89-3.56-4.17-1-1.06-2.17-1.65-3.09-3-.28-.41-.63-.46-.79-.11a.19.19,0,0,0,0,.08c-.12.49-.57.65-.89.24-.5-.62.19-.59.21-1.11-.54-.5-.83-.39-1,.05a2.64,2.64,0,0,1-2.73,1.65c-.19,0-.2-.12-.16-.27a2.27,2.27,0,0,0,.45-.37c.4-.5.28-.85-.46-1.29a12.13,12.13,0,0,1-2.71-3c-.85-1-.58-2.08.38-1.86a1,1,0,0,0,1.19-.33.67.67,0,0,0-.06-.7c-.14-.23-.27-.19-.41-.21-1.37-.29-1.49-.4-2.39-2.32a1.67,1.67,0,0,1,1.74.72c.35.4.77.67.92.28s-.35-.7-.6-1-.48-.56-.68-.87c-.31-.48-.87-1-.82-1.46s.66,0,1,0a7.28,7.28,0,0,1,2.06-.21,3.58,3.58,0,0,1,2.47,1.11,30.6,30.6,0,0,0,4,3.06,50.7,50.7,0,0,1,4.42,3.78c.46.42.41.84.54,1.28s.17.7.48.73.15-.35.08-.6c-.35-1.2-.14-1.29.73-.41a1.48,1.48,0,0,0,1.58.37,1.74,1.74,0,0,1,1.75.77c.57.67,1.2.56,1.84,1.13.82.75,1.59,1.92,2.55,2.06.14,0,.56.41.39.71-.4.69.27.87.6,1.08.88.54,1.81.86,2.34,2.35.12.34.49.44.42.12-.13-.66.5-.54.32-1.29-.13-.52.53-.07.66.13,1.42,2.19,3,2.54,4.49,3l.09.06C179.59,90.88,179.77,90.44,179.69,89.68Z"/><path class="cls-12" d="M197.84,87.13c.73.74,1.46.28,2.18,1.29.76-1,1.9.73,2.84,1,.44.14,1,.55.47-.6-.21-.41-.09-.47.14-.43s.19,0,.26,0c1.76,1.7,3.5,1.21,5.28,3-.16.25-.66-.19-.73.31a3.35,3.35,0,0,0,1.27.76c.83.38,1.66.7,2.49,1.11.35.17.84.18.94,1,0,.24.41.41.65.57a3.18,3.18,0,0,1,1.16.83c-2.16-.75-4.25-1.92-6-1.37a1.67,1.67,0,0,0,1.37.65,6.85,6.85,0,0,1,3,.92c.47.29,1,.33,1.34,1.24a.46.46,0,0,0,.23.21c.84,0,1.78,1.08,2.63,1.15a3,3,0,0,1,1.73,1.08c-.94-.17-1.66.35-2.73-.29-.24-.15-.52-.24-.62,0s.28.47.38.69c.26.53-.06.65-.25.77-.8.51-.75,1,.41,2.37l-.94-.48c-.24-.11-.52-.24-.61,0s.22.44.39.64c0,0,.08.06.08.08.05.3-.58.28.07.86a2.38,2.38,0,0,1,.7,1.13c-.93-.08-.93-.08-.59.85-.35-.12-.55-.55-.8-.84-.48-.57-1-1.42-1.42-.76,0,0-.05,0-.08,0-1.5-1-.35.76-.49,1.17-.06.2.31.37.51.51a3.52,3.52,0,0,1,1.2,1.25c.13.23.44.57.25.7s-.39-.27-.55-.56c-.33-.57-.74-.84-1-.55s-.52.31-.37.75.54.44.82.65.54.23.77.73a6.88,6.88,0,0,1-3.42-1c-1.08-.64-2-.7-2.41.27-.19.41-.61.38-1.07.23a2,2,0,0,0-2.71,2.06c0,.63-.27.87-.69.92a.47.47,0,0,1-.4-.09c-1.29-1.69-2.88-3.24-3-5.49a1,1,0,0,0,0-.22c-1.09-1-.35-1.27-.14-1.62.32-.55,0-.73-.55-1,1.06.47.45-.84.72-1.23.53-.76-.53-1.21-.89-1.83.42-.16.76-.37.32-1.28-.38-.76-.52-.21-.83-.26-.16-1.78-1.26-3.46-2-5.18a1.25,1.25,0,0,0-.63-.65c-1.07-.51-2.14-1.05-3.21-1.55-.84-.4-.91-.46-1.45-1.62,0,0,.06-.09.11-.09.38,0,1.15.61,1.12.1,0-.68-.77-.79-1.2-1.17s-.65-.35-1-.82c.47-.44,1.19.18,1.77.29a2.55,2.55,0,0,1,.51.13c.7.29,1.32.15,1.28-.6s-.81-.43-1.29-1.18c1.14-.1,2.66.86,3.39-.17C197,86.59,197.42,87.09,197.84,87.13Z"/><path class="cls-12" d="M293.21,214.32c.37,1.75,1.25,3.28,1.29,4.77s1.19,2.76,1.75,4.15a7.93,7.93,0,0,0,1.48,2.6,1.34,1.34,0,0,1,.3,1.07,18.32,18.32,0,0,1-1.58,6.78c-.2.53-.88-.11-1.15.21s-.75,0-1.15-.65c-.22-.38-.44-.21-.66-.28a2.52,2.52,0,0,1-1.58-1.63c-.39-.89-.33-2-1.25-2.68l.12-.62a.58.58,0,0,0-.12-.61c-.22-.24-.33-.06-.39.08-.35.78-.64.56-1.11-.59a4.59,4.59,0,0,0-2.09-2.36,4.66,4.66,0,0,0-2.8-.7c-.91.19-2.07-.42-3-.36-.42,0-1-.72-1.06-1.49a17.22,17.22,0,0,0-1.12-5.49c-.18-.46-.14-.41.24-.21s.19-.39.07-.75c-.48-1.5-.4-1.79.63-1.85.6,0,1.24,0,1.84,0s1.44.05,1.45-1.05c0-.07,0-.18,0-.17,1,.6.92-.69,1.55-.73a.52.52,0,0,1,.54.32,3,3,0,0,0,.8.88c.41.28.74.59.83-.15.19-1.44,1.42-1.46,2.58-.23.37.39.49.63.33,1-.46,1.09.38,3.19,1.64,4.24.35.29.41,0,.52-.12a5.05,5.05,0,0,0,.61-2A3.27,3.27,0,0,1,293.21,214.32Z"/><path class="cls-12" d="M192.94,85.53l-2.08.35c-.22,0-.46-.16-.69-.38-.93-.94-1.34-.18-2.13-.43.38.71.74.61,1.05,1.13-.74.47-1.67.24-2.79-.35.29.86.8,1.06,1.32,1.44-.43.29-.9.15-1.43-.23-.74-.52-1.49-1-2.23-1.54-.29-.21-.8-.33-.78-.87s-.11-1.42,1-.32c-.63-1.14-1-1.94-1.7-1.65a1.13,1.13,0,0,1-.74-.11,1.53,1.53,0,0,1-1-1c-.24-.76.53,0,.49-.55a6.65,6.65,0,0,0-1.11-1,1.19,1.19,0,0,1-.47-.81c0-.29.24-.22.36-.33,1-.82,1.91.9,2.79,1.78a7,7,0,0,1,.69,1.63,4,4,0,0,0,2.23,2c.14,0,.28,0,.27-.19s-.18-.35-.33-.44a5.13,5.13,0,0,1-1.25-1.22c-.19-.25-.5-.55-.42-.83s.42-.09.68.12c.72.58,1.42,1,2,.62.09-.11.35-.12,0-.48a4.12,4.12,0,0,1-2.52-1.46c-.11-.12-.26-.3-.34-.3-1,0-1.35-1.18-2.06-2.25,1.35.82,2.3.39,3.49,1.14.08.05.21.07.24,0,.62-1.29,2,0,3,.53s2,1.27,3,1.83a2.4,2.4,0,0,1,1.28,1.25c.17.37.49.45.76.58a4,4,0,0,1,.79.41,1.76,1.76,0,0,1,.83,1.11c0,.43-.4.21-.65.2s-.72-.07-1.07-.1C193.32,85.06,192.91,85,192.94,85.53Z"/><path class="cls-12" d="M190.62,98.68c-.55-2.62-2.27-3.87-3.89-5.12a29.77,29.77,0,0,0-3.12-2,3.05,3.05,0,0,1-1.34-2.16c-.22-.88.24-1,.7-1.09s.7,0,1.06.57a1.61,1.61,0,0,1,.26,1.47c-.11.23-.3.34,0,.78.1.17.22.41.37.36s.09-.2.07-.33a3.35,3.35,0,0,1-.09-1.07c.08-.57.36-.8.92-.54s.43.75.53,1.16c.17.7,1.21,1.71,1.63,1.53.72-.31,1.28.27,1.8,1.31.14.28.31.6.5.68.92.41,1.39,1.75,2.24,2.36.35.26.91.84.46,1.34-.21.25.13.79.41,1a26.41,26.41,0,0,1,2,2.18c.23.2.64.81.38.82s-.29,1.19-1.07.26a11,11,0,0,1-.69-1c-.32-.51-.64-.73-1-.57s0,.66.18,1,.37.67.54,1a3.83,3.83,0,0,1,.59,1.58c0,.45-.72,0-.43.84.05.12-.18-.06-.27-.15a17.16,17.16,0,0,1-2.63-2.9,3.88,3.88,0,0,0-2.19-2,.67.67,0,0,1-.59-.56c-.07-.41.24-.28.47-.2s.59.27.89.42.4.2.43-.21c.05-.69.48-.57,1,0C191.15,99.24,191.15,99.21,190.62,98.68Z"/><path class="cls-12" d="M279.77,201.8c-.66-.67-1.44-.83-2-1.93-1-2.06-1-2.81.46-3.17a6.44,6.44,0,0,0,2-.83c.39-.26.65,0,1,.6s.27.84-.05,1-.41.38,0,1.05a1.11,1.11,0,0,1,0,1.3c-.4.48-1,.81-.91,1.87C280.45,202.14,280,201.87,279.77,201.8Z"/><path class="cls-12" d="M169.62,81.05c.4.09.89-.25,1.09.93a2.31,2.31,0,0,0,1.07.45c.68,0,1,.66,1.39,1.26.18.28.46.75.52.35.1-.73.63-.64,1.16-.8a3.83,3.83,0,0,0,.2,2.14,3.32,3.32,0,0,0,1.43,1.85c-.28.77-.7.85-1.48-.09a1.88,1.88,0,0,0-1.3-.72c-1.36-.12-2.69-.59-3.92-2.8.46.22.93.47,1.39.68.19.09.47.28.46-.06s-.24-.4-.41-.55a5.76,5.76,0,0,0-1.33-.78,1.72,1.72,0,0,1-.81-1.12c-.18-.57,0-.71.28-.78C169.42,80.93,169.51,81,169.62,81.05Z"/><path class="cls-12" d="M288,204.74a1.59,1.59,0,0,1,1,1.24c.25.91.66,1.45,1.25,1.09.29-.19.6,0,1,.37a35.32,35.32,0,0,1,2.91,3.26,5.29,5.29,0,0,1,1.43,2.77,7.93,7.93,0,0,0,1,2.06,3,3,0,0,1-1.41-1.51c-.67-1.46-.89-1.64-1.75-1.33-.29.1-.55-.07-.83-.35-.45-.44-.89-.9-1.34-1.35-.13-.13-.34-.29-.24-.45.54-.89-.4-1.69-.93-2.5a5.62,5.62,0,0,0-1.23-1.29c-.33-.28-.58-.45-.36-.84S288,205.24,288,204.74Z"/><path class="cls-12" d="M248.55,189.47a4.18,4.18,0,0,1,.26,2.39c-.31,1.47-.68,2.89-1,4.32a2.24,2.24,0,0,1-.25.63c-.19.3-.53.24-.9,0a1.49,1.49,0,0,1-.59-1,2.9,2.9,0,0,1,0-2.3,2.69,2.69,0,0,0,.15-1.53c0-.74.17-1.21.72-1.26A1.72,1.72,0,0,0,248.55,189.47Z"/><path class="cls-12" d="M286.57,180.21c.79.77,1,0,1.55.21,1,.38,1.61-.18,2.56.17.05,0,.14,0,.14,0-.12-1,1.13-.33.9-1.48-.07-.34.14-.63.53-.34a1.31,1.31,0,0,1,.53,1.13A17,17,0,0,1,292,183c-.06.26-.33.05-.53,0a4.89,4.89,0,0,0-.88-.37c-.88-.17-.87-.15-1.51-1-.22.1.2.45.09.52a15.67,15.67,0,0,1-1.74,1c-.14.06-.36-.36-.33-.53A7,7,0,0,0,286.57,180.21Z"/><path class="cls-12" d="M223.07,125.07c.21.46.11.94.6,1.16.14.07.26.28.19.36-.53.56.16,1.34.53,2,.55.95.47,2,1.25,2.91.31.38-.22.92-.82.7-.29-.11-.59-.31-.89-.46l-1-.46c.26-.3,1-.27.07-1.18-.23-.24.1-.5.31-.63.46-.28.38-.8-.15-1.53C222.27,126.73,222.22,125.66,223.07,125.07Z"/><path class="cls-12" d="M270.77,190.9a3.22,3.22,0,0,1,1.31,1.44,45.7,45.7,0,0,1,2.19,4.37,3.53,3.53,0,0,0,.9,1.33c.38.35.47.67.3,1s-.09,1-.5.83-.65-.79-.9-1.25a35.66,35.66,0,0,1-1.92-4.54C271.78,193,271.29,192.06,270.77,190.9Z"/><path class="cls-12" d="M257.66,128.07a5.05,5.05,0,0,1-2.82-.41c-1.51-.57-2.34.2-3.14,1-.37.38.12,1.07.36,1.66a3.89,3.89,0,0,1-1.82-1.91.47.47,0,0,1,.38-.63c.75-.06.9-.9,1.29-1.43.1-.14.18-.23.37-.15.66.3,1.26.24,1.9.53A32.32,32.32,0,0,0,257.66,128.07Z"/><path class="cls-12" d="M234.34,111.7c.54.55.83.93.11,1-.47,0-.63.62-.88,1-.14.23-.3.5-.66-.07-.18-.3-.73-.74-.21-.92.19-.07.24-.26-.06-.58s-.11-.3,0-.34.54,0,.35-.38a.57.57,0,0,0-.73-.36c-.56.33-1.14-.8-1.68-.7-.1-.68,1-.18.21-1.31-.11-.16.28-.08.46,0s.38,0,.46.44c.13.7.2.79.66.64s.91.17,1.25,1C233.83,111.42,234.15,111.28,234.34,111.7Z"/><path class="cls-12" d="M169.62,81.05l-.26,0c-.36-.61-.63-.49-.93-.4a8.85,8.85,0,0,1-1.16.25c-.43.07-.7-.44-1-.89s-.18-.63,0-.81,0-1.56.84-1.09c.59.32,1.17.79,1.76,1.19C169.61,79.77,170,80.35,169.62,81.05Z"/><path class="cls-12" d="M214.33,114.33c.94,0,1.72-.43,2.91.31a2.24,2.24,0,0,1,1.07,1.43c.2.76-.37.47-.67.48a5.06,5.06,0,0,1-1.24-.17A3.17,3.17,0,0,1,214.33,114.33Z"/><path class="cls-12" d="M186.94,88.55c.05.38-.13.5-.53.32a16.82,16.82,0,0,1-4.78-3c-.09-.08-.22-.16-.25-.24a7.08,7.08,0,0,0-2.12-2.83c.89.56,1.82.82,2.45,2.22a2.9,2.9,0,0,0,1.39,1.33C184.37,87.08,185.65,87.8,186.94,88.55Z"/><path class="cls-12" d="M304.63,245.31a2.08,2.08,0,0,1,1-1,4.24,4.24,0,0,0,1.35-1.12c.12-.18.39-.27.68.14a.62.62,0,0,1,.05.77c-.45.71-1.14,1.14-1.36,2.17C306.21,246.75,305.92,246.56,304.63,245.31Z"/><path class="cls-12" d="M292.85,175.78a12.67,12.67,0,0,0,1.5,1.8c.24.23,0,.56-.25.58a15.93,15.93,0,0,1-1.7.05c-.21,0-.34-.26-.44-.48s-.28-.86-.07-.9c.45-.1.56-.53.65-1C292.57,175.68,292.66,175.66,292.85,175.78Z"/><path class="cls-12" d="M185.87,129.79a18.75,18.75,0,0,1,3.28,3.55c.15.2.27.51.07.55a1.05,1.05,0,0,1-1.14-.64,5,5,0,0,0-1.13-1.57c-.45-.4-.88-1.57-1.42-1a4.1,4.1,0,0,1-.6-.89c-.11-.33.21-.24.38-.22A2.39,2.39,0,0,1,185.87,129.79Z"/><path class="cls-12" d="M173.28,79.39a10.44,10.44,0,0,0,1.1,1.88,7.51,7.51,0,0,1-2.64-.83c-.54-.37-1.05-1.5-1.82-1.78a.79.79,0,0,1,0-.59c.09-.19.27-.11.45,0a15,15,0,0,1,1.2,1.08C172.79,80.49,172.81,80.5,173.28,79.39Z"/><path class="cls-12" d="M198.41,117.4c-.24.4-.33.62.27,1a1.75,1.75,0,0,1,.71,1.8c0,.29-.29.15-.44.21s-.27-.11-.28-.26c0-1.06-.58-.84-1-1a1.41,1.41,0,0,1-.86-.85c-.18-.51.1-.58.31-.69A1.43,1.43,0,0,1,198.41,117.4Z"/><path class="cls-12" d="M283.79,202.37c-1.09-.28-1.09-.28-.49,1.06.27.59.41,1.12.15,1.5a2.39,2.39,0,0,1-.46-1.15c-.09-.29-.11-.7-.41-.8s-.22.33-.21.6,0,.76.06,1.19c-.88-1.6-.69-4.15.31-4.22.07.43-.76.25-.11,1A6.59,6.59,0,0,0,283.79,202.37Z"/><path class="cls-12" d="M234.34,111.7a2.24,2.24,0,0,1-.72-.61c.31.21.62.19.62-.1,0-1.3.65-.28,1,.13s.41.47.7.31c.59-.34,1.24.6,2,1.15-.63.52-1.31.32-2.19-.4C235.26,111.82,234.66,111,234.34,111.7Z"/><path class="cls-12" d="M270.71,131.44a1.71,1.71,0,0,1,.69.78c.16.41.3.69.58.47.1-.09.31-.18.44.11a1.78,1.78,0,0,1,0,1.22c0,.2-.2.21-.4,0-.83-.75-1.65-1.5-2.46-2.29-.37-.35-.05-.39,0-.55C269.88,130.91,270.24,131,270.71,131.44Z"/><path class="cls-12" d="M179,87c0,.41-.15.39-.34.37-.74,0-1.21-.88-1.6-1.63a.82.82,0,0,1,.49-.85c.69-.11.9.14,1.11,1.16A5.87,5.87,0,0,0,179,87Z"/><path class="cls-12" d="M308.68,243.76c-.54-1.07-.94-1.94-.59-2.72.12-.27.09-.33.43-.17.58.27.78.95,1.14,1.4.17.21-.18.51-.41.67A3.15,3.15,0,0,0,308.68,243.76Z"/><path class="cls-12" d="M222.16,128.08a1,1,0,0,1-1.47.91.43.43,0,0,1-.29-.51,2.64,2.64,0,0,1,.78-1.6c.15-.13.35,0,.56.2A1.37,1.37,0,0,1,222.16,128.08Z"/><path class="cls-12" d="M282.39,190.09c0-.18.07-.5.14-.8s.26-.42.58-.1.48.83.28,1c-.72.53-.08,1.41.4,2.28.25.44.5.88.73,1.32.08.16.26.43,0,.37s-.3.12-.41-.3a5.4,5.4,0,0,0-1.33-2.21A2,2,0,0,1,282.39,190.09Z"/><path class="cls-12" d="M293.25,168.84a14.26,14.26,0,0,0,.61,4.25c0,.09,0,.26,0,.25-1.08-.34-.5.74-.36,1.44,0,.18.14.42,0,.4a.45.45,0,0,1-.35-.49C293.37,172.87,292.29,170.25,293.25,168.84Z"/><path class="cls-12" d="M278.41,141.87c-.43-.22-.43.32-.57.49a1.27,1.27,0,0,1-1.84-.08c-.32-.31-.43-.59-.1-.61.81,0,1.47-.58,2.51,0Z"/><path class="cls-12" d="M251,120.07c-.31,0-.55-.24-.84-.72-.19-.32-.7-.63-.64,0,0,.23,0,.21-.15.16-.28-.12-.34-.39-.41-.66s-.4-.72-.18-.93.34-.16.62.08c.76.64,1.54,1.27,2.31,1.9.13.1.25.26.23.38s-.13.15-.22.16S251.26,120.24,251,120.07Z"/><path class="cls-12" d="M279.37,204.63c-1.23-1-2.26-1.88-3.29-2.76-.21-.18-.54-.49-.46-.77s.39.08.6.24c.72.57,1.45,1.12,2.16,1.74A3.23,3.23,0,0,1,279.37,204.63Z"/><path class="cls-12" d="M170.06,116.16l.33,0,2.26,6.07a5.17,5.17,0,0,1-1.14-1.85A31.68,31.68,0,0,1,170.06,116.16Z"/><path class="cls-12" d="M179.9,86.79c0-.53,0-.78.35-.71a2.14,2.14,0,0,1,1.21.56c.14.13.17.32.09.39-.39.32-1,.26-1.32.69-.06.08-.22-.28-.26-.46A3.18,3.18,0,0,1,179.9,86.79Z"/><path class="cls-12" d="M294.82,235.73c.34.29.86.42.83,1.08,0,.45-.11.95-.68.58a2,2,0,0,1-.73-1.54C294.12,235.19,294.57,235.66,294.82,235.73Z"/><path class="cls-12" d="M283.27,196.58c.47-.67,1.17-.15,1.75.06.21.07.21.47.22.71,0,.4-.09.68-.42.69a.54.54,0,0,1-.51-.47A1.25,1.25,0,0,0,283.27,196.58Z"/><path class="cls-12" d="M191,186.35c.11-.24.48,0,.54-.3s0-.8.39-.33a3.66,3.66,0,0,1,1,1.91c0,.32-.32.17-.56,0C191.94,187.2,191.5,186.77,191,186.35Z"/><path class="cls-12" d="M293,150a2.64,2.64,0,0,0-1.35-.72.87.87,0,0,1-.61-.6.69.69,0,0,1,0-.67c.16-.18.46-.07.62.22.37.7,1.34.46,1.36,1.64C293,149.93,293,150,293,150Z"/><path class="cls-12" d="M275.16,135.9l-2.26-.65c.22-.61.5-1,1-.83S274.83,135.09,275.16,135.9Z"/><path class="cls-12" d="M179.17,90.81c0-.46-.27-.51-.51-.56s-.54-.49-.71-.87A.31.31,0,0,1,178,89c.22-.18.46,0,.71.36a2,2,0,0,0,.77.61c.25,0,.61.15.53.56S179.89,91.59,179.17,90.81Z"/><path class="cls-12" d="M269.45,130.31c.09-.52.53-.4.91-.35a1.46,1.46,0,0,1,1,1.06c.18.66-.34.28-.61.27C270.26,131.16,269.78,131.23,269.45,130.31Z"/><path class="cls-12" d="M174.81,77a5,5,0,0,1,2.61,3.2C176.69,79.09,175.61,78.45,174.81,77Z"/><path class="cls-12" d="M178.07,83.05c0,.32-.19.45-.48.21a3.16,3.16,0,0,1-1-1.6c-.1-.41.32-.24.58-.06A2.09,2.09,0,0,1,178.07,83.05Z"/><path class="cls-12" d="M169.46,76.39c-.28.52-1.74.55-2.36.06C167.65,75.73,168.52,76,169.46,76.39Z"/><path class="cls-12" d="M192.26,136.56a4.31,4.31,0,0,1-1.59-.63c-.21-.12-.57-.22-.56-.6s.26-.39.58-.2A4.88,4.88,0,0,1,192.26,136.56Z"/><path class="cls-12" d="M248.48,118.81c-.41-.06-.66-.45-.91-.73s-.62-.65-.45-1,.51-.15.83,0,.42.39.24.5C247.76,117.9,248.28,118.34,248.48,118.81Z"/><path class="cls-12" d="M283.92,208.37a1.22,1.22,0,0,1,1.28-.67.47.47,0,0,1,.4.32c.1.22,0,.35-.09.4A1.53,1.53,0,0,1,283.92,208.37Z"/><path class="cls-12" d="M297.48,212.2c.15.3,0,.41-.08.5s-.47.45-.9.19a.6.6,0,0,1-.25-.5c0-.5.5-.2.76-.28A.34.34,0,0,1,297.48,212.2Z"/><path class="cls-12" d="M263.43,184.18a2.11,2.11,0,0,1,.45,1.29c0,.33-.21.39-.47.18a1.08,1.08,0,0,1-.35-1.1C263.08,184.31,263.1,184,263.43,184.18Z"/><path class="cls-12" d="M186.69,81.86c.39-.07.89-.29,1.26.29.49.75-.08.54-.4.48s-.39-.11-.59-.17-.18-.08-.27-.12Z"/><path class="cls-12" d="M194.54,118.74l.21-.11.63.91-1.58.21C193.67,118.84,194.48,119.27,194.54,118.74Z"/><path class="cls-12" d="M171.3,77.19c.56.21.21-1,.83-.62.19.11.45.16.52.52s-.14.3-.28.32C172.06,77.47,171.8,77.7,171.3,77.19Z"/><path class="cls-12" d="M188.12,91.37a2.22,2.22,0,0,1-.41-.1c-.33-.14-.71-.13-1-.74,0-.11,0-.32.05-.34.33-.11.67.29,1,.62A1,1,0,0,1,188.12,91.37Z"/><path class="cls-12" d="M192.94,85.53c-.21-.19-.53-.19-.61-.57s.24-.28.43-.28a4.17,4.17,0,0,1,.74.14C193.52,85.32,193.35,85.58,192.94,85.53Z"/><path class="cls-12" d="M179.17,90.81c.44.26.65.07.72-.34s-.23-.37-.38-.53l.18-.26c.63.39.64.83.43,1.22s-.52.82-1.17-.16Z"/><path class="cls-12" d="M152.71,84.48c0,.17,0,.27,0,.3-.23.25-.46.53-.92.3a.52.52,0,0,1-.14-.29C151.83,84.32,152.24,84.37,152.71,84.48Z"/><path class="cls-12" d="M304.35,227.45c0,.24-.11.3-.27.17a2,2,0,0,1-.72-1.08c0-.15.11-.19.23-.1A1.87,1.87,0,0,1,304.35,227.45Z"/><path class="cls-12" d="M269.45,130.31a4.63,4.63,0,0,0,1.26,1v.15a1.89,1.89,0,0,1-1.11-.24C269.23,130.8,269.1,130.48,269.45,130.31Z"/><path class="cls-12" d="M250.51,118.38c.54.05.83.47,1.11.46a.46.46,0,0,1,.49.45c0,.34-.29.27-.52.1S251,118.85,250.51,118.38Z"/><path class="cls-12" d="M293.34,151.73c-.34.06-.67,0-.93-.57-.1-.23-.11-.57,0-.55C292.86,150.69,293,151.4,293.34,151.73Z"/><path class="cls-12" d="M253.09,120.82c-.11.18-.22.42-.49.19a1.19,1.19,0,0,1-.33-.84c0-.3.15-.27.34,0S253.13,120.4,253.09,120.82Z"/><path class="cls-12" d="M190.62,98.68c.15.09.3.17.45.28a1,1,0,0,1,.5.63c.05.21,0,.3-.18.33s-.45-.15-.58-.53C190.87,99.17,190.71,98.92,190.62,98.68Z"/><path class="cls-12" d="M253.76,132.63a1.54,1.54,0,0,1-.54-.9c0-.24.18-.15.32,0a1.28,1.28,0,0,1,.56.88C254.1,132.8,253.93,132.73,253.76,132.63Z"/><path class="cls-12" d="M310.51,164.14c.4-.08.81,0,1.4.67A1.89,1.89,0,0,1,310.51,164.14Z"/><path class="cls-12" d="M282.73,186.24c-.3-.66-.26-1.09.14-1.38A1.45,1.45,0,0,1,282.73,186.24Z"/><path class="cls-12" d="M149.63,83.92c.05.09.1.18.16.27a2.53,2.53,0,0,1-2-.18Z"/><path class="cls-12" d="M258.56,221c-.06.22-.2.27-.38.16a1.15,1.15,0,0,1-.51-.86c0-.2.12-.25.28-.1A1.89,1.89,0,0,1,258.56,221Z"/><path class="cls-12" d="M231.27,145.87a1,1,0,0,1,1.08.62c.09.17.09.42-.06.41C231.89,146.88,231.66,146.39,231.27,145.87Z"/><path class="cls-12" d="M195.61,116.79c0,.21-.16.2-.32.09a1.36,1.36,0,0,1-.63-.82c0-.23.15-.18.3-.08A1.49,1.49,0,0,1,195.61,116.79Z"/><path class="cls-12" d="M256.25,122.12c-.11.32-.42,0-.65,0s-.35-.13-.3-.34.38-.15.62-.07A.52.52,0,0,1,256.25,122.12Z"/><path class="cls-12" d="M197.84,87.13c-.25,0-.82-.56-.67.29,0,.17-.21.07-.36,0-.37-.26-.23-.53-.28-.8C196.94,86.5,197.4,86.86,197.84,87.13Z"/><path class="cls-12" d="M207.68,195.75c0,.23-.12.23-.27.14a1.29,1.29,0,0,1-.65-.78c-.07-.26.1-.22.26-.12A1.52,1.52,0,0,1,207.68,195.75Z"/><path class="cls-12" d="M236.43,114.49c-.1.25-.32.1-.52,0a.49.49,0,0,1-.34-.51c0-.28.25-.2.47,0A1.07,1.07,0,0,1,236.43,114.49Z"/><path class="cls-12" d="M287.12,205.61c0,.26-.23.16-.4.07s-.47-.2-.5-.55.21-.16.39-.09A.84.84,0,0,1,287.12,205.61Z"/><path class="cls-12" d="M254.74,121.15c-.2.36-.35.57-.69.38a.32.32,0,0,1-.15-.38C254.05,120.87,254.29,120.83,254.74,121.15Z"/><path class="cls-12" d="M248.61,130.46a.47.47,0,0,1-.26-.47c.05-.25.22-.34.49-.19a.52.52,0,0,1,.26.47C249.05,130.54,248.83,130.53,248.61,130.46Z"/><path class="cls-12" d="M190,185c-.24-.4-.59-.76-.57-1.17,0-.15.17-.11.28,0A1.52,1.52,0,0,1,190,185Z"/><path class="cls-12" d="M250.41,154.16c.27-.1.44.14.52.44s-.14.24-.31.21c-.34-.07-.32.16-.1.54a2.12,2.12,0,0,1,.21,1c0,.44.27,1.08-.21,1.08a1.87,1.87,0,0,1-1.44-.94,1.47,1.47,0,0,1-.31-1.55,2.13,2.13,0,0,0-.22-2.1,5.42,5.42,0,0,1-.39-1.26c-.43-1.76.21-2.43,1.6-1.69a.89.89,0,0,1,.55.68c0,.3-.05.4-.28.39-.73,0-.83.53-.35,1.53a3.24,3.24,0,0,1,.37,1.14C250.07,153.9,250.15,154.17,250.41,154.16Z"/><path class="cls-12" d="M240.29,133.46a1.17,1.17,0,0,1-.66-1c0-.33.12-.39.36-.23a1.77,1.77,0,0,1,.74,1.16C240.82,133.89,240.39,133.37,240.29,133.46Z"/><path class="cls-12" d="M253.59,154.12a.69.69,0,0,1-.37-.57c0-.46.16-.72.52-.7s.3.3.31.52C254.05,153.81,254,154.13,253.59,154.12Z"/><path class="cls-12" d="M184.34,112.59a6.84,6.84,0,0,0-2.44-2.1c1.14-.85,1.6-.57,2.56,1.57a3.78,3.78,0,0,0,1.18,1.5c.74.57,1.07,1.07.48,1.53-.08,0-.12.16-.2.28a3.24,3.24,0,0,1-.7-1.43,1.21,1.21,0,0,0-.47-.81c-.33-.23-.45,0-.59.2-.33.44-.32,1.19-.59,1.75C183,113.22,183.17,112.73,184.34,112.59Z"/><path class="cls-12" d="M185.83,116.8a2.64,2.64,0,0,1,2.71-.09C187.61,116.67,186.74,116.76,185.83,116.8Z"/></g><polygon class="cls-13" points="147.32 23.73 138.47 18.61 138.47 8.39 147.32 13.5 147.32 23.73"/><polygon class="cls-12" points="160.61 31.4 151.75 26.28 151.75 16.06 160.61 21.17 160.61 31.4"/><polygon class="cls-14" points="173.89 39.07 165.03 33.95 165.03 23.73 173.89 28.84 173.89 39.07"/><path class="cls-12" d="M250.3,80.48,184,42.22a4.35,4.35,0,0,1-1.81-3.46h0c0-1.34.81-1.95,1.81-1.37L250.3,75.65a4.35,4.35,0,0,1,1.81,3.46h0C252.11,80.45,251.3,81.06,250.3,80.48Z"/><g id="arrows"><path class="cls-15" d="M191.1,107.8c5.53-3.59,12.2-2.78,20,3.36,10,7.88,15.84,18.62,18.09,31.4l13.25,2.36a80.76,80.76,0,0,0-21.65-41.63c-15.5-15.79-29-19.06-40.58-12.15l-2.74-4.2c-.43-.65-.84-1.3-1.27-2-1.94-2.89-4.12-3.18-4.5-.57s-.73,5.4-1.09,8.1c-.74,5.55-1.46,11.1-2.22,16.63a5.55,5.55,0,0,0,2.34,5.61,3.82,3.82,0,0,0,1.3.5l22.42,4c1,.19,1.8-.07,2-1.29a5.41,5.41,0,0,0-1.15-3.77C193.92,112.13,192.55,110,191.1,107.8Z"/><path class="cls-15" d="M234.26,177.1c1.2,1.84,2.46,3.73,3.68,5.65a4.41,4.41,0,0,0,2.88,2.31c1.07.13,1.49-.66,1.64-1.85q1.6-12.17,3.24-24.3c0-.15,0-.3.06-.44a5.18,5.18,0,0,0-4-6.06c-5-.87-10-1.79-15-2.68-2.34-.42-4.67-.81-7-1.25-1.06-.2-1.84,0-2.05,1.23a5.51,5.51,0,0,0,1.19,3.89c1.48,2.21,2.92,4.46,4.48,6.84-5.5,3.12-12,2.12-19.51-3.81-10-7.89-15.76-18.57-18-31.28L172.59,123a80.87,80.87,0,0,0,20.78,40.68C208.77,179.83,222.35,183.56,234.26,177.1Z"/><path class="cls-13" d="M190.6,108.28c5.53-3.59,12.2-2.78,20,3.36,10,7.88,15.84,18.62,18.09,31.4L242,145.4a80.76,80.76,0,0,0-21.65-41.63c-15.5-15.79-29-19.06-40.58-12.15L177,87.42c-.42-.65-.84-1.3-1.27-2-1.94-2.89-4.12-3.18-4.5-.57s-.72,5.4-1.08,8.1c-.74,5.55-1.47,11.1-2.23,16.63a5.55,5.55,0,0,0,2.34,5.61,3.6,3.6,0,0,0,1.3.49q11.22,2,22.42,4c1,.19,1.81-.07,2-1.29a5.41,5.41,0,0,0-1.15-3.77C193.42,112.61,192.06,110.5,190.6,108.28Z"/><path class="cls-13" d="M233.76,177.58c1.2,1.84,2.46,3.73,3.68,5.65a4.41,4.41,0,0,0,2.88,2.31c1.07.13,1.49-.66,1.65-1.85q1.59-12.16,3.23-24.3c0-.15,0-.3.06-.44a5.19,5.19,0,0,0-4-6.07c-5-.86-10-1.78-15-2.67-2.34-.42-4.67-.81-7-1.25-1.05-.2-1.84,0-2.05,1.23a5.56,5.56,0,0,0,1.19,3.89c1.48,2.21,2.92,4.46,4.48,6.84-5.49,3.12-12,2.12-19.5-3.81-10-7.89-15.76-18.57-18-31.28l-13.27-2.38a80.81,80.81,0,0,0,20.79,40.68C208.27,180.31,221.86,184,233.76,177.58Z"/></g></g><g id="keyboard"><g class="cls-16"><polygon class="cls-17" points="227.66 283.99 121.61 283.99 0 213.96 39.51 191.14 66.67 191.14 227.66 283.99"/></g><polygon class="cls-18" points="121.59 281.15 0.29 211.11 39.8 188.3 161.11 258.33 121.59 281.15"/><polygon class="cls-14" points="40.08 198.17 33.34 194.28 40.19 190.32 46.93 194.21 40.08 198.17"/><polygon class="cls-19" points="40.08 198.17 39.42 197.79 46.28 193.83 46.93 194.21 40.08 198.17"/><polygon class="cls-20" points="47.34 202.36 40.6 198.47 47.45 194.51 54.19 198.4 47.34 202.36"/><polygon class="cls-20" points="54.59 206.55 47.85 202.66 54.71 198.7 61.45 202.59 54.59 206.55"/><polygon class="cls-20" points="61.85 210.74 55.11 206.85 61.97 202.89 68.71 206.78 61.85 210.74"/><polygon class="cls-20" points="69.11 214.93 62.37 211.04 69.22 207.08 75.96 210.97 69.11 214.93"/><polygon class="cls-20" points="76.37 219.12 69.63 215.23 76.48 211.27 83.22 215.16 76.37 219.12"/><polygon class="cls-20" points="83.62 223.31 76.89 219.42 83.74 215.46 90.48 219.35 83.62 223.31"/><polygon class="cls-20" points="90.88 227.5 84.14 223.61 91 219.65 97.74 223.54 90.88 227.5"/><polygon class="cls-20" points="98.14 231.69 91.4 227.8 98.25 223.84 104.99 227.73 98.14 231.69"/><polygon class="cls-20" points="105.4 235.88 98.66 231.99 105.51 228.03 112.25 231.92 105.4 235.88"/><polygon class="cls-20" points="112.65 240.07 105.92 236.18 112.77 232.22 119.51 236.11 112.65 240.07"/><polygon class="cls-20" points="119.91 244.26 113.17 240.37 120.03 236.41 126.77 240.3 119.91 244.26"/><polygon class="cls-20" points="127.17 248.45 120.43 244.56 127.28 240.6 134.02 244.49 127.17 248.45"/><polygon class="cls-21" points="47.34 202.36 46.7 201.99 53.55 198.03 54.19 198.4 47.34 202.36"/><polygon class="cls-21" points="54.59 206.55 53.95 206.18 60.81 202.22 61.45 202.59 54.59 206.55"/><polygon class="cls-21" points="61.85 210.74 61.21 210.37 68.06 206.41 68.71 206.78 61.85 210.74"/><polygon class="cls-21" points="69.11 214.93 68.47 214.56 75.32 210.6 75.96 210.97 69.11 214.93"/><polygon class="cls-21" points="76.37 219.12 75.72 218.75 82.58 214.79 83.22 215.16 76.37 219.12"/><polygon class="cls-21" points="83.62 223.31 82.98 222.94 89.84 218.98 90.48 219.35 83.62 223.31"/><polygon class="cls-21" points="90.88 227.5 90.24 227.13 97.09 223.17 97.74 223.54 90.88 227.5"/><polygon class="cls-21" points="98.14 231.69 97.5 231.32 104.35 227.36 104.99 227.73 98.14 231.69"/><polygon class="cls-21" points="105.39 235.88 104.75 235.5 111.6 231.55 112.24 231.92 105.39 235.88"/><polygon class="cls-21" points="112.64 240.06 112 239.69 118.86 235.74 119.5 236.11 112.64 240.06"/><polygon class="cls-21" points="119.9 244.25 119.26 243.88 126.11 239.93 126.76 240.3 119.9 244.25"/><polygon class="cls-21" points="127.16 248.45 126.52 248.07 133.37 244.12 134.01 244.49 127.16 248.45"/><polygon class="cls-12" points="36.38 204.48 26.02 198.5 32.88 194.54 43.24 200.53 36.38 204.48"/><polygon class="cls-20" points="43.64 208.67 36.9 204.78 43.76 200.82 50.49 204.72 43.64 208.67"/><polygon class="cls-20" points="50.9 212.86 44.16 208.97 51.01 205.01 57.75 208.91 50.9 212.86"/><polygon class="cls-20" points="58.16 217.05 51.42 213.16 58.27 209.21 65.01 213.1 58.16 217.05"/><polygon class="cls-20" points="65.41 221.24 58.67 217.35 65.53 213.4 72.27 217.29 65.41 221.24"/><polygon class="cls-20" points="72.67 225.43 65.93 221.54 72.79 217.59 79.53 221.48 72.67 225.43"/><polygon class="cls-20" points="79.93 229.62 73.19 225.73 80.04 221.78 86.78 225.67 79.93 229.62"/><polygon class="cls-20" points="87.19 233.81 80.45 229.92 87.3 225.97 94.04 229.86 87.19 233.81"/><polygon class="cls-20" points="94.44 238 87.7 234.11 94.56 230.16 101.3 234.05 94.44 238"/><polygon class="cls-20" points="101.7 242.19 94.96 238.3 101.82 234.35 108.56 238.24 101.7 242.19"/><polygon class="cls-20" points="108.96 246.38 102.22 242.49 109.07 238.54 115.81 242.43 108.96 246.38"/><polygon class="cls-20" points="116.22 250.57 109.48 246.68 116.33 242.73 123.07 246.62 116.22 250.57"/><polygon class="cls-20" points="123.47 254.76 116.73 250.87 123.59 246.92 130.33 250.81 123.47 254.76"/><polygon class="cls-12" points="134.25 260.99 123.99 255.06 130.85 251.11 141.11 257.03 134.25 260.99"/><polygon class="cls-12" points="30.88 209.75 18.71 202.73 25.56 198.77 37.73 205.79 30.88 209.75"/><polygon class="cls-20" points="38.13 213.94 31.4 210.05 38.25 206.09 44.99 209.98 38.13 213.94"/><polygon class="cls-20" points="45.39 218.13 38.65 214.24 45.51 210.28 52.25 214.17 45.39 218.13"/><polygon class="cls-20" points="52.65 222.32 45.91 218.43 52.77 214.47 59.51 218.36 52.65 222.32"/><polygon class="cls-20" points="59.91 226.51 53.17 222.62 60.02 218.66 66.76 222.55 59.91 226.51"/><polygon class="cls-20" points="67.17 230.7 60.43 226.81 67.28 222.85 74.02 226.74 67.17 230.7"/><polygon class="cls-20" points="74.42 234.89 67.68 231 74.54 227.04 81.28 230.93 74.42 234.89"/><polygon class="cls-20" points="81.68 239.08 74.94 235.19 81.8 231.23 88.53 235.12 81.68 239.08"/><polygon class="cls-20" points="88.94 243.27 82.2 239.38 89.05 235.42 95.79 239.31 88.94 243.27"/><polygon class="cls-20" points="96.19 247.46 89.46 243.57 96.31 239.61 103.05 243.5 96.19 247.46"/><polygon class="cls-20" points="103.45 251.65 96.71 247.76 103.57 243.8 110.31 247.69 103.45 251.65"/><polygon class="cls-20" points="110.71 255.84 103.97 251.95 110.83 247.99 117.56 251.88 110.71 255.84"/><polygon class="cls-12" points="126.94 265.21 111.23 256.14 118.08 252.18 133.79 261.25 126.94 265.21"/><polygon class="cls-12" points="19.94 211.88 11.39 206.95 18.25 202.99 26.8 207.93 19.94 211.88"/><polygon class="cls-20" points="27.2 216.07 20.46 212.18 27.32 208.23 34.05 212.12 27.2 216.07"/><polygon class="cls-20" points="34.46 220.26 27.72 216.37 34.57 212.42 41.31 216.31 34.46 220.26"/><polygon class="cls-20" points="41.72 224.46 34.98 220.56 41.83 216.61 48.57 220.5 41.72 224.46"/><polygon class="cls-20" points="48.97 228.65 42.23 224.75 49.09 220.8 55.83 224.69 48.97 228.65"/><polygon class="cls-20" points="56.23 232.84 49.49 228.94 56.35 224.99 63.09 228.88 56.23 232.84"/><polygon class="cls-20" points="63.49 237.03 56.75 233.13 63.6 229.18 70.34 233.07 63.49 237.03"/><polygon class="cls-20" points="70.75 241.22 64.01 237.32 70.86 233.37 77.6 237.26 70.75 241.22"/><polygon class="cls-20" points="78 245.41 71.27 241.51 78.12 237.56 84.86 241.45 78 245.41"/><polygon class="cls-20" points="85.26 249.6 78.52 245.71 85.38 241.75 92.11 245.64 85.26 249.6"/><polygon class="cls-20" points="92.52 253.79 85.78 249.9 92.63 245.94 99.37 249.83 92.52 253.79"/><polygon class="cls-20" points="99.78 257.98 93.04 254.09 99.89 250.13 106.63 254.02 99.78 257.98"/><polygon class="cls-12" points="114.29 266.36 100.29 258.27 107.15 254.32 121.14 262.4 114.29 266.36"/><polygon class="cls-12" points="12.63 216.11 4.08 211.17 10.93 207.22 19.48 212.15 12.63 216.11"/><polygon class="cls-12" points="19.89 220.3 13.15 216.41 20 212.45 26.74 216.34 19.89 220.3"/><polygon class="cls-12" points="27.14 224.49 20.41 220.6 27.26 216.64 34 220.53 27.14 224.49"/><polygon class="cls-20" points="72.36 242.68 70.8 241.78 34.52 220.83 27.66 224.79 63.95 245.74 65.51 246.64 70.69 249.63 77.54 245.67 72.36 242.68"/><polygon class="cls-12" points="77.95 253.82 71.21 249.93 78.06 245.97 84.8 249.86 77.95 253.82"/><polygon class="cls-12" points="85.2 258.01 78.46 254.12 85.32 250.16 92.06 254.05 85.2 258.01"/><polygon class="cls-12" points="92.46 262.2 85.72 258.31 92.58 254.35 99.31 258.24 92.46 262.2"/><polygon class="cls-12" points="150.75 262.07 144.01 258.18 150.87 254.22 157.6 258.11 150.75 262.07"/><polygon class="cls-12" points="143.44 266.29 136.7 262.4 143.55 258.44 150.29 262.33 143.44 266.29"/><polygon class="cls-12" points="99.72 266.39 92.98 262.5 99.83 258.54 106.57 262.43 99.72 266.39"/><polygon class="cls-12" points="121.55 270.55 114.81 266.65 121.66 262.7 128.4 266.59 121.55 270.55"/><polygon class="cls-12" points="106.98 270.58 100.24 266.69 107.09 262.73 113.83 266.62 106.98 270.58"/><polygon class="cls-12" points="114.23 274.77 107.49 270.88 114.35 266.92 121.09 270.81 114.23 274.77"/><polygon class="cls-12" points="121.49 278.96 114.75 275.07 121.61 271.11 128.34 275 121.49 278.96"/><polygon class="cls-12" points="141.57 256.76 127.69 248.75 134.54 244.79 148.42 252.81 141.57 256.76"/><polygon class="cls-22" points="141.57 256.76 140.93 256.39 147.78 252.44 148.42 252.81 141.57 256.76"/><polygon class="cls-22" points="150.75 262.07 150.11 261.7 156.96 257.74 157.6 258.11 150.75 262.07"/><polygon class="cls-22" points="143.44 266.29 142.79 265.92 149.65 261.96 150.29 262.33 143.44 266.29"/><polygon class="cls-22" points="134.25 260.99 133.61 260.62 140.47 256.66 141.11 257.03 134.25 260.99"/><polygon class="cls-22" points="126.94 265.21 126.3 264.84 133.15 260.88 133.79 261.25 126.94 265.21"/><polygon class="cls-22" points="121.55 270.55 120.91 270.18 127.76 266.22 128.4 266.59 121.55 270.55"/><polygon class="cls-22" points="114.23 274.77 113.59 274.4 120.45 270.44 121.09 270.81 114.23 274.77"/><polygon class="cls-22" points="121.49 278.96 120.85 278.59 127.7 274.63 128.34 275 121.49 278.96"/><polygon class="cls-22" points="114.29 266.36 113.65 265.99 120.5 262.03 121.14 262.4 114.29 266.36"/><polygon class="cls-22" points="106.98 270.58 106.33 270.21 113.19 266.25 113.83 266.62 106.98 270.58"/><polygon class="cls-22" points="92.46 262.2 91.82 261.83 98.67 257.87 99.31 258.24 92.46 262.2"/><polygon class="cls-22" points="99.72 266.39 99.08 266.02 105.93 262.06 106.57 262.43 99.72 266.39"/><polygon class="cls-22" points="85.2 258.01 84.56 257.64 91.42 253.68 92.06 254.05 85.2 258.01"/><polygon class="cls-22" points="77.95 253.82 77.31 253.45 84.16 249.49 84.8 249.86 77.95 253.82"/><polygon class="cls-21" points="43.66 208.68 43.01 208.31 49.87 204.35 50.51 204.72 43.66 208.68"/><polygon class="cls-21" points="50.91 212.87 50.27 212.5 57.13 208.54 57.77 208.91 50.91 212.87"/><polygon class="cls-21" points="58.17 217.06 57.53 216.69 64.38 212.73 65.02 213.1 58.17 217.06"/><polygon class="cls-21" points="65.43 221.25 64.79 220.88 71.64 216.92 72.28 217.29 65.43 221.25"/><polygon class="cls-21" points="72.69 225.44 72.04 225.07 78.9 221.11 79.54 221.48 72.69 225.44"/><polygon class="cls-21" points="79.94 229.63 79.3 229.26 86.16 225.3 86.8 225.67 79.94 229.63"/><polygon class="cls-21" points="87.2 233.82 86.56 233.45 93.41 229.49 94.05 229.87 87.2 233.82"/><polygon class="cls-21" points="94.46 238.01 93.82 237.64 100.67 233.69 101.31 234.06 94.46 238.01"/><polygon class="cls-21" points="101.7 242.2 101.06 241.83 107.92 237.87 108.56 238.24 101.7 242.2"/><polygon class="cls-21" points="108.96 246.39 108.32 246.02 115.18 242.06 115.82 242.43 108.96 246.39"/><polygon class="cls-21" points="116.22 250.58 115.58 250.21 122.43 246.25 123.08 246.62 116.22 250.58"/><polygon class="cls-21" points="123.48 254.77 122.84 254.4 129.69 250.44 130.33 250.81 123.48 254.77"/><polygon class="cls-21" points="38.13 213.94 37.49 213.57 44.35 209.61 44.99 209.98 38.13 213.94"/><polygon class="cls-21" points="45.39 218.13 44.75 217.76 51.61 213.8 52.25 214.17 45.39 218.13"/><polygon class="cls-21" points="52.65 222.32 52.01 221.95 58.86 217.99 59.51 218.36 52.65 222.32"/><polygon class="cls-21" points="59.91 226.51 59.27 226.14 66.12 222.18 66.76 222.55 59.91 226.51"/><polygon class="cls-21" points="67.17 230.7 66.52 230.33 73.38 226.37 74.02 226.74 67.17 230.7"/><polygon class="cls-21" points="74.42 234.89 73.78 234.52 80.64 230.56 81.28 230.93 74.42 234.89"/><polygon class="cls-21" points="81.68 239.08 81.04 238.71 87.89 234.75 88.53 235.12 81.68 239.08"/><polygon class="cls-21" points="88.93 243.27 88.29 242.9 95.14 238.94 95.78 239.31 88.93 243.27"/><polygon class="cls-21" points="96.19 247.46 95.54 247.09 102.4 243.13 103.04 243.5 96.19 247.46"/><polygon class="cls-21" points="103.44 251.65 102.8 251.28 109.66 247.32 110.3 247.69 103.44 251.65"/><polygon class="cls-21" points="110.7 255.84 110.06 255.47 116.91 251.51 117.56 251.88 110.7 255.84"/><polygon class="cls-21" points="27.21 216.08 26.57 215.71 33.42 211.75 34.06 212.12 27.21 216.08"/><polygon class="cls-21" points="34.47 220.27 33.83 219.9 40.68 215.94 41.32 216.31 34.47 220.27"/><polygon class="cls-21" points="41.73 224.46 41.09 224.09 47.94 220.13 48.58 220.5 41.73 224.46"/><polygon class="cls-21" points="48.98 228.65 48.34 228.28 55.2 224.32 55.84 224.69 48.98 228.65"/><polygon class="cls-21" points="56.24 232.84 55.6 232.47 62.45 228.51 63.09 228.88 56.24 232.84"/><polygon class="cls-21" points="63.5 237.03 62.86 236.66 69.71 232.7 70.35 233.07 63.5 237.03"/><polygon class="cls-21" points="70.76 241.22 70.11 240.85 76.97 236.89 77.61 237.26 70.76 241.22"/><polygon class="cls-21" points="78 245.41 77.36 245.03 84.22 241.08 84.86 241.45 78 245.41"/><polygon class="cls-21" points="85.26 249.6 84.62 249.22 91.47 245.27 92.11 245.64 85.26 249.6"/><polygon class="cls-21" points="92.52 253.79 91.88 253.41 98.73 249.46 99.37 249.83 92.52 253.79"/><polygon class="cls-21" points="99.78 257.98 99.14 257.61 105.99 253.65 106.63 254.02 99.78 257.98"/><polygon class="cls-21" points="70.69 249.63 70.05 249.26 76.9 245.3 77.54 245.67 70.69 249.63"/><polygon class="cls-22" points="27.14 224.49 26.5 224.12 33.36 220.16 34 220.53 27.14 224.49"/><polygon class="cls-22" points="19.89 220.3 19.25 219.93 26.1 215.97 26.74 216.34 19.89 220.3"/><polygon class="cls-22" points="12.63 216.11 11.99 215.74 18.84 211.78 19.48 212.15 12.63 216.11"/><polygon class="cls-22" points="19.94 211.88 19.3 211.51 26.16 207.56 26.8 207.93 19.94 211.88"/><polygon class="cls-22" points="30.88 209.75 30.24 209.38 37.09 205.42 37.73 205.79 30.88 209.75"/><polygon class="cls-22" points="36.38 204.48 35.74 204.11 42.6 200.16 43.24 200.53 36.38 204.48"/><polygon class="cls-23" points="121.59 281.15 0.29 211.11 0.29 213.98 121.59 283.99 121.59 281.15"/><polygon class="cls-24" points="121.59 281.15 121.59 283.99 161.11 261.2 161.11 258.33 121.59 281.15"/></g><g id="elements"><polygon class="cls-25" points="167.9 184.52 98.04 144.18 98.04 95.06 167.9 135.39 167.9 184.52"/><polygon class="cls-20" points="162.51 178.26 92.65 137.93 92.65 88.8 162.51 129.13 162.51 178.26"/><polygon class="cls-26" points="162.51 135.36 92.65 95.03 92.65 88.8 162.51 129.13 162.51 135.36"/><path class="cls-27" d="M110.48,114.83c0,2.31-1.62,3.25-3.62,2.09a8,8,0,0,1-3.62-6.27c0-2.31,1.62-3.24,3.62-2.09A8,8,0,0,1,110.48,114.83Z"/><path class="cls-12" d="M150.75,139.65l-35.57-20.54a2.8,2.8,0,0,1-1.17-2.24h0c0-.86.52-1.26,1.17-.88l35.57,20.54a2.78,2.78,0,0,1,1.17,2.23h0C151.92,139.62,151.4,140,150.75,139.65Z"/><path class="cls-12" d="M110.48,126.7c0,2.31-1.62,3.25-3.62,2.09a8,8,0,0,1-3.62-6.27c0-2.3,1.62-3.24,3.62-2.09A8,8,0,0,1,110.48,126.7Z"/><path class="cls-12" d="M150.75,151.52,115.18,131a2.78,2.78,0,0,1-1.17-2.24h0c0-.86.52-1.25,1.17-.88l35.57,20.54a2.78,2.78,0,0,1,1.17,2.23h0C151.92,151.5,151.4,151.89,150.75,151.52Z"/><path class="cls-14" d="M110.48,138.58c0,2.3-1.62,3.24-3.62,2.09a8,8,0,0,1-3.62-6.27c0-2.31,1.62-3.25,3.62-2.09A8,8,0,0,1,110.48,138.58Z"/><path class="cls-12" d="M150.75,163.39l-35.57-20.54a2.78,2.78,0,0,1-1.17-2.23h0c0-.87.52-1.26,1.17-.89l35.57,20.54a2.78,2.78,0,0,1,1.17,2.24h0C151.92,163.37,151.4,163.76,150.75,163.39Z"/><polygon class="cls-28" points="162.5 129.12 92.64 88.79 95.46 87.07 165.32 127.41 162.5 129.12"/><polygon class="cls-29" points="165.32 176.53 162.5 178.25 162.5 129.12 165.32 127.41 165.32 176.53"/><polygon class="cls-25" points="302.93 206.9 302.93 212.14 294 201.74 260.6 182.46 260.6 156.53 302.93 180.97 302.93 206.9"/><polygon class="cls-20" points="298.66 201.56 298.66 206.8 289.73 196.41 256.33 177.12 256.33 151.19 298.66 175.63 298.66 201.56"/><polygon class="cls-26" points="298.66 178.92 256.42 154.53 256.42 151.24 298.66 175.63 298.66 178.92"/><path class="cls-12" d="M271.3,173.38c0,1.9-1.33,2.66-3,1.72a6.59,6.59,0,0,1-3-5.15c0-1.9,1.33-2.66,3-1.72A6.59,6.59,0,0,1,271.3,173.38Z"/><path class="cls-12" d="M280.47,178.67c0,1.9-1.33,2.67-3,1.72a6.58,6.58,0,0,1-3-5.15c0-1.9,1.34-2.66,3-1.72A6.59,6.59,0,0,1,280.47,178.67Z"/><path class="cls-12" d="M289.63,184c0,1.9-1.33,2.67-3,1.72a6.57,6.57,0,0,1-3-5.15c0-1.89,1.33-2.66,3-1.72A6.59,6.59,0,0,1,289.63,184Z"/><polygon class="cls-30" points="298.66 175.63 256.33 151.19 258.52 149.86 300.85 174.3 298.66 175.63"/><polygon class="cls-31" points="300.85 205.47 298.66 206.8 298.66 175.63 300.85 174.3 300.85 205.47"/><g class="cls-32"><polygon class="cls-33" points="209.5 214.24 170.16 214.24 240.02 254.57 279.36 254.57 209.5 214.24"/></g><polygon class="cls-20" points="240.02 254.57 170.16 214.24 170.16 165.12 240.02 205.45 240.02 254.57"/><polygon class="cls-26" points="240.02 211.68 170.16 171.35 170.16 165.12 240.02 205.45 240.02 211.68"/><path class="cls-27" d="M176.35,209.12a1.47,1.47,0,0,1-.38-.3,2,2,0,0,1-.61-1.92c.2-.49,4.94-11.93,13.23-11.28,9.44.74,20.2,10.44,23.28,13.4,4.68,4.5,15.14,11.76,21.15,7,.38-.3,1,0,1.49.71s.5,1.5.13,1.79c-6.75,5.36-18.29-2.6-23.44-7.56-2.89-2.78-13-11.91-21.77-12.6-7.47-.59-12.05,10.45-12.1,10.56C177.17,209.3,176.77,209.37,176.35,209.12Z"/><path class="cls-12" d="M211.83,225.34c-5.29-3.06-7.76-7.82-10.15-12.44-1.86-3.58-3.79-7.3-7.2-10.65-7.42-7.3-13.55-2.9-13.61-2.86-.39.29-1.05,0-1.49-.74s-.49-1.49-.11-1.78,7.13-5.16,15.91,3.48c3.95,3.89,6.16,8.14,8.1,11.9,2.37,4.56,4.23,8.16,8.55,10.65,4.66,2.69,6.73-.85,9.36-5.33,1.75-3,3.74-6.4,6.88-8.47.4-.26,1.07.1,1.5.8s.45,1.49.05,1.75c-2.94,1.94-4.86,5.22-6.55,8.11C220.36,224.4,217.79,228.78,211.83,225.34Z"/><path class="cls-14" d="M195.09,219.94l-11.49-6.63a2.33,2.33,0,0,1-1.06-1.83c0-.67.47-.95,1.06-.61l11.49,6.64c6.37,3.67,19.53,5.74,19.53-11.35,0-.67.47-.95,1-.61a2.33,2.33,0,0,1,1.06,1.83C216.73,226.31,202.15,224,195.09,219.94Z"/><polygon class="cls-34" points="240.03 205.51 170.18 165.18 173 163.46 242.85 203.79 240.03 205.51"/><polygon class="cls-35" points="242.85 252.92 240.03 254.63 240.03 205.51 242.85 203.79 242.85 252.92"/><polygon class="cls-25" points="143.28 98.49 73.42 58.16 73.42 9.03 143.28 49.36 143.28 98.49"/><polygon class="cls-36" points="137.39 42.05 67.53 1.72 70.35 0 140.21 40.33 137.39 42.05"/><polygon class="cls-37" points="140.21 89.46 137.39 91.18 137.39 42.05 140.21 40.33 140.21 89.46"/><polygon class="cls-20" points="137.39 91.18 67.53 50.84 67.53 1.72 137.39 42.05 137.39 91.18"/><polygon class="cls-26" points="137.39 48.28 67.53 7.95 67.53 1.72 137.39 42.05 137.39 48.28"/><path class="cls-27" d="M118.88,44.91c-6.44-3.72-11.65-.7-11.65,6.73s5.21,16.46,11.65,20.18,11.65.7,11.65-6.73S125.31,48.62,118.88,44.91Zm0,22.16A16.64,16.64,0,0,1,111.34,54c0-4.81,3.37-6.76,7.54-4.35a16.67,16.67,0,0,1,7.54,13.06C126.42,67.53,123,69.47,118.88,67.07Z"/><path class="cls-12" d="M118.88,44.91v4.75a16.67,16.67,0,0,1,7.54,13.06l4.11,2.37C130.53,57.66,125.31,48.62,118.88,44.91Z"/><path class="cls-14" d="M125.36,57.65a14,14,0,0,1,1.06,5.07l4.11,2.37a21.33,21.33,0,0,0-1.51-7.5Z"/><path class="cls-27" d="M86,26c-6.43-3.72-11.65-.7-11.65,6.73S79.61,49.14,86,52.86s11.65.7,11.65-6.73S92.48,29.67,86,26Zm0,22.16A16.67,16.67,0,0,1,78.5,35.05c0-4.81,3.38-6.75,7.54-4.35a16.67,16.67,0,0,1,7.54,13.06C93.58,48.57,90.2,50.51,86,48.11Z"/><path class="cls-12" d="M86,26V30.7a16.67,16.67,0,0,1,7.54,13.06c0,4.81-3.38,6.75-7.54,4.35A16.67,16.67,0,0,1,78.5,35.05l-4.11-2.37c0,7.43,5.22,16.46,11.65,20.18s11.65.7,11.65-6.73S92.48,29.67,86,26Z"/><path class="cls-14" d="M86,26V30.7a15.33,15.33,0,0,1,5.33,5.63l2.91-1.68A23.86,23.86,0,0,0,86,26Z"/><polygon class="cls-25" points="346.81 188.58 276.95 148.25 276.95 99.12 346.81 139.45 346.81 188.58"/><polygon class="cls-38" points="340.66 131.8 270.8 91.47 273.62 89.75 343.48 130.09 340.66 131.8"/><polygon class="cls-39" points="343.48 179.21 340.66 180.93 340.66 131.8 343.48 130.09 343.48 179.21"/><polygon class="cls-20" points="340.67 180.93 270.81 140.59 270.81 91.47 340.67 131.8 340.67 180.93"/><polygon class="cls-26" points="340.67 138.03 270.81 97.69 270.81 91.47 340.67 131.8 340.67 138.03"/><polygon class="cls-27" points="292.49 145.22 288.97 143.19 288.97 120.44 292.49 122.47 292.49 145.22"/><polygon class="cls-12" points="296 147.25 292.49 145.22 292.49 132.08 296 134.12 296 147.25"/><polygon class="cls-15" points="322.51 162.56 318.99 160.53 318.99 134.25 322.51 136.28 322.51 162.56"/><polygon class="cls-12" points="322.51 162.56 318.99 160.53 318.99 134.25 322.51 136.28 322.51 162.56"/><polygon class="cls-27" points="318.99 160.53 315.47 158.49 315.47 146.3 318.99 148.34 318.99 160.53"/><polygon class="cls-12" points="310.08 155.38 306.56 153.35 306.56 138.58 310.08 140.62 310.08 155.38"/><polygon class="cls-12" points="303.04 151.31 299.52 149.28 299.52 130.19 303.04 132.22 303.04 151.31"/><polygon class="cls-14" points="306.56 153.35 303.04 151.31 303.04 140.89 306.56 142.92 306.56 153.35"/><polygon class="cls-27" points="299.52 149.28 296 147.25 296 140.68 299.52 142.72 299.52 149.28"/><polygon class="cls-40" points="252.14 55.3 182.28 14.96 185.1 13.24 254.96 53.58 252.14 55.3"/><polygon class="cls-41" points="254.96 102.7 252.14 104.42 252.14 55.3 254.96 53.58 254.96 102.7"/><polygon class="cls-25" points="257.89 111.53 188.03 71.2 188.03 22.07 257.89 62.41 257.89 111.53"/><polygon class="cls-20" points="252.14 104.42 182.28 64.08 182.28 14.96 252.14 55.29 252.14 104.42"/><polygon class="cls-26" points="252.14 61.52 182.28 21.19 182.28 14.96 252.14 55.29 252.14 61.52"/><ellipse class="cls-12" cx="217.21" cy="58.88" rx="9.98" ry="17.29" transform="translate(-0.34 116.5) rotate(-30)"/><polygon class="cls-13" points="212.46 65.58 212.46 46.69 226.18 64.06 212.46 65.58"/><polygon class="cls-12" points="243.63 91.4 190.79 60.9 190.79 65.78 243.63 96.28 243.63 91.4"/><polygon class="cls-14" points="202.81 67.84 190.79 60.9 190.79 65.78 202.81 72.71 202.81 67.84"/><ellipse class="cls-12" cx="288.57" cy="67.23" rx="10.04" ry="17.38" transform="translate(5.04 153.3) rotate(-30)"/><path class="cls-13" d="M287.32,74.59a2,2,0,0,1-1.48-1.72c-.33-1.46-.78-2.94-1.13-4.41a2.19,2.19,0,0,0-.8-1.27c-1.09-.94-2.17-1.94-3.26-2.89a1.43,1.43,0,0,1-.58-1.2c0-.9,0-1.85,0-2.72,0-.27.25-.56.45-.5,4.26,1.15,8.53,2.36,12.8,3.56,0,0,.09.06.21.16v12l-5.68-4.86C287.69,72,287.51,73.29,287.32,74.59Z"/><path class="cls-13" d="M295.34,77c-1.15-.84-1.15-.84-1.15-2V64.82c0-1.2,0-1.2,1.15-.72Z"/></g></g></g></g></svg>