<svg xmlns="http://www.w3.org/2000/svg" xmlns:xlink="http://www.w3.org/1999/xlink" width="281.82" height="267.76" viewBox="0 0 281.82 267.76"><defs><style>.cls-1{isolation:isolate;}.cls-19,.cls-2,.cls-20,.cls-21,.cls-22,.cls-23,.cls-24,.cls-25,.cls-26{mix-blend-mode:color-dodge;}.cls-2{fill:url(#Degradado_sin_nombre_1840);}.cls-11,.cls-16,.cls-3,.cls-35,.cls-6{mix-blend-mode:screen;}.cls-3{fill:url(#Degradado_sin_nombre_1843);}.cls-4{fill:url(#Безымянный_градиент_54);}.cls-5{fill:url(#Degradado_sin_nombre_1839);}.cls-6{fill:url(#Degradado_sin_nombre_1843-2);}.cls-7{fill:url(#Безымянный_градиент_54-2);}.cls-8{fill:url(#Безымянный_градиент_21);}.cls-9{fill:url(#Degradado_sin_nombre_1839-2);}.cls-10{fill:url(#Безымянный_градиент_95);}.cls-11{fill:url(#Degradado_sin_nombre_1848);}.cls-12{fill:#1b2062;}.cls-13{fill:url(#Безымянный_градиент_104);}.cls-14{fill:url(#Безымянный_градиент_109);}.cls-15{fill:url(#Безымянный_градиент_95-2);}.cls-16{fill:url(#Degradado_sin_nombre_1848-2);}.cls-17{mix-blend-mode:overlay;}.cls-18{fill:url(#Degradado_sin_nombre_212);}.cls-19{fill:url(#Degradado_sin_nombre_1842);}.cls-20{fill:url(#Degradado_sin_nombre_1842-2);}.cls-22{fill:url(#Degradado_sin_nombre_1841);}.cls-23{fill:url(#Degradado_sin_nombre_1841-2);}.cls-24{fill:url(#Degradado_sin_nombre_1841-3);}.cls-25{fill:url(#Degradado_sin_nombre_1841-4);}.cls-26{fill:url(#Degradado_sin_nombre_1841-5);}.cls-27{fill:url(#Degradado_sin_nombre_1840-2);}.cls-28{fill:url(#Degradado_sin_nombre_1840-3);}.cls-29{fill:url(#Degradado_sin_nombre_1840-4);}.cls-30{fill:url(#Degradado_sin_nombre_1840-5);}.cls-31{fill:url(#Degradado_sin_nombre_1840-6);}.cls-32{fill:url(#Degradado_sin_nombre_1840-7);}.cls-33{fill:url(#Degradado_sin_nombre_1839-3);}.cls-34{fill:url(#Безымянный_градиент_29);}.cls-36{fill:url(#Degradado_sin_nombre_1837);}.cls-37{fill:url(#Degradado_sin_nombre_1837-2);}.cls-38{fill:url(#Безымянный_градиент_25);}.cls-39{fill:url(#Безымянный_градиент_25-2);}.cls-40{fill:url(#Безымянный_градиент_25-3);}.cls-41{fill:url(#Degradado_sin_nombre_1833);}.cls-42{fill:url(#Degradado_sin_nombre_1831);}.cls-43{fill:url(#Degradado_sin_nombre_1831-2);}.cls-44{fill:url(#Degradado_sin_nombre_1832);}.cls-45{fill:url(#Degradado_sin_nombre_1831-3);}.cls-46{fill:#fff;}.cls-47{fill:url(#Degradado_sin_nombre_1831-4);}.cls-48{fill:url(#Degradado_sin_nombre_1831-5);}.cls-49{fill:url(#Degradado_sin_nombre_1831-6);}.cls-50{fill:url(#Degradado_sin_nombre_1831-7);}.cls-51{fill:url(#Degradado_sin_nombre_1831-8);}.cls-52{fill:url(#Degradado_sin_nombre_1831-9);}.cls-53{fill:#ffba25;}</style><linearGradient id="Degradado_sin_nombre_1840" x1="222.97" y1="222.32" x2="-31.12" y2="80.61" gradientUnits="userSpaceOnUse"><stop offset="0" stop-color="#55d1ff"/><stop offset="0.11" stop-color="#4bb8df" stop-opacity="0.88"/><stop offset="0.56" stop-color="#235868" stop-opacity="0.41"/><stop offset="0.86" stop-color="#0b1c1d" stop-opacity="0.12"/><stop offset="1" stop-color="#010400" stop-opacity="0"/></linearGradient><linearGradient id="Degradado_sin_nombre_1843" x1="23.02" y1="167.76" x2="218.46" y2="150.82" gradientUnits="userSpaceOnUse"><stop offset="0.03" stop-color="#fff" stop-opacity="0"/><stop offset="1" stop-color="#4cffd5"/></linearGradient><linearGradient id="Безымянный_градиент_54" x1="228.78" y1="151.11" x2="24.65" y2="166.49" gradientUnits="userSpaceOnUse"><stop offset="0" stop-color="#3a3a3a"/><stop offset="0.66" stop-color="#323a50"/><stop offset="1" stop-color="#2d3a5d"/></linearGradient><linearGradient id="Degradado_sin_nombre_1839" x1="39.11" y1="198.42" x2="231.97" y2="178.2" gradientUnits="userSpaceOnUse"><stop offset="0" stop-color="#0f123b"/><stop offset="0.3" stop-color="#111542"/><stop offset="0.75" stop-color="#171c56"/><stop offset="0.97" stop-color="#1b2062"/></linearGradient><linearGradient id="Degradado_sin_nombre_1843-2" x1="18.51" y1="65.77" x2="140.58" y2="98.93" xlink:href="#Degradado_sin_nombre_1843"/><linearGradient id="Безымянный_градиент_54-2" x1="158.45" y1="102.57" x2="-1.47" y2="61.6" xlink:href="#Безымянный_градиент_54"/><linearGradient id="Безымянный_градиент_21" x1="14.38" y1="118.64" x2="130.84" y2="16.19" gradientUnits="userSpaceOnUse"><stop offset="0" stop-color="#2d3b5e"/><stop offset="0.08" stop-color="#2c3655"/><stop offset="0.26" stop-color="#2a3048"/><stop offset="0.49" stop-color="#292c41"/><stop offset="1" stop-color="#292b3f"/></linearGradient><linearGradient id="Degradado_sin_nombre_1839-2" x1="40.85" y1="148.81" x2="123.02" y2="76.53" xlink:href="#Degradado_sin_nombre_1839"/><linearGradient id="Безымянный_градиент_95" x1="194.72" y1="129.54" x2="5.66" y2="182.82" gradientUnits="userSpaceOnUse"><stop offset="0" stop-color="#c3c3db"/><stop offset="0.06" stop-color="#a8aac4"/><stop offset="0.17" stop-color="#7c829f"/><stop offset="0.27" stop-color="#5a6382"/><stop offset="0.37" stop-color="#414c6d"/><stop offset="0.46" stop-color="#323f60"/><stop offset="0.54" stop-color="#2d3a5c"/><stop offset="1" stop-color="#292b3f"/></linearGradient><linearGradient id="Degradado_sin_nombre_1848" x1="184.13" y1="117.95" x2="21.96" y2="163.66" gradientUnits="userSpaceOnUse"><stop offset="0" stop-color="#4cffd5"/><stop offset="0.97" stop-color="#fff" stop-opacity="0"/></linearGradient><linearGradient id="Безымянный_градиент_104" x1="176.53" y1="122" x2="10.4" y2="203.11" gradientUnits="userSpaceOnUse"><stop offset="0.03" stop-color="#ffba25"/><stop offset="0.84" stop-color="#362d37"/><stop offset="1" stop-color="#0f123b"/></linearGradient><linearGradient id="Безымянный_градиент_109" x1="162.75" y1="120.68" x2="39.82" y2="200.16" gradientUnits="userSpaceOnUse"><stop offset="0" stop-color="#fff"/><stop offset="0.97" stop-color="#fff" stop-opacity="0"/></linearGradient><linearGradient id="Безымянный_градиент_95-2" x1="79" y1="180.87" x2="186.35" y2="169.9" xlink:href="#Безымянный_градиент_95"/><linearGradient id="Degradado_sin_nombre_1848-2" x1="179.26" y1="157.7" x2="129.22" y2="182.89" xlink:href="#Degradado_sin_nombre_1848"/><linearGradient id="Degradado_sin_nombre_212" x1="173.48" y1="-295.18" x2="33.23" y2="-156.2" gradientTransform="translate(-2.07 286.26)" xlink:href="#Безымянный_градиент_109"/><radialGradient id="Degradado_sin_nombre_1842" cx="-2145.68" cy="112.44" r="38.3" gradientTransform="matrix(0.8, -0.53, 0.62, 0.31, 1839.8, -974)" gradientUnits="userSpaceOnUse"><stop offset="0" stop-color="#55d1ff"/><stop offset="0.16" stop-color="#54cefc" stop-opacity="0.99"/><stop offset="0.29" stop-color="#51c6f2" stop-opacity="0.95"/><stop offset="0.41" stop-color="#4bb8e0" stop-opacity="0.88"/><stop offset="0.52" stop-color="#43a5c8" stop-opacity="0.78"/><stop offset="0.63" stop-color="#398ca9" stop-opacity="0.66"/><stop offset="0.74" stop-color="#2c6d82" stop-opacity="0.51"/><stop offset="0.84" stop-color="#1d4854" stop-opacity="0.33"/><stop offset="0.94" stop-color="#0c1f21" stop-opacity="0.13"/><stop offset="1" stop-color="#010400" stop-opacity="0"/></radialGradient><radialGradient id="Degradado_sin_nombre_1842-2" cx="184.42" cy="206.76" r="82.34" gradientTransform="translate(20.58 291.93) rotate(-30.37) scale(1 0.05)" xlink:href="#Degradado_sin_nombre_1842"/><radialGradient id="Degradado_sin_nombre_1841" cx="201.02" cy="197.05" r="3.81" gradientTransform="translate(0 80.98) scale(1 0.59)" gradientUnits="userSpaceOnUse"><stop offset="0" stop-color="#fff"/><stop offset="0.16" stop-color="#fcfcfc" stop-opacity="0.99"/><stop offset="0.29" stop-color="#f2f2f2" stop-opacity="0.95"/><stop offset="0.41" stop-color="#e0e1e0" stop-opacity="0.88"/><stop offset="0.52" stop-color="#c8c9c8" stop-opacity="0.78"/><stop offset="0.63" stop-color="#a9aaa9" stop-opacity="0.66"/><stop offset="0.74" stop-color="#838482" stop-opacity="0.51"/><stop offset="0.84" stop-color="#555754" stop-opacity="0.33"/><stop offset="0.94" stop-color="#222521" stop-opacity="0.13"/><stop offset="1" stop-color="#010400" stop-opacity="0"/></radialGradient><radialGradient id="Degradado_sin_nombre_1841-2" cx="193.14" cy="201.49" r="3.81" gradientTransform="translate(0 82.8) scale(1 0.59)" xlink:href="#Degradado_sin_nombre_1841"/><radialGradient id="Degradado_sin_nombre_1841-3" cx="185.26" cy="205.93" r="3.81" gradientTransform="translate(0 84.63) scale(1 0.59)" xlink:href="#Degradado_sin_nombre_1841"/><radialGradient id="Degradado_sin_nombre_1841-4" cx="177.38" cy="210.37" r="3.81" gradientTransform="translate(0 86.45) scale(1 0.59)" xlink:href="#Degradado_sin_nombre_1841"/><radialGradient id="Degradado_sin_nombre_1841-5" cx="169.5" cy="214.81" r="3.81" gradientTransform="translate(0 88.28) scale(1 0.59)" xlink:href="#Degradado_sin_nombre_1841"/><linearGradient id="Degradado_sin_nombre_1840-2" x1="-2117.17" y1="-233.52" x2="-2212.65" y2="-219.94" gradientTransform="matrix(0.87, -0.5, 1, 0.58, 2287.4, -708.41)" xlink:href="#Degradado_sin_nombre_1840"/><linearGradient id="Degradado_sin_nombre_1840-3" x1="-2115.56" y1="-222.18" x2="-2211.04" y2="-208.6" gradientTransform="matrix(0.87, -0.5, 1, 0.58, 2287.4, -708.41)" xlink:href="#Degradado_sin_nombre_1840"/><linearGradient id="Degradado_sin_nombre_1840-4" x1="-2117.59" y1="-236.46" x2="-2213.08" y2="-222.88" gradientTransform="matrix(0.87, -0.5, 1, 0.58, 2287.4, -708.41)" xlink:href="#Degradado_sin_nombre_1840"/><linearGradient id="Degradado_sin_nombre_1840-5" x1="-2118.53" y1="-243.04" x2="-2214.01" y2="-229.46" gradientTransform="matrix(0.87, -0.5, 1, 0.58, 2287.4, -708.41)" xlink:href="#Degradado_sin_nombre_1840"/><linearGradient id="Degradado_sin_nombre_1840-6" x1="-2117.14" y1="-233.26" x2="-2212.62" y2="-219.68" gradientTransform="matrix(0.87, -0.5, 1, 0.58, 2287.4, -708.41)" xlink:href="#Degradado_sin_nombre_1840"/><linearGradient id="Degradado_sin_nombre_1840-7" x1="-2117.15" y1="-233.37" x2="-2212.63" y2="-219.79" gradientTransform="matrix(0.87, -0.5, 1, 0.58, 2287.4, -708.41)" xlink:href="#Degradado_sin_nombre_1840"/><linearGradient id="Degradado_sin_nombre_1839-3" x1="232.51" y1="220.57" x2="231.15" y2="255.85" xlink:href="#Degradado_sin_nombre_1839"/><linearGradient id="Безымянный_градиент_29" x1="232.51" y1="219.32" x2="231.15" y2="254.6" gradientUnits="userSpaceOnUse"><stop offset="0" stop-color="#fff"/><stop offset="1" stop-color="#e6942a"/></linearGradient><linearGradient id="Degradado_sin_nombre_1837" x1="214.82" y1="223.51" x2="251.72" y2="233.3" gradientUnits="userSpaceOnUse"><stop offset="0" stop-color="#4cffd5"/><stop offset="0.61" stop-color="#b9ffee"/><stop offset="1" stop-color="#fff"/></linearGradient><linearGradient id="Degradado_sin_nombre_1837-2" x1="212.55" y1="232.09" x2="249.44" y2="241.88" xlink:href="#Degradado_sin_nombre_1837"/><linearGradient id="Безымянный_градиент_25" x1="125.83" y1="60.08" x2="48.26" y2="86.1" gradientUnits="userSpaceOnUse"><stop offset="0" stop-color="#fff"/><stop offset="0.1" stop-color="#f7f7f9"/><stop offset="0.26" stop-color="#e0e1e7"/><stop offset="0.45" stop-color="#babdca"/><stop offset="0.68" stop-color="#868ba2"/><stop offset="0.93" stop-color="#444b6f"/><stop offset="1" stop-color="#2f375f"/></linearGradient><linearGradient id="Безымянный_градиент_25-2" x1="76.27" y1="102.38" x2="61.98" y2="85.97" xlink:href="#Безымянный_градиент_25"/><linearGradient id="Безымянный_градиент_25-3" x1="123.9" y1="73.43" x2="83.3" y2="80.46" xlink:href="#Безымянный_градиент_25"/><linearGradient id="Degradado_sin_nombre_1833" x1="118.07" y1="61.25" x2="78.13" y2="90.84" gradientUnits="userSpaceOnUse"><stop offset="0" stop-color="#2b329a"/><stop offset="1" stop-color="#1b2062"/></linearGradient><linearGradient id="Degradado_sin_nombre_1831" x1="189.99" y1="173.55" x2="173.74" y2="142.06" gradientUnits="userSpaceOnUse"><stop offset="0" stop-color="#fff"/><stop offset="1" stop-color="#3074e1"/></linearGradient><linearGradient id="Degradado_sin_nombre_1831-2" x1="174.76" y1="181.4" x2="158.52" y2="149.91" xlink:href="#Degradado_sin_nombre_1831"/><linearGradient id="Degradado_sin_nombre_1832" x1="148.26" y1="182.5" x2="131.27" y2="192.11" gradientUnits="userSpaceOnUse"><stop offset="0" stop-color="#0f123b"/><stop offset="0.17" stop-color="#111442"/><stop offset="0.42" stop-color="#171b56"/><stop offset="0.72" stop-color="#202676"/><stop offset="1" stop-color="#2b329a"/></linearGradient><linearGradient id="Degradado_sin_nombre_1831-3" x1="112.53" y1="90.58" x2="86.17" y2="52.27" xlink:href="#Degradado_sin_nombre_1831"/><linearGradient id="Degradado_sin_nombre_1831-4" x1="138.68" y1="175.62" x2="148.7" y2="195.65" xlink:href="#Degradado_sin_nombre_1831"/><linearGradient id="Degradado_sin_nombre_1831-5" x1="137.6" y1="176.16" x2="147.61" y2="196.19" xlink:href="#Degradado_sin_nombre_1831"/><linearGradient id="Degradado_sin_nombre_1831-6" x1="129.65" y1="180.13" x2="139.66" y2="200.17" xlink:href="#Degradado_sin_nombre_1831"/><linearGradient id="Degradado_sin_nombre_1831-7" x1="141.72" y1="174.1" x2="151.73" y2="194.13" xlink:href="#Degradado_sin_nombre_1831"/><linearGradient id="Degradado_sin_nombre_1831-8" x1="140.71" y1="174.6" x2="150.73" y2="194.64" xlink:href="#Degradado_sin_nombre_1831"/><linearGradient id="Degradado_sin_nombre_1831-9" x1="139.72" y1="175.1" x2="149.74" y2="195.13" xlink:href="#Degradado_sin_nombre_1831"/></defs><title>1Asset 12day2</title><g class="cls-1"><g id="Layer_2" data-name="Layer 2"><g id="Шаги"><path class="cls-2" d="M114,233.29l115.87-67a8,8,0,0,0,0-13.77l-101.1-59a8,8,0,0,0-8,0L4,160.58a8,8,0,0,0,0,13.8l102,58.91A8,8,0,0,0,114,233.29Z"/><path class="cls-3" d="M30.75,172.85l75.83,43.78a6.21,6.21,0,0,0,6.21,0L218,155.86a6.21,6.21,0,0,0,0-10.76l-75.83-43.78a6.21,6.21,0,0,0-6.21,0L30.75,162.09A6.21,6.21,0,0,0,30.75,172.85Z"/><path class="cls-4" d="M109.69,215.38a4.07,4.07,0,0,1-2.07-.56L31.79,171a4.13,4.13,0,0,1,0-7.15L137,103.13a4.09,4.09,0,0,1,4.13,0L217,146.91a4.13,4.13,0,0,1,0,7.15L111.75,214.82A4.06,4.06,0,0,1,109.69,215.38Z"/><path class="cls-5" d="M218,155.86,112.79,216.63a6.21,6.21,0,0,1-6.21,0L30.75,172.85a6.17,6.17,0,0,1-3.11-5.38v5.68a6.17,6.17,0,0,0,3.11,5.39l75.83,43.77a6.21,6.21,0,0,0,6.21,0L218,161.55a6.13,6.13,0,0,0,3.09-5.1h0v-.05a3.23,3.23,0,0,0,0-.44V150.7A6.12,6.12,0,0,1,218,155.86Zm3.09-5.66v0Z"/><path class="cls-6" d="M21.43,156.7V69.14a6.2,6.2,0,0,1,3.11-5.38L129.78,3a6.22,6.22,0,0,1,9.33,5.38V95.94a6.22,6.22,0,0,1-3.11,5.38L30.75,162.09A6.22,6.22,0,0,1,21.43,156.7Z"/><path class="cls-7" d="M27.65,160.84a4.15,4.15,0,0,1-4.14-4.14V69.14a4.12,4.12,0,0,1,2.07-3.57L130.83,4.8a4.05,4.05,0,0,1,2-.56A4.15,4.15,0,0,1,137,8.38V95.94A4.14,4.14,0,0,1,135,99.52L29.71,160.28A4.12,4.12,0,0,1,27.65,160.84Z"/><path class="cls-8" d="M21.43,156.7V69.14a6.2,6.2,0,0,1,3.11-5.38L129.78,3a6.13,6.13,0,0,1,5.32-.42h0l-2.49-1.32a6.17,6.17,0,0,0-6.83-.41L20.53,61.61A6.22,6.22,0,0,0,17.42,67v87.56a6.15,6.15,0,0,0,2.56,5h0l.06,0a6.92,6.92,0,0,0,1.34.72l2.78,1.51A6.15,6.15,0,0,1,21.43,156.7Z"/><path class="cls-9" d="M25.32,162.46l0,0h0Z"/><path class="cls-10" d="M178.8,138.69,88.43,190.87c-3.53,2-9.68,1.78-13.76-.57l-27.2-15.71c-4.07-2.35-4.52-5.9-1-7.94l90.38-52.18c3.52-2,9.68-1.78,13.75.57l27.21,15.71C181.89,133.1,182.33,136.66,178.8,138.69Z"/><path class="cls-11" d="M46.48,167.9l90.38-52.18c3.52-2,9.68-1.78,13.75.57L177.82,132c1.94,1.12,3,2.51,3.3,3.88.36-1.74-.77-3.67-3.3-5.13L150.61,115c-4.07-2.35-10.23-2.6-13.75-.57L46.48,166.65c-1.85,1.07-2.59,2.55-2.31,4.06A4.39,4.39,0,0,1,46.48,167.9Z"/><path class="cls-12" d="M119.42,138.33l-4.79-2.76-4.79,2.76,4.79,2.77ZM110,143.77,105.21,141l-4.79,2.76,4.79,2.77Zm18.84-10.88-4.79-2.76-4.79,2.76,4.79,2.77Zm27.37,2.9,10-5.76-4.79-2.77-10,5.76Zm1.89-10.44-4.8-2.76-4.79,2.76,4.79,2.77Zm-19.83,2.11-4.8-2.77-4.79,2.77,4.79,2.76Zm-37.69,21.75-4.79-2.76L91,149.21,95.79,152ZM149.78,134,67.19,181.65,72,184.42l82.59-47.68ZM91.16,154.65l-4.79-2.77-4.8,2.77,4.8,2.77ZM146,126.8,59.09,177l4.8,2.77,86.9-50.18Zm23.5,5.14L75.28,186.33l4.8,2.77,94.21-54.4ZM72.32,165.53l-4.8-2.77-4.79,2.77,4.79,2.77Zm9.42-5.44L77,157.32l-4.8,2.77,4.8,2.77Z"/><path class="cls-13" d="M119.42,137.5l-4.79-2.77-4.79,2.77,4.79,2.77ZM110,142.94l-4.79-2.77-4.79,2.77,4.79,2.77Zm18.84-10.88-4.79-2.77-4.79,2.77,4.79,2.77Zm27.37,2.9,10-5.77-4.79-2.76-10,5.76Zm1.89-10.44-4.8-2.77-4.79,2.77,4.79,2.77Zm-19.83,2.1-4.8-2.77-4.79,2.77,4.79,2.77Zm-37.69,21.76-4.79-2.77L91,148.38l4.79,2.77Zm49.2-15.24L67.19,180.82,72,183.59l82.59-47.69ZM91.16,153.82l-4.79-2.77-4.8,2.77,4.8,2.77ZM146,126,59.09,176.15l4.8,2.76,86.9-50.17Zm23.5,5.13L75.28,185.5l4.8,2.76,94.21-54.39ZM72.32,164.7l-4.8-2.77-4.79,2.77,4.79,2.76Zm9.42-5.44L77,156.49l-4.8,2.77L77,162Z"/><path class="cls-14" d="M124.05,129.71l4.43,2.56.36-.21-4.79-2.77-4.79,2.77.36.21Zm9.42-5.44,4.43,2.56.37-.21-4.8-2.77-4.79,2.77.36.21Zm-18.84,10.88,4.43,2.56.36-.21-4.79-2.77-4.79,2.77.36.21Zm37.15-2.75,9.62-5.56,4.43,2.56.36-.21-4.79-2.76-10,5.76Zm-46.57,8.19,4.43,2.56.36-.21-4.79-2.77-4.79,2.77.36.21Zm48.09-18.42,4.44,2.56.36-.21-4.8-2.77-4.79,2.77.36.21Zm16.2,8.93L75.28,185.5l.37.2,93.85-54.18,4.43,2.56.36-.21Zm-19.07-2.16.36-.2L146,126,59.09,176.15l.36.2,86.55-50ZM67.52,162.35,72,164.91l.36-.21-4.8-2.77-4.79,2.77.36.21Zm86.69-26.24.36-.21-4.79-2.76L67.19,180.82l.36.21,82.23-47.48ZM77,156.91l4.43,2.56.36-.21L77,156.49l-4.8,2.77.36.21ZM95.79,146l4.43,2.56.36-.21-4.79-2.77L91,148.38l.36.21Zm-9.42,5.44L90.8,154l.36-.21-4.79-2.77-4.8,2.77.36.21Z"/><path class="cls-15" d="M171.41,169.33l-28.16,16.26a7.66,7.66,0,0,1-6.85-.28l-6.19-3.57c-2-1.17-2.23-3-.49-4l28.17-16.26a7.61,7.61,0,0,1,6.84.29l6.19,3.57C172.94,166.54,173.16,168.32,171.41,169.33Z"/><path class="cls-16" d="M129.72,178.62l28.17-16.26a7.64,7.64,0,0,1,6.84.28l6.19,3.57a3.14,3.14,0,0,1,1.6,1.83c.25-.89-.29-1.9-1.6-2.66l-6.19-3.57a7.61,7.61,0,0,0-6.84-.29l-28.17,16.26a1.9,1.9,0,0,0-1.1,2.13A2.17,2.17,0,0,1,129.72,178.62Z"/><g class="cls-17"><path class="cls-18" d="M78.5,35,38.32,155.31,45,151.47,85.16,31.17ZM39.43,57.57,23.51,105.21V156.7a4.15,4.15,0,0,0,4.14,4.14h.12L67.71,41.24ZM132.88,4.24a4.05,4.05,0,0,0-2,.56L95.05,25.46,54.86,145.76l38.27-22.1L133,4.25Zm-30.6,114.14,13.31-7.68L137,46.54V14.38Z"/></g><ellipse class="cls-19" cx="185.26" cy="205.93" rx="48.74" ry="28.14"/><path class="cls-20" d="M86.19,267.76A4.42,4.42,0,0,1,84,259.52L275.2,149.12a4.41,4.41,0,0,1,4.42,7.64L88.39,267.17A4.38,4.38,0,0,1,86.19,267.76Z"/><g class="cls-21"><path class="cls-22" d="M203.74,195.48c1.5.86,1.5,2.27,0,3.14a6.06,6.06,0,0,1-5.44,0c-1.5-.87-1.5-2.28,0-3.14A6,6,0,0,1,203.74,195.48Z"/><path class="cls-23" d="M195.86,199.92c1.5.87,1.5,2.27,0,3.14a6,6,0,0,1-5.44,0c-1.5-.87-1.5-2.27,0-3.14A6,6,0,0,1,195.86,199.92Z"/><path class="cls-24" d="M188,204.36c1.5.87,1.5,2.27,0,3.14a6,6,0,0,1-5.44,0c-1.5-.87-1.5-2.27,0-3.14A6,6,0,0,1,188,204.36Z"/><path class="cls-25" d="M180.1,208.8c1.5.87,1.5,2.28,0,3.14a6,6,0,0,1-5.44,0c-1.5-.86-1.5-2.27,0-3.14A6,6,0,0,1,180.1,208.8Z"/><path class="cls-26" d="M172.22,213.24c1.5.87,1.5,2.28,0,3.15a6.06,6.06,0,0,1-5.44,0c-1.5-.87-1.5-2.28,0-3.15A6.06,6.06,0,0,1,172.22,213.24Z"/></g><g class="cls-21"><path class="cls-27" d="M209,205.56l0,.78c-7.62.11-15.17,1.84-21,5.19l-1-.55c-10.73,6.2-12.46,16-4.11,23.3l1.12-.42a24.47,24.47,0,0,0,3.94,2.78c6.07,3.51,14.08,5.24,22.06,5.19v.79c8.45-.05,16.4-2,22.38-5.43l-.95-.55c12-6.92,12-18.19,0-25.11l.94-.55C226.22,207.35,217.87,205.43,209,205.56Zm22,30.72-1-.54c-5.31,3.07-12.38,4.78-19.89,4.82v.76c-7.75.05-15.52-1.63-21.42-5a23.57,23.57,0,0,1-3.83-2.71l1.11-.42c-7.43-6.49-5.89-15.21,3.66-20.72l-.94-.54c5.63-3.25,13-4.93,20.36-5l0,.76c7.9-.11,15.33,1.6,20.91,4.82l1-.54C242.57,218.61,242.57,229.56,230.93,236.28Z"/><path class="cls-28" d="M210.08,236a29.4,29.4,0,0,0,14.28-3.48l-.84-.48a27.85,27.85,0,0,1-13.46,3.28Z"/><path class="cls-29" d="M224.36,215.68a29.62,29.62,0,0,0-14.7-3.49v.69a28,28,0,0,1,13.87,3.28Z"/><path class="cls-30" d="M192.07,221.64l-1.73-.24.58.08a11.6,11.6,0,0,1,5.16-5.32l-.84-.48a12.32,12.32,0,0,0-5.47,5.64l-1.16-.16a7.58,7.58,0,0,0,.38,6.64l1.7-.3-.57.1a11.14,11.14,0,0,0,2.48,3l1-.38a10.42,10.42,0,0,1-2.34-2.85l1.14-.21A6.35,6.35,0,0,1,192.07,221.64Z"/><path class="cls-31" d="M227.16,214.06c-6-3.45-14.31-4.75-22-3.89l-.24-.71a34.59,34.59,0,0,0-13.31,4.09l.88.51c-9.57,5.53-9.57,14.52,0,20.05l-.88.51a35.21,35.21,0,0,0,14.68,4.22l.17-.74c7.37.59,15.1-.73,20.75-4a19.5,19.5,0,0,0,3.15-2.23l1,.4c5.76-5,5.62-11.75-.36-16.7l-1.05.42A20.28,20.28,0,0,0,227.16,214.06Zm-.63,19.68c-5.44,3.15-12.9,4.42-20,3.85l.19-.78a30.47,30.47,0,0,1-12.66-3.64l-1,.58c-9.23-5.33-9.23-14,0-19.33l1,.58a29.62,29.62,0,0,1,11.48-3.52l-.27-.8c7.46-.83,15.49.42,21.25,3.74a20.34,20.34,0,0,1,2.68,1.87l-1.14.46c5.15,4.27,5.28,10.06.31,14.4l1.18.45A18,18,0,0,1,226.53,233.74Z"/><path class="cls-32" d="M220.57,217.87c-5.95-3.43-15.59-3.43-21.53,0s-5.95,9,0,12.43,15.58,3.43,21.53,0S226.51,221.3,220.57,217.87Z"/></g><path class="cls-33" d="M239.31,237.48c.92.62,9.52,5.6,10.92,6.61,1.22.87,1.51,1.9.61,2.9a6,6,0,0,1-4.57,1.57,7.13,7.13,0,0,1-3.71-1.09c-2.08-1.43-7.77-4.78-9.86-6.2l-.49-.31c-.21.22-.4.4-.56.59-1.53,1.81-3,3.63-4.57,5.44a3.35,3.35,0,0,1-4.81-.73l-3.84-7.89q-3-6.06-5.92-12.13a1.67,1.67,0,0,1-.1-1.67c.52-.92,2-1.34,3.88-1,1.38.28,2.68.67,4,1l29.55,8A3,3,0,0,1,252,234c.31.77-.23,1.32-1.53,1.54l-9.9,1.69Z"/><path class="cls-34" d="M239.31,236.23c.92.62,9.52,5.59,10.92,6.61,1.22.87,1.51,1.9.61,2.9a6,6,0,0,1-4.57,1.57,7.13,7.13,0,0,1-3.71-1.09c-2.08-1.43-7.77-4.78-9.86-6.2l-.49-.31c-.21.22-.4.4-.56.59-1.53,1.81-3,3.63-4.57,5.44a3.35,3.35,0,0,1-4.81-.73l-3.84-7.89q-3-6.06-5.92-12.13a1.67,1.67,0,0,1-.1-1.67c.52-.92,2-1.34,3.88-1,1.38.28,2.68.67,4,1l29.55,8a3,3,0,0,1,2.15,1.37c.31.77-.23,1.32-1.53,1.54l-9.9,1.69C240.17,236,239.79,236.13,239.31,236.23Z"/><g class="cls-35"><path class="cls-36" d="M212.41,224.15c.52-.92,2-1.33,3.88-1,1.38.27,2.68.66,4,1l29.55,8a3.06,3.06,0,0,1,2.1,1.31.86.86,0,0,0,.05-.77,3,3,0,0,0-2.15-1.37l-29.55-8c-1.32-.36-2.62-.75-4-1-1.85-.37-3.36.05-3.88,1a1.39,1.39,0,0,0-.11,1.12A1.15,1.15,0,0,1,212.41,224.15Z"/><path class="cls-37" d="M250.23,242.84c-1.17-.85-7.36-4.46-9.9-6l-1,.2c.92.62,9.52,5.6,10.92,6.61A2.7,2.7,0,0,1,251.3,245C251.54,244.23,251.14,243.49,250.23,242.84Z"/></g><polygon class="cls-38" points="70.21 88.28 120.76 58.98 113.39 54.71 61.97 83.83 70.21 88.28"/><polygon class="cls-39" points="70.21 88.28 70.21 97.72 61.89 93 61.89 83.83 70.21 88.28"/><polygon class="cls-40" points="70.21 97.72 120.76 67.67 120.76 58.98 70.21 88.28 70.21 97.72"/><polygon class="cls-41" points="73.13 89.97 117.84 64.05 117.84 66.01 73.13 92.58 73.13 89.97"/><path class="cls-42" d="M180.69,158l2-1A10.63,10.63,0,0,0,180.69,158Z"/><path class="cls-43" d="M190.91,157.69a9.68,9.68,0,0,0-8.22-.72l-2,1-.11.06-24,13.84L137,183.19a9.73,9.73,0,0,1,9.75,0l14.7,8.49,44.16-25.53Z"/><path class="cls-44" d="M127.18,200.18,151.63,186l-4.88-2.82A9.73,9.73,0,0,0,132,191.71C131.59,198.23,127.18,200.18,127.18,200.18Z"/><path class="cls-45" d="M141.85,78.42,117.29,64.24,73.13,89.77,97.69,104a9.74,9.74,0,0,1,3.59,3.59L145.45,82A9.69,9.69,0,0,0,141.85,78.42Z"/><path class="cls-46" d="M104.08,191.2l44-25.76h0a9.75,9.75,0,0,1-1.34-4.93V86.91a9.75,9.75,0,0,0-1.3-4.87l-44.17,25.5a9.76,9.76,0,0,1,1.31,4.9V186A9.74,9.74,0,0,0,104.08,191.2Z"/><path class="cls-47" d="M141.72,181.9h0Z"/><path class="cls-48" d="M140.48,182h0Z"/><path class="cls-49" d="M137,183.19l19.61-11.33-5-2.86a9.68,9.68,0,0,1-3.57-3.56h0l-44,25.76a9.75,9.75,0,0,0,3.42,3.33l9.83,5.68a9.81,9.81,0,0,0,14.71-8.5,9.7,9.7,0,0,1,5-8.52Z"/><path class="cls-50" d="M146.75,183.22c-.41-.23-.83-.43-1.24-.61C145.92,182.79,146.34,183,146.75,183.22Z"/><path class="cls-51" d="M144.87,182.4c-.21-.07-.41-.15-.62-.2C144.46,182.25,144.66,182.33,144.87,182.4Z"/><path class="cls-52" d="M143.35,182,143,182Z"/><path class="cls-53" d="M126.13,128.13l-17.69,10.21v2.58l17.69-10.21Zm-17.69,24.66,34.61-20v-2.58l-34.61,20Zm0-4.39,34.61-20v-2.58l-34.61,20Zm0-23.21v2.58l34.61-20V105.2Zm0,11.35,34.61-20V114l-34.61,20Zm0-4.39,34.61-20v-2.58l-34.61,20Z"/></g></g></g></svg>