<svg xmlns="http://www.w3.org/2000/svg" xmlns:xlink="http://www.w3.org/1999/xlink" width="235.47" height="268.37" viewBox="0 0 235.47 268.37"><defs><style>.cls-1,.cls-161{fill:none;}.cls-2{fill:url(#Безымянный_градиент_63);}.cls-3{fill:url(#Безымянный_градиент_21);}.cls-4{fill:url(#Безымянный_градиент_21-2);}.cls-5{isolation:isolate;}.cls-110,.cls-6{opacity:0.27;}.cls-100,.cls-121,.cls-158,.cls-6,.cls-81,.cls-84,.cls-85,.cls-86,.cls-87,.cls-88,.cls-89,.cls-90,.cls-91,.cls-92,.cls-93,.cls-94,.cls-95,.cls-96,.cls-97,.cls-99{mix-blend-mode:overlay;}.cls-7{fill:url(#Degradado_sin_nombre_563);}.cls-114,.cls-170,.cls-171,.cls-8{opacity:0.41;}.cls-8{fill:url(#Degradado_sin_nombre_575);}.cls-9{fill:url(#Безымянный_градиент_21-3);}.cls-10{fill:url(#Безымянный_градиент_21-4);}.cls-11{fill:#2d395d;}.cls-12{clip-path:url(#clip-path);}.cls-13{fill:#482e5e;}.cls-14{fill:#4b3061;}.cls-15{fill:#4d3165;}.cls-16{fill:#503368;}.cls-17{fill:#53356c;}.cls-18{fill:#563770;}.cls-19{fill:#583873;}.cls-20{fill:#5b3a77;}.cls-21{fill:#5e3c7a;}.cls-22{fill:#613e7e;}.cls-23{fill:#633f82;}.cls-24{fill:#664185;}.cls-25{fill:#694389;}.cls-26{fill:#6c458c;}.cls-27{fill:#6e4690;}.cls-28{clip-path:url(#clip-path-2);}.cls-29{fill:url(#Безымянный_градиент_21-5);}.cls-30{fill:url(#Безымянный_градиент_21-6);}.cls-31{clip-path:url(#clip-path-3);}.cls-32{fill:url(#Безымянный_градиент_21-8);}.cls-33{fill:url(#Безымянный_градиент_21-9);}.cls-34{fill:url(#Безымянный_градиент_21-10);}.cls-35{fill:url(#Безымянный_градиент_21-11);}.cls-36{fill:url(#Безымянный_градиент_21-12);}.cls-37{fill:url(#Безымянный_градиент_21-13);}.cls-38{fill:url(#Безымянный_градиент_21-14);}.cls-39{fill:url(#Безымянный_градиент_21-15);}.cls-40{fill:url(#Безымянный_градиент_21-16);}.cls-41{fill:url(#Безымянный_градиент_21-17);}.cls-42{fill:url(#Безымянный_градиент_21-18);}.cls-43{fill:url(#Безымянный_градиент_21-19);}.cls-44{fill:url(#Безымянный_градиент_21-20);}.cls-45{fill:url(#Безымянный_градиент_21-21);}.cls-46{fill:url(#Безымянный_градиент_21-22);}.cls-47{fill:url(#Безымянный_градиент_21-23);}.cls-48{fill:url(#Безымянный_градиент_21-24);}.cls-49{fill:url(#Безымянный_градиент_21-25);}.cls-50{fill:url(#Безымянный_градиент_21-26);}.cls-51{fill:url(#Безымянный_градиент_21-27);}.cls-52{fill:url(#Безымянный_градиент_21-28);}.cls-53{fill:url(#Безымянный_градиент_21-29);}.cls-54{fill:url(#Безымянный_градиент_21-30);}.cls-55{fill:url(#Безымянный_градиент_21-31);}.cls-56{fill:url(#Безымянный_градиент_21-32);}.cls-57{fill:url(#Безымянный_градиент_21-33);}.cls-58{fill:url(#Безымянный_градиент_21-34);}.cls-59{fill:url(#Безымянный_градиент_21-35);}.cls-60{fill:url(#Безымянный_градиент_21-36);}.cls-61{fill:url(#Безымянный_градиент_21-37);}.cls-62{fill:url(#Безымянный_градиент_21-38);}.cls-63{fill:url(#Безымянный_градиент_21-39);}.cls-64{fill:url(#Безымянный_градиент_21-40);}.cls-65{fill:url(#Безымянный_градиент_21-41);}.cls-66{fill:url(#Безымянный_градиент_21-42);}.cls-67{fill:#dbdbdb;}.cls-68{fill:url(#Безымянный_градиент_54);}.cls-69{fill:#c3c3db;}.cls-159,.cls-70{fill:#ffba25;}.cls-71{fill:#566281;}.cls-72{fill:#717fa7;}.cls-73{fill:#485475;}.cls-74{fill:#2e395d;}.cls-75{fill:#182447;}.cls-76{fill:#353535;}.cls-77{fill:#ededf9;}.cls-78{fill:#493261;}.cls-79{fill:url(#Безымянный_градиент_69);}.cls-80{clip-path:url(#clip-path-4);}.cls-82{clip-path:url(#clip-path-5);}.cls-83{clip-path:url(#clip-path-6);}.cls-100,.cls-121,.cls-84,.cls-85,.cls-86,.cls-87,.cls-88,.cls-89,.cls-90,.cls-91,.cls-92,.cls-95,.cls-96,.cls-97,.cls-99{opacity:0.56;}.cls-84{fill:url(#Degradado_sin_nombre_568);}.cls-85{fill:url(#Degradado_sin_nombre_568-2);}.cls-86{fill:url(#Degradado_sin_nombre_568-3);}.cls-87{fill:url(#Degradado_sin_nombre_568-4);}.cls-88{fill:url(#Degradado_sin_nombre_568-5);}.cls-89{fill:url(#Degradado_sin_nombre_568-6);}.cls-90{fill:url(#Degradado_sin_nombre_568-7);}.cls-91{fill:url(#Degradado_sin_nombre_568-8);}.cls-92{fill:url(#Degradado_sin_nombre_568-9);}.cls-93{opacity:0.45;}.cls-94{opacity:0.77;fill:url(#Degradado_sin_nombre_574);}.cls-95{fill:url(#Degradado_sin_nombre_568-10);}.cls-96{fill:url(#Degradado_sin_nombre_568-11);}.cls-97{fill:url(#Degradado_sin_nombre_568-12);}.cls-98{fill:#3c2768;}.cls-99{fill:url(#Degradado_sin_nombre_568-13);}.cls-100{fill:url(#Degradado_sin_nombre_568-15);}.cls-101{opacity:0.3;fill:url(#Degradado_sin_nombre_575-2);}.cls-102{opacity:0.81;}.cls-103{fill:url(#Безымянный_градиент_80);}.cls-104{fill:url(#Безымянный_градиент_80-2);}.cls-105{fill:url(#Безымянный_градиент_80-3);}.cls-106{opacity:0.18;fill:url(#Degradado_sin_nombre_575-3);}.cls-107{fill:url(#Безымянный_градиент_77);}.cls-108{fill:url(#Безымянный_градиент_77-2);}.cls-109{fill:url(#Безымянный_градиент_77-3);}.cls-110{fill:url(#Degradado_sin_nombre_575-4);}.cls-111{fill:url(#Безымянный_градиент_74);}.cls-112{fill:url(#Безымянный_градиент_74-2);}.cls-113{fill:url(#Безымянный_градиент_74-3);}.cls-114{fill:url(#Degradado_sin_nombre_575-5);}.cls-115{opacity:0.8;}.cls-116{fill:url(#Безымянный_градиент_54-2);}.cls-117{opacity:0.98;fill:url(#Безымянный_градиент_54-3);}.cls-118{fill:url(#Безымянный_градиент_54-4);}.cls-119{clip-path:url(#clip-path-7);}.cls-120{fill:url(#Безымянный_градиент_63-4);}.cls-122{fill:#2e395e;stroke:#2e395e;stroke-miterlimit:10;}.cls-123{fill:url(#Безымянный_градиент_54-5);}.cls-124{fill:url(#Безымянный_градиент_54-6);}.cls-125{fill:url(#Безымянный_градиент_54-7);}.cls-126{fill:url(#Безымянный_градиент_49);}.cls-127{fill:url(#Безымянный_градиент_49-2);}.cls-128{fill:url(#Безымянный_градиент_49-3);}.cls-129{fill:url(#Безымянный_градиент_49-4);}.cls-130{fill:url(#Безымянный_градиент_49-5);}.cls-131{fill:url(#Безымянный_градиент_49-6);}.cls-132{fill:url(#Безымянный_градиент_54-8);}.cls-133{fill:url(#Безымянный_градиент_49-7);}.cls-134{fill:url(#Безымянный_градиент_49-8);}.cls-135{opacity:0.53;fill:url(#Degradado_sin_nombre_572);}.cls-136{fill:url(#Безымянный_градиент_21-43);}.cls-137{clip-path:url(#clip-path-8);}.cls-138{fill:#9f9f9f;}.cls-139{clip-path:url(#clip-path-9);}.cls-140{clip-path:url(#clip-path-10);}.cls-141{clip-path:url(#clip-path-11);}.cls-142{fill:url(#Degradado_sin_nombre_569);}.cls-143{fill:url(#Безымянный_градиент_21-44);}.cls-144{fill:url(#Безымянный_градиент_54-9);}.cls-145{clip-path:url(#clip-path-12);}.cls-146{fill:url(#Безымянный_градиент_21-45);}.cls-147{clip-path:url(#clip-path-13);}.cls-148{clip-path:url(#clip-path-14);}.cls-149{clip-path:url(#clip-path-15);}.cls-150{clip-path:url(#clip-path-16);}.cls-151{fill:url(#Degradado_sin_nombre_569-2);}.cls-152{fill:url(#Degradado_sin_nombre_569-3);}.cls-153{fill:url(#Безымянный_градиент_54-10);}.cls-154{clip-path:url(#clip-path-17);}.cls-155{fill:url(#Degradado_sin_nombre_571);}.cls-156{opacity:0.95;fill:url(#Безымянный_градиент_45);}.cls-157{fill:url(#Безымянный_градиент_21-46);}.cls-158{fill:url(#Degradado_sin_nombre_564);}.cls-159{mix-blend-mode:multiply;}.cls-160{fill:url(#Безымянный_градиент_54-11);}.cls-161{stroke:#353535;stroke-linecap:round;stroke-linejoin:round;stroke-width:2.26px;}.cls-162{fill:#fff;opacity:0.5;mix-blend-mode:screen;}.cls-163{clip-path:url(#clip-path-18);}.cls-164{fill:url(#Безымянный_градиент_54-12);}.cls-165{clip-path:url(#clip-path-19);}.cls-166{clip-path:url(#clip-path-20);}.cls-167{fill:url(#Безымянный_градиент_21-49);}.cls-168{fill:url(#Безымянный_градиент_54-13);}.cls-169{clip-path:url(#clip-path-21);}.cls-170{fill:url(#Degradado_sin_nombre_567);}.cls-171{fill:url(#Degradado_sin_nombre_567-2);}.cls-172{fill:url(#Безымянный_градиент_49-9);}</style><linearGradient id="Безымянный_градиент_63" x1="64.13" y1="210.77" x2="161.27" y2="210.77" gradientUnits="userSpaceOnUse"><stop offset="0" stop-color="#2d3b5e"/><stop offset="0.04" stop-color="#2c3655"/><stop offset="0.13" stop-color="#2a3048"/><stop offset="0.24" stop-color="#292c41"/><stop offset="0.5" stop-color="#292b3f"/><stop offset="0.76" stop-color="#292c41"/><stop offset="0.87" stop-color="#2a3048"/><stop offset="0.96" stop-color="#2c3655"/><stop offset="1" stop-color="#2d3b5e"/></linearGradient><linearGradient id="Безымянный_градиент_21" x1="230.27" y1="93.63" x2="235.47" y2="93.63" gradientUnits="userSpaceOnUse"><stop offset="0" stop-color="#2d3b5e"/><stop offset="0.08" stop-color="#2c3655"/><stop offset="0.26" stop-color="#2a3048"/><stop offset="0.49" stop-color="#292c41"/><stop offset="1" stop-color="#292b3f"/></linearGradient><linearGradient id="Безымянный_градиент_21-2" x1="125.82" y1="139.97" x2="137.67" y2="139.97" xlink:href="#Безымянный_градиент_21"/><linearGradient id="Degradado_sin_nombre_563" x1="18.91" y1="220.47" x2="184.42" y2="220.47" gradientUnits="userSpaceOnUse"><stop offset="0" stop-color="#380157"/><stop offset="0.27" stop-color="#3c015c"/><stop offset="0.61" stop-color="#46016c"/><stop offset="0.98" stop-color="#560285"/><stop offset="1" stop-color="#570287"/></linearGradient><linearGradient id="Degradado_sin_nombre_575" x1="172" y1="154.05" x2="179.12" y2="145.22" gradientUnits="userSpaceOnUse"><stop offset="0" stop-color="#0c0c24"/><stop offset="0.32" stop-color="#0e0e29" stop-opacity="0.84"/><stop offset="0.73" stop-color="#131337" stop-opacity="0.4"/><stop offset="1" stop-color="#181743" stop-opacity="0"/></linearGradient><linearGradient id="Безымянный_градиент_21-3" x1="175.43" y1="157.11" x2="190.59" y2="157.11" xlink:href="#Безымянный_градиент_21"/><linearGradient id="Безымянный_градиент_21-4" x1="152.08" y1="154.77" x2="175.44" y2="154.77" xlink:href="#Безымянный_градиент_21"/><clipPath id="clip-path"><path class="cls-1" d="M125.72,32.47l2.37-1.38a2,2,0,0,1,2,.2l-2.37,1.38A2,2,0,0,0,125.72,32.47Z"/></clipPath><clipPath id="clip-path-2"><path class="cls-1" d="M234.43,172.85l-2.37,1.38a2,2,0,0,0,.82-1.82l2.37-1.38A2,2,0,0,1,234.43,172.85Z"/></clipPath><linearGradient id="Безымянный_градиент_21-5" x1="232.88" y1="133.9" x2="235.47" y2="133.9" xlink:href="#Безымянный_градиент_21"/><linearGradient id="Безымянный_градиент_21-6" x1="127.74" y1="61.58" x2="232.64" y2="61.58" xlink:href="#Безымянный_градиент_21"/><clipPath id="clip-path-3"><path class="cls-3" d="M230.27,91.87l2.37-1.38a6.24,6.24,0,0,1,2.83,4.9l-2.37,1.38A6.22,6.22,0,0,0,230.27,91.87Z"/></clipPath><linearGradient id="Безымянный_градиент_21-8" x1="230.27" y1="91.19" x2="232.67" y2="91.19" xlink:href="#Безымянный_градиент_21"/><linearGradient id="Безымянный_градиент_21-9" x1="230.3" y1="91.23" x2="232.79" y2="91.23" xlink:href="#Безымянный_градиент_21"/><linearGradient id="Безымянный_градиент_21-10" x1="230.42" y1="91.31" x2="232.91" y2="91.31" xlink:href="#Безымянный_градиент_21"/><linearGradient id="Безымянный_градиент_21-11" x1="230.54" y1="91.39" x2="233.03" y2="91.39" xlink:href="#Безымянный_градиент_21"/><linearGradient id="Безымянный_градиент_21-12" x1="230.66" y1="91.48" x2="233.16" y2="91.48" xlink:href="#Безымянный_градиент_21"/><linearGradient id="Безымянный_градиент_21-13" x1="230.79" y1="91.58" x2="233.28" y2="91.58" xlink:href="#Безымянный_градиент_21"/><linearGradient id="Безымянный_градиент_21-14" x1="230.91" y1="91.69" x2="233.41" y2="91.69" xlink:href="#Безымянный_градиент_21"/><linearGradient id="Безымянный_градиент_21-15" x1="231.04" y1="91.8" x2="233.53" y2="91.8" xlink:href="#Безымянный_градиент_21"/><linearGradient id="Безымянный_градиент_21-16" x1="231.17" y1="91.92" x2="233.65" y2="91.92" xlink:href="#Безымянный_градиент_21"/><linearGradient id="Безымянный_градиент_21-17" x1="231.28" y1="92.04" x2="233.77" y2="92.04" xlink:href="#Безымянный_градиент_21"/><linearGradient id="Безымянный_градиент_21-18" x1="231.4" y1="92.16" x2="233.88" y2="92.16" xlink:href="#Безымянный_градиент_21"/><linearGradient id="Безымянный_градиент_21-19" x1="231.51" y1="92.29" x2="233.99" y2="92.29" xlink:href="#Безымянный_градиент_21"/><linearGradient id="Безымянный_градиент_21-20" x1="231.62" y1="92.42" x2="234.1" y2="92.42" xlink:href="#Безымянный_градиент_21"/><linearGradient id="Безымянный_градиент_21-21" x1="231.73" y1="92.57" x2="234.22" y2="92.57" xlink:href="#Безымянный_градиент_21"/><linearGradient id="Безымянный_градиент_21-22" x1="231.85" y1="92.78" x2="234.4" y2="92.78" xlink:href="#Безымянный_градиент_21"/><linearGradient id="Безымянный_градиент_21-23" x1="232.03" y1="93.07" x2="234.61" y2="93.07" xlink:href="#Безымянный_градиент_21"/><linearGradient id="Безымянный_градиент_21-24" x1="232.25" y1="93.37" x2="234.75" y2="93.37" xlink:href="#Безымянный_градиент_21"/><linearGradient id="Безымянный_градиент_21-25" x1="232.39" y1="93.58" x2="234.84" y2="93.58" xlink:href="#Безымянный_градиент_21"/><linearGradient id="Безымянный_градиент_21-26" x1="232.47" y1="93.73" x2="234.91" y2="93.73" xlink:href="#Безымянный_градиент_21"/><linearGradient id="Безымянный_градиент_21-27" x1="232.55" y1="93.88" x2="234.98" y2="93.88" xlink:href="#Безымянный_градиент_21"/><linearGradient id="Безымянный_градиент_21-28" x1="232.61" y1="94.01" x2="235.03" y2="94.01" xlink:href="#Безымянный_градиент_21"/><linearGradient id="Безымянный_градиент_21-29" x1="232.67" y1="94.15" x2="235.09" y2="94.15" xlink:href="#Безымянный_градиент_21"/><linearGradient id="Безымянный_градиент_21-30" x1="232.72" y1="94.29" x2="235.14" y2="94.29" xlink:href="#Безымянный_градиент_21"/><linearGradient id="Безымянный_градиент_21-31" x1="232.77" y1="94.43" x2="235.19" y2="94.43" xlink:href="#Безымянный_градиент_21"/><linearGradient id="Безымянный_градиент_21-32" x1="232.82" y1="94.58" x2="235.24" y2="94.58" xlink:href="#Безымянный_градиент_21"/><linearGradient id="Безымянный_градиент_21-33" x1="232.87" y1="94.73" x2="235.28" y2="94.73" xlink:href="#Безымянный_градиент_21"/><linearGradient id="Безымянный_градиент_21-34" x1="232.91" y1="94.88" x2="235.32" y2="94.88" xlink:href="#Безымянный_градиент_21"/><linearGradient id="Безымянный_градиент_21-35" x1="232.95" y1="95.03" x2="235.36" y2="95.03" xlink:href="#Безымянный_градиент_21"/><linearGradient id="Безымянный_градиент_21-36" x1="232.99" y1="95.17" x2="235.39" y2="95.17" xlink:href="#Безымянный_градиент_21"/><linearGradient id="Безымянный_градиент_21-37" x1="233.02" y1="95.32" x2="235.41" y2="95.32" xlink:href="#Безымянный_градиент_21"/><linearGradient id="Безымянный_градиент_21-38" x1="233.04" y1="95.46" x2="235.43" y2="95.46" xlink:href="#Безымянный_градиент_21"/><linearGradient id="Безымянный_градиент_21-39" x1="233.06" y1="95.6" x2="235.45" y2="95.6" xlink:href="#Безымянный_градиент_21"/><linearGradient id="Безымянный_градиент_21-40" x1="233.08" y1="95.74" x2="235.46" y2="95.74" xlink:href="#Безымянный_градиент_21"/><linearGradient id="Безымянный_градиент_21-41" x1="233.09" y1="95.88" x2="235.47" y2="95.88" xlink:href="#Безымянный_градиент_21"/><linearGradient id="Безымянный_градиент_21-42" x1="233.1" y1="96.02" x2="235.47" y2="96.02" xlink:href="#Безымянный_градиент_21"/><linearGradient id="Безымянный_градиент_54" x1="127.18" y1="103.35" x2="230.83" y2="103.35" gradientUnits="userSpaceOnUse"><stop offset="0" stop-color="#3a3a3a"/><stop offset="0.66" stop-color="#323a50"/><stop offset="1" stop-color="#2d3a5d"/></linearGradient><linearGradient id="Безымянный_градиент_69" x1="230.37" y1="57.11" x2="162.87" y2="23.11" gradientUnits="userSpaceOnUse"><stop offset="0" stop-color="#ffba25"/><stop offset="1" stop-color="#2d3a5d"/></linearGradient><clipPath id="clip-path-4"><polygon class="cls-1" points="204.69 28.04 204.71 24.27 201.42 22.38 201.41 26.14 204.69 28.04"/></clipPath><clipPath id="clip-path-5"><polygon class="cls-1" points="204.69 43.65 204.71 39.88 201.42 37.99 201.41 41.76 204.69 43.65"/></clipPath><clipPath id="clip-path-6"><polygon class="cls-1" points="204.69 50.27 204.71 46.5 201.42 44.61 201.41 48.37 204.69 50.27"/></clipPath><linearGradient id="Degradado_sin_nombre_568" x1="-845.06" y1="55.1" x2="-844.8" y2="55.1" gradientTransform="matrix(-1, 0, 0, 1, -648.1, 0)" gradientUnits="userSpaceOnUse"><stop offset="0" stop-color="#0f0a26"/><stop offset="0.9" stop-color="#2c1f6e"/></linearGradient><linearGradient id="Degradado_sin_nombre_568-2" x1="-837.87" y1="47.53" x2="-837.62" y2="47.53" xlink:href="#Degradado_sin_nombre_568"/><linearGradient id="Degradado_sin_nombre_568-3" x1="-822.37" y1="38.57" x2="-822.12" y2="38.57" xlink:href="#Degradado_sin_nombre_568"/><linearGradient id="Degradado_sin_nombre_568-4" x1="-816.13" y1="34.97" x2="-815.88" y2="34.97" xlink:href="#Degradado_sin_nombre_568"/><linearGradient id="Degradado_sin_nombre_568-5" x1="-846.57" y1="41.7" x2="-805.7" y2="41.7" xlink:href="#Degradado_sin_nombre_568"/><linearGradient id="Degradado_sin_nombre_568-6" x1="-837.93" y1="29.06" x2="-837.68" y2="29.06" xlink:href="#Degradado_sin_nombre_568"/><linearGradient id="Degradado_sin_nombre_568-7" x1="-822.42" y1="18.41" x2="-822.17" y2="18.41" xlink:href="#Degradado_sin_nombre_568"/><linearGradient id="Degradado_sin_nombre_568-8" x1="-816.18" y1="14.81" x2="-815.93" y2="14.81" xlink:href="#Degradado_sin_nombre_568"/><linearGradient id="Degradado_sin_nombre_568-9" x1="-816.17" y1="21.21" x2="-815.91" y2="21.21" xlink:href="#Degradado_sin_nombre_568"/><linearGradient id="Degradado_sin_nombre_574" x1="-822.41" y1="28.49" x2="-822.13" y2="28.49" gradientTransform="matrix(-1, 0, 0, 1, -648.1, 0)" gradientUnits="userSpaceOnUse"><stop offset="0.01" stop-color="#6a2e9e"/><stop offset="1" stop-color="#2d219c"/></linearGradient><linearGradient id="Degradado_sin_nombre_568-10" x1="-845.12" y1="42" x2="-844.82" y2="42" xlink:href="#Degradado_sin_nombre_568"/><linearGradient id="Degradado_sin_nombre_568-11" x1="-837.93" y1="36.04" x2="-837.68" y2="36.04" xlink:href="#Degradado_sin_nombre_568"/><linearGradient id="Degradado_sin_nombre_568-12" x1="-837.93" y1="42.36" x2="-837.68" y2="42.36" xlink:href="#Degradado_sin_nombre_568"/><linearGradient id="Degradado_sin_nombre_568-13" x1="-822.41" y1="32.17" x2="-822.15" y2="32.17" xlink:href="#Degradado_sin_nombre_568"/><linearGradient id="Degradado_sin_nombre_568-15" x1="-822.43" y1="24.81" x2="-822.17" y2="24.81" xlink:href="#Degradado_sin_nombre_568"/><linearGradient id="Degradado_sin_nombre_575-2" x1="27.94" y1="173.86" x2="34.55" y2="168.05" xlink:href="#Degradado_sin_nombre_575"/><linearGradient id="Безымянный_градиент_80" x1="26.91" y1="173.12" x2="26.91" y2="141.07" gradientUnits="userSpaceOnUse"><stop offset="0" stop-color="#ededf9"/><stop offset="0.15" stop-color="#d7d8e7"/><stop offset="0.46" stop-color="#9ea3b9"/><stop offset="0.9" stop-color="#434f6f"/><stop offset="1" stop-color="#2d3a5d"/></linearGradient><linearGradient id="Безымянный_градиент_80-2" x1="20.15" y1="134.41" x2="19.84" y2="159.21" xlink:href="#Безымянный_градиент_80"/><linearGradient id="Безымянный_градиент_80-3" x1="16.39" y1="134.07" x2="30.49" y2="134.07" xlink:href="#Безымянный_градиент_80"/><linearGradient id="Degradado_sin_nombre_575-3" x1="44.07" y1="166.45" x2="50.68" y2="160.64" xlink:href="#Degradado_sin_nombre_575"/><linearGradient id="Безымянный_градиент_77" x1="43.66" y1="161.64" x2="43.05" y2="116.58" gradientUnits="userSpaceOnUse"><stop offset="0" stop-color="#0f0a26"/><stop offset="0.9" stop-color="#ffba25"/></linearGradient><linearGradient id="Безымянный_градиент_77-2" x1="33.33" y1="113.82" x2="39.08" y2="166.13" xlink:href="#Безымянный_градиент_77"/><linearGradient id="Безымянный_градиент_77-3" x1="32.89" y1="110" x2="46.98" y2="110" xlink:href="#Безымянный_градиент_77"/><linearGradient id="Degradado_sin_nombre_575-4" x1="62.69" y1="154.06" x2="69.3" y2="148.25" xlink:href="#Degradado_sin_nombre_575"/><linearGradient id="Безымянный_градиент_74" x1="61.96" y1="130.18" x2="61.96" y2="154.08" gradientUnits="userSpaceOnUse"><stop offset="0" stop-color="#c3c3db"/><stop offset="1" stop-color="#373a41"/></linearGradient><linearGradient id="Безымянный_градиент_74-2" x1="54.92" y1="150.74" x2="54.92" y2="121.66" xlink:href="#Безымянный_градиент_74"/><linearGradient id="Безымянный_градиент_74-3" x1="51.43" y1="121.59" x2="65.52" y2="121.59" xlink:href="#Безымянный_градиент_74"/><linearGradient id="Degradado_sin_nombre_575-5" x1="11.44" y1="186.13" x2="18.06" y2="180.32" xlink:href="#Degradado_sin_nombre_575"/><linearGradient id="Безымянный_градиент_54-2" x1="10.68" y1="127.76" x2="10.68" y2="179.47" xlink:href="#Безымянный_градиент_54"/><linearGradient id="Безымянный_градиент_54-3" x1="3.63" y1="182.19" x2="3.63" y2="125.72" xlink:href="#Безымянный_градиент_54"/><linearGradient id="Безымянный_градиент_54-4" x1="0.2" y1="118.42" x2="14.29" y2="118.42" xlink:href="#Безымянный_градиент_54"/><clipPath id="clip-path-7"><path class="cls-2" d="M161.27,190.54l0,12.76c0,7.16-4.72,14.3-14.11,19.75-18.9,11-49.65,11-68.67,0-9.57-5.52-14.35-12.78-14.33-20l0-12.77c0,7.24,4.76,14.5,14.33,20,19,11,49.77,11,68.66,0C156.55,204.83,161.25,197.69,161.27,190.54Z"/></clipPath><linearGradient id="Безымянный_градиент_63-4" x1="64.17" y1="190.4" x2="161.27" y2="190.4" gradientTransform="translate(302.8 77.14) rotate(89.84)" xlink:href="#Безымянный_градиент_63"/><linearGradient id="Безымянный_градиент_54-5" x1="148.01" y1="181" x2="156.24" y2="181" xlink:href="#Безымянный_градиент_54"/><linearGradient id="Безымянный_градиент_54-6" x1="77.47" y1="153.86" x2="85.7" y2="153.86" xlink:href="#Безымянный_градиент_54"/><linearGradient id="Безымянный_градиент_54-7" x1="72.56" y1="174.14" x2="80.79" y2="174.14" xlink:href="#Безымянный_градиент_54"/><linearGradient id="Безымянный_градиент_49" x1="79.37" y1="166.74" x2="125.82" y2="166.74" gradientUnits="userSpaceOnUse"><stop offset="0" stop-color="#ffba25"/><stop offset="1" stop-color="#ffaaad"/></linearGradient><linearGradient id="Безымянный_градиент_49-2" x1="103.05" y1="162.84" x2="148.36" y2="162.84" xlink:href="#Безымянный_градиент_49"/><linearGradient id="Безымянный_градиент_49-3" x1="82.42" y1="177.12" x2="101.17" y2="177.12" gradientTransform="translate(152.13 -13.03) rotate(45)" xlink:href="#Безымянный_градиент_49"/><linearGradient id="Безымянный_градиент_49-4" x1="111.47" y1="195.91" x2="113.13" y2="171.78" xlink:href="#Безымянный_градиент_49"/><linearGradient id="Безымянный_градиент_49-5" x1="132.92" y1="193.81" x2="148.47" y2="193.81" xlink:href="#Безымянный_градиент_49"/><linearGradient id="Безымянный_градиент_49-6" x1="128.61" y1="153.86" x2="136.84" y2="153.86" xlink:href="#Безымянный_градиент_49"/><linearGradient id="Безымянный_градиент_54-8" x1="66.84" y1="170.71" x2="78.27" y2="170.71" xlink:href="#Безымянный_градиент_54"/><linearGradient id="Безымянный_градиент_49-7" x1="124.85" y1="180.53" x2="133.08" y2="180.53" xlink:href="#Безымянный_градиент_49"/><linearGradient id="Безымянный_градиент_49-8" x1="127.09" y1="166.74" x2="142.63" y2="166.74" xlink:href="#Безымянный_градиент_49"/><linearGradient id="Degradado_sin_nombre_572" x1="117.14" y1="197.38" x2="117.49" y2="151.48" gradientUnits="userSpaceOnUse"><stop offset="0" stop-color="#fbef4f" stop-opacity="0.8"/><stop offset="0.12" stop-color="#fcf06d" stop-opacity="0.64"/><stop offset="0.27" stop-color="#fcf290" stop-opacity="0.45"/><stop offset="0.43" stop-color="#fdf4ad" stop-opacity="0.29"/><stop offset="0.58" stop-color="#fdf5c4" stop-opacity="0.16"/><stop offset="0.73" stop-color="#fef5d4" stop-opacity="0.07"/><stop offset="0.87" stop-color="#fef6de" stop-opacity="0.02"/><stop offset="1" stop-color="#fef6e1" stop-opacity="0"/></linearGradient><linearGradient id="Безымянный_градиент_21-43" x1="93.08" y1="132.92" x2="99.05" y2="132.92" xlink:href="#Безымянный_градиент_21"/><clipPath id="clip-path-8"><path class="cls-1" d="M97.47,130.28l1.65-1-.07.05-1.65,1Z"/></clipPath><clipPath id="clip-path-9"><path class="cls-1" d="M97.54,130.24l1.65-1-.07,0-1.65,1Z"/></clipPath><clipPath id="clip-path-10"><path class="cls-1" d="M97.61,130.2l1.65-1-.07,0-1.65,1Z"/></clipPath><clipPath id="clip-path-11"><path class="cls-1" d="M97.64,130.18l1.66-1,0,0-1.65,1Z"/></clipPath><linearGradient id="Degradado_sin_nombre_569" x1="101.31" y1="123.82" x2="103.49" y2="123.82" gradientUnits="userSpaceOnUse"><stop offset="0" stop-color="#1d1549"/><stop offset="0.9" stop-color="#412fa3"/></linearGradient><linearGradient id="Безымянный_градиент_21-44" x1="97.21" y1="117.54" x2="103.49" y2="117.54" xlink:href="#Безымянный_градиент_21"/><linearGradient id="Безымянный_градиент_54-9" x1="92.97" y1="127.1" x2="101.84" y2="127.1" xlink:href="#Безымянный_градиент_54"/><clipPath id="clip-path-12"><path class="cls-1" d="M93.08,136.47c-1.23-23.26,8.26-18.41,8.76-18.16l-.53,12-.09-.05-.09-.06c-1.35-.48-1.37-.48-1.38-.48h-.82l-.08,0h-.08l-.07,0-.07,0-.08,0-.07,0-.08,0-.07,0-.07,0-.08,0-.07,0L98,130,98,130l-.07,0-.07,0-.07,0-.07,0-.07,0-.07,0-.07,0-.07.05-.07,0-.07,0-.07.05-.07.06-.07.05-.06,0-.07.06-.07.05-.06.06-.07.06-.07.06-.06.06-.07.06-.06.06-.07.07-.06.06-.07.07-.06.07-.06.06c-.23.26-.45.52-.66.8l-.06.07-.06.09-.06.07,0,.08,0,.08-.06.07-.06.09,0,.08-.06.08,0,.08-.06.09,0,.08,0,.09-.06.08,0,.09-.06.08,0,.09-.05.09,0,.09,0,.08,0,0,0,.05,0,.09-.06.09,0,.09,0,.09,0,.08,0,.05,0,0,0,.05,0,0,0,0,0,0,0,0,0,0,0,0,0,0,0,.09,0,.09,0,.05,0,.09,0,0,0,.09,0,.05,0,.09,0,.09,0,.09,0,0,0,.05,0,.09,0,.1,0,.09,0,.08,0,.08,0,0a1.14,1.14,0,0,0-.06.14Z"/></clipPath><linearGradient id="Безымянный_градиент_21-45" x1="-362.72" y1="132.45" x2="-356.75" y2="132.45" gradientTransform="matrix(-1, 0, 0, 1, -222.7, 0)" xlink:href="#Безымянный_градиент_21"/><clipPath id="clip-path-13"><path class="cls-1" d="M135.64,129.81l-1.66-1,.07.05,1.66,1Z"/></clipPath><clipPath id="clip-path-14"><path class="cls-1" d="M135.57,129.77l-1.66-1,.07,0,1.66,1Z"/></clipPath><clipPath id="clip-path-15"><path class="cls-1" d="M135.5,129.73l-1.66-1,.07,0,1.66,1Z"/></clipPath><clipPath id="clip-path-16"><path class="cls-1" d="M135.46,129.71l-1.65-1,0,0,1.66,1Z"/></clipPath><linearGradient id="Degradado_sin_nombre_569-2" x1="-354.49" y1="123.35" x2="-352.31" y2="123.35" gradientTransform="matrix(-1, 0, 0, 1, -222.7, 0)" xlink:href="#Degradado_sin_nombre_569"/><linearGradient id="Degradado_sin_nombre_569-3" x1="-358.59" y1="117.07" x2="-352.31" y2="117.07" gradientTransform="matrix(-1, 0, 0, 1, -222.7, 0)" xlink:href="#Degradado_sin_nombre_569"/><linearGradient id="Безымянный_градиент_54-10" x1="-362.83" y1="126.63" x2="-353.96" y2="126.63" gradientTransform="matrix(-1, 0, 0, 1, -222.7, 0)" xlink:href="#Безымянный_градиент_54"/><clipPath id="clip-path-17"><path class="cls-1" d="M140,136c1.24-23.26-8.25-18.41-8.75-18.16l.52,12,.09-.05.1-.06c1.34-.48,1.36-.48,1.38-.48h.82l.07,0h.08l.07,0,.08,0,.07,0,.08,0,.07,0,.08,0,.07,0,.07,0,.07,0,.08,0,.07,0,.07,0,.07,0,.07,0,.07,0,.08,0,.07,0,.07,0,.07.05.07,0,.06.05.07,0,.07.05.07.05.07,0,.07.06.06.05.07.06.07.06.06.06.07.06.06.06.07.06.06.07.07.06.06.07.06.07.07.06c.23.26.45.52.66.8l.05.07.06.09.06.07,0,.08.06.08.05.07.06.09.06.08,0,.08.06.08.05.09.06.08,0,.09.05.08.06.09,0,.08.05.09.05.09.06.09.05.08,0,0,0,.05,0,.09.05.09,0,.09.05.09.05.08,0,.05,0,0,0,.05,0,0,0,0,0,0,0,0,0,0,0,0,0,0,0,.09,0,.09,0,.05,0,.09,0,0,0,.09,0,0,0,.09,0,.09,0,.09,0,0,0,.05,0,.09.05.1,0,.09,0,.08,0,.08,0,0,.06.14S140,136,140,136Z"/></clipPath><linearGradient id="Degradado_sin_nombre_571" x1="117.17" y1="191.18" x2="117.17" y2="152.82" gradientUnits="userSpaceOnUse"><stop offset="0" stop-color="#fef6e1"/><stop offset="0.61" stop-color="#fbef4f"/><stop offset="1" stop-color="#ff7c3b"/></linearGradient><linearGradient id="Безымянный_градиент_45" x1="82.01" y1="79" x2="152.43" y2="79" gradientUnits="userSpaceOnUse"><stop offset="0" stop-color="#ffba25"/><stop offset="0.15" stop-color="#ffbb29"/><stop offset="0.29" stop-color="#febe34"/><stop offset="0.43" stop-color="#fcc246"/><stop offset="0.56" stop-color="#fac860"/><stop offset="0.68" stop-color="#f7d081"/><stop offset="0.81" stop-color="#f4daaa"/><stop offset="0.93" stop-color="#f0e6da"/><stop offset="1" stop-color="#ededf9"/></linearGradient><linearGradient id="Безымянный_градиент_21-46" x1="105.95" y1="140.98" x2="128.49" y2="140.98" xlink:href="#Безымянный_градиент_21"/><linearGradient id="Degradado_sin_nombre_564" x1="111.82" y1="122.05" x2="124.33" y2="110.31" gradientUnits="userSpaceOnUse"><stop offset="0" stop-color="#b32a98"/><stop offset="0.22" stop-color="#b62e99"/><stop offset="0.41" stop-color="#be399b"/><stop offset="0.6" stop-color="#cc4ba0"/><stop offset="0.78" stop-color="#e065a6"/><stop offset="0.96" stop-color="#f986ae"/><stop offset="1" stop-color="#ff8eb0"/></linearGradient><linearGradient id="Безымянный_градиент_54-11" x1="101.72" y1="131.58" x2="132.72" y2="131.58" xlink:href="#Безымянный_градиент_54"/><clipPath id="clip-path-18"><path class="cls-4" d="M125.82,126.09l1.65-1c.5.33,10,6.44,10.2,28.73l-1.66,1C135.81,132.52,126.32,126.41,125.82,126.09Z"/></clipPath><linearGradient id="Безымянный_градиент_54-12" x1="125.82" y1="140.45" x2="136.01" y2="140.45" xlink:href="#Безымянный_градиент_54"/><clipPath id="clip-path-19"><path class="cls-1" d="M125.82,126.09c.5.32,10,6.43,10.19,28.72-1.58-.6-1.6-.66-1.62-.73l0-.15,0-.12,0-.07,0-.13,0-.14,0-.09,0-.12,0-.06,0-.14,0-.08,0-.14,0-.13,0-.15,0-.14,0-.14,0-.15-.05-.14,0-.15-.05-.13,0-.15-.05-.14,0-.14,0-.15-.06-.15,0-.15,0-.14-.05-.15-.05-.14,0-.15-.05-.15,0-.15-.06-.14-.05-.15-.05-.15,0-.15-.06-.15-.05-.15-.06-.14,0-.15-.05-.15-.06-.14,0-.15-.06-.15-.06-.14c-.5-1.32-1.05-2.61-1.64-3.8l-.07-.13-.06-.13-.07-.13-.07-.13-.06-.13-.07-.12-.07-.13-.07-.13a.67.67,0,0,0-.06-.12l-.07-.13-.07-.12-.07-.12-.07-.12-.07-.12-.07-.12-.07-.12-.08-.11-.07-.12-.07-.11-.07-.12-.07-.11-.08-.11-.07-.11-.07-.11-.08-.1-.07-.11-.08-.1-.07-.1a11.41,11.41,0,0,0-1.07-1.25l-.07-.07-.08-.07-.07-.07-.08-.07-.08-.07a.26.26,0,0,0-.08-.06l-.83-.58-.12-.07Z"/></clipPath><clipPath id="clip-path-20"><path class="cls-1" d="M111.83,126.09l-1.66-1c-.5.33-10,6.44-10.19,28.73l1.66,1C101.84,132.52,111.33,126.41,111.83,126.09Z"/></clipPath><linearGradient id="Безымянный_градиент_21-49" x1="-485.85" y1="139.97" x2="-474" y2="139.97" gradientTransform="matrix(-1, 0, 0, 1, -374.02, 0)" xlink:href="#Безымянный_градиент_21"/><linearGradient id="Безымянный_градиент_54-13" x1="-485.85" y1="140.45" x2="-475.66" y2="140.45" gradientTransform="matrix(-1, 0, 0, 1, -374.02, 0)" xlink:href="#Безымянный_градиент_54"/><clipPath id="clip-path-21"><path class="cls-1" d="M111.83,126.09c-.5.32-10,6.43-10.19,28.72,1.58-.6,1.6-.66,1.62-.73l0-.15,0-.12,0-.07,0-.13,0-.14,0-.09,0-.12,0-.06,0-.14,0-.08,0-.14,0-.13,0-.15.05-.14,0-.14,0-.15.05-.14,0-.15,0-.13,0-.15,0-.14,0-.14,0-.15,0-.15,0-.15,0-.14.05-.15,0-.14,0-.15,0-.15,0-.15.05-.14.06-.15,0-.15,0-.15,0-.15.06-.15,0-.14.06-.15,0-.15.06-.14,0-.15.06-.15,0-.14c.51-1.32,1.06-2.61,1.65-3.8l.06-.13.07-.13.07-.13.06-.13.07-.13.07-.12.07-.13.06-.13.07-.12.07-.13.07-.12.07-.12.07-.12.07-.12.07-.12.07-.12.07-.11.07-.12.08-.11.07-.12.07-.11.07-.11a.59.59,0,0,0,.08-.11l.07-.11.08-.1.07-.11.07-.1.08-.1a11.41,11.41,0,0,1,1.07-1.25l.07-.07.08-.07.07-.07.08-.07.08-.07a.26.26,0,0,1,.08-.06l.83-.58.12-.07Z"/></clipPath><linearGradient id="Degradado_sin_nombre_567" x1="101.88" y1="53.22" x2="98.14" y2="47.48" gradientUnits="userSpaceOnUse"><stop offset="0" stop-color="#fff" stop-opacity="0.8"/><stop offset="0.13" stop-color="#fffefc" stop-opacity="0.73"/><stop offset="0.37" stop-color="#fffcf5" stop-opacity="0.56"/><stop offset="0.72" stop-color="#fef9eb" stop-opacity="0.28"/><stop offset="1" stop-color="#fef6e1" stop-opacity="0.03"/></linearGradient><linearGradient id="Degradado_sin_nombre_567-2" x1="93.39" y1="66.82" x2="87.74" y2="65.26" xlink:href="#Degradado_sin_nombre_567"/><linearGradient id="Безымянный_градиент_49-9" x1="185.93" y1="181.64" x2="232.85" y2="181.64" gradientTransform="matrix(1, 0.04, -0.04, 1, -89.3, 4.3)" xlink:href="#Безымянный_градиент_49"/></defs><title>1Asset 13day3</title><g class="cls-5"><g id="Layer_2" data-name="Layer 2"><g id="Шаги"><g class="cls-6"><g class="cls-5"><polygon class="cls-7" points="184.42 219.36 99.94 268.37 18.91 221.59 103.39 172.57 184.42 219.36"/></g></g><polygon class="cls-8" points="123.8 127.36 137.09 107.69 235.32 165.2 212.61 178.65 123.8 127.36"/><g class="cls-5"><polygon class="cls-9" points="190.59 151.34 190.59 154.08 175.43 162.88 175.44 160.15 190.59 151.34"/><polygon class="cls-10" points="175.44 160.15 175.43 162.88 152.08 149.4 152.09 146.66 175.44 160.15"/><polygon class="cls-11" points="190.59 151.34 175.44 160.15 152.09 146.66 167.24 137.86 190.59 151.34"/></g><g class="cls-5"><g class="cls-5"><g class="cls-12"><g class="cls-5"><path class="cls-13" d="M125.72,32.47l2.37-1.38.23-.1L126,32.36l-.23.11"/><path class="cls-14" d="M126,32.36,128.32,31l.2-.06-2.37,1.38-.2,0"/><path class="cls-15" d="M126.15,32.31l2.37-1.38.16,0-2.37,1.38-.16,0"/><path class="cls-16" d="M126.31,32.29l2.37-1.38h.15l-2.37,1.38h-.15"/><path class="cls-17" d="M126.46,32.28l2.37-1.38H129l-2.37,1.37h-.13"/><path class="cls-18" d="M126.59,32.28,129,30.91h.13l-2.37,1.38-.13,0"/><path class="cls-19" d="M126.72,32.3l2.37-1.38.12,0-2.37,1.38-.12,0"/><path class="cls-20" d="M126.84,32.32l2.37-1.38.12,0L127,32.34l-.12,0"/><path class="cls-21" d="M127,32.34,129.33,31l.11,0-2.36,1.38-.12,0"/><path class="cls-22" d="M127.08,32.38,129.44,31l.12,0-2.37,1.37-.11,0"/><path class="cls-23" d="M127.19,32.41,129.56,31l.11,0-2.37,1.38-.11-.05"/><path class="cls-24" d="M127.3,32.46l2.37-1.38.12.05-2.37,1.37-.12,0"/><path class="cls-25" d="M127.42,32.5l2.37-1.37.11.05-2.37,1.38-.11-.06"/><path class="cls-26" d="M127.53,32.56l2.37-1.38.12.06-2.37,1.38-.12-.06"/><path class="cls-27" d="M127.65,32.62,130,31.24l.09.05-2.37,1.38-.09-.05"/></g></g></g><g class="cls-5"><g class="cls-28"><g class="cls-5"><polyline class="cls-23" points="232.88 172.41 235.25 171.03 235.25 171.04 232.88 172.42 232.88 172.41"/><path class="cls-22" d="M232.88,172.42l2.37-1.38v.14l-2.37,1.37v-.13"/><path class="cls-21" d="M232.88,172.55l2.37-1.37s0,.09,0,.13l-2.37,1.38a.66.66,0,0,0,0-.14"/><path class="cls-20" d="M232.87,172.69l2.37-1.38c0,.05,0,.09,0,.14l-2.37,1.37s0-.09,0-.13"/><path class="cls-19" d="M232.86,172.82l2.37-1.37a.59.59,0,0,0,0,.13L232.84,173s0-.09,0-.14"/><path class="cls-18" d="M232.84,173l2.37-1.38,0,.14-2.37,1.38,0-.14"/><path class="cls-17" d="M232.81,173.1l2.37-1.38a.83.83,0,0,1,0,.15l-2.37,1.37a.57.57,0,0,0,0-.14"/><path class="cls-16" d="M232.77,173.24l2.37-1.37a.88.88,0,0,1,0,.15l-2.37,1.37a.88.88,0,0,0,.05-.15"/><path class="cls-15" d="M232.72,173.39l2.37-1.37a1.11,1.11,0,0,1-.07.16l-2.36,1.37.06-.16"/><path class="cls-14" d="M232.66,173.55l2.36-1.37a1.14,1.14,0,0,1-.1.19l-2.37,1.38c0-.06.07-.13.11-.2"/><path class="cls-13" d="M232.55,173.75l2.37-1.38a1.4,1.4,0,0,1-.49.48l-2.37,1.38a1.6,1.6,0,0,0,.49-.48"/></g></g></g><polygon class="cls-29" points="233.1 96.77 235.47 95.39 235.25 171.03 232.88 172.41 233.1 96.77"/><polygon class="cls-30" points="127.74 32.67 130.11 31.29 232.64 90.49 230.27 91.87 127.74 32.67"/><path class="cls-3" d="M230.27,91.87l2.37-1.38a6.24,6.24,0,0,1,2.83,4.9l-2.37,1.38A6.22,6.22,0,0,0,230.27,91.87Z"/><g class="cls-31"><g class="cls-5"><path class="cls-32" d="M230.27,91.87l2.37-1.38,0,0-2.37,1.37h0"/><path class="cls-33" d="M230.3,91.88l2.37-1.37.12.07L230.42,92l-.12-.08"/><path class="cls-34" d="M230.42,92l2.37-1.38.12.08L230.54,92l-.12-.08"/><path class="cls-35" d="M230.54,92l2.37-1.38.12.09-2.37,1.37-.12-.08"/><path class="cls-36" d="M230.66,92.12,233,90.75l.13.09-2.37,1.38-.13-.1"/><path class="cls-37" d="M230.79,92.22l2.37-1.38.12.11-2.37,1.37-.12-.1"/><path class="cls-38" d="M230.91,92.32,233.28,91l.13.11L231,92.43l-.13-.11"/><path class="cls-39" d="M231,92.43l2.37-1.37.12.11-2.36,1.38-.13-.12"/><path class="cls-40" d="M231.17,92.55l2.36-1.38.12.12-2.37,1.38-.11-.12"/><path class="cls-41" d="M231.28,92.67l2.37-1.38.12.12-2.37,1.38-.12-.12"/><path class="cls-42" d="M231.4,92.79l2.37-1.38.11.12-2.37,1.38-.11-.12"/><path class="cls-43" d="M231.51,92.91l2.37-1.38.11.13L231.62,93l-.11-.13"/><path class="cls-44" d="M231.62,93,234,91.66l.11.14-2.37,1.37-.11-.13"/><path class="cls-45" d="M231.73,93.17l2.37-1.37.12.16-2.37,1.38-.12-.17"/><path class="cls-46" d="M231.85,93.34,234.22,92l.18.26L232,93.59a1.44,1.44,0,0,0-.18-.25"/><path class="cls-47" d="M232,93.59l2.37-1.37a3,3,0,0,1,.21.33l-2.36,1.38a4,4,0,0,0-.22-.34"/><path class="cls-48" d="M232.25,93.93l2.36-1.38.14.25-2.36,1.38-.14-.25"/><path class="cls-49" d="M232.39,94.18l2.36-1.38.09.17-2.37,1.38c0-.06-.05-.12-.08-.17"/><path class="cls-50" d="M232.47,94.35,234.84,93a1,1,0,0,1,.07.15l-2.36,1.38-.08-.15"/><path class="cls-51" d="M232.55,94.5l2.36-1.38s.05.09.07.14l-2.37,1.37-.06-.13"/><path class="cls-52" d="M232.61,94.63,235,93.26s0,.09.05.13l-2.36,1.38-.06-.14"/><path class="cls-53" d="M232.67,94.77,235,93.39l.06.14-2.37,1.38a.78.78,0,0,1-.05-.14"/><path class="cls-54" d="M232.72,94.91l2.37-1.38,0,.14-2.37,1.38a.58.58,0,0,0-.05-.14"/><path class="cls-55" d="M232.77,95.05l2.37-1.38a1.21,1.21,0,0,1,.05.14l-2.37,1.38a.58.58,0,0,0,0-.14"/><path class="cls-56" d="M232.82,95.19l2.37-1.38s0,.1.05.15l-2.37,1.38a.88.88,0,0,0-.05-.15"/><path class="cls-57" d="M232.87,95.34,235.24,94c0,.05,0,.1,0,.15l-2.37,1.38a.83.83,0,0,0,0-.15"/><path class="cls-58" d="M232.91,95.49l2.37-1.38a.83.83,0,0,1,0,.15L233,95.64a.83.83,0,0,0,0-.15"/><path class="cls-59" d="M233,95.64l2.37-1.38s0,.1,0,.15L233,95.79a.83.83,0,0,0,0-.15"/><path class="cls-60" d="M233,95.79l2.37-1.38,0,.15L233,95.94l0-.15"/><path class="cls-61" d="M233,95.94l2.37-1.38s0,.1,0,.14L233,96.08a.59.59,0,0,0,0-.14"/><path class="cls-62" d="M233,96.08l2.37-1.38a.77.77,0,0,1,0,.15l-2.37,1.37a.78.78,0,0,0,0-.14"/><path class="cls-63" d="M233.06,96.22l2.37-1.37s0,.09,0,.14l-2.37,1.37a.78.78,0,0,0,0-.14"/><path class="cls-64" d="M233.08,96.36,235.45,95s0,.09,0,.13l-2.37,1.38s0-.09,0-.14"/><path class="cls-65" d="M233.09,96.5l2.37-1.38a.61.61,0,0,0,0,.14l-2.37,1.38s0-.09,0-.14"/><path class="cls-66" d="M233.1,96.64l2.37-1.38v.13l-2.37,1.38v-.13"/></g></g><path class="cls-67" d="M230.27,91.87a6.22,6.22,0,0,1,2.83,4.9l-.22,75.64c0,1.8-1.27,2.52-2.84,1.62l-102.53-59.2a6.19,6.19,0,0,1-2.83-4.89l.21-75.65c0-1.8,1.28-2.53,2.85-1.62Z"/></g><polygon class="cls-68" points="230.83 94.87 230.62 171.55 127.18 111.83 127.39 35.15 230.83 94.87"/><polygon class="cls-69" points="189.82 79.28 189.7 120.55 134.04 88.41 134.16 47.15 189.82 79.28"/><path class="cls-70" d="M163.28,91.15l0-.1.09.06Z"/><path class="cls-70" d="M163.51,88.72a2.06,2.06,0,0,1,.58.53,2.66,2.66,0,0,1,.46.94,2,2,0,0,1,0,.41c0,.7-.49,1-1.1.63a.66.66,0,0,1-.17-.12l-.09-.06a2.48,2.48,0,0,1-.83-1.71,1,1,0,0,1,.06-.36.59.59,0,0,1,.5-.41A1,1,0,0,1,163.51,88.72Z"/><polygon class="cls-70" points="181.73 76.55 180 81.06 179.76 78.65 179.7 78.13 179.23 77.77 177.61 76.53 181.73 76.55"/><path class="cls-70" d="M179.7,78.13l.06.52L164.55,90.19a2.66,2.66,0,0,0-.46-.94l15.14-11.48Z"/><path class="cls-70" d="M156.69,73.53a.55.55,0,0,0,.55-.27L163,88.57a.59.59,0,0,0-.5.41Z"/><path class="cls-70" d="M156.27,70.88a2.36,2.36,0,0,1,1.09,1.88.9.9,0,0,1-.12.5.55.55,0,0,1-.55.27,1,1,0,0,1-.42-.15l-.16-.1a2.42,2.42,0,0,1-.64-.77,2.16,2.16,0,0,1-.29-1C155.18,70.81,155.67,70.53,156.27,70.88Z"/><path class="cls-70" d="M136.84,73.33a2,2,0,0,1,.6.54,2.48,2.48,0,0,1,.44.93,2,2,0,0,1,.05.41c0,.69-.49,1-1.09.63A2.43,2.43,0,0,1,135.75,74C135.75,73.26,136.24,73,136.84,73.33Z"/><g class="cls-5"><path class="cls-70" d="M137.44,73.87,142.38,71l5.85,9.83a.58.58,0,0,0-.51.32l-5.33-9-4.51,2.58A2.48,2.48,0,0,0,137.44,73.87Z"/><path class="cls-70" d="M148.72,81a2,2,0,0,1,.33.25,2.52,2.52,0,0,1,.58.85,2.05,2.05,0,0,1,.18.78c0,.69-.5,1-1.1.63a2.4,2.4,0,0,1-1.08-1.88,1,1,0,0,1,.09-.46.58.58,0,0,1,.51-.32A1,1,0,0,1,148.72,81Z"/><path class="cls-70" d="M155.47,72.51a2.42,2.42,0,0,0,.64.77l-6.48,8.84a2.52,2.52,0,0,0-.58-.85Z"/></g><polygon class="cls-71" points="174.44 97.08 174.41 108.72 171.63 107.11 171.66 95.47 174.44 97.08"/><polygon class="cls-72" points="171.67 90.91 171.63 107.11 168.84 105.5 168.89 89.3 171.67 90.91"/><polygon class="cls-73" points="177.24 96.31 177.2 110.32 174.41 108.72 174.45 94.71 177.24 96.31"/><polygon class="cls-74" points="180 104.14 180 105.88 179.96 105.86 179.95 111.91 179.98 111.93 177.2 110.32 177.22 102.53 180 104.14"/><g class="cls-5"><polygon class="cls-75" points="182.75 107.47 182.73 113.52 179.98 111.93 179.95 111.91 179.96 105.86 180 105.88 182.75 107.47"/><polygon class="cls-74" points="185.57 97.09 185.51 115.13 182.73 113.52 182.78 95.49 185.57 97.09"/></g><path class="cls-76" d="M162.31,96.08a1.45,1.45,0,0,1,.66,1.16c0,.49-.3.66-.67.45L135.43,82.17a1.47,1.47,0,0,1-.67-1.16c0-.48.3-.65.67-.44Z"/><path class="cls-76" d="M162.31,99.2a1.43,1.43,0,0,1,.66,1.15c0,.5-.3.67-.67.46L135.43,85.29a1.47,1.47,0,0,1-.67-1.16c0-.49.3-.66.67-.45Z"/><path class="cls-74" d="M173.07,73.13a1.5,1.5,0,0,1,.67,1.16v.27c0,.43-.31.6-.68.39L135.53,53.27a1.47,1.47,0,0,1-.67-1.16v-.26c0-.43.3-.6.67-.39Z"/><path class="cls-69" d="M229.18,103.55a1.45,1.45,0,0,1,.67,1.17V105c0,.43-.3.6-.67.39L191.64,83.7a1.43,1.43,0,0,1-.66-1.16v-.27c0-.42.3-.6.67-.39Z"/><path class="cls-69" d="M229.18,108.31a1.45,1.45,0,0,1,.67,1.17v.26c0,.43-.3.6-.67.39L191.64,88.46A1.45,1.45,0,0,1,191,87.3V87c0-.42.3-.6.67-.39Z"/><path class="cls-70" d="M218.24,114.26a1.5,1.5,0,0,1,.67,1.16c0,.43-.31.6-.67.39L192.41,100.9a1.5,1.5,0,0,1-.67-1.16c0-.43.3-.6.67-.39Z"/><path class="cls-77" d="M218.24,119a1.47,1.47,0,0,1,.67,1.16c0,.42-.31.6-.67.38l-25.83-14.91a1.47,1.47,0,0,1-.67-1.15c0-.43.3-.6.67-.39Z"/><path class="cls-77" d="M218.24,128.69a1.49,1.49,0,0,1,.67,1.16c0,.43-.31.6-.67.39l-25.83-14.91a1.5,1.5,0,0,1-.67-1.16c0-.43.3-.6.67-.39Z"/><path class="cls-77" d="M218.24,133.47a1.47,1.47,0,0,1,.67,1.16c0,.42-.31.6-.67.38L192.41,120.1a1.47,1.47,0,0,1-.67-1.15c0-.43.3-.6.67-.39Z"/><path class="cls-77" d="M226.53,148.11a1.5,1.5,0,0,1,.67,1.16c0,.43-.3.6-.67.39l-32.71-18.89a1.47,1.47,0,0,1-.67-1.16c0-.42.3-.6.67-.38Z"/><path class="cls-77" d="M226.53,152.89a1.47,1.47,0,0,1,.67,1.16c0,.42-.3.59-.67.38l-32.71-18.89a1.47,1.47,0,0,1-.67-1.15c0-.43.3-.6.67-.38Z"/><path class="cls-77" d="M226.53,157.57a1.47,1.47,0,0,1,.67,1.16c0,.42-.3.59-.67.38l-32.71-18.88a1.5,1.5,0,0,1-.67-1.16c0-.43.3-.6.67-.38Z"/><path class="cls-78" d="M143,102.08a10.25,10.25,0,0,1,2.93,2.71c.22.29.28.67.13.84a.31.31,0,0,1-.4,0,.83.83,0,0,1-.26-.24,8,8,0,0,0-2.41-2.22,2.67,2.67,0,0,0-4.39,2.5,9.68,9.68,0,0,0,4.36,7.56,3.14,3.14,0,0,0,3.11.31,3,3,0,0,0,1.29-2.81c0-.31.21-.43.48-.28a1.07,1.07,0,0,1,.47.83c0,3.38-2.4,4.74-5.35,3a11.72,11.72,0,0,1-5.31-9.2C137.62,101.75,140,100.38,143,102.08Z"/><path class="cls-69" d="M159.69,112.13a10.61,10.61,0,0,1,3.35,3.3c.21.31.24.67.07.81a.31.31,0,0,1-.37,0,1,1,0,0,1-.3-.29,8.53,8.53,0,0,0-2.75-2.71,4.29,4.29,0,0,0-1.6-.57c-1.73-.22-2.79,1.07-2.79,3.08a7.19,7.19,0,0,0,.3,2,9.64,9.64,0,0,0,4.06,5.55,4.38,4.38,0,0,0,1.6.58.39.39,0,0,1,.17.06,1.08,1.08,0,0,1,.45.6c.09.34,0,.59-.28.56a5.49,5.49,0,0,1-1.94-.7,11.8,11.8,0,0,1-4.95-6.76,8.94,8.94,0,0,1-.37-2.44c0-2.45,1.31-4,3.41-3.75A5.22,5.22,0,0,1,159.69,112.13Z"/><path class="cls-69" d="M141.11,106.84a1.46,1.46,0,0,1,.49,1c0,.44-.34.55-.8.29a1.5,1.5,0,0,1-.78-1.19c0-.34.18-.45.45-.42a1.27,1.27,0,0,1-.35-.82c0-.45.35-.48.7-.28a1.36,1.36,0,0,1,.69,1.06C141.51,106.74,141.38,106.84,141.11,106.84Zm-.3,1c.28.17.46.09.46-.19s-.13-.48-.5-.84l-.09-.08c-.22,0-.33.11-.33.39a.83.83,0,0,0,.46.72m-.38-2c0,.27.16.46.42.71l.06.06c.2,0,.29-.11.29-.33a.71.71,0,0,0-.38-.62c-.24-.14-.39-.08-.39.18"/><path class="cls-69" d="M142.7,106.5a1.9,1.9,0,0,1,.76,1.8c0,.87-.25,1.21-.76.91a1.9,1.9,0,0,1-.76-1.8C141.94,106.55,142.19,106.21,142.7,106.5Zm0,2.42c.28.17.44,0,.44-.81s-.15-1.16-.44-1.32-.43,0-.44.81.15,1.16.44,1.32"/><path class="cls-69" d="M144.92,108.44c0,.41-.24.53-.56.35a1.18,1.18,0,0,1-.55-1c0-.4.23-.52.55-.34A1.18,1.18,0,0,1,144.92,108.44Zm-.84-.48a.64.64,0,0,0,.28.58c.22.13.28-.05.28-.26a.65.65,0,0,0-.28-.58c-.22-.12-.28,0-.28.26"/><polygon class="cls-69" points="145.75 108.14 145.97 108.43 144.38 110.26 144.16 109.97 145.75 108.14"/><path class="cls-69" d="M145.76,109.66a1.13,1.13,0,0,1,.56,1c0,.41-.24.52-.56.34a1.17,1.17,0,0,1-.56-1C145.21,109.59,145.44,109.47,145.76,109.66Zm0,1.08c.22.13.28,0,.28-.26a.63.63,0,0,0-.28-.58c-.22-.12-.27,0-.27.26a.64.64,0,0,0,.27.58"/><path class="cls-77" d="M158.37,116.93a1.41,1.41,0,0,1,.63,1.2c0,.58-.33.75-.73.52a1.85,1.85,0,0,1-.77-1.72c0-.86.33-1.25.87-.93a1.38,1.38,0,0,1,.47.43l-.12.17a1.29,1.29,0,0,0-.35-.32c-.33-.19-.53.09-.55.68A.42.42,0,0,1,158.37,116.93Zm-.1,1.44c.27.15.41,0,.41-.41a.8.8,0,0,0-.37-.77.35.35,0,0,0-.49.07c0,.58.15.93.45,1.11"/><path class="cls-77" d="M160.09,117a1.93,1.93,0,0,1,.76,1.79c0,.87-.26,1.21-.77.92a1.94,1.94,0,0,1-.76-1.8C159.32,117,159.58,116.69,160.09,117Zm0,2.42c.28.17.44,0,.44-.82s-.15-1.15-.43-1.32-.44,0-.44.82.15,1.16.43,1.32"/><path class="cls-77" d="M163.15,120.14a1.16,1.16,0,0,1,.55,1c0,.41-.24.53-.56.35a1.2,1.2,0,0,1-.55-1C162.59,120.07,162.83,120,163.15,120.14Zm0,1.08c.23.13.28,0,.28-.26a.62.62,0,0,0-.27-.57c-.22-.13-.28,0-.28.25a.63.63,0,0,0,.27.58"/><path class="cls-77" d="M162.3,118.93c0,.4-.23.53-.56.34a1.17,1.17,0,0,1-.55-1c0-.41.24-.53.56-.35A1.18,1.18,0,0,1,162.3,118.93Zm-.83-.49a.67.67,0,0,0,.27.59c.22.13.28,0,.28-.27a.61.61,0,0,0-.27-.57c-.22-.13-.28,0-.28.25"/><polygon class="cls-77" points="163.13 118.62 163.35 118.91 161.76 120.74 161.54 120.45 163.13 118.62"/><path class="cls-69" d="M143,102.36a11.19,11.19,0,0,1,5.08,8.79c0,3.22-2.3,4.53-5.11,2.91a11.22,11.22,0,0,1-5.07-8.79C137.85,102,140.15,100.74,143,102.36Zm0,11.15c2.55,1.47,4.63.29,4.63-2.64a10.16,10.16,0,0,0-4.6-8c-2.54-1.46-4.62-.28-4.63,2.64a10.16,10.16,0,0,0,4.6,8"/><path class="cls-77" d="M160.05,112.58a11.18,11.18,0,0,1,5.07,8.79c0,3.23-2.3,4.54-5.11,2.91a11.21,11.21,0,0,1-5.07-8.79C155,112.26,157.24,111,160.05,112.58Zm0,11.16c2.54,1.47,4.62.28,4.63-2.64a10.17,10.17,0,0,0-4.6-8c-2.55-1.47-4.63-.29-4.64,2.64a10.18,10.18,0,0,0,4.61,8"/><path class="cls-78" d="M171.92,121.6a.84.84,0,0,1,.25.22.78.78,0,0,1,.16.85,3.69,3.69,0,0,0-.65,2.25,7.19,7.19,0,0,0,.3,2,9.68,9.68,0,0,0,4.07,5.55,4.14,4.14,0,0,0,1.59.57.49.49,0,0,1,.17.06,1.1,1.1,0,0,1,.45.61c.09.34,0,.59-.27.55a5.22,5.22,0,0,1-1.94-.69,11.8,11.8,0,0,1-5-6.77,8.53,8.53,0,0,1-.36-2.44,4.48,4.48,0,0,1,.79-2.74C171.61,121.51,171.76,121.51,171.92,121.6Z"/><path class="cls-70" d="M174.06,124.75a1.32,1.32,0,0,1,.68,1.06c0,.33-.19.42-.45.35a1.13,1.13,0,0,1,.52.93c0,.46-.31.63-.78.36a1.83,1.83,0,0,1-.69-.76l.19-.09a1.25,1.25,0,0,0,.49.54c.29.17.46.07.46-.24a.8.8,0,0,0-.46-.74l-.16-.1,0-.25.12.07c.23.13.41.08.42-.23a.76.76,0,0,0-.38-.62.45.45,0,0,0-.47,0l-.17-.31A.65.65,0,0,1,174.06,124.75Z"/><path class="cls-70" d="M176,125.84a1.94,1.94,0,0,1,.76,1.79c0,.88-.26,1.22-.77.92a1.93,1.93,0,0,1-.76-1.8C175.19,125.88,175.44,125.55,176,125.84Zm0,2.42c.29.17.44,0,.44-.82s-.15-1.15-.43-1.31-.44.05-.44.81.15,1.16.43,1.32"/><polygon class="cls-70" points="178.99 127.47 179.21 127.76 177.63 129.6 177.41 129.3 178.99 127.47"/><path class="cls-70" d="M179,129a1.15,1.15,0,0,1,.55,1c0,.4-.23.53-.55.34a1.15,1.15,0,0,1-.56-1C178.45,128.92,178.69,128.81,179,129Zm0,1.07c.22.13.27,0,.27-.26a.62.62,0,0,0-.27-.57c-.22-.12-.28,0-.28.25a.63.63,0,0,0,.28.58"/><path class="cls-70" d="M178.16,127.78c0,.41-.24.53-.56.34a1.17,1.17,0,0,1-.55-1c0-.41.24-.53.56-.34A1.16,1.16,0,0,1,178.16,127.78Zm-.83-.48a.62.62,0,0,0,.27.58c.23.13.28,0,.28-.26a.64.64,0,0,0-.27-.58c-.22-.13-.28,0-.28.26"/><path class="cls-70" d="M176.08,121.43a11.18,11.18,0,0,1,5.07,8.79c0,3.22-2.3,4.53-5.11,2.91a11.22,11.22,0,0,1-5.07-8.79C171,121.11,173.27,119.81,176.08,121.43Zm0,11.15c2.55,1.48,4.63.29,4.64-2.63a10.17,10.17,0,0,0-4.61-8c-2.54-1.47-4.62-.29-4.63,2.64a10.14,10.14,0,0,0,4.6,8"/><polygon class="cls-79" points="167.91 23.04 168.06 23.12 168.06 22.94 173.83 19.02 183.88 32.52 189.21 30.9 194.91 38.89 195.05 48.94 162.04 29.88 162.08 14.48 167.85 23.08 167.91 23.04"/><polygon class="cls-76" points="204.69 28.04 204.71 24.27 201.42 22.38 201.41 26.14 204.69 28.04"/><g class="cls-81"><path class="cls-70" d="M207.13,26.12c-.42-.24-.77-.05-.77.44a1.68,1.68,0,0,0,.77,1.33L213,31.27c.42.24.77.05.77-.44A1.69,1.69,0,0,0,213,29.5Z"/></g><g class="cls-81"><path class="cls-70" d="M207.13,34.47c-.42-.25-.77,0-.77.44a1.69,1.69,0,0,0,.77,1.33L213,39.61c.42.25.77,0,.77-.44a1.69,1.69,0,0,0-.77-1.33Z"/></g><g class="cls-81"><path class="cls-70" d="M207.13,41.9c-.42-.25-.77,0-.77.44a1.69,1.69,0,0,0,.77,1.33L213,47c.42.25.77.05.77-.44a1.67,1.67,0,0,0-.77-1.32Z"/></g><g class="cls-81"><path class="cls-70" d="M207.13,48.35c-.42-.25-.77-.05-.77.44a1.67,1.67,0,0,0,.77,1.32L213,53.49c.42.24.77,0,.77-.44a1.69,1.69,0,0,0-.77-1.33Z"/></g><path class="cls-76" d="M164.46,38c-.27-.16-.5,0-.5.28a1.08,1.08,0,0,0,.5.86l35.37,20.42c.28.16.5,0,.5-.28a1.08,1.08,0,0,0-.49-.85Z"/><path class="cls-76" d="M164.08,40.92c-.27-.16-.49,0-.5.28a1.09,1.09,0,0,0,.5.85l35.37,20.43c.28.16.5,0,.5-.28a1.08,1.08,0,0,0-.5-.86Z"/><polygon class="cls-76" points="204.69 43.65 204.71 39.88 201.42 37.99 201.41 41.76 204.69 43.65"/><polygon class="cls-69" points="204.69 50.27 204.71 46.5 201.42 44.61 201.41 48.37 204.69 50.27"/><polygon class="cls-69" points="204.69 36.04 204.71 32.27 201.42 30.38 201.41 34.15 204.69 36.04"/><polygon class="cls-84" points="196.94 57.56 196.96 52.77 196.72 52.63 196.7 57.42 196.94 57.56"/><polygon class="cls-85" points="189.53 46.58 189.52 48.2 189.52 48.34 189.77 48.48 189.77 48.34 189.77 46.72 189.53 46.58"/><polygon class="cls-86" points="174.02 37.62 174.01 39.24 174.01 39.38 174.26 39.52 174.26 39.38 174.26 37.77 174.02 37.62"/><polygon class="cls-87" points="167.78 34.02 167.78 35.64 167.78 35.78 168.02 35.92 168.02 35.78 168.03 34.16 167.78 34.02"/><polygon class="cls-88" points="157.6 29.76 157.6 30.05 196.72 52.63 196.96 52.77 198.47 53.65 198.47 53.36 196.96 52.49 196.72 52.35 189.77 48.34 189.77 48.48 189.52 48.34 189.52 48.2 174.26 39.38 174.26 39.52 174.01 39.38 174.01 39.24 168.02 35.78 168.02 35.92 167.78 35.78 167.78 35.64 157.6 29.76"/><polygon class="cls-89" points="189.58 28.11 189.57 29.87 189.82 30.01 189.83 28.25 189.58 28.11"/><polygon class="cls-90" points="174.08 17.46 174.07 19.22 174.32 19.36 174.32 17.6 174.08 17.46"/><polygon class="cls-91" points="167.84 13.86 167.83 15.62 168.08 15.76 168.08 14 167.84 13.86"/><polygon class="cls-92" points="168.07 19.44 167.82 19.3 167.81 22.98 167.91 23.04 168.06 23.12 168.06 22.94 168.07 19.44"/><polygon class="cls-76" points="168.04 30.48 168.05 26.8 167.8 26.66 167.79 30.34 168.04 30.48"/><g class="cls-93"><path class="cls-94" d="M174.05,26.58l.25.14V23l-.25-.14m0,11,.25.14V30.41l-.25-.15v3.68"/></g><polygon class="cls-95" points="197.02 31.65 196.78 31.51 196.72 52.35 196.96 52.49 197.02 31.65"/><polygon class="cls-96" points="189.58 34.05 189.57 37.88 189.82 38.03 189.83 34.19 189.58 34.05"/><polygon class="cls-97" points="189.58 40.37 189.57 44.21 189.82 44.35 189.83 40.52 189.58 40.37"/><g class="cls-81"><polygon class="cls-98" points="164.48 0 164.45 9.38 172.61 14.09 172.64 4.71 164.48 0"/></g><polygon class="cls-99" points="174.31 30.41 174.06 30.26 174.05 33.94 174.15 34 174.3 34.08 174.3 33.9 174.31 30.41"/><polygon class="cls-99" points="174.31 30.41 174.06 30.26 174.05 33.94 174.15 34 174.3 34.08 174.3 33.9 174.31 30.41"/><polygon class="cls-100" points="174.32 23.04 174.08 22.9 174.07 26.58 174.17 26.64 174.31 26.72 174.31 26.54 174.32 23.04"/><polygon class="cls-100" points="174.32 23.04 174.08 22.9 174.07 26.58 174.17 26.64 174.31 26.72 174.31 26.54 174.32 23.04"/><polygon class="cls-101" points="23.66 171 30.62 165 38.96 170.8 30.59 175.54 23.66 171"/><g class="cls-102"><g class="cls-5"><polygon class="cls-103" points="30.49 134.07 30.37 176.4 23.34 180.48 23.46 138.15 30.49 134.07"/><polygon class="cls-104" points="23.46 138.15 23.34 180.48 16.27 176.4 16.39 134.07 23.46 138.15"/><polygon class="cls-105" points="30.49 134.07 23.46 138.15 16.39 134.07 23.42 129.99 30.49 134.07"/></g></g><polygon class="cls-106" points="39.79 163.58 46.76 157.58 55.09 163.39 46.73 168.13 39.79 163.58"/><g class="cls-102"><g class="cls-5"><polygon class="cls-107" points="46.98 110 46.81 168.28 39.79 172.36 39.96 114.08 46.98 110"/><polygon class="cls-108" points="39.96 114.08 39.79 172.36 32.72 168.28 32.89 110 39.96 114.08"/><polygon class="cls-109" points="46.98 110 39.96 114.08 32.89 110 39.91 105.92 46.98 110"/></g></g><polygon class="cls-110" points="58.41 151.2 65.37 145.19 73.71 151 65.34 155.74 58.41 151.2"/><g class="cls-102"><g class="cls-5"><polygon class="cls-111" points="65.52 121.58 65.43 155.58 58.41 159.66 58.5 125.67 65.52 121.58"/><polygon class="cls-112" points="58.5 125.67 58.41 159.66 51.34 155.58 51.43 121.58 58.5 125.67"/><polygon class="cls-113" points="65.52 121.58 58.5 125.67 51.43 121.58 58.46 117.5 65.52 121.58"/></g></g><polygon class="cls-114" points="7.16 183.26 14.13 177.26 22.46 183.07 14.1 187.81 7.16 183.26"/><g class="cls-115"><g class="cls-5"><polygon class="cls-116" points="14.29 118.42 14.1 187.81 7.07 191.89 7.27 122.51 14.29 118.42"/><polygon class="cls-117" points="7.27 122.51 7.07 191.89 0 187.81 0.2 118.42 7.27 122.51"/><polygon class="cls-118" points="14.29 118.42 7.27 122.51 0.2 118.42 7.22 114.34 14.29 118.42"/></g></g><g class="cls-81"><g class="cls-5"><path class="cls-2" d="M161.27,190.54l0,12.76c0,7.16-4.72,14.3-14.11,19.75-18.9,11-49.65,11-68.67,0-9.57-5.52-14.35-12.78-14.33-20l0-12.77c0,7.24,4.76,14.5,14.33,20,19,11,49.77,11,68.66,0C156.55,204.83,161.25,197.69,161.27,190.54Z"/><g class="cls-119"><g class="cls-81"><path class="cls-2" d="M161.27,191a17.67,17.67,0,0,1-.32,2.79,18,18,0,0,1-.79,2.73,19.65,19.65,0,0,1-1.29,2.76,22.74,22.74,0,0,1-2,2.91,29.06,29.06,0,0,1-3,3.23,37.92,37.92,0,0,1-6.15,4.56l-.6.35A54.38,54.38,0,0,1,136.53,215a69.74,69.74,0,0,1-9.19,2.29c-2,.37-4.11.65-6.2.86-1.78.18-3.58.3-5.38.36s-3.32.07-5,0-3.19-.12-4.78-.25-3.16-.31-4.72-.53-3.23-.51-4.82-.84-3.41-.77-5.06-1.24a61,61,0,0,1-5.9-2,53.15,53.15,0,0,1-7-3.35c-9.57-5.53-14.35-12.79-14.33-20l0,12.77c0,7.24,4.76,14.5,14.33,20a52.08,52.08,0,0,0,7,3.36c1.9.75,3.87,1.41,5.89,2q2.49.71,5.07,1.24c1.58.33,3.19.61,4.81.84s3.14.4,4.72.53,3.19.21,4.79.25,3.31,0,5,0,3.6-.18,5.39-.36c2.09-.21,4.16-.5,6.19-.86a70.54,70.54,0,0,0,9.19-2.29,55.1,55.1,0,0,0,10.64-4.68l.59-.35a37.45,37.45,0,0,0,6.15-4.55,28.21,28.21,0,0,0,3-3.24,22.31,22.31,0,0,0,2-2.9,19.14,19.14,0,0,0,1.3-2.76,17.19,17.19,0,0,0,.78-2.73,16.57,16.57,0,0,0,.32-2.79c0-.14,0-.28,0-.43l0-12.76Z"/></g></g><ellipse class="cls-120" cx="112.72" cy="190.4" rx="28.12" ry="48.55" transform="translate(-78 302.58) rotate(-89.84)"/></g></g><g class="cls-121"><g class="cls-5"><polygon class="cls-122" points="203.39 197.25 109.91 252.93 28.88 206.15 122.36 150.47 203.39 197.25"/></g></g><path class="cls-123" d="M156.24,181a4.12,4.12,0,1,1-4.11-4.11A4.12,4.12,0,0,1,156.24,181Z"/><path class="cls-124" d="M85.7,153.86a4.12,4.12,0,1,1-4.12-4.12A4.11,4.11,0,0,1,85.7,153.86Z"/><path class="cls-125" d="M80.79,174.14A4.12,4.12,0,1,1,76.67,170,4.12,4.12,0,0,1,80.79,174.14Z"/><path class="cls-126" d="M84.61,171.66A5.83,5.83,0,1,0,94,176.58a5.91,5.91,0,0,0-.23-1.94,6.43,6.43,0,0,0,8.23-.8,5.78,5.78,0,0,0,4.41,2.4,6,6,0,0,0,1.65-.15,5.64,5.64,0,0,0-.25,1.44,5.83,5.83,0,0,0,11.64.59,5.91,5.91,0,0,0-.2-1.84,9.47,9.47,0,1,0-8.17-16.88,7.23,7.23,0,0,0,.14-1.15,8,8,0,0,0-15.86-1.94,9.47,9.47,0,1,0-10.74,15.35Zm18.48-5.81-.19.15c0-.05-.07-.1-.1-.16h.29Z"/><path class="cls-127" d="M108.17,167.64a5.68,5.68,0,1,0,9.14,4.79,5.34,5.34,0,0,0-.22-1.88,6.39,6.39,0,0,0,3.23,1.09,6.29,6.29,0,0,0,4.8-1.88,5.66,5.66,0,0,0,4.3,2.34A5.35,5.35,0,0,0,131,172a6,6,0,0,0-.25,1.41,5.69,5.69,0,1,0,11.16-1.22,9.23,9.23,0,1,0-8-16.46,8.36,8.36,0,0,0,.14-1.12,7.82,7.82,0,0,0-15.48-1.9,9.24,9.24,0,1,0-10.47,15Zm18-5.67-.18.15c0-.06-.07-.11-.1-.16h.28Z"/><circle class="cls-128" cx="91.79" cy="177.12" r="9.37" transform="translate(-98.36 116.79) rotate(-45)"/><path class="cls-129" d="M133.78,174.29a7.09,7.09,0,1,0-11.69-5.39,7.16,7.16,0,0,0,.39,2.33,7.82,7.82,0,0,0-9.94,1.49,7.07,7.07,0,0,0-5.51-2.64,7,7,0,0,0-2,.29,6.79,6.79,0,0,0,.22-1.76,7.09,7.09,0,1,0-13.82,2.22,11.52,11.52,0,1,0,11,20,10.85,10.85,0,0,0-.1,1.4,9.75,9.75,0,0,0,19.4,1.37,11.51,11.51,0,0,0,19-8.75A11.53,11.53,0,0,0,133.78,174.29ZM111.7,182.5l.22-.2.13.19h-.35Z"/><circle class="cls-130" cx="140.7" cy="193.81" r="7.77"/><path class="cls-131" d="M136.84,153.86a4.12,4.12,0,1,1-4.12-4.12A4.12,4.12,0,0,1,136.84,153.86Z"/><path class="cls-132" d="M78.27,170.71A5.72,5.72,0,1,1,72.56,165,5.72,5.72,0,0,1,78.27,170.71Z"/><path class="cls-133" d="M133.08,180.53a4.12,4.12,0,1,1-4.12-4.12A4.11,4.11,0,0,1,133.08,180.53Z"/><circle class="cls-134" cx="134.86" cy="166.74" r="7.77"/><path class="cls-135" d="M129,186.73c0,3.82-2.35,12.81-12.21,12.81s-11.27-9-11.27-12.81,1.41-34.17,11.27-34.17S129,182.9,129,186.73Z"/><g class="cls-5"><path class="cls-136" d="M99.05,129.37l-1.65,1-.07,0-.07,0-.07.05-.07.06-.07.05-.06,0-.07.06-.07.05-.06.06-.07.06-.07.06-.06.06-.07.06-.06.06-.07.07-.06.06-.07.07-.06.07-.06.06c-.23.26-.45.52-.66.8l-.06.07-.06.09-.06.07,0,.08,0,.08-.06.07-.06.09,0,.08-.06.08,0,.08-.06.09,0,.08,0,.09-.06.08,0,.09-.06.08,0,.09-.05.09,0,.09,0,.08,0,0,0,.05,0,.09-.06.09,0,.09,0,.09,0,.08,0,.05,0,0,0,.05,0,0,0,0,0,0,0,0,0,0,0,0,0,0,0,.09,0,.09,0,.05,0,.09,0,0,0,.09,0,.05,0,.09,0,.09,0,.09,0,0,0,.05v0l0,.07,0,.1,0,.09,0,.08,0,.08,0,0a1.14,1.14,0,0,0-.06.14l-.06.13,1.66-1,.05-.13.06-.13,0,0,0-.08,0-.08,0-.09.05-.1v0l0,0,0,0,0,0,0-.09,0-.09,0-.09,0-.05,0-.09,0,0,0-.08,0,0,0-.09,0-.09,0-.05,0,0,0-.05,0,0,0-.05,0,0,0,0,0,0,0,0,0-.05.05-.09,0-.09,0-.08,0-.09,0-.09,0,0,0,0,0-.09,0-.08.06-.09,0-.09,0-.08.06-.09,0-.09h0l0-.08.06-.08,0-.09.06-.08.05-.08.06-.09.06-.08,0-.08.06-.07,0-.08.06-.08.06-.08,0-.07c.21-.28.43-.54.66-.8l.07-.07.06-.06.06-.07.07-.06.06-.07.07-.06.06-.06.07-.07.06,0,.07-.06.07-.06.06-.06.07-.05.07,0,.07-.06.07-.05.06,0,.07-.05h0l0,0Z"/><g class="cls-5"><g class="cls-137"><g class="cls-5"><path class="cls-138" d="M97.47,130.28l1.65-1-.07.05-1.65,1,.07-.05"/></g></g></g><g class="cls-5"><g class="cls-139"><g class="cls-5"><path class="cls-138" d="M97.54,130.24l1.65-1-.07,0-1.65,1,.07,0"/></g></g></g><g class="cls-5"><g class="cls-140"><g class="cls-5"><path class="cls-138" d="M97.61,130.2l1.65-1-.07,0-1.65,1,.07,0"/></g></g></g><g class="cls-5"><g class="cls-141"><g class="cls-5"><path class="cls-138" d="M97.64,130.18l1.66-1,0,0-1.65,1,0,0"/></g></g></g><polygon class="cls-142" points="101.84 118.31 103.49 117.35 102.97 129.32 101.31 130.28 101.84 118.31"/><path class="cls-143" d="M98,118a5.08,5.08,0,0,1,.52-.15l.14,0,.3,0,.17,0H100l.17,0,.15,0,.16,0,.14,0,.15,0,.13,0,.13,0,.13,0,.1,0,.12,0,.09,0,.12.06.06,0,0,0,.07,0,0,0,0,0,1.65-1,0,0h0l0,0-.07,0,0,0h-.06l-.12-.06h0l0,0-.12-.05-.06,0h0l-.13,0-.07,0h0l-.14,0-.08,0-.06,0-.14,0-.09,0H102l-.15,0-.09,0h-1.16l-.3,0h-.14a5.26,5.26,0,0,0-.53.15h0l-.2.08-.12.05-.39.2-1.65,1a3.37,3.37,0,0,1,.38-.19l.13-.06Z"/><path class="cls-144" d="M93.08,136.47c-1.23-23.26,8.26-18.41,8.76-18.16l-.53,12-.09-.05-.09-.06c-1.35-.48-1.37-.48-1.38-.48h-.82l-.08,0h-.08l-.07,0-.07,0-.08,0-.07,0-.08,0-.07,0-.07,0-.08,0-.07,0L98,130,98,130l-.07,0-.07,0-.07,0-.07,0-.07,0-.07,0-.07,0-.07.05-.07,0-.07,0-.07.05-.07.06-.07.05-.06,0-.07.06-.07.05-.06.06-.07.06-.07.06-.06.06-.07.06-.06.06-.07.07-.06.06-.07.07-.06.07-.06.06c-.23.26-.45.52-.66.8l-.06.07-.06.09-.06.07,0,.08,0,.08-.06.07-.06.09,0,.08-.06.08,0,.08-.06.09,0,.08,0,.09-.06.08,0,.09-.06.08,0,.09-.05.09,0,.09,0,.08,0,0,0,.05,0,.09-.06.09,0,.09,0,.09,0,.08,0,.05,0,0,0,.05,0,0,0,0,0,0,0,0,0,0,0,0,0,0,0,.09,0,.09,0,.05,0,.09,0,0,0,.09,0,.05,0,.09,0,.09,0,.09,0,0,0,.05,0,.09,0,.1,0,.09,0,.08,0,.08,0,0a1.14,1.14,0,0,0-.06.14Z"/></g><g class="cls-5"><path class="cls-146" d="M134.05,128.9l1.66,1,.07,0,.06.05.07,0,.07.05.07.05.07,0,.07.06.06.05.07.06.07.06.06.06.07.06.06.06.07.06.06.07.07.06.06.07.06.07.07.06c.23.26.45.52.66.8l.05.07.06.09.06.07,0,.08.06.08.05.07.06.09.06.08,0,.08.06.08.05.09.06.08,0,.09.05.08.06.09,0,.08.05.09.05.09.06.09.05.08,0,0,0,.05,0,.09.05.09,0,.09.05.09.05.08,0,.05,0,0,0,.05,0,0,0,0,0,0,0,0,0,0,0,0,0,0,0,.09,0,.09,0,.05,0,.09,0,0,0,.09,0,0,0,.09,0,.09,0,.09,0,0,0,.05v0l0,.07.05.1,0,.09,0,.08,0,.08,0,0,.06.14.05.13-1.65-1-.06-.13-.06-.13,0,0,0-.08,0-.08,0-.09-.05-.1v0l0,0,0,0,0,0,0,0,0-.09,0-.09-.05-.09,0-.05-.05-.09,0,0,0-.08,0,0,0-.09-.05-.09,0-.05,0,0,0-.05,0,0,0-.05,0,0,0,0,0,0,0,0,0-.05-.05-.09-.05-.08,0-.09-.05-.09,0-.09,0,0,0,0-.05-.09,0-.08-.06-.09-.05-.09,0-.08-.05-.09-.06-.09h0l-.05-.08,0-.08-.06-.09-.06-.08-.05-.08-.06-.09-.05-.08-.06-.08-.05-.07-.06-.08,0-.08-.06-.08-.06-.07c-.21-.28-.43-.54-.66-.8l-.06-.07-.07-.06-.06-.07-.06-.06-.07-.07-.06-.06-.07-.06-.07-.06-.06-.06-.07-.06-.06-.06-.07-.06-.07-.05-.07,0-.06-.06-.07-.05-.07,0-.07-.05h0l0,0Z"/><g class="cls-5"><g class="cls-147"><g class="cls-5"><path class="cls-138" d="M135.64,129.81l-1.66-1,.07.05,1.66,1-.07-.05"/></g></g></g><g class="cls-5"><g class="cls-148"><g class="cls-5"><path class="cls-138" d="M135.57,129.77l-1.66-1,.07,0,1.66,1-.07,0"/></g></g></g><g class="cls-5"><g class="cls-149"><g class="cls-5"><path class="cls-138" d="M135.5,129.73l-1.66-1,.07,0,1.66,1-.07,0"/></g></g></g><g class="cls-5"><g class="cls-150"><g class="cls-5"><path class="cls-138" d="M135.46,129.71l-1.65-1,0,0,1.66,1,0,0"/></g></g></g><polygon class="cls-151" points="131.27 117.84 129.61 116.88 130.13 128.85 131.79 129.81 131.27 117.84"/><path class="cls-152" d="M135.15,117.5a3.79,3.79,0,0,0-.53-.14l-.14,0-.3,0-.16,0h-.92l-.17,0-.15,0-.16,0-.14,0-.14,0-.14,0-.12,0-.13,0-.11,0-.12,0-.08,0-.13,0,0,0,0,0-.07,0h0l0,0-1.66-1,0,0h0l0,0,.07,0,0,0h.06l.12-.06h0l0,0,.12-.05.05,0h0l.13,0,.07,0h.06l.13,0,.08,0,.07,0,.14,0,.08,0h.08l.15,0,.08,0h1.17l.3.05H133l.52.15h0l.2.08.13.05.38.2,1.66,1a3.49,3.49,0,0,0-.39-.19l-.12-.06Z"/><path class="cls-153" d="M140,136c1.24-23.26-8.25-18.41-8.75-18.16l.52,12,.09-.05.1-.06c1.34-.48,1.36-.48,1.38-.48h.82l.07,0h.08l.07,0,.08,0,.07,0,.08,0,.07,0,.08,0,.07,0,.07,0,.07,0,.08,0,.07,0,.07,0,.07,0,.07,0,.07,0,.08,0,.07,0,.07,0,.07.05.07,0,.06.05.07,0,.07.05.07.05.07,0,.07.06.06.05.07.06.07.06.06.06.07.06.06.06.07.06.06.07.07.06.06.07.06.07.07.06c.23.26.45.52.66.8l.05.07.06.09.06.07,0,.08.06.08.05.07.06.09.06.08,0,.08.06.08.05.09.06.08,0,.09.05.08.06.09,0,.08.05.09.05.09.06.09.05.08,0,0,0,.05,0,.09.05.09,0,.09.05.09.05.08,0,.05,0,0,0,.05,0,0,0,0,0,0,0,0,0,0,0,0,0,0,0,.09,0,.09,0,.05,0,.09,0,0,0,.09,0,0,0,.09,0,.09,0,.09,0,0,0,.05,0,.09.05.1,0,.09,0,.08,0,.08,0,0,.06.14S140,136,140,136Z"/></g><path class="cls-155" d="M125.33,141s1.48,36.43-7.64,53.46c0,0-11.9-37.14-8-53.46Z"/><path class="cls-156" d="M152.43,68.67A35.21,35.21,0,1,0,88.76,89.38a.88.88,0,0,0,.63.85h0a35.41,35.41,0,0,0,8.12,7.62,39,39,0,0,1,2.7,4.81v10.18a11,11,0,0,0,8.7,10.79,43.75,43.75,0,0,0,10.73.88,44.46,44.46,0,0,0,7-.85,11,11,0,0,0,8.82-10.79V106.3a10.72,10.72,0,0,1,3.21-9.71A35.11,35.11,0,0,0,152.43,68.67Z"/><path class="cls-157" d="M117.22,150.2h0A11.27,11.27,0,0,1,106,138.93v-7.18a14.94,14.94,0,0,0,22.54,0v7.18A11.27,11.27,0,0,1,117.22,150.2Z"/><ellipse class="cls-158" cx="117.22" cy="116.98" rx="15.5" ry="7.75"/><ellipse class="cls-159" cx="117.22" cy="116.98" rx="12.68" ry="6.34"/><path class="cls-160" d="M117.22,144.27h0a15.51,15.51,0,0,1-15.5-15.51V118.9a20.57,20.57,0,0,0,31,0v9.86A15.51,15.51,0,0,1,117.22,144.27Z"/><path class="cls-161" d="M101.72,124.07a19.54,19.54,0,0,0,15,7,22.68,22.68,0,0,0,16-7"/><path class="cls-161" d="M101.72,131.58a19.53,19.53,0,0,0,15,7,22.67,22.67,0,0,0,16-7"/><path class="cls-162" d="M115.45,77.56c0-2.6-.89-4.7-2-4.7s-2,2.1-2,4.7a6.74,6.74,0,0,0,1.17,4.27V118a.83.83,0,0,0,1.65,0V81.83A6.81,6.81,0,0,0,115.45,77.56Z"/><path class="cls-162" d="M123,77.56c0-2.6-.89-4.7-2-4.7s-2,2.1-2,4.7a6.81,6.81,0,0,0,1.16,4.27V118a.83.83,0,0,0,1.65,0V81.83A6.74,6.74,0,0,0,123,77.56Z"/><g class="cls-5"><g class="cls-5"><path class="cls-4" d="M125.82,126.09l1.65-1c.5.33,10,6.44,10.2,28.73l-1.66,1C135.81,132.52,126.32,126.41,125.82,126.09Z"/><g class="cls-163"><path class="cls-4" d="M137.64,152.29c0-.82-.06-1.61-.11-2.38s-.1-1.43-.17-2.11-.13-1.24-.2-1.84-.16-1.14-.24-1.68-.17-1-.26-1.53-.19-.94-.28-1.39-.2-.87-.31-1.29-.19-.77-.3-1.15-.2-.73-.31-1.08-.2-.63-.3-.93-.2-.6-.31-.89-.19-.52-.29-.77-.19-.49-.29-.72l-.29-.69-.3-.65c-.1-.22-.2-.43-.31-.64s-.26-.52-.4-.77c-.21-.4-.42-.77-.64-1.13s-.42-.68-.62-1-.43-.63-.64-.91l-.39-.52-.36-.44-.33-.38-.33-.37c-.11-.12-.22-.24-.33-.34l-.34-.34-.32-.3-.32-.27-.29-.24c-.09-.07-.17-.14-.25-.19l-.2-.14-.14-.1-1.65,1,.14.09.2.14.25.19.29.24.31.27.33.31.33.33.33.34.34.37.32.39c.12.14.24.28.36.44l.39.51c.21.28.43.59.64.91s.42.64.63,1,.43.74.64,1.13l.4.77c.1.21.2.43.31.64l.29.65.3.69c.09.24.19.48.29.72s.19.51.28.77.21.59.31.89.21.61.3.93.22.71.32,1.08l.3,1.15q.15.63.3,1.29c.1.45.19.92.28,1.39s.18,1,.26,1.53.17,1.11.24,1.68.15,1.21.21,1.84.12,1.39.16,2.11.09,1.57.11,2.38q0,.76,0,1.56l1.66-1Q137.66,153.06,137.64,152.29Z"/></g></g><path class="cls-164" d="M125.82,126.09c.5.32,10,6.43,10.19,28.72-1.58-.6-1.6-.66-1.62-.73l0-.15,0-.12,0-.07,0-.13,0-.14,0-.09,0-.12,0-.06,0-.14,0-.08,0-.14,0-.13,0-.15,0-.14,0-.14,0-.15-.05-.14,0-.15-.05-.13,0-.15-.05-.14,0-.14,0-.15-.06-.15,0-.15,0-.14-.05-.15-.05-.14,0-.15-.05-.15,0-.15-.06-.14-.05-.15-.05-.15,0-.15-.06-.15-.05-.15-.06-.14,0-.15-.05-.15-.06-.14,0-.15-.06-.15-.06-.14c-.5-1.32-1.05-2.61-1.64-3.8l-.07-.13-.06-.13-.07-.13-.07-.13-.06-.13-.07-.12-.07-.13-.07-.13a.67.67,0,0,0-.06-.12l-.07-.13-.07-.12-.07-.12-.07-.12-.07-.12-.07-.12-.07-.12-.08-.11-.07-.12-.07-.11-.07-.12-.07-.11-.08-.11-.07-.11-.07-.11-.08-.1-.07-.11-.08-.1-.07-.1a11.41,11.41,0,0,0-1.07-1.25l-.07-.07-.08-.07-.07-.07-.08-.07-.08-.07a.26.26,0,0,0-.08-.06l-.83-.58-.12-.07Z"/></g><g class="cls-5"><g class="cls-5"><g class="cls-166"><path class="cls-167" d="M100,152.29c0-.82.06-1.61.11-2.38s.1-1.43.17-2.11.12-1.24.2-1.84.15-1.14.24-1.68.17-1,.26-1.53.18-.94.28-1.39l.3-1.29.3-1.15c.11-.37.21-.73.32-1.08l.3-.93c.1-.31.2-.6.31-.89s.19-.52.28-.77l.3-.72c.09-.24.19-.46.29-.69l.3-.65c.1-.22.2-.43.31-.64l.39-.77c.22-.4.43-.77.65-1.13s.41-.68.62-1,.43-.63.64-.91l.39-.52.36-.44.33-.38L108,127c.11-.12.22-.24.33-.34l.34-.34.32-.3.32-.27.28-.24.25-.19.2-.14.14-.1,1.66,1-.14.09-.2.14-.25.19-.29.24-.31.27-.33.31-.34.33-.33.34-.33.37-.33.39-.35.44-.39.51c-.21.28-.43.59-.64.91s-.42.64-.63,1-.43.74-.64,1.13l-.4.77-.31.64-.3.65c-.09.23-.19.46-.29.69l-.29.72c-.1.25-.19.51-.29.77s-.21.59-.31.89-.2.61-.3.93-.21.71-.31,1.08l-.3,1.15q-.17.63-.3,1.29c-.1.45-.19.92-.28,1.39s-.18,1-.27,1.53-.16,1.11-.23,1.68-.15,1.21-.21,1.84-.12,1.39-.16,2.11-.09,1.57-.11,2.38q0,.76,0,1.56l-1.66-1Q100,153.06,100,152.29Z"/></g></g><path class="cls-168" d="M111.83,126.09c-.5.32-10,6.43-10.19,28.72,1.58-.6,1.6-.66,1.62-.73l0-.15,0-.12,0-.07,0-.13,0-.14,0-.09,0-.12,0-.06,0-.14,0-.08,0-.14,0-.13,0-.15.05-.14,0-.14,0-.15.05-.14,0-.15,0-.13,0-.15,0-.14,0-.14,0-.15,0-.15,0-.15,0-.14.05-.15,0-.14,0-.15,0-.15,0-.15.05-.14.06-.15,0-.15,0-.15,0-.15.06-.15,0-.14.06-.15,0-.15.06-.14,0-.15.06-.15,0-.14c.51-1.32,1.06-2.61,1.65-3.8l.06-.13.07-.13.07-.13.06-.13.07-.13.07-.12.07-.13.06-.13.07-.12.07-.13.07-.12.07-.12.07-.12.07-.12.07-.12.07-.12.07-.11.07-.12.08-.11.07-.12.07-.11.07-.11a.59.59,0,0,0,.08-.11l.07-.11.08-.1.07-.11.07-.1.08-.1a11.41,11.41,0,0,1,1.07-1.25l.07-.07.08-.07.07-.07.08-.07.08-.07a.26.26,0,0,1,.08-.06l.83-.58.12-.07Z"/></g><path class="cls-170" d="M95.89,59.42a33.57,33.57,0,0,1,13.65-10.28A1.92,1.92,0,0,0,110.2,46l-2.92-2.92a1.91,1.91,0,0,0-2.5-.19c-2.76,2-9,7.25-12.06,14.34,0,.08-.07.17-.11.26A1.92,1.92,0,0,0,95.89,59.42Z"/><path class="cls-171" d="M92.57,65a30.43,30.43,0,0,0-1.14,3.2,2,2,0,0,1-2.66,1.23l-.64-.27a2,2,0,0,1-1-2.66,24.89,24.89,0,0,1,2-3.42,2,2,0,0,1,2.63-.56h0A2,2,0,0,1,92.57,65Z"/><path class="cls-172" d="M127.52,182.12a9.57,9.57,0,0,0-8.72,4.9,23.1,23.1,0,0,0-4.43-.59,21.69,21.69,0,0,0-7.32.94A9.58,9.58,0,1,0,102.71,202a19.52,19.52,0,0,0,11,3.54c5.54.21,10.44-1.54,13.14-4.3h0a9.59,9.59,0,0,0,.71-19.16Z"/></g></g></g></svg>