<svg xmlns="http://www.w3.org/2000/svg" width="90.33" height="90.3" viewBox="0 0 90.33 90.3"><defs><style>.cls-1{fill:#292b3f;}</style></defs><title>1Asset 14icon1</title><g id="Layer_2" data-name="Layer 2"><g id="Полезны"><path class="cls-1" d="M37.66,6a31.61,31.61,0,1,0,31.6,31.61A31.61,31.61,0,0,0,37.66,6Zm0,3A28.58,28.58,0,0,1,61,21.18l-3.77,3.76a6,6,0,0,0-8.2,8.2L39.19,43a5.83,5.83,0,0,0-6.08,0l-6.84-6.85a5.93,5.93,0,0,0,.85-3,6,6,0,0,0-11.82-1.5H9.71A28.64,28.64,0,0,1,37.66,9ZM51.2,30.1a3,3,0,1,1,3,3A3,3,0,0,1,51.2,30.1Zm-15.05,15a3,3,0,1,1-3,3A3,3,0,0,1,36.15,45.15Zm-15-9a3,3,0,1,1,3-3A3,3,0,0,1,21.1,36.12Zm16.56,30.1A28.58,28.58,0,0,1,9.06,37.67c0-1,.06-2,.16-3.05H15.3a6,6,0,0,0,5.8,4.51,5.93,5.93,0,0,0,3-.85L31,45.12a5.94,5.94,0,0,0-.86,3,6,6,0,0,0,12,0,5.93,5.93,0,0,0-.85-3l9.85-9.85a5.93,5.93,0,0,0,3,.85,6,6,0,0,0,5.17-9.06l3.28-3.27a28.56,28.56,0,0,1-25,42.43Z"/><path class="cls-1" d="M75.28,3a6,6,0,0,0-6,6,5.88,5.88,0,0,0,.85,3l-2.64,2.65A37.62,37.62,0,1,0,58.08,69.2l4.54,4.54,2.12,2.13L76.86,88A7.89,7.89,0,0,0,88,76.83L75.9,64.72l-2.13-2.13-4.54-4.54a37.51,37.51,0,0,0,0-40.84l3-3a5.93,5.93,0,0,0,3,.85,6,6,0,0,0,5.81-4.51h9.24v-3H81.09A6,6,0,0,0,75.28,3ZM85.89,79a4.88,4.88,0,1,1-6.82,7L79,85.86,66.87,73.74l6.9-6.9ZM67.48,60.55l4.17,4.17-6.91,6.9-4.16-4.17c.21-.16.41-.34.62-.51l.68-.55,1-.85.48-.45c.62-.58,1.21-1.17,1.79-1.79l.45-.48c.29-.32.57-.65.85-1s.37-.44.55-.67S67.32,60.76,67.48,60.55Zm-1.67-2.82c-.47.66-1,1.31-1.48,1.93l-.47.54c-.46.53-.93,1-1.42,1.56l-.65.65c-.51.49-1,1-1.56,1.43l-.54.46c-.62.52-1.27,1-1.94,1.48a34.65,34.65,0,1,1,8.06-8.05ZM75.28,12a3,3,0,1,1,3-3A3,3,0,0,1,75.28,12Z"/></g></g></svg>