<svg xmlns="http://www.w3.org/2000/svg" width="89.11" height="89.11" viewBox="0 0 89.11 89.11"><defs><style>.cls-1{fill:#292b3f;}</style></defs><title>1Asset 15icon2</title><g id="Layer_2" data-name="Layer 2"><g id="Полезны"><path class="cls-1" d="M81.68,0H7.43A7.43,7.43,0,0,0,0,7.43v52a7.43,7.43,0,0,0,7.43,7.42h25L30,80.2H24.11a4.46,4.46,0,1,0,0,8.91H65a4.46,4.46,0,0,0,0-8.91H59.16L56.73,66.83h25a7.43,7.43,0,0,0,7.43-7.42v-52A7.43,7.43,0,0,0,81.68,0ZM3,7.43A4.46,4.46,0,0,1,7.43,3H81.68a4.46,4.46,0,0,1,4.46,4.46V52H3ZM56.14,80.2H52a1.49,1.49,0,0,0,0,3H65a1.48,1.48,0,0,1,1.26,2.27,1.47,1.47,0,0,1-1.26.7H24.11a1.49,1.49,0,0,1,0-3h19a1.49,1.49,0,1,0,0-3H33L35.4,66.83H53.71Zm30-20.79a4.46,4.46,0,0,1-4.46,4.45H7.43A4.46,4.46,0,0,1,3,59.41V55H86.14Z"/><path class="cls-1" d="M40.1,29.7H25.25V14.85a1.49,1.49,0,0,0-1.49-1.48A17.82,17.82,0,1,0,41.58,31.19,1.49,1.49,0,0,0,40.1,29.7ZM23.76,46a14.85,14.85,0,0,1-1.48-29.63V31.19a1.48,1.48,0,0,0,1.48,1.48H38.54A14.87,14.87,0,0,1,23.76,46Z"/><path class="cls-1" d="M29.7,7.43a1.48,1.48,0,0,0-1.48,1.48V25.25a1.48,1.48,0,0,0,1.48,1.48H46a1.49,1.49,0,0,0,1.49-1.48A17.84,17.84,0,0,0,29.7,7.43Zm1.49,16.33V10.47A14.89,14.89,0,0,1,44.48,23.76Z"/><path class="cls-1" d="M81.68,5.94H52A1.49,1.49,0,0,0,50.5,7.43v40.1A1.48,1.48,0,0,0,52,49h29.7a1.49,1.49,0,0,0,1.49-1.48V7.43A1.49,1.49,0,0,0,81.68,5.94ZM80.2,46H53.47V8.91H80.2Z"/><path class="cls-1" d="M57.92,16.34h8.91a1.49,1.49,0,1,0,0-3H57.92a1.49,1.49,0,0,0,0,3Z"/><path class="cls-1" d="M57.92,22.28H75.74a1.49,1.49,0,1,0,0-3H57.92a1.49,1.49,0,0,0,0,3Z"/><path class="cls-1" d="M57.92,28.22h8.91a1.49,1.49,0,1,0,0-3H57.92a1.49,1.49,0,0,0,0,3Z"/><path class="cls-1" d="M57.92,34.16H75.74a1.49,1.49,0,1,0,0-3H57.92a1.49,1.49,0,0,0,0,3Z"/><path class="cls-1" d="M57.92,40.1h8.91a1.49,1.49,0,1,0,0-3H57.92a1.49,1.49,0,0,0,0,3Z"/><path class="cls-1" d="M41.58,60.89h6a1.49,1.49,0,0,0,0-3h-6a1.49,1.49,0,0,0,0,3Z"/></g></g></svg>