<svg xmlns="http://www.w3.org/2000/svg" width="88.07" height="89.76" viewBox="0 0 88.07 89.76"><defs><style>.cls-1{fill:#292b3f;}</style></defs><title>1Asset 16icon3</title><g id="Layer_2" data-name="Layer 2"><g id="Полезны"><path class="cls-1" d="M87.76,6.11a1.31,1.31,0,0,0-.89-.47L67.33,4,67,1.16A1.33,1.33,0,0,0,65.5,0L47.38,2.29l-.22,0L22.25.12a1.34,1.34,0,0,0-1.43,1.21l-.37,4.34L1.16,8.1A1.33,1.33,0,0,0,0,9.58L9.86,87.91A3.65,3.65,0,0,0,10,89a1.33,1.33,0,0,0,1.22.81H76a1.32,1.32,0,0,0,1.32-1.32V86.72l2.56.22a1.34,1.34,0,0,0,1.43-1.21L88.07,7.07A1.28,1.28,0,0,0,87.76,6.11ZM65.19,8.17H21.79L64.52,2.8ZM23.34,2.87l11.57,1L23.13,5.34ZM2.8,10.56l7.07-.89V66.8Zm76,73.63-1.47-.13V45.44a1.32,1.32,0,1,0-2.64,0V87.12H12.51V10.81H74.72V39.27a1.32,1.32,0,1,0,2.64,0V9.49A1.32,1.32,0,0,0,76,8.17H67.86l-.19-1.52L85.32,8.16Z"/><path class="cls-1" d="M69,15.22h-7a1.33,1.33,0,0,0-1.1.59l-3,4.48a19.58,19.58,0,0,0-11.42-3.66A1.32,1.32,0,0,0,45.11,18V36.28a1.32,1.32,0,0,0,1.32,1.32H64.76a1.32,1.32,0,0,0,1.32-1.32A19.59,19.59,0,0,0,59.9,22l2.75-4.12H69a1.32,1.32,0,1,0,0-2.64ZM63.39,35H47.76V19.32a16.86,16.86,0,0,1,8.62,3.18L55.2,24.27a1.32,1.32,0,0,0,2.2,1.46l1-1.51A16.93,16.93,0,0,1,63.39,35Z"/><path class="cls-1" d="M69,58.92H57l-2.11-3.37a19.57,19.57,0,0,0,5.51-13.63,1.33,1.33,0,0,0-1.32-1.33h-17v-17a1.32,1.32,0,0,0-1.32-1.32A19.65,19.65,0,1,0,52.94,57.35l2.24,3.59a1.33,1.33,0,0,0,1.12.63H69a1.33,1.33,0,0,0,0-2.65Zm-28.19,0a17,17,0,0,1-1.33-34v17a1.33,1.33,0,0,0,1.33,1.32h17a16.91,16.91,0,0,1-4.27,10l-3.1-5a1.33,1.33,0,1,0-2.25,1.41l3.4,5.43A16.93,16.93,0,0,1,40.8,58.92Z"/><path class="cls-1" d="M18.24,68.61H29.52a1.32,1.32,0,0,0,0-2.64H18.24a1.32,1.32,0,0,0,0,2.64Z"/><path class="cls-1" d="M46.43,66H35.16a1.32,1.32,0,1,0,0,2.64H46.43a1.32,1.32,0,1,0,0-2.64Z"/><path class="cls-1" d="M18.24,75.66H36.57a1.32,1.32,0,0,0,0-2.64H18.24a1.32,1.32,0,0,0,0,2.64Z"/><path class="cls-1" d="M46.43,73H42.21a1.32,1.32,0,1,0,0,2.64h4.22a1.32,1.32,0,1,0,0-2.64Z"/><path class="cls-1" d="M23.88,80.07H18.24a1.32,1.32,0,0,0,0,2.64h5.64a1.32,1.32,0,0,0,0-2.64Z"/><path class="cls-1" d="M46.43,80.07H29.52a1.32,1.32,0,0,0,0,2.64H46.43a1.32,1.32,0,1,0,0-2.64Z"/></g></g></svg>