<svg xmlns="http://www.w3.org/2000/svg" width="230.89" height="64" viewBox="0 0 230.89 64"><defs><style>.cls-1{fill:#fff;}.cls-2{fill:#e59329;}</style></defs><title>1Asset 61</title><g id="Layer_2" data-name="Layer 2"><g id="Шапка"><path class="cls-1" d="M42,0H2A2,2,0,0,0,0,2V42a2,2,0,0,0,2,2H15.92V40H4V4H24.37A15.63,15.63,0,0,1,40,19.63V40H20v4H42a2,2,0,0,0,2-2V2A2,2,0,0,0,42,0Z"/><path class="cls-2" d="M62,20H48.08v4H60V60H39.63A15.63,15.63,0,0,1,24,44.37V24H40V20H22a2,2,0,0,0-2,2V62a2,2,0,0,0,2,2H62a2,2,0,0,0,2-2V22A2,2,0,0,0,62,20Z"/><path class="cls-2" d="M84.5,26.79V10.41h5.13l3.81,11.25,3.73-11.25h5V26.79H98.8V15.15l-4,11.64H92L87.92,15.27V26.79Z"/><path class="cls-2" d="M114.65,10.39l6.23,16.4h-3.77l-1.29-3.66h-6.09l-1.34,3.66h-3.68L111,10.39Zm.3,10.12-2.16-6.09-2.19,6.09Z"/><path class="cls-2" d="M123.55,10.41h8.14a6.52,6.52,0,0,1,4,1.15,4.09,4.09,0,0,1,1.54,3.5,4.53,4.53,0,0,1-.69,2.5,3.82,3.82,0,0,1-1.91,1.53c1.42.29,2.22,1.56,2.42,3.81,0,.08,0,.32.05.72s.06.71.09.95.07.53.11.86a4,4,0,0,0,.21.86,1.39,1.39,0,0,0,.32.5h-3.72a2.93,2.93,0,0,1-.28-.93c-.06-.38-.12-.86-.16-1.45s-.07-.92-.07-1a3.93,3.93,0,0,0-.86-2.39,3.45,3.45,0,0,0-2.41-.67h-3.19v6.42h-3.57Zm3.57,2.83v4.53h3.4a4.69,4.69,0,0,0,2.33-.47,1.93,1.93,0,0,0,.84-1.85,1.84,1.84,0,0,0-.81-1.75,4.58,4.58,0,0,0-2.2-.46Z"/><path class="cls-2" d="M155.73,10.41l-6.42,6.47,7,9.91h-4.51l-5-7.36-2.09,2.07v5.29h-3.55V10.41h3.55v6.81l6.44-6.81Z"/><path class="cls-2" d="M171.21,10.41v2.95h-8.72v3.56h8v2.83h-8v4h8.88v3H158.92V10.41Z"/><path class="cls-2" d="M187.15,10.41v3.06h-4.93V26.79h-3.61V13.47h-4.92V10.41Z"/><path class="cls-2" d="M193.79,10.41V26.79h-3.61V10.41Z"/><path class="cls-2" d="M198.12,26.79V10.41h3.65l6.74,11v-11H212V26.79h-3.59l-6.78-11v11Z"/><path class="cls-2" d="M230.89,17.94v8.85h-2.28l-.34-1.86a6,6,0,0,1-4.92,2.25,7.15,7.15,0,0,1-5.57-2.37,8.78,8.78,0,0,1-2.14-6.14,8.69,8.69,0,0,1,2.26-6.2,7.58,7.58,0,0,1,5.79-2.4,7.27,7.27,0,0,1,4.74,1.58,6.09,6.09,0,0,1,2.25,4.15h-3.47a3.16,3.16,0,0,0-1.2-2,3.75,3.75,0,0,0-2.36-.72,3.87,3.87,0,0,0-3.22,1.49,6.39,6.39,0,0,0-1.18,4.1,6.49,6.49,0,0,0,1.19,4.15,4,4,0,0,0,3.32,1.49,3.82,3.82,0,0,0,2.76-1,3.71,3.71,0,0,0,1.15-2.68H224V17.94Z"/><path class="cls-1" d="M96.62,40.17H93.21c-.13-1.63-1.17-2.44-3.1-2.44a3.29,3.29,0,0,0-1.94.49,1.59,1.59,0,0,0-.71,1.37,1.25,1.25,0,0,0,.1.53,1,1,0,0,0,.34.43,3.57,3.57,0,0,0,.51.32,5.62,5.62,0,0,0,.74.27l.9.27,1.14.3,1.29.34a9.43,9.43,0,0,1,3.6,1.73,3.72,3.72,0,0,1,1.18,3,5,5,0,0,1-.57,2.45,4.45,4.45,0,0,1-1.56,1.66,7.19,7.19,0,0,1-2.13.9,10.41,10.41,0,0,1-2.48.29,8,8,0,0,1-5.21-1.53,5.3,5.3,0,0,1-1.89-4.32H87c.06,2.06,1.3,3.08,3.7,3.08a3.73,3.73,0,0,0,2.22-.58,1.86,1.86,0,0,0,.82-1.6A1.3,1.3,0,0,0,93,45.85a20.47,20.47,0,0,0-3.14-1.08c-.26-.06-.46-.12-.59-.16l-1.16-.34-1-.35a5.77,5.77,0,0,1-1-.46c-.22-.14-.48-.33-.8-.58a2.25,2.25,0,0,1-.67-.77,5.27,5.27,0,0,1-.38-1,4.55,4.55,0,0,1,1.55-4.84,8.49,8.49,0,0,1,9.08,0A4.66,4.66,0,0,1,96.62,40.17Z"/><path class="cls-1" d="M114.53,35.29l-6.09,10.08v6.3H104.9V45.3l-6.12-10h4.09l3.82,6.56,3.87-6.56Z"/><path class="cls-1" d="M129.19,40.17h-3.41c-.14-1.63-1.17-2.44-3.1-2.44a3.35,3.35,0,0,0-2,.49,1.58,1.58,0,0,0-.7,1.37,1.44,1.44,0,0,0,.09.53,1.06,1.06,0,0,0,.35.43,4.15,4.15,0,0,0,.5.32,5.86,5.86,0,0,0,.75.27l.9.27,1.14.3,1.29.34a9.37,9.37,0,0,1,3.59,1.73,3.73,3.73,0,0,1,1.19,3,4.91,4.91,0,0,1-.58,2.45,4.42,4.42,0,0,1-1.55,1.66,7.14,7.14,0,0,1-2.14.9,10.32,10.32,0,0,1-2.47.29,8,8,0,0,1-5.21-1.53,5.34,5.34,0,0,1-1.9-4.32h3.57c.06,2.06,1.29,3.08,3.7,3.08a3.73,3.73,0,0,0,2.22-.58,1.89,1.89,0,0,0,.82-1.6,1.3,1.3,0,0,0-.75-1.24,20.9,20.9,0,0,0-3.14-1.08l-.6-.16-1.15-.34-1-.35a5.77,5.77,0,0,1-1-.46c-.22-.14-.48-.33-.8-.58a2.41,2.41,0,0,1-.68-.77,7.13,7.13,0,0,1-.38-1,4.64,4.64,0,0,1-.17-1.27,4.29,4.29,0,0,1,1.73-3.57,8.49,8.49,0,0,1,9.08,0A4.68,4.68,0,0,1,129.19,40.17Z"/><path class="cls-1" d="M145.31,35.29v3.06h-4.92V51.67h-3.61V38.35h-4.93V35.29Z"/><path class="cls-1" d="M160.63,35.29v2.94h-8.72V41.8h8v2.83h-8v4h8.88v3H148.34V35.29Z"/><path class="cls-1" d="M164.4,51.67V35.29h5.13l3.82,11.25,3.72-11.25h5V51.67H178.7V40l-4,11.64H171.9l-4.08-11.53V51.67Z"/></g></g></svg>