<svg xmlns="http://www.w3.org/2000/svg" width="28.5" height="28.5" viewBox="0 0 28.5 28.5"><defs><style>.cls-1{fill:#fff;}</style></defs><title>1Asset 71</title><g id="Layer_2" data-name="Layer 2"><g id="Шапка"><path class="cls-1" d="M14.25,1.78A12.47,12.47,0,1,1,1.78,14.25,12.49,12.49,0,0,1,14.25,1.78m0-1.78A14.25,14.25,0,1,0,28.5,14.25,14.25,14.25,0,0,0,14.25,0Zm7.94,19-.08-.24a2.23,2.23,0,0,0-1.37-1.3l-2.11-.58a2.07,2.07,0,0,0-1.8.48l-.77.76a8.09,8.09,0,0,1-5.69-5.69l.77-.76a2.12,2.12,0,0,0,.47-1.81L11,7.77a2.22,2.22,0,0,0-1.3-1.38l-.24-.08a1.9,1.9,0,0,0-1.78.42L6.57,7.87a2,2,0,0,0-.34.78,13.52,13.52,0,0,0,3.95,9.67,13.4,13.4,0,0,0,9.63,3.94,2,2,0,0,0,.82-.33l1.14-1.14A1.89,1.89,0,0,0,22.19,19Z"/></g></g></svg>