<svg xmlns="http://www.w3.org/2000/svg" width="64.57" height="64.57" viewBox="0 0 64.57 64.57"><defs><style>.cls-1{opacity:0.8;}.cls-2{fill:#fff;}.cls-3{fill:#c8143a;}</style></defs><title>1Asset 4wqwe</title><g id="Layer_2" data-name="Layer 2"><g id="Шапка"><g class="cls-1"><circle class="cls-2" cx="32.28" cy="32.28" r="32.28"/></g><path class="cls-3" d="M38.92,12.22H33.21c-5.77,0-11.6,4.26-11.6,13.79,0,4.94,2.09,8.79,5.93,11l-7,12.71a1.8,1.8,0,0,0,0,1.82,1.73,1.73,0,0,0,1.52.84h3.55a1.8,1.8,0,0,0,1.74-1.07l6.58-12.87h.48V50.75A1.63,1.63,0,0,0,36,52.35h3.1a1.58,1.58,0,0,0,1.65-1.65V14A1.7,1.7,0,0,0,38.92,12.22ZM34.36,32.69h-.85c-3.28,0-5.24-2.69-5.24-7.18,0-5.58,2.48-7.58,4.79-7.58h1.3Z"/></g></g></svg>