<svg xmlns="http://www.w3.org/2000/svg" style="display: none;"><symbol id="pregnancy-with-hearts" viewBox="0 0 469.668 469.668"><title>pregnancy-with-hearts</title><path d="M310.69,263.889c0.015-0.001,0.03-0.003,0.043-0.005c13.94-1.773,23.836-14.593,22.059-28.57l-8.684-69.171 c-1.619-12.732-12.542-22.333-25.408-22.333c-1.082,0-2.178,0.069-3.257,0.206c-6.773,0.861-12.794,4.31-16.955,9.712 c-4.152,5.39-5.963,12.09-5.102,18.858l5.493,43.765l-32.589,4.091c-6.775,0.861-12.809,4.326-16.992,9.757 c-4.173,5.418-5.996,12.133-5.134,18.907c1.614,12.693,12.492,22.266,25.303,22.266c0,0,0.001,0,0.001,0 c1.087,0,2.188-0.07,3.266-0.207l57.914-7.27C310.663,263.893,310.677,263.891,310.69,263.889z M309.627,255.453 c-0.068,0.008-0.136,0.018-0.203,0.029l-57.755,7.25c-0.731,0.093-1.471,0.14-2.201,0.14c0,0-0.001,0-0.001,0 c-8.543,0-15.795-6.379-16.871-14.838c-0.576-4.53,0.644-9.022,3.437-12.648c2.792-3.625,6.815-5.938,11.323-6.511l36.799-4.619 c2.329-0.292,3.98-2.417,3.688-4.746l-6.023-47.989c-0.577-4.531,0.632-9.008,3.403-12.605c2.77-3.596,6.781-5.893,11.293-6.466 c0.725-0.092,1.46-0.139,2.185-0.139c8.598,0,15.896,6.408,16.976,14.898l8.683,69.171c1.185,9.318-5.382,17.86-14.597,19.061 C309.714,255.443,309.666,255.448,309.627,255.453z" fill="#FFFFFF"/><path d="M306.651,124.488c-2.169-0.356-4.397-0.537-6.621-0.537c-20.177,0-39.234,14.494-47.409,36.035l-2.091,5.381 c-34.945,4.348-63.038,31.235-68.781,66.233c-3.818,23.268,2.715,46.645,17.953,64.56l-9.833,25.301 c-0.464,1.194-0.365,2.534,0.271,3.647c0.635,1.113,1.738,1.879,3.003,2.087l67.199,11.028v102.333 c0,16.053,13.06,29.112,29.112,29.112c16.052,0,29.112-13.06,29.112-29.112v-92.778l30.834,5.06 c0.229,0.038,0.459,0.056,0.688,0.056c1.033,0,2.04-0.377,2.824-1.074c0.957-0.851,1.48-2.089,1.422-3.369l-7.843-173.036 C345.47,149.527,328.716,128.109,306.651,124.488z M310.065,440.556c0,7.485-4.023,14.031-10.008,17.643v-67.104 c0-2.347-1.903-4.25-4.25-4.25c-2.347,0-4.25,1.903-4.25,4.25v69.967c-0.692,0.07-1.394,0.107-2.103,0.107 c-11.366,0-20.612-9.247-20.612-20.612V339.617l41.224,6.766V440.556z M199.69,319.656l8.869-22.822 c0.584-1.501,0.268-3.204-0.815-4.396c-14.729-16.222-21.146-37.894-17.607-59.459c5.26-32.054,31.497-56.492,63.804-59.43 c1.607-0.146,2.992-1.189,3.577-2.693l3.04-7.822c6.942-18.292,22.805-30.582,39.474-30.582c1.764,0,3.528,0.143,5.244,0.424 c18.1,2.971,31.861,21.001,32.723,42.899l6.656,146.839l-73.12-12.674c-2.319-0.401-4.513,1.149-4.914,3.461 c-0.401,2.313,1.149,4.513,3.461,4.914l74.966,12.994l0.557,12.293L199.69,319.656z" fill="#FFFFFF"/><path d="M365.652,85.525c-0.793-3.207-19.994-78.629-70.501-84.911C291.779,0.195,288.871,0,286,0 c-10.253,0-19.397,2.579-27.922,7.861c-4.558,0.648-21.092,3.713-26.567,14.582c-2.736,5.433-2.234,11.625,1.472,18.413 c-5.641,11.734-7.085,25.067-4.038,37.782c6.23,26.003,29.544,43.532,55.185,43.531c4.364,0,8.798-0.508,13.224-1.569 c8.638-2.069,16.711-6.186,23.445-11.895c12.618-1.937,26.285-7.875,43.017-18.58C365.35,89.144,366.089,87.294,365.652,85.525z M239.098,26.276c2.999-5.971,13.604-8.895,19.167-9.837c5.554,4.781,26.37,23.832,34.007,46.785 c-6.17-3.638-13.471-5.767-20.633-7.844c-12.642-3.664-24.582-7.125-30.871-18.004C238.159,32.863,237.613,29.232,239.098,26.276z M295.373,112.334c-25.873,6.197-51.963-9.806-58.162-35.677c-2.232-9.317-1.63-19.025,1.648-27.916 c8.311,8.382,19.921,11.761,30.415,14.802c10.531,3.052,20.483,5.955,25.729,13.209c0.516,8.001-1.019,16.212-5.667,24.254 c-0.712,1.232-0.76,2.74-0.128,4.015c0.632,1.275,1.861,2.149,3.274,2.328c1.557,0.197,3.109,0.437,4.753,0.69 c2.395,0.37,4.84,0.743,7.433,1.01C301.694,110.448,298.583,111.564,295.373,112.334z M311.605,100.927c0,0-0.002,0-0.002,0 c-4.383,0-8.335-0.56-12.143-1.144c7.946-18.307,4.516-39.311-10.088-61.146c-7.864-11.757-17.056-20.958-22.489-25.929 C272.791,9.882,279.093,8.5,286,8.5c2.512,0,5.086,0.175,8.102,0.549c39.515,4.915,58.486,61.908,62.484,75.584 C333.371,99.03,320.38,100.927,311.605,100.927z" fill="#FFFFFF"/><path d="M211.047,152.624c0.248,0.044,0.496,0.065,0.742,0.065c1.533,0,2.972-0.831,3.727-2.209 c1.338-2.443,12.901-24.216,7.071-36.302c-2.382-4.939-7.475-8.131-12.973-8.131c-2.188,0-4.303,0.485-6.285,1.441 c-3.572,1.723-6.113,4.736-7.335,8.211c-1.501-0.525-3.098-0.807-4.73-0.807c-2.18,0-4.285,0.483-6.259,1.435 c-3.468,1.673-6.079,4.59-7.352,8.213c-1.277,3.632-1.058,7.544,0.616,11.014C184.044,147.527,208.3,152.137,211.047,152.624z M185.671,127.358c0.523-1.487,1.598-2.687,3.027-3.376c0.813-0.392,1.675-0.59,2.565-0.59c2.297,0,4.343,1.284,5.34,3.351 c1.02,2.114,3.562,3.002,5.674,1.982c1.52-0.733,2.405-2.251,2.405-3.833c0-0.619-0.136-1.247-0.423-1.841 c-1.419-2.941-0.181-6.488,2.76-7.907c0.821-0.396,1.694-0.597,2.593-0.597c2.29,0,4.328,1.273,5.316,3.324 c2.651,5.495-1.51,17.679-5.444,25.757c-8.064-1.856-20.873-6.193-23.562-11.767C185.24,130.44,185.149,128.842,185.671,127.358z" fill="#FFFFFF"/><path d="M136.663,69.119c-2.188,0-4.304,0.485-6.286,1.441c-3.572,1.723-6.113,4.735-7.334,8.21 c-1.501-0.525-3.099-0.807-4.73-0.807c-2.179,0-4.285,0.482-6.259,1.434c-7.162,3.455-10.184,12.08-6.736,19.229 c5.776,11.973,30.031,16.583,32.778,17.069c0.248,0.044,0.496,0.065,0.742,0.065c1.533,0,2.972-0.831,3.727-2.209 c1.338-2.442,12.901-24.215,7.071-36.302C147.216,72.234,142.245,69.119,136.663,69.119z M136.534,106.699 c-8.064-1.856-20.873-6.192-23.561-11.766c-1.412-2.926-0.168-6.461,2.773-7.879c0.812-0.392,1.676-0.59,2.566-0.59 c2.297,0,4.344,1.284,5.34,3.351c1.02,2.114,3.562,3.003,5.674,1.982c1.52-0.733,2.405-2.251,2.405-3.833 c0-0.619-0.136-1.247-0.423-1.841c-1.418-2.941-0.18-6.487,2.76-7.906c0.822-0.396,1.694-0.597,2.594-0.597 c2.29,0,4.327,1.273,5.315,3.322C144.629,86.437,140.469,98.621,136.534,106.699z" fill="#FFFFFF"/><path d="M197.485,32.979c0.177-3.85-1.163-7.535-3.771-10.376c-2.599-2.83-6.148-4.485-9.993-4.66 c-3.983-0.18-7.646,1.256-10.361,3.721c-2.594-2.825-6.13-4.476-9.962-4.65c-8.012-0.365-14.702,5.795-15.065,13.717 c-0.61,13.28,18.541,28.861,20.727,30.594c0.77,0.611,1.704,0.92,2.641,0.92c0.801,0,1.604-0.226,2.31-0.683 C176.348,60.048,196.869,46.385,197.485,32.979z M171.961,52.667c-6.213-5.465-15.421-15.366-15.137-21.548 c0.144-3.152,2.737-5.621,5.903-5.621c0.093,0,0.188,0.002,0.283,0.006c1.58,0.072,3.037,0.755,4.103,1.923 c1.066,1.168,1.613,2.682,1.541,4.262c-0.003,0.066-0.004,0.133-0.004,0.199c0,2.257,1.777,4.137,4.055,4.242 c2.345,0.1,4.333-1.706,4.44-4.051c0.149-3.262,2.845-5.795,6.188-5.646c1.587,0.072,3.051,0.754,4.121,1.919 c1.065,1.16,1.613,2.665,1.54,4.236C188.714,38.685,179.262,47.429,171.961,52.667z" fill="#FFFFFF"/></symbol><symbol id="love-and-romance" viewBox="0 0 512.002 512.002"><title>love-and-romance</title><path d="M278.501,150h120c12.406,0,22.5-10.094,22.5-22.5c0-7.415-3.583-14.19-9.534-18.364 c-3.569-9.192-11.459-15.985-20.901-18.282C387.287,65.034,365.197,45,338.501,45c-26.696,0-48.786,20.034-52.064,45.854 c-9.443,2.296-17.333,9.09-20.901,18.282c-5.951,4.175-9.534,10.95-9.534,18.364C256.001,139.906,266.095,150,278.501,150z M301.642,104.363c15.63-2.444,28.999-11.803,36.859-24.844c7.86,13.041,21.23,22.4,36.859,24.844 C372.126,121.773,356.834,135,338.501,135S304.876,121.773,301.642,104.363z M397.979,116.074c0.557,2.063,1.967,3.789,3.877,4.747 c2.557,1.283,4.146,3.843,4.146,6.679c0,4.136-3.364,7.5-7.5,7.5h-23.308c7.685-7.521,13.068-17.375,15.003-28.406 C393.934,108.464,396.838,111.852,397.979,116.074z M375.022,89.021c-13.879-3.221-24.822-14.164-28.043-28.043 C360.859,64.2,371.801,75.142,375.022,89.021z M330.022,60.979c-3.221,13.879-14.164,24.822-28.043,28.043 C305.201,75.142,316.143,64.2,330.022,60.979z M275.146,120.821c1.909-0.958,3.319-2.685,3.876-4.747 c1.141-4.222,4.045-7.61,7.783-9.481c1.935,11.031,7.318,20.885,15.003,28.406h-23.308c-4.136,0-7.5-3.364-7.5-7.5 C271.001,124.664,272.59,122.104,275.146,120.821z" fill="#FFFFFF"/><circle cx="428.501" cy="225" r="7.5" fill="#FFFFFF"/><circle cx="398.501" cy="255" r="7.5" fill="#FFFFFF"/><path d="M488.501,240c0-10.483-5.354-19.917-13.877-25.317c2.208-9.847-0.677-20.303-8.09-27.715 c-5.664-5.665-13.195-8.784-21.207-8.784c-2.186,0-4.368,0.241-6.497,0.713C433.432,170.362,423.992,165,413.501,165 s-19.931,5.362-25.329,13.896c-0.304-0.067-0.611-0.119-0.916-0.177c-4.858-8.358-13.88-13.719-23.755-13.719h-50 c-7.131,0-13.635,2.729-18.527,7.197c-4.111-4.422-9.973-7.197-16.473-7.197c-12.406,0-22.5,10.094-22.5,22.5v20 c0,12.406,10.094,22.5,22.5,22.5c2.629,0,5.153-0.458,7.5-1.29v31.047c-8.43,10.405-13.503,22.874-14.717,36.241l-15.252,167.823 c-0.191,2.099,0.51,4.181,1.931,5.736s3.431,2.442,5.538,2.442c13.55,0,26.646-4.295,37.5-12.202v29.297l-24.872,8.29 c-3.93,1.31-6.053,5.558-4.743,9.487c1.048,3.143,3.974,5.13,7.114,5.13c0.786,0,1.586-0.125,2.373-0.387l30-10 c3.063-1.021,5.128-3.887,5.128-7.115v-26.606c7.128,2.69,14.738,4.106,22.5,4.106s15.372-1.416,22.5-4.106V494.5 c0,3.229,2.065,6.095,5.128,7.115l30,10c0.787,0.262,1.587,0.387,2.373,0.387c3.14,0,6.066-1.987,7.114-5.13 c1.31-3.93-0.813-8.178-4.743-9.487l-24.872-8.29v-29.297c10.854,7.907,23.95,12.202,37.5,12.202c2.107,0,4.117-0.887,5.538-2.442 s2.122-3.638,1.931-5.736l-13.582-149.45c1.981,0.408,4.025,0.629,6.113,0.629c10.491,0,19.931-5.362,25.329-13.896 c2.129,0.471,4.311,0.712,6.498,0.712c8.011,0,15.542-3.119,21.205-8.783c7.414-7.413,10.299-17.869,8.091-27.716 C483.147,259.917,488.501,250.483,488.501,240z M313.501,180h50c1.819,0,3.572,0.409,5.165,1.139 c-3.002,1.447-5.772,3.402-8.197,5.828c-2.4,2.399-4.317,5.12-5.748,8.033h-53.72v-2.5C301.001,185.607,306.608,180,313.501,180z M352.378,214.683c-8.523,5.4-13.877,14.834-13.877,25.317c0,5.42,1.441,10.553,4.001,15h-41.501v-45h50.725 C351.823,211.566,352.03,213.132,352.378,214.683z M278.501,215c-4.136,0-7.5-3.364-7.5-7.5v-20c0-4.136,3.364-7.5,7.5-7.5 s7.5,3.364,7.5,7.5v20C286.001,211.636,282.637,215,278.501,215z M381.004,444.577c-2.848-2.549-7.158-2.549-10.006,0 C362.051,452.588,350.51,457,338.501,457s-23.55-4.412-32.497-12.423c-2.848-2.549-7.158-2.549-10.006,0 c-6.866,6.147-15.261,10.176-24.221,11.717l14.444-158.938c0.912-10.042,4.64-19.431,10.812-27.355h54.693 c-0.521,8.382,2.496,16.787,8.742,23.032c5.664,5.665,13.195,8.784,21.207,8.784c2.187,0,4.368-0.241,6.497-0.712 c0.985,1.557,2.108,3.006,3.344,4.338l13.709,150.851C396.265,454.753,387.87,450.725,381.004,444.577z M463.029,254.301 c-2.111,0.668-3.82,2.235-4.667,4.281c-0.848,2.046-0.748,4.362,0.273,6.328c3.028,5.829,1.94,12.868-2.709,17.517 c-2.831,2.831-6.595,4.391-10.6,4.39c-2.406,0-4.798-0.581-6.916-1.682c-1.966-1.021-4.282-1.122-6.328-0.273 c-2.046,0.847-3.613,2.556-4.281,4.667c-1.98,6.264-7.728,10.472-14.301,10.472c-3.642,0-7.027-1.296-9.662-3.513 c-0.125-0.117-0.251-0.233-0.384-0.341c-1.932-1.743-3.426-3.997-4.255-6.617c-0.668-2.111-2.235-3.82-4.281-4.667 c-0.921-0.382-1.896-0.571-2.87-0.571c-1.189,0-2.377,0.283-3.458,0.845c-2.118,1.101-4.51,1.682-6.916,1.682 c-4.005,0-7.769-1.559-10.601-4.391c-4.446-4.445-5.625-11.076-3.07-16.745c0.013-0.028,0.031-0.052,0.043-0.08l0.093-0.204 c0.071-0.159,0.14-0.319,0.22-0.475c0.134-0.262,0.241-0.502,0.336-0.744c0.022-0.056,0.038-0.114,0.058-0.171 c0.071-0.195,0.137-0.391,0.191-0.588c0.018-0.065,0.03-0.132,0.046-0.198c0.047-0.191,0.089-0.382,0.12-0.575 c0.012-0.073,0.019-0.147,0.028-0.221c0.024-0.185,0.044-0.37,0.054-0.555c0.005-0.083,0.006-0.165,0.008-0.248 c0.004-0.176,0.003-0.351-0.006-0.526c-0.004-0.09-0.01-0.18-0.018-0.27c-0.014-0.168-0.035-0.334-0.06-0.5 c-0.014-0.094-0.028-0.187-0.046-0.281c-0.032-0.167-0.072-0.332-0.115-0.497c-0.023-0.086-0.042-0.173-0.068-0.259 c-0.059-0.195-0.128-0.387-0.203-0.577c-0.017-0.044-0.028-0.089-0.046-0.132c-0.113-0.266-0.227-0.506-0.355-0.74 c-0.141-0.251-0.272-0.46-0.413-0.664c-0.035-0.051-0.075-0.099-0.111-0.149c-0.117-0.16-0.238-0.318-0.369-0.469 c-0.05-0.058-0.102-0.112-0.154-0.168c-0.123-0.135-0.25-0.266-0.384-0.393c-0.065-0.061-0.132-0.119-0.198-0.178 c-0.125-0.11-0.254-0.216-0.388-0.319c-0.083-0.064-0.168-0.125-0.254-0.186c-0.123-0.086-0.249-0.168-0.378-0.248 c-0.102-0.063-0.205-0.124-0.31-0.182c-0.053-0.029-0.101-0.063-0.155-0.091c-0.056-0.029-0.114-0.047-0.17-0.075 c-0.178-0.087-0.359-0.166-0.545-0.24c-0.111-0.044-0.221-0.088-0.332-0.126c-0.051-0.017-0.099-0.041-0.151-0.057 c-6.264-1.98-10.472-7.728-10.472-14.301s4.208-12.32,10.472-14.301c2.111-0.668,3.82-2.235,4.667-4.281 c0.848-2.046,0.748-4.362-0.273-6.328c-1.686-3.246-2.093-6.866-1.322-10.241c0.094-0.284,0.174-0.574,0.234-0.873 c0.691-2.359,1.962-4.568,3.797-6.403c2.83-2.831,6.595-4.39,10.6-4.39c2.406,0,4.798,0.582,6.917,1.682 c1.966,1.021,4.281,1.121,6.327,0.273s3.613-2.556,4.281-4.667c1.98-6.264,7.728-10.472,14.301-10.472s12.32,4.208,14.301,10.472 c0.668,2.111,2.235,3.819,4.281,4.667s4.361,0.748,6.327-0.273c2.119-1.1,4.511-1.682,6.917-1.682c4.005,0,7.77,1.559,10.601,4.391 c4.648,4.647,5.736,11.687,2.708,17.516c-1.021,1.966-1.121,4.282-0.273,6.328c0.847,2.046,2.556,3.613,4.667,4.281 c6.264,1.98,10.472,7.728,10.472,14.301S469.293,252.32,463.029,254.301z" fill="#FFFFFF"/><path d="M173.501,150c28.948,0,52.5-23.552,52.5-52.5c0-20.41-11.715-38.124-28.767-46.806 c6.922-6.399,11.267-15.547,11.267-25.694c0-13.785-11.215-25-25-25c-3.477,0-6.865,0.714-10,2.088 c-3.135-1.374-6.523-2.088-10-2.088c-13.785,0-25,11.215-25,25c0,10.147,4.345,19.296,11.267,25.694 c-17.052,8.682-28.767,26.396-28.767,46.806C121.001,126.448,144.553,150,173.501,150z M153.501,25c0-5.514,4.486-10,10-10 c2.047,0,4.021,0.622,5.707,1.8c2.58,1.799,6.006,1.799,8.586,0c1.687-1.178,3.66-1.8,5.707-1.8c5.514,0,10,4.486,10,10 c0,11.028-8.972,20-20,20S153.501,36.028,153.501,25z M173.501,60c20.678,0,37.5,16.822,37.5,37.5s-16.822,37.5-37.5,37.5 s-37.5-16.822-37.5-37.5S152.823,60,173.501,60z" fill="#FFFFFF"/><path d="M235.873,497.385l-24.872-8.29v-80.501c18.076-12.124,30-32.74,30-56.094v-160c0-15.163-12.337-27.5-27.5-27.5h-80 c-12.563,0-23.178,8.472-26.452,20H46.001c-4.136,0-7.5-3.364-7.5-7.5s3.364-7.5,7.5-7.5h15c4.143,0,7.5-3.357,7.5-7.5 s-3.357-7.5-7.5-7.5h-15c-12.406,0-22.5,10.094-22.5,22.5s10.094,22.5,22.5,22.5h60v152.5c0,23.353,11.924,43.97,30,56.094v80.501 l-24.872,8.29c-3.93,1.31-6.053,5.558-4.743,9.487c1.048,3.143,3.974,5.13,7.114,5.13c0.786,0,1.586-0.125,2.373-0.387l30-10 c3.063-1.021,5.128-3.887,5.128-7.115v-78.37c7.042,2.498,14.612,3.87,22.5,3.87s15.458-1.373,22.5-3.87v78.37 c0,3.229,2.065,6.095,5.128,7.115l30,10c0.787,0.262,1.587,0.387,2.373,0.387c3.141,0,6.066-1.987,7.114-5.13 C241.926,502.942,239.803,498.694,235.873,497.385z M173.501,270c4.143,0,7.5-3.357,7.5-7.5V180h15v105h-45V180h15v82.5 C166.001,266.643,169.358,270,173.501,270z M151.001,300h45v22.489c-6.47,4.862-14.344,7.511-22.5,7.511s-16.03-2.65-22.5-7.511 V300z M226.001,192.5v160c0,14.269-5.73,27.219-15,36.692V180h2.5C220.394,180,226.001,185.607,226.001,192.5z M121.001,352.5 V192.635c0.001-0.046,0.007-0.09,0.007-0.135c0-0.023-0.003-0.045-0.003-0.068c0.037-6.861,5.627-12.432,12.497-12.432h2.5v209.192 C126.731,379.719,121.001,366.769,121.001,352.5z M173.501,405c-8.048,0-15.676-1.825-22.5-5.076v-60 c6.973,3.312,14.642,5.076,22.5,5.076s15.527-1.764,22.5-5.076v60C189.177,403.175,181.549,405,173.501,405z" fill="#FFFFFF"/><path d="M46.001,140c12.406,0,22.5-10.094,22.5-22.5c0-9.777-6.271-18.114-15-21.21V92.5c0-4.143-3.357-7.5-7.5-7.5 s-7.5,3.357-7.5,7.5v3.79c-8.729,3.096-15,11.433-15,21.21C23.501,129.906,33.595,140,46.001,140z M46.001,110 c4.136,0,7.5,3.364,7.5,7.5s-3.364,7.5-7.5,7.5s-7.5-3.364-7.5-7.5S41.865,110,46.001,110z" fill="#FFFFFF"/></symbol><symbol id="love-and-romance-1" viewBox="0 0 512 512"><title>love-and-romance-1</title><path d="M252.474,93.868c1.102,0.587,2.314,0.881,3.526,0.881s2.424-0.294,3.526-0.881C261.138,93.01,299,72.496,299,42.34 c0-15.214-12.389-27.591-27.617-27.591c-5.546,0-10.881,1.656-15.383,4.681c-4.502-3.024-9.837-4.681-15.383-4.681 C225.389,14.749,213,27.126,213,42.34C213,72.496,250.862,93.01,252.474,93.868z M240.617,29.749c3.724,0,7.241,1.638,9.651,4.494 c1.425,1.688,3.522,2.663,5.732,2.663s4.307-0.975,5.732-2.663c2.41-2.856,5.928-4.494,9.651-4.494 c6.957,0,12.617,5.648,12.617,12.591c0,15.525-17.818,29.874-28,36.231c-10.182-6.357-28-20.706-28-36.231 C228,35.397,233.66,29.749,240.617,29.749z" fill="#FFFFFF"/><path d="M32.5,184.749c8.102,0,15.803-3.021,21.702-8.314c8.173,5.252,17.881,8.314,28.298,8.314c28.949,0,52.5-23.552,52.5-52.5 s-23.551-52.5-52.5-52.5c-24.65,0-45.375,17.081-50.99,40.025C14.047,120.301,0,134.66,0,152.249 C0,170.17,14.58,184.749,32.5,184.749z M119.151,124.329c-20.153-2-38.579-11.212-52.296-26.147 c4.766-2.198,10.063-3.433,15.646-3.433C100.46,94.749,115.505,107.443,119.151,124.329z M54.699,107.11 c16.692,18.803,39.576,30.244,64.607,32.299c-3.352,17.264-18.577,30.34-36.806,30.34c-20.678,0-37.5-16.822-37.5-37.5 C45,122.586,48.675,113.766,54.699,107.11z M30.068,134.938c0.609,12.005,5.28,22.95,12.649,31.51 c-2.94,2.115-6.499,3.301-10.217,3.301c-9.649,0-17.5-7.851-17.5-17.5C15,143.427,21.569,136.128,30.068,134.938z" fill="#FFFFFF"/><path d="M504.5,207.249c-4.142,0-7.5,3.357-7.5,7.5v150h-30.808c9.745-9.537,15.808-22.821,15.808-37.5v-100 c0-15.163-12.336-27.5-27.5-27.5h-50c-15.164,0-27.5,12.337-27.5,27.5v62.5h-45v-82.5c0-4.143-3.358-7.5-7.5-7.5 s-7.5,3.357-7.5,7.5v82.5h-31.02c4.719-6.272,7.52-14.064,7.52-22.5c0-11.831-5.652-22.958-15-29.989v-25.011 c0-4.143-3.358-7.5-7.5-7.5h-7.5v-31.048c11.528-3.274,20-13.889,20-26.452v-25c0-4.143-3.358-7.5-7.5-7.5 c-7.132,0-14.049,2.022-20,5.779c-5.951-3.757-12.868-5.779-20-5.779c-4.142,0-7.5,3.357-7.5,7.5v25 c0,12.563,8.472,23.178,20,26.452v31.048H241c-4.142,0-7.5,3.357-7.5,7.5v25.011c-9.348,7.031-15,18.158-15,29.989 c0,8.436,2.801,16.228,7.52,22.5H195v-82.5c0-4.143-3.358-7.5-7.5-7.5s-7.5,3.357-7.5,7.5v82.5h-45v-62.5 c0-15.163-12.336-27.5-27.5-27.5h-50c-15.164,0-27.5,12.337-27.5,27.5v100c0,14.679,6.063,27.963,15.808,37.5H15v-150 c0-4.143-3.358-7.5-7.5-7.5s-7.5,3.357-7.5,7.5v275c0,4.143,3.358,7.5,7.5,7.5s7.5-3.357,7.5-7.5v-80h105v80 c0,4.143,3.358,7.5,7.5,7.5s7.5-3.357,7.5-7.5v-80.747c6.866-1.378,13.143-4.629,18.2-9.411c5.056,4.782,11.333,8.033,18.2,9.411 v70.747c0,3.185,2.012,6.022,5.017,7.077l28.5,10c0.821,0.288,1.659,0.425,2.483,0.425c3.096,0,5.994-1.932,7.077-5.019 c1.371-3.909-0.686-8.189-4.594-9.561l-23.483-8.239v-65.431c6.866-1.378,13.143-4.629,18.2-9.411 c6.851,6.479,15.937,10.158,25.7,10.158s18.85-3.68,25.7-10.158c6.851,6.479,15.938,10.158,25.7,10.158 c9.764,0,18.85-3.68,25.7-10.158c5.057,4.782,11.334,8.033,18.2,9.411v65.431l-23.483,8.239c-3.909,1.371-5.965,5.651-4.594,9.561 c1.083,3.087,3.981,5.019,7.077,5.019c0.824,0,1.662-0.137,2.483-0.425l28.5-10c3.005-1.055,5.017-3.893,5.017-7.077v-70.747 c6.866-1.378,13.143-4.629,18.2-9.411c5.056,4.782,11.333,8.033,18.2,9.411v80.747c0,4.143,3.358,7.5,7.5,7.5s7.5-3.357,7.5-7.5 v-80h105v80c0,4.143,3.358,7.5,7.5,7.5s7.5-3.357,7.5-7.5v-275C512,210.606,508.642,207.249,504.5,207.249z M243.5,147.249v-16.215 c2.741,0.97,5.29,2.471,7.497,4.447c2.848,2.548,7.157,2.549,10.005,0c2.207-1.976,4.756-3.478,7.498-4.447v16.215 c0,6.893-5.607,12.5-12.5,12.5S243.5,154.142,243.5,147.249z M392,364.749v-30h74.245c-3.484,17.096-18.635,30-36.745,30H392z M392,227.249c0-6.893,5.607-12.5,12.5-12.5h50c6.893,0,12.5,5.607,12.5,12.5v92.5h-75V227.249z M233.5,267.249 c0-8.001,4.313-15.467,11.256-19.485c2.317-1.341,3.744-3.814,3.744-6.491v-21.523h15v21.523c0,2.677,1.427,5.15,3.744,6.491 c6.943,4.019,11.256,11.484,11.256,19.485c0,12.406-10.093,22.5-22.5,22.5S233.5,279.655,233.5,267.249z M45,327.249v-100 c0-6.893,5.607-12.5,12.5-12.5h50c6.893,0,12.5,5.607,12.5,12.5v137.5H82.5C61.822,364.749,45,347.927,45,327.249z M15,394.749v-15 h105v15H15z M365.221,383.854c-1.358-2.249-3.793-3.624-6.421-3.624c-2.627,0-5.063,1.375-6.42,3.624 c-4.119,6.822-11.327,10.896-19.28,10.896c-7.954,0-15.161-4.073-19.279-10.896c-1.358-2.249-3.794-3.624-6.421-3.624 c-2.627,0-5.063,1.375-6.421,3.624c-4.118,6.822-11.325,10.896-19.279,10.896c-7.953,0-15.161-4.073-19.279-10.896 c-1.358-2.249-3.794-3.624-6.421-3.624c-2.627,0-5.063,1.375-6.421,3.624c-4.118,6.822-11.325,10.896-19.279,10.896 s-15.161-4.073-19.279-10.896c-1.358-2.249-3.793-3.624-6.421-3.624s-5.063,1.375-6.421,3.624 c-4.118,6.822-11.326,10.896-19.279,10.896s-15.161-4.073-19.279-10.896c-1.358-2.249-3.793-3.624-6.421-3.624 c-2.627,0-5.063,1.375-6.42,3.624c-2.768,4.584-6.934,7.919-11.78,9.619v-88.724h242v22.49c0,0.02,0,66.234,0,66.234 C372.154,391.773,367.988,388.438,365.221,383.854z M392,394.749v-15h105v15H392z" fill="#FFFFFF"/><path d="M429.5,184.749c28.949,0,52.5-23.552,52.5-52.5s-23.551-52.5-52.5-52.5s-52.5,23.552-52.5,52.5 S400.551,184.749,429.5,184.749z M429.5,94.749c20.678,0,37.5,16.822,37.5,37.5s-16.822,37.5-37.5,37.5s-37.5-16.822-37.5-37.5 S408.822,94.749,429.5,94.749z" fill="#FFFFFF"/><path d="M187.5,184.749c4.142,0,7.5-3.357,7.5-7.5v-15c0-4.143-3.358-7.5-7.5-7.5s-7.5,3.357-7.5,7.5v15 C180,181.392,183.358,184.749,187.5,184.749z" fill="#FFFFFF"/><path d="M324.5,184.749c4.142,0,7.5-3.357,7.5-7.5v-15c0-4.143-3.358-7.5-7.5-7.5s-7.5,3.357-7.5,7.5v15 C317,181.392,320.358,184.749,324.5,184.749z" fill="#FFFFFF"/></symbol><symbol id="phone" viewBox="0 0 512.002 512.002"><title>phone</title><circle cx="226.001" cy="322.5" r="7.5" fill="#FFFFFF"/><circle cx="226.001" cy="292.5" r="7.5" fill="#FFFFFF"/><circle cx="286.001" cy="322.5" r="7.5" fill="#FFFFFF"/><circle cx="286.001" cy="292.5" r="7.5" fill="#FFFFFF"/><path d="M85.501,72.5h-15c-4.142,0-7.5,3.358-7.5,7.5s3.358,7.5,7.5,7.5h15c4.142,0,7.5-3.358,7.5-7.5S89.643,72.5,85.501,72.5z" fill="#FFFFFF"/><path d="M85.501,102.5h-15c-4.142,0-7.5,3.358-7.5,7.5s3.358,7.5,7.5,7.5h15c4.142,0,7.5-3.358,7.5-7.5S89.643,102.5,85.501,102.5z " fill="#FFFFFF"/><path d="M85.501,42.5h-15c-4.142,0-7.5,3.358-7.5,7.5s3.358,7.5,7.5,7.5h15c4.142,0,7.5-3.358,7.5-7.5S89.643,42.5,85.501,42.5z" fill="#FFFFFF"/><circle cx="145.501" cy="58.324" r="7.5" fill="#FFFFFF"/><path d="M115.501,140.825h60c4.142,0,7.5-3.358,7.5-7.5v-105c0-4.142-3.358-7.5-7.5-7.5h-60c-4.142,0-7.5,3.358-7.5,7.5v105 C108.001,137.467,111.359,140.825,115.501,140.825z M123.001,35.825h45v90h-45V35.825z" fill="#FFFFFF"/><path d="M256.001,150c28.948,0,52.5-23.551,52.5-52.5c0-20.41-11.715-38.124-28.767-46.806 c6.922-6.399,11.267-15.547,11.267-25.694c0-13.785-11.215-25-25-25c-3.477,0-6.865,0.713-10,2.088 c-3.135-1.375-6.524-2.088-10-2.088c-13.785,0-25,11.215-25,25c0,10.147,4.344,19.296,11.266,25.694 c-17.052,8.682-28.766,26.396-28.766,46.806C203.501,126.449,227.052,150,256.001,150z M236.001,25c0-5.514,4.486-10,10-10 c2.047,0,4.021,0.622,5.707,1.799c2.579,1.801,6.008,1.801,8.586,0c1.687-1.177,3.66-1.799,5.707-1.799c5.514,0,10,4.486,10,10 c0,11.028-8.972,20-20,20C244.973,45,236.001,36.028,236.001,25z M292.652,89.58c-20.154-2-38.58-11.212-52.297-26.146 C245.12,61.236,250.418,60,256.001,60C273.961,60,289.006,72.694,292.652,89.58z M228.2,72.361 c16.692,18.803,39.576,30.244,64.607,32.298C289.455,121.924,274.23,135,256.001,135c-20.678,0-37.5-16.822-37.5-37.5 C218.501,87.837,222.176,79.017,228.2,72.361z" fill="#FFFFFF"/><path d="M406.001,95c-4.143,0-7.5,3.358-7.5,7.5c0,43.344-33.605,78.961-76.125,82.229c-3.362-11.39-13.91-19.729-26.375-19.729 h-80c-12.559,0-23.171,8.466-26.448,19.988l-59.052-0.113c-4.136,0-7.5-3.364-7.5-7.5s3.364-7.5,7.5-7.5h15 c4.142,0,7.5-3.358,7.5-7.5s-3.358-7.5-7.5-7.5h-15c-12.407,0-22.5,10.093-22.5,22.5s10.093,22.5,22.486,22.5 c0,0,40.818,0.078,58.014,0.111v36.943c0,0.332,0.022,0.663,0.066,0.991c1.271,9.541,5.614,18.497,12.202,25.461 c-7.953,11.313-12.268,24.835-12.268,38.784V352.5c0,4.142,3.358,7.5,7.5,7.5h22.5v129.094l-24.872,8.291 c-3.93,1.31-6.053,5.557-4.744,9.487c1.048,3.143,3.974,5.13,7.114,5.13c0.786,0,1.586-0.125,2.373-0.387l30-10 c3.063-1.021,5.128-3.887,5.128-7.115V360h45v134.5c0,3.228,2.065,6.094,5.128,7.115l30,10c0.787,0.262,1.587,0.387,2.373,0.387 c3.141,0,6.066-1.988,7.114-5.13c1.31-3.93-0.814-8.177-4.743-9.487l-24.872-8.291V360h22.5c4.143,0,7.5-3.358,7.5-7.5v-50.335 c0-13.949-4.314-27.472-12.268-38.784c6.588-6.965,10.931-15.921,12.202-25.461c0.044-0.328,0.065-0.659,0.065-0.991v-37.215 c50.271-3.842,90-45.976,90-97.214C413.501,98.358,410.144,95,406.001,95z M308.501,345h-105v-42.835 c0-11.686,3.905-22.982,11.039-32.165h82.923c7.133,9.184,11.038,20.479,11.038,32.165V345z M308.501,236.404 c-1.069,7.162-4.725,13.8-10.172,18.596h-84.656c-5.447-4.796-9.102-11.434-10.172-18.596V192.5c0-6.893,5.607-12.5,12.5-12.5h80 c6.893,0,12.5,5.607,12.5,12.5V236.404z" fill="#FFFFFF"/><path d="M421.385,0c-5.546,0-10.881,1.657-15.384,4.681C401.498,1.657,396.163,0,390.617,0c-15.228,0-27.616,12.377-27.616,27.591 c0,30.157,37.862,50.67,39.475,51.528c1.102,0.587,2.313,0.88,3.525,0.88s2.424-0.293,3.525-0.88 c1.612-0.858,39.475-21.372,39.475-51.528C449.001,12.377,436.612,0,421.385,0z M406.001,63.822c-10.182-6.356-28-20.704-28-36.231 c0-6.943,5.659-12.591,12.616-12.591c3.724,0,7.241,1.638,9.652,4.495c1.425,1.689,3.521,2.663,5.731,2.663 s4.307-0.974,5.731-2.663c2.411-2.856,5.929-4.495,9.652-4.495c6.957,0,12.616,5.648,12.616,12.591 C434.001,43.118,416.183,57.466,406.001,63.822z" fill="#FFFFFF"/></symbol></svg>